<?xml version="1.0" encoding="utf-8"?>
<!-- Generator: Adobe Illustrator 16.0.0, SVG Export Plug-In . SVG Version: 6.00 Build 0)  -->
<!DOCTYPE svg PUBLIC "-//W3C//DTD SVG 1.1//EN" "http://www.w3.org/Graphics/SVG/1.1/DTD/svg11.dtd">
<svg version="1.1" id="Layer_1_copy_2" xmlns="http://www.w3.org/2000/svg" xmlns:xlink="http://www.w3.org/1999/xlink" x="0px"
	 y="0px" width="24px" height="24px" viewBox="0 0 24 24" enable-background="new 0 0 24 24" xml:space="preserve">
<g>
	<path fill-rule="evenodd" clip-rule="evenodd" fill="#0572CE" d="M11.946,2.01c5.513,0,10.08,4.476,10.08,9.996
		c0,5.522-4.566,9.996-10.08,9.996C11.946,17.4,11.93,2.01,11.946,2.01z"/>
</g>
<path fill-rule="evenodd" clip-rule="evenodd" fill="#878C90" d="M12.002,2.013c-5.512,0-9.98,4.476-9.98,9.996
	c0,5.521,4.468,9.997,9.98,9.997C12.002,17.656,12.018,2.013,12.002,2.013z"/>
<path fill-rule="evenodd" clip-rule="evenodd" fill="#FFFFFF" d="M18.374,7.983L17.76,7.368c-0.339-0.34-0.889-0.34-1.229,0
	l-6.586,6.596l-2.697-2.702c-0.339-0.339-0.889-0.339-1.229,0l-0.614,0.616c-0.339,0.34-0.339,0.891,0,1.232l4.602,4.563l8.368-8.46
	C18.713,8.874,18.713,8.323,18.374,7.983z"/>
</svg>
