<?xml version="1.0" encoding="utf-8"?>
<!-- Generator: Adobe Illustrator 16.0.3, SVG Export Plug-In . SVG Version: 6.00 Build 0)  -->
<!DOCTYPE svg PUBLIC "-//W3C//DTD SVG 1.1//EN" "http://www.w3.org/Graphics/SVG/1.1/DTD/svg11.dtd">
<svg version="1.1" id="Layer_1" xmlns="http://www.w3.org/2000/svg" xmlns:xlink="http://www.w3.org/1999/xlink" x="0px" y="0px"
	 width="44px" height="44px" viewBox="0 0 44 44" enable-background="new 0 0 44 44" xml:space="preserve">
<path fill="#98ACC5" d="M37.21,13.415h-0.627v22.579c0,0,0.104,0.192-0.161,0.427c-0.125,0.11-0.212,0.149-0.273,0.163h-0.096
	c-0.001-0.001-0.006-0.002-0.006-0.002H24.584h-5.909h-6.258v1.026v0.002c0,4.812,0.278,5.808,5.207,5.808h18.844
	c0.049,0,0.091-0.002,0.139-0.002h0.604c4.928,0,5.207-0.996,5.207-5.805V37.61v-0.002v-1.024V19.222
	C42.417,14.411,42.139,13.415,37.21,13.415z"/>
<path fill="#E1E2E8" d="M36.583,14.92v18.329c0,0,0.054,1.479-0.739,2.469c-0.628,0.785-2.065,0.86-2.522,0.864h-0.154h-8.584v0.837
	H13.921c0.041,3.702,0.509,4.497,4.685,4.497h0.666h16.292h0.666c4.438,0,4.688-0.896,4.688-5.226v-0.108v-16.44
	C40.917,15.935,40.668,14.972,36.583,14.92z"/>
<path fill="#78879E" d="M32.21,7.416h-0.627l0.25,23.329L7.417,30.583v1.026v0.002c0,4.812,0.278,5.808,5.207,5.808h18.844
	c0.049,0,0.091-0.002,0.139-0.002h0.604c4.928,0,5.207-0.996,5.207-5.805v-0.001v-0.002v-1.024V13.223
	C37.417,8.412,37.139,7.416,32.21,7.416z"/>
<path fill="#D5D9E4" d="M31.583,8.921V27.25c0,0,0.054,1.479-0.739,2.469c-0.628,0.785-2.065,0.86-2.522,0.864h-0.154h-2.084h-9.416
	h-0.154H8.917v0.108c0,4.33,0.251,5.226,4.688,5.226h0.666h16.292h0.666c4.438,0,4.688-0.896,4.688-5.226v-0.108v-16.44
	C35.917,9.936,35.668,8.973,31.583,8.921z"/>
<g id="transparency">
	<rect x="31.083" y="0.583" opacity="0.04" fill="#D8E4F2" enable-background="new    " width="1" height="30"/>
	<rect x="1.583" y="29.489" opacity="0.04" fill="#D8E4F2" enable-background="new    " width="30" height="1"/>
</g>        
</svg>
