<svg xmlns="http://www.w3.org/2000/svg" class="svg-bkgd09" viewBox="0 0 48 48"><g><path class="svg-shortcut" d="M28 42.5l-3 2.7v-1.7c-.4 0-1.4 0-2.5.6-1.3 1-1.5 1.6-1.5 1.6s-.4-1.2.8-2.7c1.2-1.6 2.6-1.7 3.2-1.6v-1.6l3 2.7z"/></g><g><path class="svg-cluster" d="M28.5 41.3c.6 0 1.2.5 1.2 1.2s-.6 1.2-1.2 1.2-1.2-.5-1.2-1.2.5-1.2 1.2-1.2zm-4 0c.6 0 1.2.5 1.2 1.2s-.6 1.2-1.2 1.2c-.7 0-1.2-.5-1.2-1.2s.5-1.2 1.2-1.2zm-4 0c.7 0 1.2.5 1.2 1.2s-.5 1.2-1.2 1.2-1.2-.5-1.2-1.2.5-1.2 1.2-1.2z"/></g><g><path class="svg-icon03" d="M14 31.5L12 33h7l-2-5.5-1.4 2c-1-1.4-1.7-2-1.7-3.6v-1h-3v1c0 2.5 1 4.2 3 5.5zm18 2c-.2.3-.6.4-1 .5l-1-2 .8-.3c1.4-.7 2-1.7 2.7-3l-2.2-.4 4-3.3 2.7 4.4-2-.2c-.2 2-1.8 3.5-4 4.4zm-3-21l1 .7-1.2 2.6-.7-.5c-1.4-.8-3-1-4.5-.6l1 2.3-5.5-1.3 3-5.7.6 2.2c2-1 4.4-.8 6.4.4z"/></g><g><path class="svg-icon04" d="M33.5 16c-2 0-3.5 1.6-3.5 3.5 0 2 1.6 3.5 3.5 3.5s3.5-1.6 3.5-3.5c0-2-1.6-3.5-3.5-3.5zM18 19.5c0 2-1.6 3.5-3.5 3.5-2 0-3.5-1.6-3.5-3.5 0-2 1.6-3.5 3.5-3.5 2 0 3.5 1.6 3.5 3.5zm10 15c0 2-1.6 3.5-3.5 3.5-2 0-3.5-1.6-3.5-3.5 0-2 1.6-3.5 3.5-3.5 2 0 3.5 1.6 3.5 3.5z"/></g><g><path class="svg-icon05" d="M19 29h10v-1h-1v-1h-1v-4h-1v4h-1v-4h-2v4h-1v-4h-1v4h-1v1h-1v1z"/></g><g><path class="svg-icon03" d="M20 22h8v-1l-4-2-4 2v1z"/></g></svg>