<svg xmlns="http://www.w3.org/2000/svg" class="svg-bkgd07" viewBox="0 0 48 48"><g><path class="svg-shortcut" d="M28 42.5l-3 2.7v-1.7c-.4 0-1.4 0-2.5.6-1.3 1-1.5 1.6-1.5 1.6s-.4-1.2.8-2.7c1.2-1.6 2.6-1.7 3.2-1.6v-1.6l3 2.7z"/></g><g><path class="svg-cluster" d="M28.5 41.3c.6 0 1.2.5 1.2 1.2s-.6 1.2-1.2 1.2-1.2-.5-1.2-1.2.5-1.2 1.2-1.2zm-4 0c.6 0 1.2.5 1.2 1.2s-.6 1.2-1.2 1.2c-.7 0-1.2-.5-1.2-1.2s.5-1.2 1.2-1.2zm-4 0c.7 0 1.2.5 1.2 1.2s-.5 1.2-1.2 1.2-1.2-.5-1.2-1.2.5-1.2 1.2-1.2z"/></g><g><path class="svg-icon12" d="M33.3 38H14.7c-1 0-1.7-.8-1.7-1.8V11.8c0-1 .8-1.8 1.7-1.8h18.6c1 0 1.7.8 1.7 1.8v24.4c0 1-.8 1.8-1.7 1.8zm-17-2h9.3c.2 0 .4-.4.4-1s-.2-1-.4-1h-9.2c-.2 0-.4.4-.4 1s.2 1 .4 1zm-.3-5c0 .6.2 1 .4 1h9.2c.2 0 .4-.4.4-1s-.2-1-.4-1h-9.2c-.2 0-.4.4-.4 1zm8-19c-1.6 0-3 1.4-3 3 0 1.8 1.4 3 3 3s3-1.3 3-3-1.4-3-3-3zm5 8c0-1-1-1-1-1h-2l-2 4-2-4h-2s-1 0-1 1v6s0 1 1 1h8c1 0 1-1 1-1v-6zm2.6 10h-3.2c-.2 0-.4.4-.4 1s.2 1 .4 1h3.2c.2 0 .4-.4.4-1s-.2-1-.4-1zm0 4h-3.2c-.2 0-.4.4-.4 1s.2 1 .4 1h3.2c.2 0 .4-.4.4-1s-.2-1-.4-1z"/></g></svg>