<svg xmlns="http://www.w3.org/2000/svg" class="svg-bkgd07" viewBox="0 0 48 48"><g><path class="svg-shortcut" d="M28 42.5l-3 2.7v-1.7c-.4 0-1.4 0-2.5.6-1.3 1-1.5 1.6-1.5 1.6s-.4-1.2.8-2.7c1.2-1.6 2.6-1.7 3.2-1.6v-1.6l3 2.7z"/></g><g><path class="svg-cluster" d="M28.5 41.3c.6 0 1.2.5 1.2 1.2s-.6 1.2-1.2 1.2-1.2-.5-1.2-1.2.5-1.2 1.2-1.2zm-4 0c.6 0 1.2.5 1.2 1.2s-.6 1.2-1.2 1.2c-.7 0-1.2-.5-1.2-1.2s.5-1.2 1.2-1.2zm-4 0c.7 0 1.2.5 1.2 1.2s-.5 1.2-1.2 1.2-1.2-.5-1.2-1.2.5-1.2 1.2-1.2z"/></g><g><path class="svg-icon10" d="M15.8 16l3.4 11.5.5-.3s-.6-2.3 2.6-3.8 4.7.4 7.4.4 4.8-1.6 6-3.2c1-1.6 2.3-6 2.3-6l-.8-.2s-1.6 2.2-3 2.2c-3.7 0-9-5.6-13-5.6-6.4 0-5.4 5-5.4 5z"/></g><g><path class="svg-icon18" d="M13.6 14.8s6 19 6.4 21c.5 2.2-3 3.3-3.5 1-.6-2.4-5.8-18.8-6.4-21-.7-2.5 3-3.4 3.6-1z"/></g></svg>