<svg xmlns="http://www.w3.org/2000/svg" class="svg-bkgd11" viewBox="0 0 48 48"><g><path class="svg-shortcut" d="M28 42.5l-3 2.7v-1.7c-.4 0-1.4 0-2.5.6-1.3 1-1.5 1.6-1.5 1.6s-.4-1.2.8-2.7c1.2-1.6 2.6-1.7 3.2-1.6v-1.6l3 2.7z"/></g><g><path class="svg-cluster" d="M28.5 41.3c.6 0 1.2.5 1.2 1.2s-.6 1.2-1.2 1.2-1.2-.5-1.2-1.2.5-1.2 1.2-1.2zm-4 0c.6 0 1.2.5 1.2 1.2s-.6 1.2-1.2 1.2c-.7 0-1.2-.5-1.2-1.2s.5-1.2 1.2-1.2zm-4 0c.7 0 1.2.5 1.2 1.2s-.5 1.2-1.2 1.2-1.2-.5-1.2-1.2.5-1.2 1.2-1.2z"/></g><g><path class="svg-icon18" d="M38 16H10v18.8c0 .7.5 1.2 1.2 1.2H37c.5 0 1-.5 1-1.2V16zm-26 3.2c0-.7.5-1.2 1-1.2h5c.5 0 1 .5 1 1.2v5.6c0 .7-.5 1.2-1 1.2h-5c-.5 0-1-.5-1-1.2v-5.6zM26 33H15v-2h11v2zm0-3H12v-2h14v2zm0-5.2c0 .7-.5 1.2-1 1.2h-4c-.5 0-1-.5-1-1.2v-5.6c0-.7.5-1.2 1-1.2h4c.5 0 1 .5 1 1.2v5.6zm10 8c0 .7-.3 1.2-1 1.2h-7c-.7 0-1-.4-1-1V19c0-.6.5-1 1.2-1h6.6c.7 0 1.2.5 1.2 1.2v13.6z"/></g><g><path class="svg-icon14" d="M18 25v-5h-1v4h-4v1h5zm-4-5h-1v3h1v-3zm2 1h-1v2h1v-2z"/></g><g><path class="svg-icon03" d="M25 20h-4v1h4v-1zm-3 4h3v-1h-3v1z"/></g><g><path class="svg-icon04" d="M31 20c-1 0-2 1-2 2h2v-2zm1 5c1 0 2-1.2 2-2 0-1-1-2-2-2v2h-2c0 1 1 2 2 2zm-3 4h5v-1h-5v1zm0 3h5v-1h-5v1z"/></g><g><path class="svg-icon05" d="M37 12H11c-.7 0-1.2.6-1.2 1.2V15h28v-1.8c0-.6-.5-1.2-1-1.2z"/></g></svg>