<svg xmlns="http://www.w3.org/2000/svg" class="svg-bkgd01" viewBox="0 0 48 48"><g><path class="svg-shortcut" d="M28 42.5l-3 2.7v-1.7c-.4 0-1.4 0-2.5.6-1.3 1-1.5 1.6-1.5 1.6s-.4-1.2.8-2.7c1.2-1.6 2.6-1.7 3.2-1.6v-1.6l3 2.7z"/></g><g><path class="svg-cluster" d="M28.5 41.3c.6 0 1.2.5 1.2 1.2s-.6 1.2-1.2 1.2-1.2-.5-1.2-1.2.5-1.2 1.2-1.2zm-4 0c.6 0 1.2.5 1.2 1.2s-.6 1.2-1.2 1.2c-.7 0-1.2-.5-1.2-1.2s.5-1.2 1.2-1.2zm-4 0c.7 0 1.2.5 1.2 1.2s-.5 1.2-1.2 1.2-1.2-.5-1.2-1.2.5-1.2 1.2-1.2z"/></g><g><path class="svg-icon18" d="M35.3 10H16.7c-1 0-1.7.8-1.7 1.7v6.8c1.3-1 2.8-1.5 4.5-1.5 2 0 3.8.8 5 2h.2v.2c1 .8 1.6 2 2 3l1.6-3.2h2s.7 0 .7 1v5s0 1-1 1h-3c-.3.7-.5 1.4-1 2h7.6c.2 0 .4.8.4 1s-.2 1-.4 1h-9c-.8.7-1.7 1.2-2.7 1.6v.3c0 .2-.2 1-.4 1h-3.2s-.2 0-.2-.3l-2 3.2h19.1c1 0 1.7-.8 1.7-1.7V11.7c0-1-.8-1.7-1.7-1.7zm-8.8 8C25 18 24 17 24 15.5s1-2.5 2.5-2.5 2.5 1 2.5 2.5-1 2.5-2.5 2.5zm7 15h-9c-.3 0-.5-.7-.5-1s.2-1 .4-1h9.2c.2 0 .4.7.4 1s-.2 1-.4 1z"/></g><g><path class="svg-icon12" d="M19.5 19c-3 0-5.5 2.5-5.5 5.5s2.5 5.5 5.5 5.5 5.5-2.5 5.5-5.5-2.5-5.5-5.5-5.5zm0 9c-2 0-3.5-1.6-3.5-3.5 0-2 1.6-3.5 3.5-3.5s3.5 1.6 3.5 3.5c0 2-1.6 3.5-3.5 3.5z"/></g><g><path class="svg-icon15" d="M17 31l-3.7 6.6s-1 .6-1.7.3c-.6-.4-.6-1.5-.6-1.5l4-6.5 2 1z"/></g></svg>