<svg xmlns="http://www.w3.org/2000/svg" class="svg-bkgd08" viewBox="0 0 48 48"><g><path class="svg-shortcut" d="M28 42.5l-3 2.7v-1.7c-.4 0-1.4 0-2.5.6-1.3 1-1.5 1.6-1.5 1.6s-.4-1.2.8-2.7c1.2-1.6 2.6-1.7 3.2-1.6v-1.6l3 2.7z"/></g><g><path class="svg-cluster" d="M28.5 41.3c.6 0 1.2.5 1.2 1.2s-.6 1.2-1.2 1.2-1.2-.5-1.2-1.2.5-1.2 1.2-1.2zm-4 0c.6 0 1.2.5 1.2 1.2s-.6 1.2-1.2 1.2c-.7 0-1.2-.5-1.2-1.2s.5-1.2 1.2-1.2zm-4 0c.7 0 1.2.5 1.2 1.2s-.5 1.2-1.2 1.2-1.2-.5-1.2-1.2.5-1.2 1.2-1.2z"/></g><g><path class="svg-icon08" d="M12 16v16h-.8c-.6 0-1.2-.6-1.2-1.2V15.2c0-.7.6-1.2 1.3-1.2h21.5c.7 0 1.2.5 1.2 1.2v.8H12z"/></g><g><path class="svg-icon02" d="M36.8 18H15.2c-.7 0-1.2.6-1.2 1.3v14.5c0 .7.5 1.2 1.2 1.2h21.6c.7 0 1.2-.5 1.2-1.2V19.3c0-.7-.5-1.3-1.2-1.3zm-4.3 3c1.4 0 2.5 1 2.5 2.5S34 26 32.5 26 30 25 30 23.5s1-2.5 2.5-2.5zM16 32v-2h6v2h-6zm6-4h-6v-2h6v2zm0-4h-6v-2h6v2zm3 8c-.6 0-1-.4-1-1s.4-1 1-1c.5 0 1 .5 1 1s-.5 1-1 1zm-1-5c0-.5.4-1 1-1 .5 0 1 .5 1 1s-.5 1-1 1c-.6 0-1-.4-1-1zm1-3c-.6 0-1-.4-1-1s.4-1 1-1c.5 0 1 .4 1 1s-.5 1-1 1zm11 8c0 .5 0 1-.6 1h-5.8c-.5 0-.6-.5-.6-1v-4c0-.5 0-1 .6-1H31s1 2.7 1.5 2.7C33 29.7 34 27 34 27h1.4c.6 0 .6.5.6 1v4z"/></g></svg>