<svg xmlns="http://www.w3.org/2000/svg" class="svg-bkgd10" viewBox="0 0 48 48"><g><path class="svg-shortcut" d="M28.05 42.5L25 45.2v-1.7c-.44-.1-1.4-.15-2.45.6-1.4 1-1.57 1.47-1.57 1.47s-.4-1.24.8-2.7c1.26-1.54 2.67-1.56 3.23-1.5v-1.63l3.05 2.72z"/></g><g><path class="svg-cluster" d="M28.47 41.3c.65 0 1.2.55 1.2 1.2s-.55 1.2-1.2 1.2-1.2-.54-1.2-1.2.54-1.2 1.2-1.2zm-4 0c.65 0 1.2.55 1.2 1.2s-.55 1.2-1.2 1.2c-.66 0-1.2-.54-1.2-1.2s.54-1.2 1.2-1.2zm-3.97 0c.66 0 1.2.55 1.2 1.2s-.54 1.2-1.2 1.2-1.2-.54-1.2-1.2.54-1.2 1.2-1.2z"/></g><g><path class="svg-icon01" d="M19.17 19.8c2 0 2.94 2.82 1.93 2.96-1 .14-2.58-.5-2.56.35.05 1.55 1.72 1.74 2.73 2 1.38.34 2.8.4 4.17.87.78.27 1.62.73 2.23 1.4.47.55.8 1.37.55 2.15-.28.83-.53 1-1.58 1.7-.85.58-2 .92-2.9 1.35-.57.26-1.65.72-1.6 1.5.04.7 1.72 1.14 1.7 2.04 0 .85-2.02-.5-2.22-.7-2.63-2.6 2.4-4.44 3.78-5.13.46-.23 1.86-.74 1.5-1.62-.36-.88-2.37-1.33-3.1-1.42-1.64-.2-1.5-.24-2.6-.46-1.36-.28-3.04-.6-4.04-1.85-.85-1.08-1.33-2-.88-3.14.4-1.03 1.03-1.97 2.9-1.97zm12.55 1.98c.45 1.15.07 2.06-.78 3.14-1 1.26-2.68 1.57-4.04 1.85-1.1.22-.96.25-2.6.46-.73.1-2.84.54-3.2 1.42-.35.88 1.14 1.4 1.6 1.62 1.4.7 6.4 2.52 3.78 5.13-.2.2-2.2 1.55-2.23.7 0-.9 1.63-1.34 1.67-2.03.05-.78-1-1.24-1.55-1.5-.9-.43-2.06-.77-2.9-1.34-1.06-.7-1.3-.9-1.6-1.7-.25-.8.1-1.62.56-2.15.6-.7 1.45-1.14 2.24-1.4 1.36-.47 2.78-.54 4.16-.9 1-.24 2.68-.43 2.73-1.97.02-.83-1.65-.2-2.66-.34-1-.14-.07-2.95 1.93-2.95 1.86 0 2.5.95 2.9 1.98zm-5.8-9.82c0 1.16-.8 1.96-1.92 1.96-1.1 0-1.93-.8-1.93-1.96S22.9 10 24 10c1.1 0 1.93.8 1.93 1.96zM24.65 38h-1.28l-.32-24.08.53-1.08h.8l.6 1.08L24.64 38zM24 20.8c-.72-2.22-4.54-3.06-4.83-2.95-1.42.57-3.2 1.15-4.83.98-3.42-.35-4.52-5.12-4.35-5.06 2.58 1 4.8 2.16 7.24.16.82-.67 1.5-1.4 2.48-1.77 1.35-.5 1.48.76 1.5 1.86 0 .34-.02.57.18.86.22.36.7.72 1.1.8.13.02 1.5.5 1.5.2 0 .55.1 4.38 0 4.92zm0-4.9c0 .27 1.37-.2 1.5-.22.4-.08.88-.44 1.1-.8.2-.3.2-.52.2-.86 0-1.1.13-2.36 1.48-1.87 1 .37 1.66 1.1 2.48 1.77 2.45 2 4.66.86 7.25-.15.18-.06-.92 4.7-4.34 5.06-1.62.17-3.4-.4-4.83-.98-.3-.1-4.1.73-4.83 2.94-.1-.54 0-4.37 0-4.9z"/></g></svg>