<svg xmlns="http://www.w3.org/2000/svg" class="svg-bkgd04" viewBox="0 0 48 48"><g><path class="svg-shortcut" d="M28 42.5l-3 2.7v-1.7c-.4 0-1.4 0-2.5.6-1.3 1-1.5 1.6-1.5 1.6s-.4-1.2.8-2.7c1.2-1.6 2.6-1.7 3.2-1.6v-1.6l3 2.7z"/></g><g><path class="svg-cluster" d="M28.5 41.3c.6 0 1.2.5 1.2 1.2s-.6 1.2-1.2 1.2-1.2-.5-1.2-1.2.5-1.2 1.2-1.2zm-4 0c.6 0 1.2.5 1.2 1.2s-.6 1.2-1.2 1.2c-.7 0-1.2-.5-1.2-1.2s.5-1.2 1.2-1.2zm-4 0c.7 0 1.2.5 1.2 1.2s-.5 1.2-1.2 1.2-1.2-.5-1.2-1.2.5-1.2 1.2-1.2z"/></g><g><path class="svg-icon09" d="M12 33c-1.2-1-2-2.3-2-4h12c0 1.7-.8 3-2 4h-8zm16 0c-1.2-1-2-2.3-2-4h12c0 1.7-.8 3-2 4h-8z"/></g><g><path class="svg-icon01" d="M35.7 28H37l-3.2-8h.3c.6 0 1-.5 1-1 0-.6-.4-1-1-1H27c-.4-1.2-1.5-2-2.8-2s-2.4.8-2.8 2H14c-.6 0-1 .4-1 1 0 .5.4 1 1 1h.3L11 28h1.3l3.3-8h.8l3.3 8H21l-3.2-8h3.4c.4 1.2 1.5 2 2.8 2s2.4-.8 2.8-2h3.5L27 28h1.3l3.3-8h.8l3.3 8z"/></g></svg>