<svg xmlns="http://www.w3.org/2000/svg" class="svg-bkgd12" viewBox="0 0 48 48"><g><path class="svg-shortcut" d="M28 42.5l-3 2.7v-1.7c-.4 0-1.4 0-2.5.6-1.3 1-1.5 1.6-1.5 1.6s-.4-1.2.8-2.7c1.2-1.6 2.6-1.7 3.2-1.6v-1.6l3 2.7z"/></g><g><path class="svg-cluster" d="M28.5 41.3c.6 0 1.2.5 1.2 1.2s-.6 1.2-1.2 1.2-1.2-.5-1.2-1.2.5-1.2 1.2-1.2zm-4 0c.6 0 1.2.5 1.2 1.2s-.6 1.2-1.2 1.2c-.7 0-1.2-.5-1.2-1.2s.5-1.2 1.2-1.2zm-4 0c.7 0 1.2.5 1.2 1.2s-.5 1.2-1.2 1.2-1.2-.5-1.2-1.2.5-1.2 1.2-1.2z"/></g><g><path class="svg-icon15" d="M23 38h9c2.4 0 4-1.2 4-2 0-2.4-2.6-2-7-2 1 0-2.5.6-4 2-3 0-6 .3-6 1 0 .8 1.6 1 4 1z"/></g><g><path class="svg-icon06" d="M12.3 26.5c.5.6 1.2.7 1.8 0l3.2-2.8 1.8.3 1.4 1.4-2.2 3.5c-.2.3-.2 1 0 1.3l1.3 3.8c.2.8.8 1 1.6 1 .8-.2 1.2-.7 1-1.4l-1.2-3.4 2.8-3.7L28 21c.2 0 4 .3 4.5-.7l2.2-2.8c.4-.4.5-1 .2-1.3-.3-.3-1-.4-1.4 0L31.4 19H29c-1.2 0-2.6-1-3-2v-2l1-4c0-.5 0-1-.5-1-.4 0-1 .2-1.2.7L24 15l-.3 1.6L20 22s-3-1.7-4-.6l-3.6 3.3c-.5.5-.5 1.3 0 1.8zM31 16c0 1-1 2-2 2s-2-1-2-2 1-2 2-2 2 1 2 2z"/></g></svg>