<svg xmlns="http://www.w3.org/2000/svg" class="svg-bkgd09" viewBox="0 0 48 48"><g><path class="svg-shortcut" d="M28 42.5l-3 2.7v-1.7c-.4 0-1.4 0-2.5.6-1.3 1-1.5 1.6-1.5 1.6s-.4-1.2.8-2.7c1.2-1.6 2.6-1.7 3.2-1.6v-1.6l3 2.7z"/></g><g><path class="svg-cluster" d="M28.5 41.3c.6 0 1.2.5 1.2 1.2s-.6 1.2-1.2 1.2-1.2-.5-1.2-1.2.5-1.2 1.2-1.2zm-4 0c.6 0 1.2.5 1.2 1.2s-.6 1.2-1.2 1.2c-.7 0-1.2-.5-1.2-1.2s.5-1.2 1.2-1.2zm-4 0c.7 0 1.2.5 1.2 1.2s-.5 1.2-1.2 1.2-1.2-.5-1.2-1.2.5-1.2 1.2-1.2z"/></g><g><path class="svg-icon02" d="M11 23h7v7h-7v-7zm0-9h7v7h-7v-7z"/></g><g><path class="svg-icon05" d="M35.7 28.8c-2 0-2.7 1.2-2.7 3.2h-7l.3-.6c0-2-1.8-3.8-4-3.8-1.3 0-2.6.4-3.3 1.4V14h2v10h1c0-.2.4 0 .4-.3 0-4.6 1.7-8.3 4-9.4V14H36v9h.7c.7 0 1.3.6 1.3 1.3v5.4c-.6-.5-1.4-1-2.3-1zM34 15h-6c-2.7 0-4.3 4.5-4.3 10v1.3h2s.6-3.3 2-3.3H34v-8zM10 31h8v1h-8v-1zm26-1c1 0 2 1 2 2s-1 2-2 2-2-1-2-2 1-2 2-2zm-13.5-1c1.4 0 2.5 1 2.5 2.5 0 1.4-1 2.5-2.5 2.5S20 33 20 31.5c0-1.4 1-2.5 2.5-2.5z"/></g></svg>