<svg xmlns="http://www.w3.org/2000/svg" class="svg-bkgd08" viewBox="0 0 48 48"><g><path class="svg-shortcut" d="M28 42.5l-3 2.7v-1.7c-.4 0-1.4 0-2.5.6-1.3 1-1.5 1.6-1.5 1.6s-.4-1.2.8-2.7c1.2-1.6 2.6-1.7 3.2-1.6v-1.6l3 2.7z"/></g><g><path class="svg-cluster" d="M28.5 41.3c.6 0 1.2.5 1.2 1.2s-.6 1.2-1.2 1.2-1.2-.5-1.2-1.2.5-1.2 1.2-1.2zm-4 0c.6 0 1.2.5 1.2 1.2s-.6 1.2-1.2 1.2c-.7 0-1.2-.5-1.2-1.2s.5-1.2 1.2-1.2zm-4 0c.7 0 1.2.5 1.2 1.2s-.5 1.2-1.2 1.2-1.2-.5-1.2-1.2.5-1.2 1.2-1.2z"/></g><g><path class="svg-icon05" d="M33 15h-8v5h8v-5zm-10 5h-6v-5h6v5zm-11-5h3v5h-3s-2-.3-2-2.5c0-2.3 2-2.5 2-2.5z"/></g><g><path class="svg-icon01" d="M33 22h-8v5h8v-5zm-13.8 0H23v5h-4s-2-.3-2-2.6C17 22.2 19 22 19 22z"/></g><g><path class="svg-icon03" d="M25 31.3c0 2.3 2 2.7 2 2.7h6v-5h-5.8S25 29 25 31.3z"/></g><g><path class="svg-icon02" d="M38 12h-3v25h3V12z"/></g></svg>