<svg xmlns="http://www.w3.org/2000/svg" class="svg-bkgd04" viewBox="0 0 48 48"><g><path class="svg-shortcut" d="M28 42.5l-3 2.7v-1.7c-.4 0-1.4 0-2.5.6-1.3 1-1.5 1.6-1.5 1.6s-.4-1.2.8-2.7c1.2-1.6 2.6-1.7 3.2-1.6v-1.6l3 2.7z"/></g><g><path class="svg-cluster" d="M28.5 41.3c.6 0 1.2.5 1.2 1.2s-.6 1.2-1.2 1.2-1.2-.5-1.2-1.2.5-1.2 1.2-1.2zm-4 0c.6 0 1.2.5 1.2 1.2s-.6 1.2-1.2 1.2c-.7 0-1.2-.5-1.2-1.2s.5-1.2 1.2-1.2zm-4 0c.7 0 1.2.5 1.2 1.2s-.5 1.2-1.2 1.2-1.2-.5-1.2-1.2.5-1.2 1.2-1.2z"/></g><g><path class="svg-icon12" d="M14 15c0-1 1-2 2-2s2 1 2 2-1 2-2 2-2-1-2-2zm7.4 14l-1.2 3-2.2 4.3c-.3.7-1 1-1.5.5-.6-.3-.6-.8-.3-1.5l1.8-4 .8-3.8v-.2L18 27l-4.6-2c-.5-.3-.7-.7-.6-1 0-.3 2-4.2 2-4.2.7-1 4.2-2.8 4.2-2.8h.3v-.8c0-.8 0-1.8-.4-2.3-.7-.8-1.7-1.3-2.5-1.7-1.2-.8 0-1.8 1.7-1 0 0 2 1 3 2 1 .8 1 4.2.4 5.3L24 26v2l-1.7 3c-.4-.3-1-2-1-2zM17.8 25l-1.3-3.5-1.2 2.3 2.5 1.2z"/></g><g><path class="svg-icon18" d="M26.4 34.8l-.6 1-2.6 1.2-.2-2.7.5-1.2 3 1.8z"/></g><g><path class="svg-icon09" d="M27 33.6L24.3 32 31 20.4l3 1.7-7 11.6z"/></g><g><path class="svg-icon07" d="M34.6 21l-3-1.7L33 17l3 1.7-1.4 2.3z"/></g></svg>