<svg xmlns="http://www.w3.org/2000/svg" class="svg-bkgd04" viewBox="0 0 48 48"><g><path class="svg-shortcut" d="M28 42.5l-3 2.7v-1.7c-.4 0-1.4 0-2.5.6-1.3 1-1.5 1.6-1.5 1.6s-.4-1.2.8-2.7c1.2-1.6 2.6-1.7 3.2-1.6v-1.6l3 2.7z"/></g><g><path class="svg-cluster" d="M28.5 41.3c.6 0 1.2.5 1.2 1.2s-.6 1.2-1.2 1.2-1.2-.5-1.2-1.2.5-1.2 1.2-1.2zm-4 0c.6 0 1.2.5 1.2 1.2s-.6 1.2-1.2 1.2c-.7 0-1.2-.5-1.2-1.2s.5-1.2 1.2-1.2zm-4 0c.7 0 1.2.5 1.2 1.2s-.5 1.2-1.2 1.2-1.2-.5-1.2-1.2.5-1.2 1.2-1.2z"/></g><g><path class="svg-icon12" d="M27.8 31h-7.6c-.3 0-1.2-1-1.2-1.3v-7c0-.4.3-.7.6-.7h2l2.4 3.2 2.5-3.2h2c.2 0 .5.3.5.6v7c0 .5-1 1.4-1.2 1.4zM24 15c1.8 0 3 1.3 3 3 0 1.8-1.2 3-3 3s-3-1.2-3-3c0-1.7 1.3-3 3-3z"/></g><g><path class="svg-icon03" d="M26.2 38c-3 .2-5.7-.5-8-2l-2 1.8-1.2-7 7 1.5-1.8 1.7c1.7 1 3.7 1.4 5.7 1.2 2-.3 3.8-1 5.2-2.3l2.8 1c-2 2.2-4.7 3.6-7.8 4zm-3.4-28c3-.2 5.7.5 8 2l2-1.8 1.2 7-7-1.5 1.8-1.7C27 13 25 12.6 23 13c-2 0-3.8 1-5.2 2L15 14c2-2.2 4.7-3.6 7.8-4z"/></g></svg>