<svg xmlns="http://www.w3.org/2000/svg" class="svg-bkgd12" viewBox="0 0 48 48"><g><path class="svg-shortcut" d="M28 42.5l-3 2.7v-1.7c-.4 0-1.4 0-2.5.6-1.3 1-1.5 1.6-1.5 1.6s-.4-1.2.8-2.7c1.2-1.6 2.6-1.7 3.2-1.6v-1.6l3 2.7z"/></g><g><path class="svg-cluster" d="M28.5 41.3c.6 0 1.2.5 1.2 1.2s-.6 1.2-1.2 1.2-1.2-.5-1.2-1.2.5-1.2 1.2-1.2zm-4 0c.6 0 1.2.5 1.2 1.2s-.6 1.2-1.2 1.2c-.7 0-1.2-.5-1.2-1.2s.5-1.2 1.2-1.2zm-4 0c.7 0 1.2.5 1.2 1.2s-.5 1.2-1.2 1.2-1.2-.5-1.2-1.2.5-1.2 1.2-1.2z"/></g><g><path class="svg-icon12" d="M28.8 26l-2.4-7c.6-2 1-4.7 0-5.7-1.2-1-3.2-2-3.2-2-1.7-.8-3 .2-1.7 1 .8.4 1.8 1 2.6 1.7.5.4.6 1.4.6 2.2 0 .6 0 .8-.3 1.6L21.7 20l-.7.6s-2 4-2 4.3c0 .3 0 .7.6 1l4 1.7-1 4.2-1.4 3.5c-.3.7-.3 1 .3 1.3.6.3 1.2.2 1.5-.4l1.7-4 1.6-3 .5 2.4.2 4c0 .8.5 1.2 1 1.2.8 0 1-.4 1-1v-4.4s.2-5-.2-5.7zm-7.5-1.4l.7-1.4 1 2.2-1.7-.8zM21 18c1 0 2-1 2-2s-1-2-2-2-2 1-2 2 1 2 2 2z"/></g></svg>