<svg xmlns="http://www.w3.org/2000/svg" class="svg-bkgd07" viewBox="0 0 48 48"><g><path class="svg-shortcut" d="M28 42.5l-3 2.7v-1.7c-.4 0-1.4 0-2.5.6-1.3 1-1.5 1.6-1.5 1.6s-.4-1.2.8-2.7c1.2-1.6 2.6-1.7 3.2-1.6v-1.6l3 2.7z"/></g><g><path class="svg-cluster" d="M28.5 41.3c.6 0 1.2.5 1.2 1.2s-.6 1.2-1.2 1.2-1.2-.5-1.2-1.2.5-1.2 1.2-1.2zm-4 0c.6 0 1.2.5 1.2 1.2s-.6 1.2-1.2 1.2c-.7 0-1.2-.5-1.2-1.2s.5-1.2 1.2-1.2zm-4 0c.7 0 1.2.5 1.2 1.2s-.5 1.2-1.2 1.2-1.2-.5-1.2-1.2.5-1.2 1.2-1.2z"/></g><g><path class="svg-icon12" d="M22.5 10c-4.8 0-8.5 4-8.5 8.6s3.7 8.4 8.5 8.4 8.5-3.7 8.5-8.4-3.8-8.6-8.5-8.6zm0 14c-3 0-5.5-2.4-5.5-5.4s2.5-5.6 5.4-5.6c3 0 5.6 2.6 5.6 5.6S25.4 24 22.4 24z"/></g><g><path class="svg-icon02" d="M27 28.4l2.6-1.4 5.4 8.8s0 1.6-1 2c-.7.5-2.2-.2-2.2-.2L27 28.4z"/></g></svg>