<svg xmlns="http://www.w3.org/2000/svg" class="svg-bkgd01" viewBox="0 0 48 48"><g><path class="svg-shortcut" d="M28 42.5l-3 2.7v-1.7c-.4 0-1.4 0-2.5.6-1.3 1-1.5 1.6-1.5 1.6s-.4-1.2.8-2.7c1.2-1.6 2.6-1.7 3.2-1.6v-1.6l3 2.7z"/></g><g><path class="svg-cluster" d="M28.5 41.3c.6 0 1.2.5 1.2 1.2s-.6 1.2-1.2 1.2-1.2-.5-1.2-1.2.5-1.2 1.2-1.2zm-4 0c.6 0 1.2.5 1.2 1.2s-.6 1.2-1.2 1.2c-.7 0-1.2-.5-1.2-1.2s.5-1.2 1.2-1.2zm-4 0c.7 0 1.2.5 1.2 1.2s-.5 1.2-1.2 1.2-1.2-.5-1.2-1.2.5-1.2 1.2-1.2z"/></g><g><path class="svg-icon04" d="M10 25h2v2h-2v-2zm0-4h2v2h-2v-2zm0 15v-2h3v2h-3zm0-7h2v2h-2v-2zm5 7v-2h2v2h-2zm4 0v-2h2v2h-2zm4 0v-2h2v2h-2zm4 0v-2h2v2h-2zm4 0v-2h2v2h-2zM10 17h2v2h-2v-2zm3-5v2h-3v-2h3zm22 24v-2h3v2h-3zM15 14v-2h2v2h-2zm4 0v-2h2v2h-2zm4 0v-2h2v2h-2zm4 0v-2h2v2h-2zm4 0v-2h2v2h-2zM10 33h2v3h-2v-3zm0-21h2v3h-2v-3zm25 2v-2h3v2h-3zm1 19h2v3h-2v-3zm0-21h2v3h-2v-3zm0 13h2v2h-2v-2zm0-4h2v2h-2v-2zm0 8h2v2h-2v-2zm0-12h2v2h-2v-2z"/></g><g><path class="svg-icon18" d="M31 22.3c-1 .8-2 1-3 .6l-2.7 2.5-3 3.2c.3 1.2.2 2.6-.7 3.4-1 1-2.4 1.2-4 .6l1.8-1.6c.4-.3.4-.8 0-1l-1-1.2c-.4-.4-1-.3-1.3 0l-1.6 1.5c-.7-1.4-.5-2.7.7-3.7 1-.8 2.2-.8 3.5-.5l1.5-1.4 3.7-4c-.3-1.2-.3-2.8.7-3.7 1-1 2.3-1.2 3.8-.6L27.6 18c-.4.3-.4.8 0 1l1 1.2c.5.3 1 .3 1.4 0l1.6-1.6c.7 1.3.5 2.7-.6 3.7z"/></g></svg>