<svg xmlns="http://www.w3.org/2000/svg" class="svg-bkgd08" viewBox="0 0 48 48"><g><path class="svg-shortcut" d="M28 42.5l-3 2.7v-1.7c-.4 0-1.4 0-2.5.6-1.3 1-1.5 1.6-1.5 1.6s-.4-1.2.8-2.7c1.2-1.6 2.6-1.7 3.2-1.6v-1.6l3 2.7z"/></g><g><path class="svg-cluster" d="M28.5 41.3c.6 0 1.2.5 1.2 1.2s-.6 1.2-1.2 1.2-1.2-.5-1.2-1.2.5-1.2 1.2-1.2zm-4 0c.6 0 1.2.5 1.2 1.2s-.6 1.2-1.2 1.2c-.7 0-1.2-.5-1.2-1.2s.5-1.2 1.2-1.2zm-4 0c.7 0 1.2.5 1.2 1.2s-.5 1.2-1.2 1.2-1.2-.5-1.2-1.2.5-1.2 1.2-1.2z"/></g><g><path class="svg-icon10" d="M26 10h11l-5.5 8-5.5-8z"/></g><g><path class="svg-icon12" d="M36.7 38H26.3c-.4 0-1.3-1-1.3-1.3v-6.4c0-.5 1-1.3 1.3-1.3h2c.3 0 .6.6.6.6l2.5 4 2.6-4 .7-.6h2c.4 0 1.3.8 1.3 1.3v6.4c0 .4-1 1.3-1.3 1.3zm-5.2-10.3c-2 0-4-2-4-3.8 0-2 2-4 4-4s4 2 4 4c0 1.8-2 3.7-4 3.7zM21.7 38H11.3c-.4 0-1.3-1-1.3-1.3v-6.4c0-.5 1-1.3 1.3-1.3h2c.3 0 .6.6.6.6l2.5 4 2.6-4s.6-.6.8-.6h2c.3 0 1.2.8 1.2 1.3v6.4c0 .4-1 1.3-1.3 1.3zm-5.2-10.3c-2 0-4-2-4-3.8 0-2 2-4 4-4s4 2 4 4c0 1.8-2 3.7-4 3.7z"/></g></svg>