<svg xmlns="http://www.w3.org/2000/svg" class="svg-bkgd12" viewBox="0 0 48 48"><g><path class="svg-shortcut" d="M28 42.5l-3 2.7v-1.7c-.4 0-1.4 0-2.5.6-1.3 1-1.5 1.6-1.5 1.6s-.4-1.2.8-2.7c1.2-1.6 2.6-1.7 3.2-1.6v-1.6l3 2.7z"/></g><g><path class="svg-cluster" d="M28.5 41.3c.6 0 1.2.5 1.2 1.2s-.6 1.2-1.2 1.2-1.2-.5-1.2-1.2.5-1.2 1.2-1.2zm-4 0c.6 0 1.2.5 1.2 1.2s-.6 1.2-1.2 1.2c-.7 0-1.2-.5-1.2-1.2s.5-1.2 1.2-1.2zm-4 0c.7 0 1.2.5 1.2 1.2s-.5 1.2-1.2 1.2-1.2-.5-1.2-1.2.5-1.2 1.2-1.2z"/></g><g><path class="svg-icon03" d="M35 12H13c-2 0-3 1.2-3 3v18c0 2 1 3 3 3h22c2 0 3-1 3-3V15c0-2-1.2-3-3-3zM19 27h-6c-.4 0-1-.6-1-1s.6-1 1-1h6c.4 0 1 .6 1 1s-.6 1-1 1zm0-3h-6c-.2 0-1-.6-1-1s.6-1 1-1h6c.4 0 1 .6 1 1s-.6 1-1 1zm0-3h-6c-.4 0-1-.6-1-1s.6-1 1-1h6c.4 0 1 .6 1 1s-.6 1-1 1zm16 12H23h-1V20c0-1 1-1 1 0v12h12c1 0 .8 1 0 1zm-11-2v-5h5v5h-5zm11 0h-5V21h5v10zm1-14H12v-2h24v2z"/></g></svg>