<svg xmlns="http://www.w3.org/2000/svg" class="svg-bkgd07" viewBox="0 0 48 48"><g><path class="svg-shortcut" d="M28 42.5l-3 2.7v-1.7c-.4 0-1.4 0-2.5.6-1.3 1-1.5 1.6-1.5 1.6s-.4-1.2.8-2.7c1.2-1.6 2.6-1.7 3.2-1.6v-1.6l3 2.7z"/></g><g><path class="svg-cluster" d="M28.5 41.3c.6 0 1.2.5 1.2 1.2s-.6 1.2-1.2 1.2-1.2-.5-1.2-1.2.5-1.2 1.2-1.2zm-4 0c.6 0 1.2.5 1.2 1.2s-.6 1.2-1.2 1.2c-.7 0-1.2-.5-1.2-1.2s.5-1.2 1.2-1.2zm-4 0c.7 0 1.2.5 1.2 1.2s-.5 1.2-1.2 1.2-1.2-.5-1.2-1.2.5-1.2 1.2-1.2z"/></g><g><path class="svg-icon04" d="M33.2 37H15.8a2.7 2.7 0 0 1-1.8-2V14a2.8 2.8 0 0 1 2-2h17a3 3 0 0 1 2 2v21a2.7 2.7 0 0 1-1.8 2zM17 34h3a1 1 0 0 0 0-2h-3a1 1 0 0 0 0 2zm-1-5c0 .4 1 1 2.3 1h6.3c1.4 0 2.4 0 2.4-.5 0-.4-1.8-.5-2.6-.5S22 28 21 27.7s-5 0-5 1.3zm8-13a1 1 0 1 0 1 1 1 1 0 0 0-1-1zm8 7l-2-2h-2l-1-2a3.6 3.6 0 0 0 0-.8v-2.8c0-.5-1-.6-1 0v2.5c-.7 1.2-3 1-3 1l-1.2-1c-.4-.4-1.2.4-.7 1l1.5 1a5 5 0 0 0 1.5 0l3 4.8a4.8 4.8 0 0 1-1 2.2.6.6 0 1 0 1 .5l1-1.7a2.4 2.4 0 0 0 0-1.5l-.5-2h1.8l1.7 1.5c.6.6 1.5-.2 1-.7zm0 9h-8a1 1 0 1 0 0 2h8a1 1 0 1 0 0-2z"/></g><g><path class="svg-icon12" d="M14.3 11a1.3 1.3 0 0 0-1.3 1.3v23.3a2.4 2.4 0 0 1-1-1.5V12a2.6 2.6 0 0 1 1.8-2h17.4a2.4 2.4 0 0 1 1.4 1H14.3z"/></g></svg>