<svg xmlns="http://www.w3.org/2000/svg" class="svg-bkgd08" viewBox="0 0 48 48"><g><path class="svg-shortcut" d="M28 42.5l-3 2.7v-1.7c-.4 0-1.4 0-2.5.6-1.3 1-1.5 1.6-1.5 1.6s-.4-1.2.8-2.7c1.2-1.6 2.6-1.7 3.2-1.6v-1.6l3 2.7z"/></g><g><path class="svg-cluster" d="M28.5 41.3c.6 0 1.2.5 1.2 1.2s-.6 1.2-1.2 1.2-1.2-.5-1.2-1.2.5-1.2 1.2-1.2zm-4 0c.6 0 1.2.5 1.2 1.2s-.6 1.2-1.2 1.2c-.7 0-1.2-.5-1.2-1.2s.5-1.2 1.2-1.2zm-4 0c.7 0 1.2.5 1.2 1.2s-.5 1.2-1.2 1.2-1.2-.5-1.2-1.2.5-1.2 1.2-1.2z"/></g><g><path class="svg-icon04" d="M32 19h-1c0-5-3.6-6.3-7.5-6.3S16 14 16 19h-2c0-5 3.4-9 9.5-9s9.5 4 9.5 9h-1zM14 32h2c.5 2.4 0 3 2.6 4a3.4 3.4 0 0 0 1 0l3.6-1a2.6 2.6 0 0 1 1.8 2v1h-6.4c-5.2-2-4.6-5.8-4.6-6zm6 3h3c1.5 0 2 .3 2 2a3.8 3.8 0 0 1-2 1h-3a1 1 0 0 1-1-1c0-1 .2-2 1-2z"/></g><g><path class="svg-icon03" d="M14 21h1s2 0 2 1v7a3.7 3.7 0 0 1-2 1h-1a2.7 2.7 0 0 1-3-2.7v-3.6a2.7 2.7 0 0 1 3-2.7z"/></g><g><path class="svg-icon06" d="M33 30.7a14.2 14.2 0 0 0 3.5-3.2 4.3 4.3 0 0 0 .5-2c0-2.5-2-4.5-5.2-4.5-2.8 0-4.6 2-4.8 5h2.3c.4-2 1.5-2.7 2.7-2.7a2.4 2.4 0 0 1 2.4 2.2 2.3 2.3 0 0 1-.4 1.2s-3 2.6-3.4 3.3a4 4 0 0 0-.6 2v1h3a9.4 9.4 0 0 1 0-2.3zm0 5.8a1.3 1.3 0 0 0-1.5-1.5 1.3 1.3 0 0 0-1.5 1.4 1.3 1.3 0 0 0 1.5 1.6 1.3 1.3 0 0 0 1.5-1.5z"/></g></svg>