<svg xmlns="http://www.w3.org/2000/svg" class="svg-bkgd10" viewBox="0 0 48 48"><g><path class="svg-shortcut" d="M28 42.5l-3 2.7v-1.7c-.4 0-1.4 0-2.5.6-1.3 1-1.5 1.6-1.5 1.6s-.4-1.2.8-2.7c1.2-1.6 2.6-1.7 3.2-1.6v-1.6l3 2.7z"/></g><g><path class="svg-cluster" d="M28.5 41.3c.6 0 1.2.5 1.2 1.2s-.6 1.2-1.2 1.2-1.2-.5-1.2-1.2.5-1.2 1.2-1.2zm-4 0c.6 0 1.2.5 1.2 1.2s-.6 1.2-1.2 1.2c-.7 0-1.2-.5-1.2-1.2s.5-1.2 1.2-1.2zm-4 0c.7 0 1.2.5 1.2 1.2s-.5 1.2-1.2 1.2-1.2-.5-1.2-1.2.5-1.2 1.2-1.2z"/></g><g><path class="svg-icon01" d="M17.4 10.2c-3.7 1-1.2 5.6-1.2 5.6l-2.4-1.3c-1 0-1.8 2-1.8 2 1.8-.2 2.4.5 2.4.5H21V12s-.6-2.7-3.6-1.8zm.8 3.3c-.4-1 0-1.4.6-1.5.6 0 1.2 2.2 1.2 3 0 0-1.5-.5-1.8-1.5zm10 1l-2.4 1.3s2.5-4.5-1.2-5.6c-3-1-3.6 2-3.6 2V17h6.6s.6-.7 2.4-.6c0 0-.8-1.8-1.8-2zm-4.3-1c-.5 1-2 1.5-2 1.5 0-.8.6-3 1.2-3 .7 0 1 .4.7 1.5zM19 18h4v15h-4V18z"/></g><g><path class="svg-icon04" d="M11 22h7v11h-7V22zm-1-4h8v4h-8v-4zm14 0h8v4h-8v-4zm0 4h7v1h-7v-1z"/></g><g><path class="svg-icon10" d="M36 24H26c-1 0-2 1-2 2V36c0 1 1 1.8 2 1.8h10c1 0 2-.8 2-1.7V25.8c0-1-1-1.8-2-1.8zm.2 8.4h-1.7l-.8-.7-.4 1.3-1-.3H32l-.7-3-1 5.2.3.3h-.3v.2H30l-.6.2v-.4H29l.2-.3-1.2-3.7-.8 1-.2-.2v.4h-1.3v-1.2h.8l1.6-2 1 .6v.3l.6 2.4 1-5.7h.4l1-.2.8 4 .2-.8h.6l.6.3v.3l.8 1h1.2v1z"/></g></svg>