<svg xmlns="http://www.w3.org/2000/svg" class="svg-bkgd07" viewBox="0 0 48 48"><g><path class="svg-shortcut" d="M28 42.5l-3 2.7v-1.7c-.4 0-1.4 0-2.5.6-1.3 1-1.5 1.6-1.5 1.6s-.4-1.2.8-2.7c1.2-1.6 2.6-1.7 3.2-1.6v-1.6l3 2.7z"/></g><g><path class="svg-cluster" d="M28.5 41.3c.6 0 1.2.5 1.2 1.2s-.6 1.2-1.2 1.2-1.2-.5-1.2-1.2.5-1.2 1.2-1.2zm-4 0c.6 0 1.2.5 1.2 1.2s-.6 1.2-1.2 1.2c-.7 0-1.2-.5-1.2-1.2s.5-1.2 1.2-1.2zm-4 0c.7 0 1.2.5 1.2 1.2s-.5 1.2-1.2 1.2-1.2-.5-1.2-1.2.5-1.2 1.2-1.2z"/></g><g><path class="svg-icon02" d="M32 11H17c-.6 0-2 1.4-2 2v22c0 .6 1.4 2 2 2h15c.6 0 2-1.4 2-2V13c0-.6-1.4-2-2-2zM21 34h-3v-2h3v2zm0-4h-3v-2h3v2zm0-4h-3v-2h3v2zm0-4h-3v-2h3v2zm5 12h-3v-2h3v2zm0-4h-3v-2h3v2zm0-4h-3v-2h3v2zm0-4h-3v-2h3v2zm5 12h-3v-6h3v6zm0-8h-3v-2h3v2zm0-4h-3v-2h3v2zm0-4H18v-4h13v4z"/></g></svg>