<svg xmlns="http://www.w3.org/2000/svg" class="svg-bkgd08" viewBox="0 0 48 48"><g><path class="svg-shortcut" d="M28 42.5l-3 2.7v-1.7c-.4 0-1.4 0-2.5.6-1.3 1-1.5 1.6-1.5 1.6s-.4-1.2.8-2.7c1.2-1.6 2.6-1.7 3.2-1.6v-1.6l3 2.7z"/></g><g><path class="svg-cluster" d="M28.5 41.3c.6 0 1.2.5 1.2 1.2s-.6 1.2-1.2 1.2-1.2-.5-1.2-1.2.5-1.2 1.2-1.2zm-4 0c.6 0 1.2.5 1.2 1.2s-.6 1.2-1.2 1.2c-.7 0-1.2-.5-1.2-1.2s.5-1.2 1.2-1.2zm-4 0c.7 0 1.2.5 1.2 1.2s-.5 1.2-1.2 1.2-1.2-.5-1.2-1.2.5-1.2 1.2-1.2z"/></g><g><path class="svg-icon03" d="M33.2 30.7l1.3 1.3H29l1.6-4.8 1.2 1.6c1-1 1.4-1.6 1.4-3V25h2.4v1c0 2-.8 3.5-2.4 4.7zM13.5 29h-1.7l2.4-4 3.8 3-2 .4c.5 1.3 1 2.3 2.5 3l.6.3-.8 1.8-1-.3c-2-1-3.4-2.3-3.7-4.3zm12-17l.8-1.7L29 15l-5 1 1-2c-1.5-.2-3 0-4.2.6l-.7.4-1-2c.3-.3.6-.4 1-.6 1.8-1 4-1.3 5.6-.3z"/></g><g><path class="svg-icon04" d="M15.5 16c2 0 3.5 1.6 3.5 3.5S17.4 23 15.5 23 12 21.4 12 19.5s1.6-3.5 3.5-3.5zm18 0c2 0 3.5 1.6 3.5 3.5S35.4 23 33.5 23 30 21.4 30 19.5s1.6-3.5 3.5-3.5zm-9 15c2 0 3.5 1.6 3.5 3.5S26.4 38 24.5 38c-2 0-3.5-1.6-3.5-3.5s1.6-3.5 3.5-3.5z"/></g></svg>