<svg xmlns="http://www.w3.org/2000/svg" class="svg-bkgd12" viewBox="0 0 48 48"><g><path class="svg-shortcut" d="M28 42.5l-3 2.7v-1.7c-.4 0-1.4 0-2.5.6-1.3 1-1.5 1.6-1.5 1.6s-.4-1.2.8-2.7c1.2-1.6 2.6-1.7 3.2-1.6v-1.6l3 2.7z"/></g><g><path class="svg-cluster" d="M28.5 41.3c.6 0 1.2.5 1.2 1.2s-.6 1.2-1.2 1.2-1.2-.5-1.2-1.2.5-1.2 1.2-1.2zm-4 0c.6 0 1.2.5 1.2 1.2s-.6 1.2-1.2 1.2c-.7 0-1.2-.5-1.2-1.2s.5-1.2 1.2-1.2zm-4 0c.7 0 1.2.5 1.2 1.2s-.5 1.2-1.2 1.2-1.2-.5-1.2-1.2.5-1.2 1.2-1.2z"/></g><g><path class="svg-icon03" d="M28 25v1h1.3l.7-1v-1c0-1.3-.8-2-2-2h-6v-1h-2v1h-6c-1.4 0-2 .8-2 2v2h2v-1c0-.5.4-1 1-1h5v2h2v-2h5c.6 0 1 .5 1 1z"/></g><g><path class="svg-icon05" d="M18 12h5.7c.5 0 1.3.5 1.3 1v6c0 .5-.5 1-1 1h-6c-.5 0-1-.8-1-1.3V13c0-.3.7-1 1-1zm1 16h4c.4 0 1 .7 1 1v4c0 .3-.7 1-1.2 1H19c-.4 0-1-.7-1-1v-4c0-.3.6-1 1-1zm-8 0h4c.4 0 1 .7 1 1v4c0 .3-.8 1-1.2 1H11c-.4 0-1-.7-1-1v-4c0-.3.6-1 1-1zm17 0h-1c-.4 0-1 .7-1 1v2.4l2-3.4z"/></g><g><path class="svg-icon18" d="M29.2 35.2l-.7 1-2.3 1-.2-2.5.4-1 2.8 1.5z"/></g><g><path class="svg-icon01" d="M29.8 34L27 32.7 33.5 22l2.7 1.6L30 34z"/></g><g><path class="svg-icon07" d="M36.7 22.6L34 21l1.3-2 2.7 1.5-1.3 2z"/></g></svg>