<svg xmlns="http://www.w3.org/2000/svg" class="svg-bkgd06" viewBox="0 0 48 48"><g><path class="svg-shortcut" d="M28 42.5l-3 2.7v-1.7c-.4 0-1.4 0-2.5.6-1.3 1-1.5 1.6-1.5 1.6s-.4-1.2.8-2.7c1.2-1.6 2.6-1.7 3.2-1.6v-1.6l3 2.7z"/></g><g><path class="svg-cluster" d="M28.5 41.3c.6 0 1.2.5 1.2 1.2s-.6 1.2-1.2 1.2-1.2-.5-1.2-1.2.5-1.2 1.2-1.2zm-4 0c.6 0 1.2.5 1.2 1.2s-.6 1.2-1.2 1.2c-.7 0-1.2-.5-1.2-1.2s.5-1.2 1.2-1.2zm-4 0c.7 0 1.2.5 1.2 1.2s-.5 1.2-1.2 1.2-1.2-.5-1.2-1.2.5-1.2 1.2-1.2z"/></g><g><path class="svg-icon02" d="M13 10c-1 0-2 .7-2 1.7V23h12V10H13zm4 2c1.2 0 2 .7 2 2 0 1.2-1 2-2 2s-2-.8-2-2c0-1.3.8-2 2-2zm-3 9v-3c0-.6 1-1 1-1h.7l1.3 1.5 1.3-1.5h.8s1 0 1 1v3h-6z"/></g><g><path class="svg-icon14" d="M23 25v13H12.7c-1 0-1.7-.7-1.7-1.7V25h12z"/></g><g><path class="svg-icon03" d="M25 25v13h10.3c1 0 1.7-.7 1.7-1.7V25H25zm6 2c1.2 0 2 .7 2 2s-1 2-2 2c-1.2 0-2-.8-2-2 0-1.3.8-2 2-2zm-3 9v-3c0-.6 1-1 1-1h.7l1.3 1.5 1.3-1.5h.8s1 0 1 1v3h-6z"/></g><g><path class="svg-icon04" d="M25 23V10h10.3c1 0 1.7.7 1.7 1.7V23H25z"/></g></svg>