<svg xmlns="http://www.w3.org/2000/svg" class="svg-bkgd11" viewBox="0 0 48 48"><g><path class="svg-shortcut" d="M28 42.5l-3 2.7v-1.7c-.4 0-1.4 0-2.5.6-1.3 1-1.5 1.6-1.5 1.6s-.4-1.2.8-2.7c1.2-1.6 2.6-1.7 3.2-1.6v-1.6l3 2.7z"/></g><g><path class="svg-cluster" d="M28.5 41.3c.6 0 1.2.5 1.2 1.2s-.6 1.2-1.2 1.2-1.2-.5-1.2-1.2.5-1.2 1.2-1.2zm-4 0c.6 0 1.2.5 1.2 1.2s-.6 1.2-1.2 1.2c-.7 0-1.2-.5-1.2-1.2s.5-1.2 1.2-1.2zm-4 0c.7 0 1.2.5 1.2 1.2s-.5 1.2-1.2 1.2-1.2-.5-1.2-1.2.5-1.2 1.2-1.2z"/></g><g><path class="svg-icon01" d="M36 13H13c-.7 0-2 1.3-2 2v18c0 .7 1.3 2 2 2h23c.7 0 2-1.3 2-2V15c0-.7-1.3-2-2-2zm0 20H13V15h23v18z"/></g><g><path class="svg-icon03" d="M26 28.5c0 .8-.7 1.5-1.5 1.5s-1.5-.7-1.5-1.5.7-1.5 1.5-1.5 1.5.7 1.5 1.5zm4.5-1.5c-.8 0-1.5.7-1.5 1.5s.7 1.5 1.5 1.5 1.5-.7 1.5-1.5-.7-1.5-1.5-1.5zm-12 0c-.8 0-1.5.7-1.5 1.5s.7 1.5 1.5 1.5 1.5-.7 1.5-1.5-.7-1.5-1.5-1.5zM35 16v16H14V16h21zM21 28.5c0-1.4-1-2.5-2.5-2.5S16 27 16 28.5s1 2.5 2.5 2.5 2.5-1 2.5-2.5zm1.4-8.4l-1.2 1.5 1 1 1.8-2 1-1-1-1-2-2-.8 1 1.2 1.3c-3 0-5.6 2.5-5.6 5.6v.3h1.4v-.3C18 22 20 20 22.3 20zm4.6 8.5c0-1.4-1-2.5-2.5-2.5S22 27 22 28.5s1 2.5 2.5 2.5 2.5-1 2.5-2.5zm.5-5.5l2-2 2 2 .8-1-2-2 2-2-.8-.8-2 2-2-2-.8.8 2 2-2 2.2.8.8zm5.5 5.5c0-1.4-1-2.5-2.5-2.5S28 27 28 28.5s1 2.5 2.5 2.5 2.5-1 2.5-2.5z"/></g></svg>