<svg xmlns="http://www.w3.org/2000/svg" class="svg-bkgd03" viewBox="0 0 48 48"><g><path class="svg-shortcut" d="M28.05 42.5L25 45.2v-1.7c-.44-.1-1.4-.15-2.45.6-1.4 1-1.57 1.47-1.57 1.47s-.4-1.24.8-2.7c1.26-1.54 2.67-1.56 3.23-1.5v-1.63l3.05 2.72z"/></g><g><path class="svg-cluster" d="M28.47 41.3c.65 0 1.2.55 1.2 1.2s-.55 1.2-1.2 1.2-1.2-.54-1.2-1.2.54-1.2 1.2-1.2zm-4 0c.65 0 1.2.55 1.2 1.2s-.55 1.2-1.2 1.2c-.66 0-1.2-.54-1.2-1.2s.54-1.2 1.2-1.2zm-3.97 0c.66 0 1.2.55 1.2 1.2s-.54 1.2-1.2 1.2-1.2-.54-1.2-1.2.54-1.2 1.2-1.2z"/></g><g><path class="svg-icon08" d="M20.06 28.8c0-.38-.05-.73-.05-1.18 0-.86.94-1.6 2-1.6 1.33 0 1.78 1.08 1.93 1.64l3.7-3.64c-.02-.58 0-2.04 0-2.54 0-2.8 1.85-4.2 4.47-4.43C30.35 12.92 26.24 10 21.5 10 15.18 10 10 15.18 10 21.5c0 5.1 3.4 9.5 8.06 10.96.22-1.48.94-2.8 2-3.66zM20 15.37c0-1 .9-1.37 2-1.37s2 .37 2 1.37v8.28c0 1-.88 1.36-2 1.36s-2-.35-2-1.35v-8.28z"/></g><g><path class="svg-icon17" d="M37.07 26.15c-1.22 1.25-2.2.78-3.48.46l-5.5 6.7c.27 1.32.05 2.72-.9 3.6-1.2 1.1-2.67.78-4.48.9l1.8-1.8c.36-.34.6-1.35 0-1.8l-.9-.9c-.4-.38-1.43-.32-1.8 0l-1.8 1.8c0-1.7-.3-3.37.9-4.47 1.03-.95 2.85-1.1 4.5-.9l4.48-5.37c-.16-1.45-.1-3.52.9-4.48 1.16-1.13 2.54-.8 4.48-.9l-1.8 1.8c-.35.34-.4 1.4 0 1.8l.9.88c.4.38 1.44.35 1.8 0l1.8-1.8c-.02 2.36.23 3.33-.9 4.5z"/></g></svg>