<svg xmlns="http://www.w3.org/2000/svg" class="svg-bkgd10" viewBox="0 0 48 48"><g><path class="svg-shortcut" d="M28 42.5l-3 2.7v-1.7c-.4 0-1.4 0-2.5.6-1.3 1-1.5 1.6-1.5 1.6s-.4-1.2.8-2.7c1.2-1.6 2.6-1.7 3.2-1.6v-1.6l3 2.7z"/></g><g><path class="svg-cluster" d="M28.5 41.3c.6 0 1.2.5 1.2 1.2s-.6 1.2-1.2 1.2-1.2-.5-1.2-1.2.5-1.2 1.2-1.2zm-4 0c.6 0 1.2.5 1.2 1.2s-.6 1.2-1.2 1.2-1.2-.5-1.2-1.2.5-1.2 1.2-1.2zm-4 0c.7 0 1.2.5 1.2 1.2s-.5 1.2-1.2 1.2-1.2-.5-1.2-1.2.5-1.2 1.2-1.2z"/></g><g><path class="svg-icon18" d="M14.4 38H31c.5 0 1-.7 1-1.4V21h-1c-3.6 0-6-2-6-7 0-.8-.2-1.3 0-2H14.5c-.7 0-1.5 1-1.5 1.7v22.7c0 .7.8 1.6 1.4 1.6z"/></g><g><path class="svg-icon01" d="M35 13.6h-2l2-2.3-1.2-1.3-2 2.3V10h-1.6v2.3l-2-2.3-1.2 1.3 2 2.3h-2v1.8h2l-2 2.3 1.2 1.2 2-2.3V19h1.6v-2.3l2 2.2 1.2-1.3-2-2.3h2v-1.8z"/></g></svg>