<svg xmlns="http://www.w3.org/2000/svg" class="svg-bkgd03" viewBox="0 0 48 48"><g><path class="svg-shortcut" d="M28 42.5l-3 2.7v-1.7c-.4 0-1.4 0-2.5.6-1.3 1-1.5 1.6-1.5 1.6s-.4-1.2.8-2.7c1.2-1.6 2.6-1.7 3.2-1.6v-1.6l3 2.7z"/></g><g><path class="svg-cluster" d="M28.5 41.3c.6 0 1.2.5 1.2 1.2s-.6 1.2-1.2 1.2-1.2-.5-1.2-1.2.5-1.2 1.2-1.2zm-4 0c.6 0 1.2.5 1.2 1.2s-.6 1.2-1.2 1.2c-.7 0-1.2-.5-1.2-1.2s.5-1.2 1.2-1.2zm-4 0c.7 0 1.2.5 1.2 1.2s-.5 1.2-1.2 1.2-1.2-.5-1.2-1.2.5-1.2 1.2-1.2z"/></g><g><path class="svg-icon08" d="M37.4 16.4l-6.5-6c-.4 0-.8-.4-1-.4h-3.7c-.4 0-1 .6-1.4 1L10.3 26c-.5.6-.5 1.4 0 2L21 37.6c.5.4 1.4.4 2 0l14.5-15.4c.3-.3.5-.8.5-1v-3.6c0-.4-.3-1-.6-1.3zM30 26.7L23 34c-.8 1-1.6 1-2.3.2L14 28c-.7-.6-.7-1.6 0-2.2l6.8-7.2c.6-.6 2-.5 2.6.2l6.5 6c.6.6.4 1.5 0 2zm2.3-7.4c-1 1-2.6 1-3.6 0s-1-2.6 0-3.6 2.6-1 3.6 0 1 2.6 0 3.6z"/></g><g><path class="svg-icon01" d="M22.5 20.2l6 5c.6.5.6.7.2 1.2l-6.2 6.3c-.4.4-.7.4-1 0l-6-5.2c-.6-.4-.6-1-.2-1.3l5.7-5.6c.5-.5 1-.8 1.5-.4z"/></g></svg>