<svg xmlns="http://www.w3.org/2000/svg" class="svg-bkgd08" viewBox="0 0 48 48"><g><path class="svg-shortcut" d="M28 42.5l-3 2.7v-1.7c-.4 0-1.4 0-2.5.6-1.3 1-1.5 1.6-1.5 1.6s-.4-1.2.8-2.7c1.2-1.6 2.6-1.7 3.2-1.6v-1.6l3 2.7z"/></g><g><path class="svg-cluster" d="M28.5 41.3c.6 0 1.2.5 1.2 1.2s-.6 1.2-1.2 1.2-1.2-.5-1.2-1.2.5-1.2 1.2-1.2zm-4 0c.6 0 1.2.5 1.2 1.2s-.6 1.2-1.2 1.2c-.7 0-1.2-.5-1.2-1.2s.5-1.2 1.2-1.2zm-4 0c.7 0 1.2.5 1.2 1.2s-.5 1.2-1.2 1.2-1.2-.5-1.2-1.2.5-1.2 1.2-1.2z"/></g><g><path class="svg-icon17" d="M17.5 29c-1.3 0-4 1.3-5 4.7-.3 1.2-2 1.7-2.5 1.7 0 0 1.7.8 3.8.6 2.2-.2 5.5-1 6.2-4.5-.5 0-1-.4-1.6-1-.5-.4-1-1-1-1.5z"/></g><g><path class="svg-icon02" d="M23.5 28c-1.2-.6-2.2-1.7-2.7-3l-1.3 1.2c-1 .8-.2 2 .5 2.7.7.6 2 1.5 2.7.6l1.3-1.4c-.2 0-.3 0-.5-.2-.5-.2.2 0 0 0z"/></g><g><path class="svg-icon08" d="M37.5 12.6c-.6-.6-1.5-1-2.2-.3l-1 .8-3.7 3.2c-2.6 2-5.2 4.3-8 6.4 0 .2-.3.4-.4.6-.6 1 .8 2.6 1.6 3.2.6.4 1.8 1 2.4.3l.7-.7 7.3-7.8 2.7-3c.7-.7 1.6-1.5.5-2.6z"/></g></svg>