<svg xmlns="http://www.w3.org/2000/svg" class="svg-bkgd05" viewBox="0 0 48 48"><g><path class="svg-shortcut" d="M28 42.5l-3 2.7v-1.7c-.4 0-1.4 0-2.5.6-1.3 1-1.5 1.6-1.5 1.6s-.4-1.2.8-2.7c1.2-1.6 2.6-1.7 3.2-1.6v-1.6l3 2.7z"/></g><g><path class="svg-cluster" d="M28.5 41.3c.6 0 1.2.5 1.2 1.2s-.6 1.2-1.2 1.2-1.2-.5-1.2-1.2.5-1.2 1.2-1.2zm-4 0c.6 0 1.2.5 1.2 1.2s-.6 1.2-1.2 1.2c-.7 0-1.2-.5-1.2-1.2s.5-1.2 1.2-1.2zm-4 0c.7 0 1.2.5 1.2 1.2s-.5 1.2-1.2 1.2-1.2-.5-1.2-1.2.5-1.2 1.2-1.2z"/></g><g><path class="svg-icon13" d="M30.5 20.2c1-1.3 1.5-3 1.5-4.8 0-2-.8-4-2-5.5H31c1 1.5 1.8 3.4 1.8 5.4 0 2-.6 3.8-1.6 5.3l-1-.5zm-2-1l-1-.4c1-1 1.4-2 1.4-3.4 0-1.3-.7-2.6-1.5-3.5H29c.6 1 1 2 1 3.4 0 1.5-.5 2.8-1.4 4zm-9-.4l-1 .5c-1-1-1.5-2.4-1.5-4 0-1.2.4-2.4 1-3.4h1.5c-.8.8-1.4 2-1.4 3.4 0 1.3.6 2.5 1.4 3.4zm-3 1.4l-1 .5c-1-1.5-1.5-3.3-1.5-5.3s.7-4 1.8-5.5H17c-1.2 1.4-2 3.3-2 5.4 0 1.8.6 3.5 1.5 4.8z"/></g><g><circle r="2.5" class="svg-icon06" cx="23.5" cy="15.5"/></g><g><path class="svg-icon11" d="M31 33h-3v4h-9v-4h-3l-3-8v-2h9v-3.2c.5 0 1 .3 1.4.3.6 0 1 0 1.6-.2V23h9v2l-3 8zm-9-8h-7l2.2 6H22v-6zm3 0v6h4.8l2.2-6h-7z"/></g></svg>