<svg xmlns="http://www.w3.org/2000/svg" class="svg-bkgd08" viewBox="0 0 48 48"><g><path class="svg-shortcut" d="M28 42.5l-3 2.7v-1.7c-.4 0-1.4 0-2.5.6-1.3 1-1.5 1.6-1.5 1.6s-.4-1.2.8-2.7c1.2-1.6 2.6-1.7 3.2-1.6v-1.6l3 2.7z"/></g><g><path class="svg-cluster" d="M28.5 41.3c.6 0 1.2.5 1.2 1.2s-.6 1.2-1.2 1.2-1.2-.5-1.2-1.2.5-1.2 1.2-1.2zm-4 0c.6 0 1.2.5 1.2 1.2s-.6 1.2-1.2 1.2c-.7 0-1.2-.5-1.2-1.2s.5-1.2 1.2-1.2zm-4 0c.7 0 1.2.5 1.2 1.2s-.5 1.2-1.2 1.2-1.2-.5-1.2-1.2.5-1.2 1.2-1.2z"/></g><g><path class="svg-icon18" d="M29 18.3c-5.4 0-9.8 4.5-9.8 10 0 1.6.4 3.3 1.2 4.7H14c-2.3 0-4-2-4-4V19c0-2.2 1.7-4 4-4h18c2.2 0 4 1.7 4 4v2.4c-1.8-2-4-3-7-3zM27 14v-1h-7v1h-2v-3h11v3h-2z"/></g><g><path class="svg-icon09" d="M29.5 37c-4.8 0-8.6-3.7-8.6-8.5 0-4.7 3.7-8.5 8.5-8.5s8.6 3.8 8.6 8.5c0 4.8-3.8 8.6-8.5 8.6zM24 33h11v-1h-1v-5h-2v5h-1.3v-5h-2.3v5H27v-5h-2v5h-1v1zm5.4-11l-6.2 4h12.6l-6.4-4z"/></g></svg>