<svg xmlns="http://www.w3.org/2000/svg" class="svg-bkgd08" viewBox="0 0 48 48"><g><path class="svg-shortcut" d="M28 42.5l-3 2.7v-1.7c-.4 0-1.4 0-2.5.6-1.3 1-1.5 1.6-1.5 1.6s-.4-1.2.8-2.7c1.2-1.6 2.6-1.7 3.2-1.6v-1.6l3 2.7z"/></g><g><path class="svg-cluster" d="M28.5 41.3c.6 0 1.2.5 1.2 1.2s-.6 1.2-1.2 1.2-1.2-.5-1.2-1.2.5-1.2 1.2-1.2zm-4 0c.6 0 1.2.5 1.2 1.2s-.6 1.2-1.2 1.2c-.7 0-1.2-.5-1.2-1.2s.5-1.2 1.2-1.2zm-4 0c.7 0 1.2.5 1.2 1.2s-.5 1.2-1.2 1.2-1.2-.5-1.2-1.2.5-1.2 1.2-1.2z"/></g><g><path class="svg-icon08" d="M36.5 24h-19c-1 0-1.5.4-1.5 1.3V37c0 .7.5 1 1.4 1h19c1 0 1.6-.5 1.6-1.6v-11c0-1-.5-1.4-1.5-1.4zM22 36h-4v-1h4v1zm0-3h-4v-1h4v1zm0-3h-4v-1h4v1zm7 6h-5v-1h5v1zm7-3H24v-1h12v1zm0-3H24v-1h12v1zm0-3H18v-1h18v1z"/></g><g><path class="svg-icon01" d="M18.7 18.3L10 25.7V11.3l8.7 7zm6.6.6L22.5 21l-3-2.3-3.6 3h13l-3.7-3zM14 23.5L10 27h4v-3.4zm20.7-12l-8.5 6.7 4.4 3.7H35V11.3l-.3.2zM35 10H10l12.4 10 12.2-9.7.4-.3z"/></g></svg>