<svg xmlns="http://www.w3.org/2000/svg" class="svg-bkgd03" viewBox="0 0 48 48"><g><path class="svg-shortcut" d="M28.05 42.5L25 45.2v-1.7c-.44-.1-1.4-.15-2.45.6-1.4 1-1.57 1.47-1.57 1.47s-.4-1.24.8-2.7c1.26-1.54 2.67-1.56 3.23-1.5v-1.63l3.05 2.72z"/></g><g><path class="svg-cluster" d="M28.47 41.3c.65 0 1.2.55 1.2 1.2s-.55 1.2-1.2 1.2-1.2-.54-1.2-1.2.54-1.2 1.2-1.2zm-4 0c.65 0 1.2.55 1.2 1.2s-.55 1.2-1.2 1.2c-.66 0-1.2-.54-1.2-1.2s.54-1.2 1.2-1.2zm-3.97 0c.66 0 1.2.55 1.2 1.2s-.54 1.2-1.2 1.2-1.2-.54-1.2-1.2.54-1.2 1.2-1.2z"/></g><g><path class="svg-icon04" d="M24 15.02c-6.1 0-11 4.9-11 11 0 6.08 4.9 10.97 11 10.97s11-4.9 11-11c0-6.07-4.9-10.98-11-10.98zm.02 19.97C19.06 35 15 30.96 15 26s4.06-9 9.02-9S33 21.04 33 26s-4.02 9-8.98 9zm-1.36-24h2.66c.37 0 .67.34.67.75v1.5c0 .4-.3.75-.68.75h-2.66c-.37 0-.66-.33-.66-.74v-1.5c0-.42.3-.76.66-.76zM33 13.16l1.75 1.56c.32.28.32.83 0 1.22l-.6.7c-.33.4-.86.47-1.18.18l-1.74-1.55c-.32-.3-.32-.83 0-1.22l.6-.7c.33-.4.86-.47 1.18-.2z"/></g><g><path class="svg-icon05" d="M24.8 24.16L24.03 21H24l-.8 3.2c-.7.33-1.22 1.04-1.22 1.82 0 1.07.96 1.98 2.05 1.98 1.1 0 1.97-.9 1.97-1.98 0-.8-.5-1.54-1.2-1.86zM23 18h2v2h-2v-2zm-7 7h2v2h-2v-2zm7 7h2v2h-2v-2zm7-7h2v2h-2v-2zm-11.98-3.5l1.5-1.5 1.5 1.5-1.5 1.5-1.5-1.5zm9 0l1.5-1.5 1.5 1.5-1.5 1.5-1.5-1.5zm-9 9l1.5-1.5 1.5 1.5-1.5 1.5-1.5-1.5zm9 0l1.5-1.5 1.5 1.5-1.5 1.5-1.5-1.5z"/></g></svg>