<svg xmlns="http://www.w3.org/2000/svg" class="svg-bkgd12" viewBox="0 0 48 48"><g><path class="svg-shortcut" d="M28 42.5l-3 2.7v-1.7c-.4 0-1.4 0-2.5.6-1.3 1-1.5 1.6-1.5 1.6s-.4-1.2.8-2.7c1.2-1.6 2.6-1.7 3.2-1.6v-1.6l3 2.7z"/></g><g><path class="svg-cluster" d="M28.5 41.3c.6 0 1.2.5 1.2 1.2s-.6 1.2-1.2 1.2-1.2-.5-1.2-1.2.5-1.2 1.2-1.2zm-4 0c.6 0 1.2.5 1.2 1.2s-.6 1.2-1.2 1.2c-.7 0-1.2-.5-1.2-1.2s.5-1.2 1.2-1.2zm-4 0c.7 0 1.2.5 1.2 1.2s-.5 1.2-1.2 1.2-1.2-.5-1.2-1.2.5-1.2 1.2-1.2z"/></g><g><path class="svg-icon12" d="M26 15.3c4-2 9-3.3 9-3.3s-1.6.6-6 5.5l-3-.4v-1.7zm4.3 2.4c0 .2 3 .4 5.7 1.7V12c-1 .7-2.8 2.2-5.7 5.7zM32 22h4v-1.6s-4.2-1.5-6.3-1.8c-1.3 1.8-2.7 4-3.7 6.8.3.2 2.3.7 5 1.5v-3h1v-2zm0 11v-3h-1v-1.4l-5.3-2C25 29 24.3 33.2 24 36h12v-3h-4zm4-3v0zM26 18v2h-1v3h-4v-3h-1.2L18 22v1.8c2.3.2 4.4.4 6.8 1.2l-.5 1-5.3-1v5h-1v3h-4v-3c-.7 2-1 4.2-1 6h9c.7-7.2 3.7-13.8 6.5-17.7-.7 0-1.6-.3-2.5-.4z"/></g><g><path class="svg-icon09" d="M36 27v2h-1v3h-2v-3h-1v-2c0-1-.3-2 1-2h2c1 0 1 .6 1 2zm-2-4c.6 0 1 .4 1 1s-.4 1-1 1-1-.4-1-1 .4-1 1-1z"/></g><g><path class="svg-icon05" d="M18 27v2h-1v3h-2v-3h-1v-2c0-1-.3-2 1-2h2c1 0 1 .6 1 2zm-2-4c.6 0 1 .4 1 1s-.4 1-1 1-1-.4-1-1 .4-1 1-1z"/></g><g><path class="svg-icon08" d="M25 17v2h-1v3h-2v-3h-1v-2c0-1-.3-2 1-2h2c1 0 1 .6 1 2zm-2-4c.6 0 1 .4 1 1s-.4 1-1 1-1-.4-1-1 .4-1 1-1z"/></g></svg>