<svg xmlns="http://www.w3.org/2000/svg" class="svg-bkgd08" viewBox="0 0 48 48"><g><path class="svg-shortcut" d="M28 42.5l-3 2.7v-1.7c-.4 0-1.4 0-2.5.6-1.3 1-1.5 1.6-1.5 1.6s-.4-1.2.8-2.7c1.2-1.6 2.6-1.7 3.2-1.6v-1.6l3 2.7z"/></g><g><path class="svg-cluster" d="M28.5 41.3c.6 0 1.2.5 1.2 1.2s-.6 1.2-1.2 1.2-1.2-.5-1.2-1.2.5-1.2 1.2-1.2zm-4 0c.6 0 1.2.5 1.2 1.2s-.6 1.2-1.2 1.2c-.7 0-1.2-.5-1.2-1.2s.5-1.2 1.2-1.2zm-4 0c.7 0 1.2.5 1.2 1.2s-.5 1.2-1.2 1.2-1.2-.5-1.2-1.2.5-1.2 1.2-1.2z"/></g><g><path class="svg-icon05" d="M15 15h8v5h-8v-5zm10 0h6v5h-6v-5zm13 2.5c0 2.2-2 2.5-2 2.5h-3v-5h3s2 .2 2 2.5z"/></g><g><path class="svg-icon01" d="M15 22h8v5h-8v-5zm16 2.4c0 2.3-2 2.6-2 2.6h-4v-5h3.8s2.3.2 2.3 2.4z"/></g><g><path class="svg-icon03" d="M23 31.3c0 2.3-2 2.7-2 2.7h-6v-5h5.8s2.3 0 2.3 2.3z"/></g><g><path class="svg-icon02" d="M10 12h3v25h-3V12z"/></g></svg>