<svg xmlns="http://www.w3.org/2000/svg" class="svg-bkgd06" viewBox="0 0 48 48"><g><path class="svg-shortcut" d="M28 42.5l-3 2.7v-1.7c-.4 0-1.4 0-2.5.6-1.3 1-1.5 1.6-1.5 1.6s-.4-1.2.8-2.7c1.2-1.6 2.6-1.7 3.2-1.6v-1.6l3 2.7z"/></g><g><path class="svg-cluster" d="M28.5 41.3c.6 0 1.2.5 1.2 1.2s-.6 1.2-1.2 1.2-1.2-.5-1.2-1.2.5-1.2 1.2-1.2zm-4 0c.6 0 1.2.5 1.2 1.2s-.6 1.2-1.2 1.2c-.7 0-1.2-.5-1.2-1.2s.5-1.2 1.2-1.2zm-4 0c.7 0 1.2.5 1.2 1.2s-.5 1.2-1.2 1.2-1.2-.5-1.2-1.2.5-1.2 1.2-1.2z"/></g><g><path class="svg-icon05" d="M16 21v12h22V21H16zm2 2h5v2h-5v-2zm3 3h14v2H21v-2zm14 5h-6v-2h6v2zm1-6h-5v-2h5v2z"/></g><g><path class="svg-icon06" d="M12 17v11h-2V15h22v2H12zm3 3v11h-2V18h22v2H15z"/></g></svg>