<svg xmlns="http://www.w3.org/2000/svg" class="svg-bkgd08" viewBox="0 0 48 48"><g><path class="svg-shortcut" d="M28 42.5l-3 2.7v-1.7c-.4 0-1.4 0-2.5.6-1.3 1-1.5 1.6-1.5 1.6s-.4-1.2.8-2.7c1.2-1.6 2.6-1.7 3.2-1.6v-1.6l3 2.7z"/></g><g><path class="svg-cluster" d="M28.5 41.3c.6 0 1.2.5 1.2 1.2s-.6 1.2-1.2 1.2-1.2-.5-1.2-1.2.5-1.2 1.2-1.2zm-4 0c.6 0 1.2.5 1.2 1.2s-.6 1.2-1.2 1.2c-.7 0-1.2-.5-1.2-1.2s.5-1.2 1.2-1.2zm-4 0c.7 0 1.2.5 1.2 1.2s-.5 1.2-1.2 1.2-1.2-.5-1.2-1.2.5-1.2 1.2-1.2z"/></g><g><path class="svg-icon05" d="M24 13c2.8 0 5 2.2 5 5s-2.2 5-5 5-5-2.2-5-5 2.2-5 5-5zm5.2 22H18.8c-1.2 0-1.8-1.3-1.8-1.8v-7.4c0-1.8 0-1.8 1.8-1.8h1.7l3.5 4.6 3.5-4.6h1.7c1.8 0 1.8 1 1.8 1.8v7.4c0 .5-.6 1.8-1.8 1.8z"/></g><g><path class="svg-icon11" d="M38 23v8c0 .5-.5 1-1 1h-4v-7l2-3h2c.5 0 1 .5 1 1zm-27-1c-.5 0-1 .5-1 1v8c0 .5.5 1 1 1h4v-7l-1-3h-3zm6-3.5c0-1.7.7-3.2 1.8-4.3C18 13.4 17 13 16 13c-2.2 0-4 1.8-4 4s1.8 4 4 4c.5 0 1 0 1.5-.2-.3-.7-.5-1.5-.5-2.3zM36 17c0-2.2-1.7-4-4-4-1.2 0-2 .4-2.8 1.2 1 1 1.8 2.6 1.8 4.3 0 .8-.2 1.6-.5 2.3.5.2 1 .2 1.5.2 2.3 0 4-1.8 4-4z"/></g></svg>