<svg xmlns="http://www.w3.org/2000/svg" class="svg-bkgd07" viewBox="0 0 48 48"><g><path class="svg-shortcut" d="M28 42.5l-3 2.7v-1.7c-.4 0-1.4 0-2.5.6-1.3 1-1.5 1.6-1.5 1.6s-.4-1.2.8-2.7c1.2-1.6 2.6-1.7 3.2-1.6v-1.6l3 2.7z"/></g><g><path class="svg-cluster" d="M28.5 41.3c.6 0 1.2.5 1.2 1.2s-.6 1.2-1.2 1.2-1.2-.5-1.2-1.2.5-1.2 1.2-1.2zm-4 0c.6 0 1.2.5 1.2 1.2s-.6 1.2-1.2 1.2c-.7 0-1.2-.5-1.2-1.2s.5-1.2 1.2-1.2zm-4 0c.7 0 1.2.5 1.2 1.2s-.5 1.2-1.2 1.2-1.2-.5-1.2-1.2.5-1.2 1.2-1.2z"/></g><g><path class="svg-icon12" d="M33 10H15c-1 0-2 1-2 2v24c0 1 1 2 2 2h18c1 0 2-1 2-2V12c0-1-1-2-2-2zm-15 2.8c.7 0 1.3.5 1.3 1.2s-.6 1.3-1.3 1.3-1.3-.6-1.3-1.3c0-.7.6-1.2 1.3-1.2zM19.6 35h-3.2c-.4 0-.4-1-.4-1v-1c0-.7 1-1 1-1l1 1.2 1-1.2s1 .3 1 1v1.6s0 .4-.4.4zm-3-5c0-.7.7-1.2 1.4-1.2s1.3.5 1.3 1.2-.6 1.3-1.3 1.3-1.3-.6-1.3-1.3zm3-3h-3.2c-.4 0-.4-1-.4-1v-1c0-.7 1-1 1-1l1 1.2 1-1.2s1 .3 1 1v1.6s0 .4-.4.4zm-3-5c0-.7.7-1.2 1.4-1.2s1.3.5 1.3 1.2-.6 1.3-1.3 1.3-1.3-.6-1.3-1.3zm3-3h-3.2c-.4 0-.4-1-.4-1v-1c0-.7 1-1 1-1l1 1.3 1-1.3s1 .3 1 1v1.6s0 .4-.4.4zM32 34H21v-1h11v1zm0-8H21v-1h11v1zm0-8H21v-1h11v1z"/></g></svg>