<svg xmlns="http://www.w3.org/2000/svg" class="svg-bkgd07" viewBox="0 0 48 48"><g><path class="svg-shortcut" d="M28 42.5l-3 2.7v-1.7c-.4 0-1.4 0-2.5.6-1.3 1-1.5 1.6-1.5 1.6s-.4-1.2.8-2.7c1.2-1.6 2.6-1.7 3.2-1.6v-1.6l3 2.7z"/></g><g><path class="svg-cluster" d="M28.5 41.3c.6 0 1.2.5 1.2 1.2s-.6 1.2-1.2 1.2-1.2-.5-1.2-1.2.5-1.2 1.2-1.2zm-4 0c.6 0 1.2.5 1.2 1.2s-.6 1.2-1.2 1.2c-.7 0-1.2-.5-1.2-1.2s.5-1.2 1.2-1.2zm-4 0c.7 0 1.2.5 1.2 1.2s-.5 1.2-1.2 1.2-1.2-.5-1.2-1.2.5-1.2 1.2-1.2z"/></g><g><path class="svg-icon03" d="M36 11H12c-.7 0-2 1.3-2 2v22c0 .7 1.3 2 2 2h24c.7 0 2-1.3 2-2V13c0-.7-1.3-2-2-2zm-19 6l7-4 7 4v1H17v-1zm-1 8h1v-1h2v-5h2v5h2v-5h2v5h2v-5h2v5h2v1h1v1H16v-1zm3 9h-5c-.4 0-1-.6-1-1s.6-1 1-1h5c.4 0 1 .6 1 1s-.6 1-1 1zm0-4h-5c-.4 0-1-.6-1-1s.6-1 1-1h5c.4 0 1 .6 1 1s-.6 1-1 1zm15 4H23c-.4 0-1-.6-1-1s.6-1 1-1h11c.4 0 1 .6 1 1s-.6 1-1 1zm0-4H23c-.4 0-1-.6-1-1s.6-1 1-1h11c.4 0 1 .6 1 1s-.6 1-1 1z"/></g></svg>