<svg xmlns="http://www.w3.org/2000/svg" class="svg-bkgd03" viewBox="0 0 48 48"><g><path class="svg-shortcut" d="M28.05 42.5L25 45.2v-1.7c-.44-.1-1.4-.15-2.45.6-1.4 1-1.57 1.47-1.57 1.47s-.4-1.24.8-2.7c1.26-1.54 2.67-1.56 3.23-1.5v-1.63l3.05 2.72z"/></g><g><path class="svg-cluster" d="M28.47 41.3c.65 0 1.2.55 1.2 1.2s-.55 1.2-1.2 1.2-1.2-.54-1.2-1.2.54-1.2 1.2-1.2zm-4 0c.65 0 1.2.55 1.2 1.2s-.55 1.2-1.2 1.2c-.66 0-1.2-.54-1.2-1.2s.54-1.2 1.2-1.2zm-3.97 0c.66 0 1.2.55 1.2 1.2s-.54 1.2-1.2 1.2-1.2-.54-1.2-1.2.54-1.2 1.2-1.2z"/></g><g><path class="svg-icon04" d="M24.58 21.4c.35.4.52.98.52 1.72 0 .67-.13 1.38-.38 2.15s-.55 1.36-.9 1.76c-.24.28-.5.5-.74.62-.33.2-.68.28-1.05.28-.5 0-.92-.2-1.26-.6-.34-.4-.5-1-.5-1.84 0-.64.12-1.35.36-2.16.24-.8.6-1.44 1.08-1.88.5-.43 1-.65 1.58-.65.52 0 .96.2 1.3.6zm13.4 3.1C38 31.95 31.74 38 24 38s-14-6.05-14-13.5S16.28 11 24 11s14 6.05 14 13.5zm-4.97 5.05h-2.1c-.68.88-1.6 1.53-2.72 1.97-1.13.44-2.48.66-4.05.66-1.62 0-3.07-.26-4.33-.8-1.27-.5-2.25-1.34-2.95-2.48-.7-1.14-1.05-2.4-1.05-3.8 0-1.42.32-2.8.94-4.12.63-1.32 1.56-2.34 2.8-3.07 1.24-.72 2.75-1.08 4.53-1.08 2.1 0 3.72.54 4.9 1.63 1.16 1.1 1.74 2.45 1.74 4.07.02.9-.2 1.77-.6 2.62-.42.84-.96 1.5-1.63 2-.5.4-.9.58-1.22.58-.1 0-.2-.04-.27-.12-.08-.08-.12-.2-.12-.37 0-.13.05-.42.14-.87l1.5-7.08h-2.6l-.26 1.1c-.56-.9-1.42-1.35-2.6-1.35-1.63 0-2.98.78-4.03 2.33-.85 1.28-1.3 2.7-1.3 4.24 0 1.25.37 2.25 1.1 3 .7.76 1.62 1.14 2.7 1.14 1.02 0 1.9-.37 2.68-1.12.1.36.28.64.56.83.27.2.68.3 1.23.3 2.02 0 3.68-.87 4.97-2.58 1.03-1.35 1.55-2.87 1.55-4.55 0-1.4-.35-2.7-1.03-3.9-.68-1.2-1.66-2.1-2.95-2.75s-2.76-.97-4.4-.97c-1.96 0-3.7.4-5.2 1.2s-2.73 2-3.6 3.6c-.87 1.6-1.3 3.32-1.3 5.17 0 1.68.37 3.24 1.14 4.68s1.94 2.5 3.52 3.25c1.57.73 3.44 1.1 5.6 1.1 2.25 0 4.15-.44 5.7-1.3 1.36-.76 2.37-1.8 3.03-3.15z"/></g></svg>