<svg xmlns="http://www.w3.org/2000/svg" class="svg-bkgd12" viewBox="0 0 48 48"><g><path class="svg-shortcut" d="M28 42.5l-3 2.7v-1.7c-.4 0-1.4 0-2.5.6-1.3 1-1.5 1.6-1.5 1.6s-.4-1.2.8-2.7c1.2-1.6 2.6-1.7 3.2-1.6v-1.6l3 2.7z"/></g><g><path class="svg-cluster" d="M28.5 41.3c.6 0 1.2.5 1.2 1.2s-.6 1.2-1.2 1.2-1.2-.5-1.2-1.2.5-1.2 1.2-1.2zm-4 0c.6 0 1.2.5 1.2 1.2s-.6 1.2-1.2 1.2c-.7 0-1.2-.5-1.2-1.2s.5-1.2 1.2-1.2zm-4 0c.7 0 1.2.5 1.2 1.2s-.5 1.2-1.2 1.2-1.2-.5-1.2-1.2.5-1.2 1.2-1.2z"/></g><g><path class="svg-icon04" d="M34 20h-2c0-5.5-4-7-8-7s-8 1.5-8 7h-2c0-5.7 3.5-10 10-10s10 4.4 10 10zM24 35h-3c-.5 0-.7.4-1 1h-1c-2.8-1-2.4-1-3-3h-2c0 .2-.6 3 5 5h7v-1c0-1.7-.5-2-2-2z"/></g><g><path class="svg-icon10" d="M14 22h1s2 0 2 1v7s-1.2 1-2 1h-1c-1.8 0-3-1.2-3-3v-3c0-1.8 1.2-3 3-3zm19 9c-.8 0-2-1-2-1v-7c0-1 2-1 2-1h1c1.8 0 3 1.4 3 3v3c0 1.8-1.2 3-3 3h-1z"/></g></svg>