<svg xmlns="http://www.w3.org/2000/svg" class="svg-bkgd11" viewBox="0 0 48 48"><g><path class="svg-shortcut" d="M28 42.5l-3 2.7v-1.7c-.4 0-1.4 0-2.5.6-1.3 1-1.5 1.6-1.5 1.6s-.4-1.2.8-2.7c1.2-1.6 2.6-1.7 3.2-1.6v-1.6l3 2.7z"/></g><g><path class="svg-cluster" d="M28.5 41.3c.6 0 1.2.5 1.2 1.2s-.6 1.2-1.2 1.2-1.2-.5-1.2-1.2.5-1.2 1.2-1.2zm-4 0c.6 0 1.2.5 1.2 1.2s-.6 1.2-1.2 1.2c-.7 0-1.2-.5-1.2-1.2s.5-1.2 1.2-1.2zm-4 0c.7 0 1.2.5 1.2 1.2s-.5 1.2-1.2 1.2-1.2-.5-1.2-1.2.5-1.2 1.2-1.2z"/></g><g><path class="svg-icon02" d="M35 11c-1.7 0-3 1.2-3 2.6v21.8c0 1.4 1.3 2.6 3 2.6s3-1.2 3-2.6V13.6c0-1.4-1.3-2.6-3-2.6zm0 24c-.5 0-1-.4-1-1s.5-1 1-1 1 .5 1 1-.4 1-1 1zm0-4c-.5 0-1-.4-1-1s.5-1 1-1 1 .5 1 1-.4 1-1 1zm0-4c-.5 0-1-.4-1-1s.5-1 1-1 1 .5 1 1-.4 1-1 1zm0-4c-.5 0-1-.4-1-1s.5-1 1-1 1 .5 1 1-.4 1-1 1z"/></g><g><path class="svg-icon06" d="M28 11c-1.7 0-3 1.2-3 2.6v21.8c0 1.4 1.3 2.6 3 2.6s3-1.2 3-2.6V13.6c0-1.4-1.3-2.6-3-2.6zm0 24c-.5 0-1-.4-1-1s.5-1 1-1 1 .5 1 1-.4 1-1 1zm0-4c-.5 0-1-.4-1-1s.5-1 1-1 1 .5 1 1-.4 1-1 1zm0-4c-.5 0-1-.4-1-1s.5-1 1-1 1 .5 1 1-.4 1-1 1z"/></g><g><path class="svg-icon03" d="M21 11c-1.7 0-3 1.2-3 2.6v21.8c0 1.4 1.3 2.6 3 2.6s3-1.2 3-2.6V13.6c0-1.4-1.3-2.6-3-2.6zm0 24c-.5 0-1-.4-1-1s.5-1 1-1 1 .5 1 1-.4 1-1 1zm0-4c-.5 0-1-.4-1-1s.5-1 1-1 1 .5 1 1-.4 1-1 1z"/></g><g><path class="svg-icon04" d="M14 11c-1.7 0-3 1.2-3 2.6v21.8c0 1.4 1.3 2.6 3 2.6s3-1.2 3-2.6V13.6c0-1.4-1.3-2.6-3-2.6zm0 24c-.5 0-1-.4-1-1s.5-1 1-1 1 .5 1 1-.4 1-1 1zm0-4c-.5 0-1-.4-1-1s.5-1 1-1 1 .5 1 1-.4 1-1 1zm0-4c-.5 0-1-.4-1-1s.5-1 1-1 1 .5 1 1-.4 1-1 1zm0-4c-.5 0-1-.4-1-1s.5-1 1-1 1 .5 1 1-.4 1-1 1zm0-4c-.5 0-1-.4-1-1s.5-1 1-1 1 .5 1 1-.4 1-1 1z"/></g></svg>