<svg xmlns="http://www.w3.org/2000/svg" class="svg-bkgd10" viewBox="0 0 48 48"><g><path class="svg-shortcut" d="M28 42.5l-3 2.7v-1.7c-.4 0-1.4 0-2.5.6-1.3 1-1.5 1.6-1.5 1.6s-.4-1.2.8-2.7c1.2-1.6 2.6-1.7 3.2-1.6v-1.6l3 2.7z"/></g><g><path class="svg-cluster" d="M28.5 41.3c.6 0 1.2.5 1.2 1.2s-.6 1.2-1.2 1.2-1.2-.5-1.2-1.2.5-1.2 1.2-1.2zm-4 0c.6 0 1.2.5 1.2 1.2s-.6 1.2-1.2 1.2c-.7 0-1.2-.5-1.2-1.2s.5-1.2 1.2-1.2zm-4 0c.7 0 1.2.5 1.2 1.2s-.5 1.2-1.2 1.2-1.2-.5-1.2-1.2.5-1.2 1.2-1.2z"/></g><g><path class="svg-icon11" d="M23 34v-8l5-3v-2h3v1h2l1 .6V19H10v15c0 .8.2 2 1 2h12v-2zm0-13h3v3h-3v-3zm-5 0h3v3h-3v-3zm0 5h3v3h-3v-3zm-2 8h-3v-3h3v3zm0-5h-3v-3h3v3zm2 5v-3h3v3h-3z"/></g><g><path class="svg-icon08" d="M10 13s0-1 2-1h1v2s1 2 2 2h2c1 0 2-2 2-2v-2h6v2s1 2 2 2h2c1 0 2-2 2-2v-2h2s1 .3 1 1v4H10v-4z"/></g><g><path class="svg-icon18" d="M15 11s0-1 1-1 1 1 1 1v3h-2v-3zm12 0s0-1 1-1 1 1 1 1v3h-2v-3z"/></g><g><path class="svg-icon04" d="M25 27l6.5-3 6.5 3-6.5 3-6.5-3zm7 4l6-3v7l-6 3v-7zm-1 7l-6-3v-7l6 3v7z"/></g></svg>