<svg xmlns="http://www.w3.org/2000/svg" class="svg-bkgd05" viewBox="0 0 48 48"><g><path class="svg-shortcut" d="M28 42.5l-3 2.7v-1.7c-.4 0-1.4 0-2.5.6-1.3 1-1.5 1.6-1.5 1.6s-.4-1.2.8-2.7c1.2-1.6 2.6-1.7 3.2-1.6v-1.6l3 2.7z"/></g><g><path class="svg-cluster" d="M28.5 41.3c.6 0 1.2.5 1.2 1.2s-.6 1.2-1.2 1.2-1.2-.5-1.2-1.2.5-1.2 1.2-1.2zm-4 0c.6 0 1.2.5 1.2 1.2s-.6 1.2-1.2 1.2c-.7 0-1.2-.5-1.2-1.2s.5-1.2 1.2-1.2zm-4 0c.7 0 1.2.5 1.2 1.2s-.5 1.2-1.2 1.2-1.2-.5-1.2-1.2.5-1.2 1.2-1.2z"/></g><g><path class="svg-icon08" d="M15 22h16v5H15l-3-2.5 3-2.5z"/></g><g><path class="svg-icon04" d="M34 15H18v5h16l3-2.5-3-2.5z"/></g><g><path class="svg-icon18" d="M23 29h3v6l5 2v1H18v-1l5-2v-6zm0-19h3v3h-3v-3z"/></g></svg>