<svg xmlns="http://www.w3.org/2000/svg" class="svg-bkgd10" viewBox="0 0 48 48"><g><path class="svg-shortcut" d="M28 42.5l-3 2.7v-1.7c-.4 0-1.4 0-2.5.6-1.3 1-1.5 1.6-1.5 1.6s-.4-1.2.8-2.7c1.2-1.6 2.6-1.7 3.2-1.6v-1.6l3 2.7z"/></g><g><path class="svg-cluster" d="M28.5 41.3c.6 0 1.2.5 1.2 1.2s-.6 1.2-1.2 1.2-1.2-.5-1.2-1.2.5-1.2 1.2-1.2zm-4 0c.6 0 1.2.5 1.2 1.2s-.6 1.2-1.2 1.2c-.7 0-1.2-.5-1.2-1.2s.5-1.2 1.2-1.2zm-4 0c.7 0 1.2.5 1.2 1.2s-.5 1.2-1.2 1.2-1.2-.5-1.2-1.2.5-1.2 1.2-1.2z"/></g><g><path class="svg-icon12" d="M19 20.4c-.4.4-1 .6-1.5.6-1.4 0-2.5-1-2.5-2.5s1-2.6 2.5-2.6c1 0 1.8.5 2.2 1.4-.4.8-.7 1.7-.7 2.6v.4zM14.8 23c-.3 0-.8.5-.8 1v5c0 .5.5 1 .8 1H17v-5.3L16 23H15zM33 18.5c0-1.4-1-2.5-2.5-2.5-1 0-1.8.6-2.2 1.4.4.8.7 1.6.7 2.6v.5c.4.3 1 .5 1.5.5 1.4 0 2.5-1 2.5-2.5zm.2 4.5h-1.4l-.8 1.6V30h2.2c.3 0 .8-.5.8-1v-5c0-.5-.5-1-.8-1z"/></g><g><path class="svg-icon02" d="M11 25h2v3h-2v-3zm0 10h2v2h-2v-2zm0-15h2v3h-2v-3zm0-5h2v3h-2v-3zm0-4h2v2h-2v-2zm24 19h2v3h-2v-3zm0-5h2v3h-2v-3zm0-14h2v2h-2v-2zM20 35h3v2h-3v-2zm-5 0h3v2h-3v-2zm10 0h3v2h-3v-2zm10 0h2v2h-2v-2zM20 11h3v2h-3v-2zm-5 0h3v2h-3v-2zm10 0h3v2h-3v-2zm5 0h3v2h-3v-2zm5 9h2v3h-2v-3zm-5 15h3v2h-3v-2zm-19-5h2v3h-2v-3zm24-15h2v3h-2v-3z"/></g><g><path class="svg-icon05" d="M28.2 32h-8.4c-.8 0-.8-.5-.8-1v-5.7c0-1 .5-1.3.8-1.3h1.7l2.5 4 2.5-4h1.7c.3 0 .8 1 .8 1.3V31c0 .5 0 1-.8 1zM24 17c1.7 0 3 1.3 3 3s-1.3 3-3 3-3-1.3-3-3 1.3-3 3-3z"/></g></svg>