<svg xmlns="http://www.w3.org/2000/svg" class="svg-bkgd09" viewBox="0 0 48 48"><g><path class="svg-shortcut" d="M28 42.5l-3 2.7v-1.7c-.4 0-1.4 0-2.5.6-1.3 1-1.5 1.6-1.5 1.6s-.4-1.2.8-2.7c1.2-1.6 2.6-1.7 3.2-1.6v-1.6l3 2.7z"/></g><g><path class="svg-cluster" d="M28.5 41.3c.6 0 1.2.5 1.2 1.2s-.6 1.2-1.2 1.2-1.2-.5-1.2-1.2.5-1.2 1.2-1.2zm-4 0c.6 0 1.2.5 1.2 1.2s-.6 1.2-1.2 1.2c-.7 0-1.2-.5-1.2-1.2s.5-1.2 1.2-1.2zm-4 0c.7 0 1.2.5 1.2 1.2s-.5 1.2-1.2 1.2-1.2-.5-1.2-1.2.5-1.2 1.2-1.2z"/></g><g><path class="svg-icon08" d="M36 18h-7v7H11v3h-1v2h3.5c.7-1.2 2-2 3.5-2s2.8.8 3.4 2h8.2c.6-1.2 2-2 3.4-2 1.5 0 2.8.8 3.4 2H38v-6l-2-6zm-5 5v-4h4l1 4h-5z"/></g><g><path class="svg-icon12" d="M11 13h17v11H11V13z"/></g><g><path class="svg-icon17" d="M17 29c1.7 0 3 1.4 3 3 0 1.7-1.3 3-3 3-1.6 0-3-1.3-3-3 0-1.6 1.4-3 3-3zm15 0c1.7 0 3 1.4 3 3 0 1.7-1.3 3-3 3-1.6 0-3-1.3-3-3 0-1.6 1.4-3 3-3z"/></g></svg>