<svg xmlns="http://www.w3.org/2000/svg" class="svg-bkgd01" viewBox="0 0 48 48"><g><path class="svg-shortcut" d="M28 42.5l-3 2.7v-1.7c-.4 0-1.4 0-2.5.6-1.3 1-1.5 1.6-1.5 1.6s-.4-1.2.8-2.7c1.2-1.6 2.6-1.7 3.2-1.6v-1.6l3 2.7z"/></g><g><path class="svg-cluster" d="M28.5 41.3c.6 0 1.2.5 1.2 1.2s-.6 1.2-1.2 1.2-1.2-.5-1.2-1.2.5-1.2 1.2-1.2zm-4 0c.6 0 1.2.5 1.2 1.2s-.6 1.2-1.2 1.2c-.7 0-1.2-.5-1.2-1.2s.5-1.2 1.2-1.2zm-4 0c.7 0 1.2.5 1.2 1.2s-.5 1.2-1.2 1.2-1.2-.5-1.2-1.2.5-1.2 1.2-1.2z"/></g><g><path class="svg-icon12" d="M30.5 25c3 0 5.5 2.5 5.5 5.5S33.5 36 30.5 36 25 33.5 25 30.5s2.5-5.5 5.5-5.5zm-12-13c3 0 5.5 2.5 5.5 5.5S21.5 23 18.5 23 13 20.5 13 17.5s2.5-5.5 5.5-5.5z"/></g><g><path class="svg-icon02" d="M31 12l6 11H25l6-11zM18 25l6 11H12l6-11z"/></g></svg>