<svg xmlns="http://www.w3.org/2000/svg" class="svg-bkgd07" viewBox="0 0 48 48"><g><path class="svg-shortcut" d="M28 42.5l-3 2.7v-1.7c-.4 0-1.4 0-2.5.6-1.3 1-1.5 1.6-1.5 1.6s-.4-1.2.8-2.7c1.2-1.6 2.6-1.7 3.2-1.6v-1.6l3 2.7z"/></g><g><path class="svg-cluster" d="M28.5 41.3c.6 0 1.2.5 1.2 1.2s-.6 1.2-1.2 1.2-1.2-.5-1.2-1.2.5-1.2 1.2-1.2zm-4 0c.6 0 1.2.5 1.2 1.2s-.6 1.2-1.2 1.2c-.7 0-1.2-.5-1.2-1.2s.5-1.2 1.2-1.2zm-4 0c.7 0 1.2.5 1.2 1.2s-.5 1.2-1.2 1.2-1.2-.5-1.2-1.2.5-1.2 1.2-1.2z"/></g><g><path class="svg-icon12" d="M32.5 19.5S32.2 12 26 12c-2.4 0-4.6 1-5.7 3h-1.8c-2.8 0-4.8 2.3-5 5.5-2 .6-3.5 2.7-3.5 5 0 3.2 2.5 5 5.5 5 .4 0 1 0 1.5.2V29c-2.7.3-5.3-1-5.2-4 0-2 1.8-3 3.7-3.4-.3-2.7 1-4.8 3.8-4.7h2.2c1-1.7 2-3.2 4-3.2 5.5 0 5.3 6.8 5.2 6.8 0 0 5.2.7 5.5 5 .2 2.6-1.7 3.4-4.4 3.2H31v1.8h2c3 0 5-2 5-5-.2-5-5.5-6-5.5-6z"/></g><g><path class="svg-icon12" d="M29.2 21H18.8c-.4 0-.8.4-.8.8v13.4c0 .4.4.8.8.8h10.4c.4 0 .8-.4.8-.8V21.8c0-.4-.3-.8-.8-.8zM27 32h-6v-1h6v1zm0-3h-6v-1h6v1zm0-3h-6v-1h6v1z"/></g></svg>