<svg xmlns="http://www.w3.org/2000/svg" class="svg-bkgd12" viewBox="0 0 48 48"><g><path class="svg-shortcut" d="M28 42.5l-3 2.7v-1.7c-.4 0-1.4 0-2.5.6-1.3 1-1.5 1.6-1.5 1.6s-.4-1.2.8-2.7c1.2-1.6 2.6-1.7 3.2-1.6v-1.6l3 2.7z"/></g><g><path class="svg-cluster" d="M28.5 41.3c.6 0 1.2.5 1.2 1.2s-.6 1.2-1.2 1.2-1.2-.5-1.2-1.2.5-1.2 1.2-1.2zm-4 0c.6 0 1.2.5 1.2 1.2s-.6 1.2-1.2 1.2-1.2-.5-1.2-1.2.5-1.2 1.2-1.2zm-4 0c.7 0 1.2.5 1.2 1.2s-.5 1.2-1.2 1.2-1.2-.5-1.2-1.2.5-1.2 1.2-1.2z"/></g><g><path class="svg-icon05" d="M30 16c-.2 1-1.7 2.6-3 3.5v17c0 1-.3 1.3-1 1.3-1 0-1-.5-1-1.3v-4.7c-.4-.2-.7-3.7-.7-3.7h-.5s-.4 3.5-.7 3.8v4.7c0 .8-.2 1.3-1 1.3s-1-.4-1-1.2V21.3s-1 1-1 1.7v3c0 .4-.4 1-1 1-.5 0-1-.5-1-1v-4.2l2.2-3.7c.3-.4.6-.6 1-.7h.4c.7.4 1.5.7 2.4.7 1 0 1.8 0 2.6-1 1.2-.7 1.3-1.7 1.4-2v-3.6c0-.3.2-1 1-1s1 .7 1 1.5v4zm-8-2c0 1.4.7 2 2 2s2-.6 2-2-.7-2-2-2-2 .8-2 2z"/></g></svg>