<svg xmlns="http://www.w3.org/2000/svg" class="svg-bkgd01" viewBox="0 0 48 48"><g><path class="svg-shortcut" d="M28 42.5l-3 2.7v-1.7c-.4 0-1.4 0-2.5.6-1.3 1-1.5 1.6-1.5 1.6s-.4-1.2.8-2.7c1.2-1.6 2.6-1.7 3.2-1.6v-1.6l3 2.7z"/></g><g><path class="svg-cluster" d="M28.5 41.3c.6 0 1.2.5 1.2 1.2s-.6 1.2-1.2 1.2-1.2-.5-1.2-1.2.5-1.2 1.2-1.2zm-4 0c.6 0 1.2.5 1.2 1.2s-.6 1.2-1.2 1.2c-.7 0-1.2-.5-1.2-1.2s.5-1.2 1.2-1.2zm-4 0c.7 0 1.2.5 1.2 1.2s-.5 1.2-1.2 1.2-1.2-.5-1.2-1.2.5-1.2 1.2-1.2z"/></g><g><path class="svg-icon11" d="M14 35.6c-.5-.4-1-1-1-1.5V12c0-.8 1.2-2 1.8-2h17.4c.4 0 1 .5 1.4 1H15.3c-.7 0-1.3.6-1.3 1.3v23.3z"/></g><g><path class="svg-icon11" d="M33.2 12H16.8c-.6 0-1.8 1.2-1.8 2v21.5c0 .7 1.2 2.5 1.8 2.5h16.4c.6 0 1.8-1.8 1.8-2.5V14c0-.8-1.2-2-1.8-2zM20 16h10v9H20v-9zm1 18h-2s-1-.5-1-1 1-1 1-1h2s1 .5 1 1-1 1-1 1zm0-4h-2s-1-.5-1-1 1-1 1-1h2s1 .5 1 1-1 1-1 1zm10 4h-6s-1-.5-1-1 1-1 1-1h6s1 .5 1 1-1 1-1 1zm0-4h-6s-1-.5-1-1 1-1 1-1h6s1 .5 1 1-1 1-1 1z"/></g></svg>