<svg xmlns="http://www.w3.org/2000/svg" class="svg-bkgd04" viewBox="0 0 48 48"><g><path class="svg-shortcut" d="M28 42.5l-3 2.7v-1.7c-.4 0-1.4 0-2.5.6-1.3 1-1.5 1.6-1.5 1.6s-.4-1.2.8-2.7c1.2-1.6 2.6-1.7 3.2-1.6v-1.6l3 2.7z"/></g><g><path class="svg-cluster" d="M28.5 41.3c.6 0 1.2.5 1.2 1.2s-.6 1.2-1.2 1.2-1.2-.5-1.2-1.2.5-1.2 1.2-1.2zm-4 0c.6 0 1.2.5 1.2 1.2s-.6 1.2-1.2 1.2c-.7 0-1.2-.5-1.2-1.2s.5-1.2 1.2-1.2zm-4 0c.7 0 1.2.5 1.2 1.2s-.5 1.2-1.2 1.2-1.2-.5-1.2-1.2.5-1.2 1.2-1.2z"/></g><g><path class="svg-icon03" d="M19.2 28.4l-1.7-7.2-7 2 2 1.5-2.4 4.2s-.4.7-.4 1.3c0 .7 2.8 4.4 2.8 4.4l4.8-7.8 2 1.4zM22 31v5h-9l3-5h6zm4.4-11.6L22 11.2s4.8-.2 5.3 0c.6.3 1.2 1 1.2 1l2.4 4.3 2-1.2-1.7 7-7.2-2 2.4-1zM21 21l-4.2-2.2 4-7 2.6 4.7L21 21zm8 10h9s-1.6 4.4-2 4.8c-.6.3-1 .2-1 .2h-6v2l-5-4.4 5-4.6v2zm1.5-6l4-2.2L38 30h-5l-2.5-5z"/></g></svg>