<svg xmlns="http://www.w3.org/2000/svg" class="svg-bkgd09" viewBox="0 0 48 48"><g><path class="svg-shortcut" d="M28 42.5l-3 2.7v-1.7c-.4 0-1.4 0-2.5.6-1.3 1-1.5 1.6-1.5 1.6s-.4-1.2.8-2.7c1.2-1.6 2.6-1.7 3.2-1.6v-1.6l3 2.7z"/></g><g><path class="svg-cluster" d="M28.5 41.3c.6 0 1.2.5 1.2 1.2s-.6 1.2-1.2 1.2-1.2-.5-1.2-1.2.5-1.2 1.2-1.2zm-4 0c.6 0 1.2.5 1.2 1.2s-.6 1.2-1.2 1.2c-.7 0-1.2-.5-1.2-1.2s.5-1.2 1.2-1.2zm-4 0c.7 0 1.2.5 1.2 1.2s-.5 1.2-1.2 1.2-1.2-.5-1.2-1.2.5-1.2 1.2-1.2z"/></g><g><path class="svg-icon03" d="M34 31.5l2 1.5h-7l2-5.5 1.4 2c1-1.4 1.7-2 1.7-3.6v-1h3v1c0 2.5-1 4.2-3 5.5zm-22-2.3l-2 .2 2.7-4.4 4 3.3-2.2.4c.6 1.3 1.3 2.3 2.7 3l.8.4-1 2c-.4 0-.8-.2-1-.4-2.2-1-3.8-2.4-4-4.4zm13.4-17L26 10l3 5.7-5.6 1.3 1-2.3c-1.4-.3-3-.2-4.5.6-.2 0-.7.4-.8.5L18 13.2l1-.6c2-1.2 4.4-1.5 6.4-.4z"/></g><g><path class="svg-icon04" d="M14.5 16c2 0 3.5 1.6 3.5 3.5 0 2-1.6 3.5-3.5 3.5-2 0-3.5-1.6-3.5-3.5 0-2 1.6-3.5 3.5-3.5zm19 0c2 0 3.5 1.6 3.5 3.5 0 2-1.6 3.5-3.5 3.5-2 0-3.5-1.6-3.5-3.5 0-2 1.6-3.5 3.5-3.5zm-10 15c2 0 3.5 1.6 3.5 3.5 0 2-1.6 3.5-3.5 3.5-2 0-3.5-1.6-3.5-3.5 0-2 1.6-3.5 3.5-3.5z"/></g><g><path class="svg-icon05" d="M29 29H19v-1h1v-1h1v-4h1v4h1v-4h2v4h1v-4h1v4h1v1h1v1z"/></g><g><path class="svg-icon03" d="M28 22h-8v-1l4-2 4 2v1z"/></g></svg>