<svg xmlns="http://www.w3.org/2000/svg" class="svg-bkgd01" viewBox="0 0 48 48"><g><path class="svg-shortcut" d="M28 42.5l-3 2.7v-1.7c-.4 0-1.4 0-2.5.6-1.3 1-1.5 1.6-1.5 1.6s-.4-1.2.8-2.7c1.2-1.6 2.6-1.7 3.2-1.6v-1.6l3 2.7z"/></g><g><path class="svg-cluster" d="M28.5 41.3c.6 0 1.2.5 1.2 1.2s-.6 1.2-1.2 1.2-1.2-.5-1.2-1.2.5-1.2 1.2-1.2zm-4 0c.6 0 1.2.5 1.2 1.2s-.6 1.2-1.2 1.2c-.7 0-1.2-.5-1.2-1.2s.5-1.2 1.2-1.2zm-4 0c.7 0 1.2.5 1.2 1.2s-.5 1.2-1.2 1.2-1.2-.5-1.2-1.2.5-1.2 1.2-1.2z"/></g><g><path class="svg-icon08" d="M38 24c0 6-5 11-11 11-1.3 0-2.7-.2-4-.6V31c1 .6 2.7 1 4 1 6.6 0 8-5.7 8-8 0-4.5-3.5-8-8-8-2 0-4.4.8-6 2v-3.3l.4-.3c1.6-1 3.5-1.4 5.4-1.4 6 0 11.2 5 11.2 11zm-15 4.7V22l-1.6-.8c1.2-1.8 3.4-3.2 5.6-3.2 3.5 0 6 2.7 6 6s-2.6 6-6 6c-1.2 0-2.8-.6-4-1.3zm1-4.7c0 1.7 1.3 3 3 3s3-1.3 3-3c0-1.6-1.3-3-3-3s-3 1.4-3 3z"/></g><g><path class="svg-icon12" d="M20.7 34h-9.4C10 34 10 32.7 10 32.7v-8.4c0-1.3 1.3-1.3 1.3-1.3h2.2l2.6 4.8 2.7-4.8h2s1.3 0 1.3 1.3v8.4s0 1.3-1.3 1.3zM16 22c-2.2 0-4-1.8-4-4s1.8-4 4-4 4 1.8 4 4-1.8 4-4 4z"/></g></svg>