<svg xmlns="http://www.w3.org/2000/svg" class="svg-bkgd08" viewBox="0 0 48 48"><g><path class="svg-shortcut" d="M28 42.5l-3 2.7v-1.7c-.4 0-1.4 0-2.5.6-1.3 1-1.5 1.6-1.5 1.6s-.4-1.2.8-2.7c1.2-1.6 2.6-1.7 3.2-1.6v-1.6l3 2.7z"/></g><g><path class="svg-cluster" d="M28.5 41.3c.6 0 1.2.5 1.2 1.2s-.6 1.2-1.2 1.2-1.2-.5-1.2-1.2.5-1.2 1.2-1.2zm-4 0c.6 0 1.2.5 1.2 1.2s-.6 1.2-1.2 1.2c-.7 0-1.2-.5-1.2-1.2s.5-1.2 1.2-1.2zm-4 0c.7 0 1.2.5 1.2 1.2s-.5 1.2-1.2 1.2-1.2-.5-1.2-1.2.5-1.2 1.2-1.2z"/></g><g><path class="svg-icon11" d="M35 38H14c-2.4 0-3-.5-3-3V16h27v19c0 2.5-.4 3-3 3zM16 23h-3v3h3v-3zm0 5h-3v3h3v-3zm0 5h-3v3h3v-3zm5-15h-3v3h3v-3zm0 5h-3v3h3v-3zm0 5h-3v3h3v-3zm0 5h-3v3h3v-3zm5-15h-3v3h3v-3zm0 5h-3v3h3v-3zm0 5h-3v3h3v-3zm0 5h-3v3h3v-3zm5-15h-3v3h3v-3zm0 5h-3v3h3v-3zm0 5h-3v3h3v-3zm5-10h-3v3h3v-3zm0 5h-3v3h3v-3zm0 5h-3v3h3v-3z"/></g><g><path class="svg-icon08" d="M38 15H11c0-2.4-.3-4 2-4h1v1c0 .7 1.3 2 2 2h2c.7 0 2-1.3 2-2v-1h9v1c0 .7 1.3 2 2 2h2c.7 0 2-1.3 2-2v-1h1c2.3 0 2 1.5 2 4z"/></g><g><path class="svg-icon18" d="M33 13h-2v-2c0-.5.4-1 1-1 .5 0 1 .5 1 1v2zm-17 0v-2c0-.5.4-1 1-1s1 .5 1 1v2h-2z"/></g></svg>