<svg xmlns="http://www.w3.org/2000/svg" class="svg-bkgd03" viewBox="0 0 48 48"><g><path class="svg-shortcut" d="M28 42.5l-3 2.7v-1.7c-.4 0-1.4 0-2.5.6-1.3 1-1.5 1.6-1.5 1.6s-.4-1.2.8-2.7c1.2-1.6 2.6-1.7 3.2-1.6v-1.6l3 2.7z"/></g><g><path class="svg-cluster" d="M28.5 41.3c.6 0 1.2.5 1.2 1.2s-.6 1.2-1.2 1.2-1.2-.5-1.2-1.2.5-1.2 1.2-1.2zm-4 0c.6 0 1.2.5 1.2 1.2s-.6 1.2-1.2 1.2c-.7 0-1.2-.5-1.2-1.2s.5-1.2 1.2-1.2zm-4 0c.7 0 1.2.5 1.2 1.2s-.5 1.2-1.2 1.2-1.2-.5-1.2-1.2.5-1.2 1.2-1.2z"/></g><g><path class="svg-icon04" d="M38 31v3H22v-3h16z"/></g><g><path class="svg-icon06" d="M22 30V17h3v13h-3z"/></g><g><path class="svg-icon01" d="M26 30V20h3v10h-3z"/></g><g><path class="svg-icon08" d="M30 30V14h3v16h-3z"/></g><g><path class="svg-icon03" d="M34 30v-5h3v5h-3z"/></g><g><path class="svg-icon12" d="M19.8 34h-8.6C10 34 10 33 10 33v-7c0-1 1-1 1-1h2l2.5 3 2.5-3h2s1 0 1 1v7s0 1-1.2 1zm-4.3-10c-2 0-3.5-1.5-3.5-3.5s1.6-3.5 3.5-3.5 3.5 1.6 3.5 3.5-1.6 3.5-3.5 3.5z"/></g></svg>