<svg xmlns="http://www.w3.org/2000/svg" class="svg-bkgd09" viewBox="0 0 48 48"><g><path class="svg-shortcut" d="M28 42.5l-3 2.7v-1.7c-.4 0-1.4 0-2.5.6-1.3 1-1.5 1.6-1.5 1.6s-.4-1.2.8-2.7c1.2-1.6 2.6-1.7 3.2-1.6v-1.6l3 2.7z"/></g><g><path class="svg-cluster" d="M28.5 41.3c.6 0 1.2.5 1.2 1.2s-.6 1.2-1.2 1.2-1.2-.5-1.2-1.2.5-1.2 1.2-1.2zm-4 0c.6 0 1.2.5 1.2 1.2s-.6 1.2-1.2 1.2c-.7 0-1.2-.5-1.2-1.2s.5-1.2 1.2-1.2zm-4 0c.7 0 1.2.5 1.2 1.2s-.5 1.2-1.2 1.2-1.2-.5-1.2-1.2.5-1.2 1.2-1.2z"/></g><g><path class="svg-icon12" d="M25 23.5a4.4 4.4 0 0 0 .8 2.5H21v3h1v8H12v-2h1V10a1.5 1.5 0 0 1 1-1h11a1.6 1.6 0 0 1 1 1v10.7a4.5 4.5 0 0 0-1 2.8zM18 11h-3v3h3v-3zm0 5h-3v3h3v-3zm0 5h-3v3h3v-3zm0 5h-3v3h3v-3zm0 9h3v-4h-3v4zm6-24h-3v3h3v-3zm0 5h-3v3h3v-3zm0 5h-3v3h3v-3z"/></g><g><path class="svg-icon04" d="M37 37a1 1 0 0 1-1 1H25a1 1 0 0 1-1-1v-8a1 1 0 0 1 1-1h2.5l3 4.2 3-4.2h2.7a1 1 0 0 1 .8 1v8zm-6.5-17a3.5 3.5 0 1 1-3.5 3.5 3.5 3.5 0 0 1 3.5-3.5z"/></g></svg>