<svg xmlns="http://www.w3.org/2000/svg" class="svg-bkgd01" viewBox="0 0 48 48"><g><path class="svg-shortcut" d="M28 42.5l-3 2.7v-1.7c-.4 0-1.4 0-2.5.6-1.3 1-1.5 1.6-1.5 1.6s-.4-1.2.8-2.7c1.2-1.6 2.6-1.7 3.2-1.6v-1.6l3 2.7z"/></g><g><path class="svg-cluster" d="M28.5 41.3c.6 0 1.2.5 1.2 1.2s-.6 1.2-1.2 1.2-1.2-.5-1.2-1.2.5-1.2 1.2-1.2zm-4 0c.6 0 1.2.5 1.2 1.2s-.6 1.2-1.2 1.2c-.7 0-1.2-.5-1.2-1.2s.5-1.2 1.2-1.2zm-4 0c.7 0 1.2.5 1.2 1.2s-.5 1.2-1.2 1.2-1.2-.5-1.2-1.2.5-1.2 1.2-1.2z"/></g><g><path class="svg-icon01" d="M24 28c-5 0-9-4-9-9s4-9 9-9 9 4 9 9-4 9-9 9zm0-16c-4 0-7 3-7 7s3 7 7 7 7-3 7-7-3-7-7-7z"/></g><g><path class="svg-icon01" d="M24 24c-2.8 0-5-2.2-5-5s2.2-5 5-5 5 2.2 5 5-2.2 5-5 5zm2.2-7.2L23 20l-1.3-1.3-1 1 2 2 .3.4 4.2-4-1-1.2z"/></g><g><path class="svg-icon05" d="M23.2 30L21 38l-1.5-3.7-2.8 2.6 2.2-8.3c1.2.7 2.6 1 4.2 1.3zm6-1.3l2.2 8.2-2.8-2.7-1.4 3.7-2.2-8c1.5-.2 3-.6 4.2-1.3z"/></g></svg>