<svg xmlns="http://www.w3.org/2000/svg" class="svg-bkgd08" viewBox="0 0 48 48"><g><path class="svg-shortcut" d="M28 42.5l-3 2.7v-1.7c-.4 0-1.4 0-2.5.6-1.3 1-1.5 1.6-1.5 1.6s-.4-1.2.8-2.7c1.2-1.6 2.6-1.7 3.2-1.6v-1.6l3 2.7z"/></g><g><path class="svg-cluster" d="M28.5 41.3c.6 0 1.2.5 1.2 1.2s-.6 1.2-1.2 1.2-1.2-.5-1.2-1.2.5-1.2 1.2-1.2zm-4 0c.6 0 1.2.5 1.2 1.2s-.6 1.2-1.2 1.2c-.7 0-1.2-.5-1.2-1.2s.5-1.2 1.2-1.2zm-4 0c.7 0 1.2.5 1.2 1.2s-.5 1.2-1.2 1.2-1.2-.5-1.2-1.2.5-1.2 1.2-1.2z"/></g><g><path class="svg-icon11" d="M10 18v14c0 2.2-.4 4 1 4h12v-2h-1v-3h1v-2h-1v-3h1v-2h-1v-3h3v1h1.2c.3-.8 2-.8 2.2-.8 0 0 .2-1 1.5-1.5 3-1 4 1.7 4 1.7V18H10zm5 16h-3v-3h3v3zm0-5h-3v-3h3v3zm5 5h-3v-3h3v3zm0-5h-3v-3h3v3zm0-5h-3v-3h3v3z"/></g><g><path class="svg-icon08" d="M10 17v-3s0-2 1-2h2v2c0 .6 1.4 2 2 2h2c.6 0 2-1.4 2-2v-2h6v2c0 .6 1.4 2 2 2h2c.6 0 2-1.4 2-2v-2h2c1 0 1 2 1 2v3H10z"/></g><g><path class="svg-icon18" d="M27 25v-2c0-.5.3-1 1-1h1v-.7c0-.5 1-1.3 2-1.3s2 1 2 1.3v.7h1c.8 0 1 0 1 1v2h-8zm4-4c-.6 0-1 .4-1 1 0 .5.4 1 1 1 .5 0 1-.5 1-1 0-.6-.5-1-1-1zm-3-11c.5 0 1 .5 1 1v3h-2v-3c0-.5.5-1 1-1zm-12 0c.5 0 1 .5 1 1v3h-2v-3c0-.5.5-1 1-1z"/></g><g><path class="svg-icon01" d="M37.2 38h-12c-.5 0-1.2-.7-1.2-1.2v-13c0-.5.3-.8.8-.8H26v1h-1v13h12V24h-1v-1h1.2c.5 0 .8.3.8.8v13.4c0 .5-.3.8-.8.8z"/></g><g><path class="svg-icon18" d="M27 32h8v2h-8v-2zm0-4h8v2h-8v-2z"/></g></svg>