<svg xmlns="http://www.w3.org/2000/svg" class="svg-bkgd05" viewBox="0 0 48 48"><g><path class="svg-shortcut" d="M28 42.5l-3 2.7v-1.7c-.4 0-1.4 0-2.5.6-1.3 1-1.5 1.6-1.5 1.6s-.4-1.2.8-2.7c1.2-1.6 2.6-1.7 3.2-1.6v-1.6l3 2.7z"/></g><g><path class="svg-cluster" d="M28.5 41.3c.6 0 1.2.5 1.2 1.2s-.6 1.2-1.2 1.2-1.2-.5-1.2-1.2.5-1.2 1.2-1.2zm-4 0c.6 0 1.2.5 1.2 1.2s-.6 1.2-1.2 1.2-1.2-.5-1.2-1.2.5-1.2 1.2-1.2zm-4 0c.7 0 1.2.5 1.2 1.2s-.5 1.2-1.2 1.2-1.2-.5-1.2-1.2.5-1.2 1.2-1.2z"/></g><g><path class="svg-icon12" d="M14 16.5c0-2.8 2.5-5.5 5.5-5.5s5.5 2.7 5.5 5.6c0 2.8-2.5 5.4-5.5 5.4S14 19.4 14 16.5zm8 16.8l5.2-9.3h-2.4c-.3 0-2 2-2 2l-3.3 4.8-3.7-6s-.7-.8-1.2-.8h-2.8c-1 0-1.8 1-1.8 1.6V36c0 1 1 2 1.8 2H22v-4.7z"/></g><g><path class="svg-icon18" d="M24 35.2l3 1.8-3 1v-2.8zm3 1.8l-3-1.8.5-1.3 3.2 1.8L27 37z"/></g><g><path class="svg-icon01" d="M25.2 32.7L32.6 20l3.2 1.8-7.4 12.7-3.2-1.8z"/></g><g><path class="svg-icon07" d="M33.3 18.7l1.5-2.6 3.2 2-1.5 2.5-3.2-1.8z"/></g></svg>