<svg xmlns="http://www.w3.org/2000/svg" class="svg-bkgd11" viewBox="0 0 48 48"><g><path class="svg-shortcut" d="M28 42.5l-3 2.7v-1.7c-.4 0-1.4 0-2.5.6-1.3 1-1.5 1.6-1.5 1.6s-.4-1.2.8-2.7c1.2-1.6 2.6-1.7 3.2-1.6v-1.6l3 2.7z"/></g><g><path class="svg-cluster" d="M28.5 41.3c.6 0 1.2.5 1.2 1.2s-.6 1.2-1.2 1.2-1.2-.5-1.2-1.2.5-1.2 1.2-1.2zm-4 0c.6 0 1.2.5 1.2 1.2s-.6 1.2-1.2 1.2c-.7 0-1.2-.5-1.2-1.2s.5-1.2 1.2-1.2zm-4 0c.7 0 1.2.5 1.2 1.2s-.5 1.2-1.2 1.2-1.2-.5-1.2-1.2.5-1.2 1.2-1.2z"/></g><g><path class="svg-icon03" d="M36 12H12c-.8 0-2 1.2-2 2v20c0 .8 1.2 2 2 2h24c.8 0 2-1.2 2-2V14c0-.8-1.2-2-2-2zM16 33h-3v-2h3v2zm0-4h-3v-2h3v2zm0-4h-3v-2h3v2zm0-4h-3v-2h3v2zm5 12h-3v-2h3v2zm0-4h-3v-2h3v2zm0-4h-3v-2h3v2zm0-4h-3v-2h3v2zm10 12h-8v-2h8v2zm0-4h-8v-2h8v2zm0-4h-8v-2h8v2zm0-4h-8v-2h8v2zm4 12h-2v-2h2v2zm0-4h-2v-2h2v2zm0-4h-2v-2h2v2zm0-4h-2v-2h2v2zm0-4H13v-2h22v2z"/></g></svg>