<svg xmlns="http://www.w3.org/2000/svg" class="svg-bkgd09" viewBox="0 0 48 48"><g><path class="svg-shortcut" d="M28 42.5l-3 2.7v-1.7c-.4 0-1.4 0-2.5.6-1.3 1-1.5 1.6-1.5 1.6s-.4-1.2.8-2.7c1.2-1.6 2.6-1.7 3.2-1.6v-1.6l3 2.7z"/></g><g><path class="svg-cluster" d="M28.5 41.3c.6 0 1.2.5 1.2 1.2s-.6 1.2-1.2 1.2-1.2-.5-1.2-1.2.5-1.2 1.2-1.2zm-4 0c.6 0 1.2.5 1.2 1.2s-.6 1.2-1.2 1.2c-.7 0-1.2-.5-1.2-1.2s.5-1.2 1.2-1.2zm-4 0c.7 0 1.2.5 1.2 1.2s-.5 1.2-1.2 1.2-1.2-.5-1.2-1.2.5-1.2 1.2-1.2z"/></g><g><path class="svg-icon12" d="M25 15.5c0 3-2.4 5.5-5.5 5.5S14 18.5 14 15.5s2.5-5.5 5.5-5.5 5.5 2.5 5.5 5.5zm-2 9c0-1 .6-1.5 1.4-1.5h3.3c-.4-.5-1-1-1.4-1h-2.6l-4.2 7-4.3-7h-2.5c-.6 0-1.7 1-1.7 1.8V35c0 .7.2 1 1 1h11V24.4z"/></g><g><path class="svg-icon03" d="M36 25H26c-.5 0-1 .5-1 1v11c0 .5.5 1 1 1h10c.5 0 1-.5 1-1V26c0-.5-.4-1-1-1zm0 12H26V26h10v11z"/></g><g><path class="svg-icon12" d="M27 27v9h8v-9h-8zm6 7h-4v-1h4v1zm0-2h-4v-1h4v1zm0-2h-4v-1h4v1z"/></g></svg>