<svg xmlns="http://www.w3.org/2000/svg" class="svg-bkgd01" viewBox="0 0 48 48"><g><path class="svg-shortcut" d="M28 42.5l-3 2.7v-1.7c-.4 0-1.4 0-2.5.6-1.3 1-1.5 1.6-1.5 1.6s-.4-1.2.8-2.7c1.2-1.6 2.6-1.7 3.2-1.6v-1.6l3 2.7z"/></g><g><path class="svg-cluster" d="M28.5 41.3c.6 0 1.2.5 1.2 1.2s-.6 1.2-1.2 1.2-1.2-.5-1.2-1.2.5-1.2 1.2-1.2zm-4 0c.6 0 1.2.5 1.2 1.2s-.6 1.2-1.2 1.2c-.7 0-1.2-.5-1.2-1.2s.5-1.2 1.2-1.2zm-4 0c.7 0 1.2.5 1.2 1.2s-.5 1.2-1.2 1.2-1.2-.5-1.2-1.2.5-1.2 1.2-1.2z"/></g><g><path class="svg-icon12" d="M32.5 21.3S32.2 14 26 14c-2.4 0-4.6 1-5.7 3h-1.8c-2.8 0-4.8 2.2-5 5.3-2 .6-3.5 2.6-3.5 5 0 3 2.5 4.8 5.5 4.8l1.8.2c1.7 1.2 4 1.8 6.8 1.8s5-.6 6.7-1.8H33c3 0 5-2 5-5-.2-4.8-5.5-6-5.5-6zm-.7 9h-1.5c-1.4 1-3.7 1.6-5.8 1.6-2.2 0-4.2-.7-5.6-1.6-.3 0-.6-.2-1 0-3 .7-6.3-.6-6.2-3.7 0-2 1.8-3 3.7-3.4-.3-2.6 1-4.6 3.8-4.5h2.2c1-1.6 2-3 4-3 5.5 0 5.3 6.6 5.2 6.6 0 0 5.2.6 5.5 5 .2 2.4-1.7 3.2-4.4 3z"/></g></svg>