<svg xmlns="http://www.w3.org/2000/svg" class="svg-bkgd01" viewBox="0 0 48 48"><g><path class="svg-shortcut" d="M28 42.5l-3 2.7v-1.7c-.4 0-1.4 0-2.5.6-1.3 1-1.5 1.6-1.5 1.6s-.4-1.2.8-2.7c1.2-1.6 2.6-1.7 3.2-1.6v-1.6l3 2.7z"/></g><g><path class="svg-cluster" d="M28.5 41.3c.6 0 1.2.5 1.2 1.2s-.6 1.2-1.2 1.2-1.2-.5-1.2-1.2.5-1.2 1.2-1.2zm-4 0c.6 0 1.2.5 1.2 1.2s-.6 1.2-1.2 1.2c-.7 0-1.2-.5-1.2-1.2s.5-1.2 1.2-1.2zm-4 0c.7 0 1.2.5 1.2 1.2s-.5 1.2-1.2 1.2-1.2-.5-1.2-1.2.5-1.2 1.2-1.2z"/></g><g><path class="svg-icon09" d="M36 23h-9c-1 0-2 0-2 1v11c0 1 1 1 1.8 1H36c1 0 2 0 2-1V24c0-1-1-1-2-1zm0 11h-9v-9h9v9zm-2-2h-5v-5h5v5z"/></g><g><path class="svg-icon04" d="M16.5 23C13 23 10 26 10 29.5s3 6.5 6.5 6.5 6.5-3 6.5-6.5-3-6.5-6.5-6.5zm0 11C14 34 12 32 12 29.5s2-4.5 4.5-4.5 4.5 2 4.5 4.5-2 4.5-4.5 4.5zm2.5-4.5c0 1.4-1 2.5-2.5 2.5S14 31 14 29.5s1-2.5 2.5-2.5 2.5 1 2.5 2.5z"/></g><g><path class="svg-icon10" d="M36 21H32c-1-3.4-4-6-7.7-6-1.8 0-3.5.7-4.8 1.8l2.2 1.4v.7l-8 1v-7h.6l2.3 1.7c2-1.7 4.6-2.7 7.5-2.7 5.5 0 10 4 11.4 9z"/></g></svg>