<svg xmlns="http://www.w3.org/2000/svg" class="svg-bkgd12" viewBox="0 0 48 48"><g><path class="svg-shortcut" d="M28 42.5l-3 2.7v-1.7c-.4 0-1.4 0-2.5.6-1.3 1-1.5 1.6-1.5 1.6s-.4-1.2.8-2.7c1.2-1.6 2.6-1.7 3.2-1.6v-1.6l3 2.7z"/></g><g><path class="svg-cluster" d="M28.5 41.3c.6 0 1.2.5 1.2 1.2s-.6 1.2-1.2 1.2-1.2-.5-1.2-1.2.5-1.2 1.2-1.2zm-4 0c.6 0 1.2.5 1.2 1.2s-.6 1.2-1.2 1.2c-.7 0-1.2-.5-1.2-1.2s.5-1.2 1.2-1.2zm-4 0c.7 0 1.2.5 1.2 1.2s-.5 1.2-1.2 1.2-1.2-.5-1.2-1.2.5-1.2 1.2-1.2z"/></g><g><path class="svg-icon12" d="M22.2 21h-2c-.5 0-.7.4-.7.4l-2.8 4.2-3.2-4.2s-.2-.4-.7-.4h-2c-.4 0-.8.4-.8.8v12.4c0 .5.4.8.8.8h11.4c.4 0 .8-.3.8-.8V21.8c0-.4-.4-.8-.8-.8zm-7 14l-5-5 3-3.2 2 2 3.5-4 3.5 3-7 7zm1.3-22c2 0 3.5 1.6 3.5 3.5 0 2-1.6 3.5-3.5 3.5S13 18.4 13 16.5c0-2 1.6-3.5 3.5-3.5zm15 0c2 0 3.5 1.6 3.5 3.5 0 2-1.6 3.5-3.5 3.5S28 18.4 28 16.5c0-2 1.6-3.5 3.5-3.5zm5.7 22H25.8c-.4 0-.8-.3-.8-.8V21.8c0-.4.4-.8.8-.8h2c.5 0 .7.4.7.4l3.2 4.2 2.8-4.2s.2-.4.7-.4h2c.4 0 .8.4.8.8v12.4c0 .4-.4.8-.8.8z"/></g><g><path class="svg-icon03" d="M20.2 28.2l-5 5-3.4-3.2 1.4-1.4 1.8 2 3.6-4 1.6 1.6z"/></g></svg>