<svg xmlns="http://www.w3.org/2000/svg" class="svg-bkgd09" viewBox="0 0 48 48"><g><path class="svg-shortcut" d="M28 42.5l-3 2.7v-1.7c-.4 0-1.4 0-2.5.6-1.3 1-1.5 1.6-1.5 1.6s-.4-1.2.8-2.7c1.2-1.6 2.6-1.7 3.2-1.6v-1.6l3 2.7z"/></g><g><path class="svg-cluster" d="M28.5 41.3c.6 0 1.2.5 1.2 1.2s-.6 1.2-1.2 1.2-1.2-.5-1.2-1.2.5-1.2 1.2-1.2zm-4 0c.6 0 1.2.5 1.2 1.2s-.6 1.2-1.2 1.2c-.7 0-1.2-.5-1.2-1.2s.5-1.2 1.2-1.2zm-4 0c.7 0 1.2.5 1.2 1.2s-.5 1.2-1.2 1.2-1.2-.5-1.2-1.2.5-1.2 1.2-1.2z"/></g><g><path class="svg-icon03" d="M26 18h-5v3h5v-3zm7-1h-5v-3h5v3zm-7 0h-5v-3h5v3z"/></g><g><path class="svg-icon05" d="M20 14s-1.5-1-3-1c-2.2 0-3 1-3 1h-2s-1 .4-1 1v5h9v-6zm-6 4c-.6 0-1-.4-1-1s.4-1 1-1 1 .4 1 1-.5 1-1 1zm3 0c-.6 0-1-.4-1-1s.4-1 1-1 1 .4 1 1-.5 1-1 1zm15.5 5c.8 0 1.6.2 2.4.5l3-5.5H27v4h-7v-1H10s0 5 4 5h13c1.2-1.8 3.2-3 5.5-3zm.5-3c.5 0 1 .4 1 1 0 .5-.5 1-1 1s-1-.4-1-1 .5-1 1-1zm-3 0c.6 0 1 .4 1 1 0 .5-.4 1-1 1s-1-.4-1-1 .4-1 1-1z"/></g><g><path class="svg-icon09" d="M32.5 24c-3 0-5.5 2.5-5.5 5.5s2.5 5.5 5.5 5.5 5.5-2.5 5.5-5.5-2.5-5.5-5.5-5.5zm3.5 8h-7v-1h1v-2h1v2h1v-2h1v2h1v-2h1v2h1v1zm-7-4l3.5-2 3.5 2h-7z"/></g></svg>