<svg xmlns="http://www.w3.org/2000/svg" class="svg-bkgd08" viewBox="0 0 48 48"><g><path class="svg-shortcut" d="M28 42.5l-3 2.7v-1.7c-.4 0-1.4 0-2.5.6-1.3 1-1.5 1.6-1.5 1.6s-.4-1.2.8-2.7c1.2-1.6 2.6-1.7 3.2-1.6v-1.6l3 2.7z"/></g><g><path class="svg-cluster" d="M28.5 41.3c.6 0 1.2.5 1.2 1.2s-.6 1.2-1.2 1.2-1.2-.5-1.2-1.2.5-1.2 1.2-1.2zm-4 0c.6 0 1.2.5 1.2 1.2s-.6 1.2-1.2 1.2c-.7 0-1.2-.5-1.2-1.2s.5-1.2 1.2-1.2zm-4 0c.7 0 1.2.5 1.2 1.2s-.5 1.2-1.2 1.2-1.2-.5-1.2-1.2.5-1.2 1.2-1.2z"/></g><g><path class="svg-icon11" d="M38 32V18H14v2.7s1-1.6 3.3-1.6c1.7 0 2.7 1.4 2.7 2 0 0 1.4-.3 1.8 1H23v-1h3v3h-1v2h1v3h-1v2h1v3h-1v2h12c1.4 0 1-1.8 1-4zm-7 2h-3v-3h3v3zm0-5h-3v-3h3v3zm0-5h-3v-3h3v3zm5 10h-3v-3h3v3zm0-5h-3v-3h3v3z"/></g><g><path class="svg-icon08" d="M38 17v-3s0-2-1-2h-2v2c0 .6-1.4 2-2 2h-2c-.6 0-2-1.4-2-2v-2h-6v2c0 .6-1.4 2-2 2h-2c-.6 0-2-1.4-2-2v-2h-2c-1 0-1 2-1 2v3h24z"/></g><g><path class="svg-icon18" d="M20 10c-.5 0-1 .5-1 1v3h2v-3c0-.5-.5-1-1-1zm13 1v3h-2v-3c0-.5.5-1 1-1s1 .5 1 1zM20 22h-1v-.7c0-.5-1-1.3-2-1.3s-2 1-2 1.3v.7h-1c-.4 0-1 .3-1 1v2h8v-2c0-.5-.3-1-1-1zm-3 1c-.5 0-1-.5-1-1 0-.6.5-1 1-1s1 .4 1 1c0 .5-.4 1-1 1z"/></g><g><path class="svg-icon01" d="M10.8 38h12c.5 0 1.2-.7 1.2-1.2v-13c0-.5-.3-.8-.8-.8H22v1h1v13H11V24h1v-1h-1.2c-.5 0-.8.3-.8.8v13.4c0 .5.3.8.8.8z"/></g><g><path class="svg-icon18" d="M21 32h-8v2h8v-2zm0-2h-8v-2h8v2z"/></g></svg>