<svg xmlns="http://www.w3.org/2000/svg" class="svg-bkgd08" viewBox="0 0 48 48"><g><path class="svg-shortcut" d="M28 42.5l-3 2.7v-1.7c-.4 0-1.4 0-2.5.6-1.3 1-1.5 1.6-1.5 1.6s-.4-1.2.8-2.7c1.2-1.6 2.6-1.7 3.2-1.6v-1.6l3 2.7z"/></g><g><path class="svg-cluster" d="M28.5 41.3c.6 0 1.2.5 1.2 1.2s-.6 1.2-1.2 1.2-1.2-.5-1.2-1.2.5-1.2 1.2-1.2zm-4 0c.6 0 1.2.5 1.2 1.2s-.6 1.2-1.2 1.2c-.7 0-1.2-.5-1.2-1.2s.5-1.2 1.2-1.2zm-4 0c.7 0 1.2.5 1.2 1.2s-.5 1.2-1.2 1.2-1.2-.5-1.2-1.2.5-1.2 1.2-1.2z"/></g><g><path class="svg-icon18" d="M11.2 20.7c1 1 2.7 1 4.2.7L18 24l3.5-3.3-2.5-2.5c.4-1.5 0-3-1.2-4-1.3-1.3-2.7-1.5-4.5-.7l2 2c.3.3.4 1 0 1.3L13.8 18c-.5.6-1.2.5-1.6 0l-2-1.8c-.7 1.6-.5 3.3.8 4.5zm12 8.6l2.7 2.5c-.6 1.5 0 3.2 1 4.3 1.4 1.3 3 1.2 4.7.4L30 34.7c-.5-.4-.5-1 0-1.5L31 32c.5-.5 1-.5 1.5 0l1.7 1.7c.8-1.7 1-3-.4-4.4-1.2-1-3.2-1-4.7-.6l-3-2.8-3.2 3.3zM20 12.7c-.2-.5 2-.6 4.7-.7 2.2 0 4 .3 4.8.5 1.3.3 2.7 1 3.8 2.2C34.5 16 35 17.5 35 19l.7 1c.5-.3 1.2-.3 1.6 0l.5.5c.4.4 0 1-.4 1.3l-2.6 2.6c-.4.5-.8.8-1.2.4l-.5-.6c-.2-.2-.2-.8 0-1.3l-1-1c-.5-.3-1-.5-1.3-.5-1 0-1.7.4-2.6.2L26.7 23 24 20l1.3-2c0-.6.5-1.3.7-2v-1c-.4-.3-.8-.4-1.3-.5-2.7-.3-4.5-1.4-4.7-2z"/></g><g><path class="svg-icon15" d="M26 24.5L22.5 21s-3 3.5-6 6.3c-5 4.3-7.7 6-6 8 1 1 3 1.7 3 1.7L26 24.5z"/></g></svg>