<svg xmlns="http://www.w3.org/2000/svg" class="svg-bkgd02" viewBox="0 0 48 48"><g><path class="svg-shortcut" d="M28 42.5l-3 2.7v-1.7c-.4 0-1.4 0-2.5.6-1.3 1-1.5 1.6-1.5 1.6s-.4-1.2.8-2.7c1.2-1.6 2.6-1.7 3.2-1.6v-1.6l3 2.7z"/></g><g><path class="svg-cluster" d="M28.5 41.3c.6 0 1.2.5 1.2 1.2s-.6 1.2-1.2 1.2-1.2-.5-1.2-1.2.5-1.2 1.2-1.2zm-4 0c.6 0 1.2.5 1.2 1.2s-.6 1.2-1.2 1.2c-.7 0-1.2-.5-1.2-1.2s.5-1.2 1.2-1.2zm-4 0c.7 0 1.2.5 1.2 1.2s-.5 1.2-1.2 1.2-1.2-.5-1.2-1.2.5-1.2 1.2-1.2z"/></g><g><path class="svg-icon05" d="M24.83 26.3A19.4 19.4 0 0 0 21 29.2v1.83h-2.36a1.85 1.85 0 0 1-1.66-1.74v-6.55c0-1.74 0-1.74 1.66-1.74h1.3l3.33 4.36L26.6 21h1.74C30 21 30 21.9 30 22.76V26s-3.8-.27-5.17.3zm-1.35-6.2a4.53 4.53 0 1 1 4.54-4.53 4.53 4.53 0 0 1-4.54 4.54z"/></g><g><path class="svg-icon11" d="M34.3 26H32v-3.48L33.7 20h2.37a1.08 1.08 0 0 1 .94.94v6.7A3.82 3.82 0 0 0 34.3 26zm-3.44-7.27a4.72 4.72 0 0 1-1.44-.17 6.6 6.6 0 0 0-.8-6.67 3.58 3.58 0 0 1 2.24-.76 3.8 3.8 0 1 1 0 7.6zm-13.63-.27a3.6 3.6 0 0 1-1.54.27 3.8 3.8 0 0 1 0-7.6 3.67 3.67 0 0 1 2.32.83 6.6 6.6 0 0 0-.8 6.5zm-2.2 4.06v6.5h-4.08a1.08 1.08 0 0 1-.95-.94v-7.1a1.08 1.08 0 0 1 .95-.96h2.84z"/></g><g><path class="svg-icon13" d="M37 33c0 3 .08 4-3 4-1.33 0-3-.06-3-1 0-3.4-.24-3-1-3-.86 0-1-.33-1 3 0 .96-1.33 1-3 1-2.67 0-3-1.02-3-4 0 .46.03-1-1-1v-1s5.67-.06 6 0a4.74 4.74 0 0 1 1.67 1h.66A3.96 3.96 0 0 1 32 31c.42-.05 6 0 6 0v1a1.1 1.1 0 0 0-1 1zm-11-1c-1.1 0-2 .06-2 2s.9 2 2 2 2 .2 2-2-.9-2-2-2zm8 0c-1.1 0-2-.1-2 2s.9 2 2 2 2 .03 2-2-.9-2-2-2z"/></g><g><path class="svg-icon06" d="M22 30h2s2.28-2 3.3-2c.4 0 .7-.05.7 1h1s.13-2-1-2c.02 0-1.02-.67-5 2a2.43 2.43 0 0 0-1 1zm16 0h-2s-2.36-2.03-3.34-2.03c-.3 0-.64.08-.66 1.03h-1s-.13-2 1-2c-.08 0 1.08-.67 5 2a2.9 2.9 0 0 1 1 1z"/></g></svg>