<svg xmlns="http://www.w3.org/2000/svg" class="svg-bkgd04" viewBox="0 0 48 48"><g><path class="svg-shortcut" d="M28 42.5l-3 2.7v-1.7c-.4 0-1.4 0-2.5.6-1.3 1-1.5 1.6-1.5 1.6s-.4-1.2.8-2.7c1.2-1.6 2.6-1.7 3.2-1.6v-1.6l3 2.7z"/></g><g><path class="svg-cluster" d="M28.5 41.3c.6 0 1.2.5 1.2 1.2s-.6 1.2-1.2 1.2-1.2-.5-1.2-1.2.5-1.2 1.2-1.2zm-4 0c.6 0 1.2.5 1.2 1.2s-.6 1.2-1.2 1.2c-.7 0-1.2-.5-1.2-1.2s.5-1.2 1.2-1.2zm-4 0c.7 0 1.2.5 1.2 1.2s-.5 1.2-1.2 1.2-1.2-.5-1.2-1.2.5-1.2 1.2-1.2z"/></g><g><path class="svg-icon06" d="M35.7 30H12.3c-.7 0-1.3.6-1.3 1.3v5.4c0 .7.6 1.3 1.3 1.3h23.4c.7 0 1.3-.6 1.3-1.3v-4.4c0-.7-.6-2.3-1.3-2.3zM24 35H13v-2h11v2zm8 1c-1.2 0-2-1-2-2s.8-2 2-2 2 .8 2 2-1 2-2 2z"/></g><g><path class="svg-icon13" d="M35.7 20H12.3c-.7 0-1.3.6-1.3 1.3v5.4c0 .7.6 1.3 1.3 1.3h23.4c.7 0 1.3-.6 1.3-1.3v-4.4c0-.7-.6-2.3-1.3-2.3zM24 25H13v-2h11v2zm8 1c-1.2 0-2-1-2-2s.8-2 2-2 2 .8 2 2-1 2-2 2z"/></g><g><path class="svg-icon14" d="M35.7 10H12.3c-.7 0-1.3.6-1.3 1.3v5.4c0 .7.6 1.3 1.3 1.3h23.4c.7 0 1.3-.6 1.3-1.3v-4.4c0-.7-.6-2.3-1.3-2.3zM24 15H13v-2h11v2zm8 1c-1 0-2-1-2-2s1-2 2-2 2 1 2 2-1 2-2 2z"/></g></svg>