<svg xmlns="http://www.w3.org/2000/svg" class="svg-bkgd09" viewBox="0 0 48 48"><g><path class="svg-shortcut" d="M28 42.5l-3 2.7v-1.7c-.4 0-1.4 0-2.5.6-1.3 1-1.5 1.6-1.5 1.6s-.4-1.2.8-2.7c1.2-1.6 2.6-1.7 3.2-1.6v-1.6l3 2.7z"/></g><g><path class="svg-cluster" d="M28.5 41.3c.6 0 1.2.5 1.2 1.2s-.6 1.2-1.2 1.2-1.2-.5-1.2-1.2.5-1.2 1.2-1.2zm-4 0c.6 0 1.2.5 1.2 1.2s-.6 1.2-1.2 1.2c-.7 0-1.2-.5-1.2-1.2s.5-1.2 1.2-1.2zm-4 0c.7 0 1.2.5 1.2 1.2s-.5 1.2-1.2 1.2-1.2-.5-1.2-1.2.5-1.2 1.2-1.2z"/></g><g><path class="svg-icon11" d="M36 31l-4.3-1.6L17.4 15 16 12l2-2 3 1.4 4-1.3 6.8 7v3L25 13l-2 .5L35.3 26l1.7 5h-1z"/></g><g><path class="svg-icon10" d="M13 31c1 0 2.6 0 4 1s1.2 1.2 2 1 2.2-3 6-3c5 0 5 3 5 4 0 1.5 1.4.3 2 0s1.3-1 3-1 2 1.2 2 2-1 1-2 1-4 2-6 2-2-1.8-2-3c0-1.6-.7-2-2-2s-3.2 3-6 3-2.8-2-6-2-2.2-3 0-3z"/></g></svg>