<svg xmlns="http://www.w3.org/2000/svg" class="svg-bkgd08" viewBox="0 0 48 48"><g><path class="svg-shortcut" d="M28 42.5l-3 2.7v-1.7c-.4 0-1.4 0-2.5.6-1.3 1-1.5 1.6-1.5 1.6s-.4-1.2.8-2.7c1.2-1.6 2.6-1.7 3.2-1.6v-1.6l3 2.7z"/></g><g><path class="svg-cluster" d="M28.5 41.3c.6 0 1.2.5 1.2 1.2s-.6 1.2-1.2 1.2-1.2-.5-1.2-1.2.5-1.2 1.2-1.2zm-4 0c.6 0 1.2.5 1.2 1.2s-.6 1.2-1.2 1.2c-.7 0-1.2-.5-1.2-1.2s.5-1.2 1.2-1.2zm-4 0c.7 0 1.2.5 1.2 1.2s-.5 1.2-1.2 1.2-1.2-.5-1.2-1.2.5-1.2 1.2-1.2z"/></g><g><path class="svg-icon12" d="M29 15.8c0 2.7-2.2 5.2-5 5.2s-5-2.5-5-5 2.3-5 5-5 5 2 5 4.8zm3 20c0 .6-.7 1.2-1.3 1.2H17c-.4 0-1-.6-1-1V24.2c0-.6 0-2.3 1-2.3h2.4l4.6 5.4 4.6-5.4H31c1 0 1 1.4 1 2v12zm-14-4.7l4.3 5 7.7-8-2-2-5.7 5.7-2.2-2.5-2 2z"/></g></svg>