<svg xmlns="http://www.w3.org/2000/svg" class="svg-bkgd04" viewBox="0 0 48 48"><g><path class="svg-shortcut" d="M28 42.5l-3 2.7v-1.7c-.4 0-1.4 0-2.5.6-1.3 1-1.5 1.6-1.5 1.6s-.4-1.2.8-2.7c1.2-1.6 2.6-1.7 3.2-1.6v-1.6l3 2.7z"/></g><g><path class="svg-cluster" d="M28.5 41.3c.6 0 1.2.5 1.2 1.2s-.6 1.2-1.2 1.2-1.2-.5-1.2-1.2.5-1.2 1.2-1.2zm-4 0c.6 0 1.2.5 1.2 1.2s-.6 1.2-1.2 1.2c-.7 0-1.2-.5-1.2-1.2s.5-1.2 1.2-1.2zm-4 0c.7 0 1.2.5 1.2 1.2s-.5 1.2-1.2 1.2-1.2-.5-1.2-1.2.5-1.2 1.2-1.2z"/></g><g><path class="svg-icon03" d="M33 28v-3h-8v3h-2v-3h-8v3h-2v-5h10v-3h2v3h10v5h-2z"/></g><g><path class="svg-icon05" d="M20.6 10h6.8c.8 0 1.6 1.2 1.6 2v4c0 .8-.7 2-1.5 2h-7c-.8 0-1.5-1.2-1.5-2v-4c0-.8.8-2 1.6-2zm1 20h5c.8 0 1.4 1 1.4 1.6V37c0 .8-.8 1-1.5 1h-5c-.8 0-1.5-.2-1.5-1v-5.4c0-.7.8-1.6 1.5-1.6zm10 0h4.8c.8 0 1.6.6 1.6 1.4v5.2c0 .8-.6 1.4-1.4 1.4h-5c-.7 0-1.6-.2-1.6-1v-5.4c0-.7.7-1.6 1.5-1.6zm-20.3 0H17c.6 0 1 1 1 1.6V37c0 .8-1 1-1.7 1h-5c-.7 0-1.3-.6-1.3-1.4v-5.2c0-.8.5-1.4 1.3-1.4z"/></g></svg>