<svg xmlns="http://www.w3.org/2000/svg" class="svg-bkgd04" viewBox="0 0 48 48"><g><path class="svg-shortcut" d="M28 42.5l-3 2.7v-1.7c-.4 0-1.4 0-2.5.6-1.3 1-1.5 1.6-1.5 1.6s-.4-1.2.8-2.7c1.2-1.6 2.6-1.7 3.2-1.6v-1.6l3 2.7z"/></g><g><path class="svg-cluster" d="M28.5 41.3c.6 0 1.2.5 1.2 1.2s-.6 1.2-1.2 1.2-1.2-.5-1.2-1.2.5-1.2 1.2-1.2zm-4 0c.6 0 1.2.5 1.2 1.2s-.6 1.2-1.2 1.2c-.7 0-1.2-.5-1.2-1.2s.5-1.2 1.2-1.2zm-4 0c.7 0 1.2.5 1.2 1.2s-.5 1.2-1.2 1.2-1.2-.5-1.2-1.2.5-1.2 1.2-1.2z"/></g><g><path class="svg-icon12" d="M28 13H15c-1 0-2 1-2 2v21c0 1 .8 2 2 2h13V13z"/></g><g><path class="svg-icon05" d="M12 34V12h19c0-1-.8-2-1.8-2H11.8c-1.2 0-1.8.7-1.8 1.8v20.5c0 1 1 1.7 2 1.7zm21.7 2c-1 0-1.7-.7-1.7-1.7v-1.6c0-1 .8-1.7 1.7-1.7H35v-3h-1.3c-1 0-1.7-.7-1.7-1.7v-1.6c0-1 .8-1.7 1.7-1.7H35v-3h-1.3c-1 0-1.7-.7-1.7-1.7v-1.6c0-1 .8-1.7 1.7-1.7H35v-.2c0-1-.8-1.8-1.7-1.8H29v25h4.3c.4 0 1-.2 1.2-.6.3-.3.5-.7.5-1.2V36h-1.3z"/></g><g><path class="svg-icon18" d="M37.2 16h-3.4c-.4 0-.8.7-.8 1.5s.4 1.5.8 1.5h3.4c.4 0 .8-.7.8-1.5s-.4-1.5-.8-1.5zm.8 9.5c0 .8-.4 1.5-.8 1.5h-3.4c-.4 0-.8-.7-.8-1.5s.4-1.5.8-1.5h3.4c.4 0 .8.7.8 1.5zm0 8c0 .8-.4 1.5-.8 1.5h-3.4c-.4 0-.8-.7-.8-1.5s.4-1.5.8-1.5h3.4c.4 0 .8.7.8 1.5z"/></g></svg>