<svg xmlns="http://www.w3.org/2000/svg" class="svg-bkgd09" viewBox="0 0 48 48"><g><path class="svg-shortcut" d="M28 42.5l-3 2.7v-1.7c-.4 0-1.4 0-2.5.6-1.3 1-1.5 1.6-1.5 1.6s-.4-1.2.8-2.7c1.2-1.6 2.6-1.7 3.2-1.6v-1.6l3 2.7z"/></g><g><path class="svg-cluster" d="M28.5 41.3c.6 0 1.2.5 1.2 1.2s-.6 1.2-1.2 1.2-1.2-.5-1.2-1.2.5-1.2 1.2-1.2zm-4 0c.6 0 1.2.5 1.2 1.2s-.6 1.2-1.2 1.2c-.7 0-1.2-.5-1.2-1.2s.5-1.2 1.2-1.2zm-4 0c.7 0 1.2.5 1.2 1.2s-.5 1.2-1.2 1.2-1.2-.5-1.2-1.2.5-1.2 1.2-1.2z"/></g><g><path class="svg-icon03" d="M34 10H14c-.7 0-1 .6-1 1.3v25.4c0 .7.6 1.3 1.3 1.3h19.4c.7 0 1.3-.6 1.3-1.3V11.3c0-.7-.3-1.3-1-1.3zm-9 22h-9v-2h9v2zm0-7h-9v-2h9v2zm0-7h-9v-2h9v2zm8 12.2L29.3 33 27 31.2v-.5l.7-.6h.6l1 1 2-2h.6l1 .8v.4zm0-7L29.3 26 27 24.2v-.5l.7-.6h.6l1 1 2-2h.6l1 .8v.4zm0-7L29.3 19 27 17.2v-.5l.7-.6h.6l1 1 2-2h.6l1 .8v.4z"/></g></svg>