<svg xmlns="http://www.w3.org/2000/svg" class="svg-bkgd08" viewBox="0 0 48 48"><g><path class="svg-shortcut" d="M28 42.5l-3 2.7v-1.7c-.4 0-1.4 0-2.5.6-1.3 1-1.5 1.6-1.5 1.6s-.4-1.2.8-2.7c1.2-1.6 2.6-1.7 3.2-1.6v-1.6l3 2.7z"/></g><g><path class="svg-cluster" d="M28.5 41.3c.6 0 1.2.5 1.2 1.2s-.6 1.2-1.2 1.2-1.2-.5-1.2-1.2.5-1.2 1.2-1.2zm-4 0c.6 0 1.2.5 1.2 1.2s-.6 1.2-1.2 1.2c-.7 0-1.2-.5-1.2-1.2s.5-1.2 1.2-1.2zm-4 0c.7 0 1.2.5 1.2 1.2s-.5 1.2-1.2 1.2-1.2-.5-1.2-1.2.5-1.2 1.2-1.2z"/></g><g><path class="svg-icon08" d="M36.6 24h-19c-1 0-1.6.4-1.6 1.3v11c0 1.2.5 1.7 1.6 1.7h19c1 0 1.4-.3 1.4-1V25.2c0-1-.4-1.3-1.4-1.3zM30 36h-5v-1h5v1zm0-3H18v-1h12v1zm0-3H18v-1h12v1zm6 6h-4v-1h4v1zm0-3h-4v-1h4v1zm0-3h-4v-1h4v1zm0-3H18v-1h18v1z"/></g><g><path class="svg-icon01" d="M25.3 19l3.7 3H16l3.6-3 3 2.2 2.7-2.3zM14 23.5L10 27h4v-3.4zm-4-12.3v14.4l8.7-7.4-8.7-7zm0-1.3l12.4 10L35 10H10zm16.2 8.3l4.4 3.7H35V11.3l-8.8 7zM35 10z"/></g></svg>