<svg xmlns="http://www.w3.org/2000/svg" class="svg-bkgd09" viewBox="0 0 48 48"><g><path class="svg-shortcut" d="M28 42.5l-3 2.7v-1.7c-.4 0-1.4 0-2.5.6-1.3 1-1.5 1.6-1.5 1.6s-.4-1.2.8-2.7c1.2-1.6 2.6-1.7 3.2-1.6v-1.6l3 2.7z"/></g><g><path class="svg-cluster" d="M28.5 41.3c.6 0 1.2.5 1.2 1.2s-.6 1.2-1.2 1.2-1.2-.5-1.2-1.2.5-1.2 1.2-1.2zm-4 0c.6 0 1.2.5 1.2 1.2s-.6 1.2-1.2 1.2c-.7 0-1.2-.5-1.2-1.2s.5-1.2 1.2-1.2zm-4 0c.7 0 1.2.5 1.2 1.2s-.5 1.2-1.2 1.2-1.2-.5-1.2-1.2.5-1.2 1.2-1.2z"/></g><g><path class="svg-icon03" d="M38 34l-5-4v3h-3.7c-1 0-2-.4-2.5-1-.5-.5-.8-1-.8-2v-5h7v3l5-4-5-4.2V23h-7v-5c0-1 .2-1.7.8-2.2.5-.5 1.4-1 2.4-1H33v3.4l5-4.3-3.7-3.2L33 9.6V13h-4.4c-1 0-2.2.3-3 1-1 1-1.6 2.4-1.6 3.6V23h-2v2h2v5.4c0 1 .5 2.4 1.3 3.3 1 1 2.2 1.3 3.3 1.3H33v3l5-4z"/></g><g><path class="svg-icon06" d="M15.5 20c2.5 0 4.5 2 4.5 4.5S18 29 15.5 29 11 27 11 24.5s2-4.5 4.5-4.5z"/></g></svg>