<svg xmlns="http://www.w3.org/2000/svg" class="svg-bkgd04" viewBox="0 0 48 48"><g><path class="svg-shortcut" d="M28 42.5l-3 2.7v-1.7c-.4 0-1.4 0-2.5.6-1.3 1-1.5 1.6-1.5 1.6s-.4-1.2.8-2.7c1.2-1.6 2.6-1.7 3.2-1.6v-1.6l3 2.7z"/></g><g><path class="svg-cluster" d="M28.5 41.3c.6 0 1.2.5 1.2 1.2s-.6 1.2-1.2 1.2-1.2-.5-1.2-1.2.5-1.2 1.2-1.2zm-4 0c.6 0 1.2.5 1.2 1.2s-.6 1.2-1.2 1.2c-.7 0-1.2-.5-1.2-1.2s.5-1.2 1.2-1.2zm-4 0c.7 0 1.2.5 1.2 1.2s-.5 1.2-1.2 1.2-1.2-.5-1.2-1.2.5-1.2 1.2-1.2z"/></g><g><path class="svg-icon05" d="M27.5 18.8c-.8-1-2-1.7-3.5-1.7-1.4 0-2.7.8-3.5 1.8l-4.8 1.6c1.7 0 3 1 4 2 .7.8 1 1.8 1.3 2.4V26c0 .8 0 1.5-.3 2l2-.3c.4 0 .6-.4.5-.7l-.2-1h2l-.2 1c0 .3 0 .6.5.7l2 .4c-.3-.5-.4-1.2-.4-2V25c.2-.6.6-1.6 1.4-2.4 1-1 2.2-2 4-2l-5-1.6z"/></g><g><path class="svg-icon12" d="M38 27c0 2.8-2.2 5-5 5s-5-2.2-5-5 2.2-5 5-5 5 2.2 5 5zm-5-3.2c-1.8 0-3.2 1.4-3.2 3.2s1.4 3.2 3.2 3.2 3.2-1.4 3.2-3.2-1.4-3.2-3.2-3.2zM20 27c0 2.8-2.2 5-5 5s-5-2.2-5-5 2.2-5 5-5 5 2.2 5 5zm-5-3.2c-1.8 0-3.2 1.4-3.2 3.2s1.4 3.2 3.2 3.2c1.8 0 3.2-1.4 3.2-3.2s-1.4-3.2-3.2-3.2z"/></g></svg>