<svg xmlns="http://www.w3.org/2000/svg" class="svg-bkgd07" viewBox="0 0 48 48"><g><path class="svg-shortcut" d="M28 42.5l-3 2.7v-1.7c-.4 0-1.4 0-2.5.6-1.3 1-1.5 1.6-1.5 1.6s-.4-1.2.8-2.7c1.2-1.6 2.6-1.7 3.2-1.6v-1.6l3 2.7z"/></g><g><path class="svg-cluster" d="M28.5 41.3c.6 0 1.2.5 1.2 1.2s-.6 1.2-1.2 1.2-1.2-.5-1.2-1.2.5-1.2 1.2-1.2zm-4 0c.6 0 1.2.5 1.2 1.2s-.6 1.2-1.2 1.2c-.7 0-1.2-.5-1.2-1.2s.5-1.2 1.2-1.2zm-4 0c.7 0 1.2.5 1.2 1.2s-.5 1.2-1.2 1.2-1.2-.5-1.2-1.2.5-1.2 1.2-1.2z"/></g><g><path class="svg-icon11" d="M20 36h-5c-1.3 0-1-1.8-1-4v-3l4 4.8 2 2.2zm17 0h-8v-2h2v-3h-2.2c-.4-1.6-1.3-2.7-2.8-3.2V26h-3v1.3h-.5l-3-3.3H21v-3h-2c0-.8 0-1.5-.4-2H38v13c0 2.2.4 4-1 4zM26 21h-3v3h3v-3zm5 5h-3v3h3v-3zm0-5h-3v3h3v-3zm5 10h-3v3h3v-3zm0-5h-3v3h3v-3z"/></g><g><path class="svg-icon08" d="M38 17v-3s0-2-1-2h-2v2c0 .6-1.4 2-2 2h-2c-.6 0-2-1.4-2-2v-2h-6v2c0 .6-1.4 2-2 2h-2c-.6 0-2-1.4-2-2v-2h-2c-1 0-1 2-1 2v3h24z"/></g><g><path class="svg-icon18" d="M20 10c-.5 0-1 .5-1 1v3h2v-3c0-.5-.5-1-1-1zm13 1v3h-2v-3c0-.5.5-1 1-1s1 .5 1 1zM11 26.4c1 1 2.3 1 3.7.6l2 2.2L20 33c-.4 1.3-.2 3 .8 4 1.2 1.2 2.7 1.3 4.3.5l-1.8-1.8c-.3-.3-.4-1 0-1.3l1.2-1.3c.5-.3 1-.3 1.4 0l1.7 2c.7-1.8.7-3.3-.5-4.5-1-1-2.5-1-4-.5l-2.4-2.7-2.5-3c.5-1.3.6-3.2-.5-4.2-1.2-1-2.7-1.3-4.3-.6l1.8 2c.4.2.4.8 0 1.2L13.7 24c-.4.3-1 .2-1.4-.2L10.5 22c-.8 1.6-.6 3.2.6 4.4z"/></g></svg>