<svg xmlns="http://www.w3.org/2000/svg" class="svg-bkgd03" viewBox="0 0 48 48"><g><path class="svg-shortcut" d="M28 42.5l-3 2.7v-1.7c-.4 0-1.4 0-2.5.6-1.3 1-1.5 1.6-1.5 1.6s-.4-1.2.8-2.7c1.2-1.6 2.6-1.7 3.2-1.6v-1.6l3 2.7z"/></g><g><path class="svg-cluster" d="M28.5 41.3c.6 0 1.2.5 1.2 1.2s-.6 1.2-1.2 1.2-1.2-.5-1.2-1.2.5-1.2 1.2-1.2zm-4 0c.6 0 1.2.5 1.2 1.2s-.6 1.2-1.2 1.2-1.2-.5-1.2-1.2.5-1.2 1.2-1.2zm-4 0c.7 0 1.2.5 1.2 1.2s-.5 1.2-1.2 1.2-1.2-.5-1.2-1.2.5-1.2 1.2-1.2z"/></g><g><path class="svg-icon03" d="M32 22h-3v.4l-1 .5v-1h-3v2h1.4l-1 1H25v.8c-.6 1-1 2.3-1 3.7 0 1.3.3 2.5 1 3.5H11.7c-.7 0-1.8-1-1.8-1.7V13.7c0-.7 1-1.7 1.8-1.7h20.4c.7 0 1.8 1 1.8 1.7v8.7l-2-.4zm-4-1v-2h-3v2h3zm-13 9h9v-2h-9v2zm0-3h9v-2h-9v2zm0-3h9v-2h-9v2zm0-3h9v-2h-9v2zm-3 9h2v-2h-2v2zm2-3v-2h-2v2h2zm-2-3h2v-2h-2v2zm2-3v-2h-2v2h2zm18-6H12v2h20v-2zm-3 4v2h3v-2h-3z"/></g><g><path class="svg-icon12" d="M32 36c-3.3 0-6-2.7-6-6s2.7-6 6-6 6 2.7 6 6-2.7 6-6 6zm3-6h-3v-4h-1v5h4v-1z"/></g></svg>