<svg xmlns="http://www.w3.org/2000/svg" class="svg-bkgd08" viewBox="0 0 48 48"><g><path class="svg-shortcut" d="M28 42.5l-3 2.7v-1.7c-.4 0-1.4 0-2.5.6-1.3 1-1.5 1.6-1.5 1.6s-.4-1.2.8-2.7c1.2-1.6 2.6-1.7 3.2-1.6v-1.6l3 2.7z"/></g><g><path class="svg-cluster" d="M28.5 41.3c.6 0 1.2.5 1.2 1.2s-.6 1.2-1.2 1.2-1.2-.5-1.2-1.2.5-1.2 1.2-1.2zm-4 0c.6 0 1.2.5 1.2 1.2s-.6 1.2-1.2 1.2c-.7 0-1.2-.5-1.2-1.2s.5-1.2 1.2-1.2zm-4 0c.7 0 1.2.5 1.2 1.2s-.5 1.2-1.2 1.2-1.2-.5-1.2-1.2.5-1.2 1.2-1.2z"/></g><g><path class="svg-icon02" d="M25 15h-1v-2h1v2zm7 7v-1h2v1h-2zm-18 0v-1h2v1h-2zm6-6h1l4 6.8-1.7 1.2-3.3-8zm7 8.2c0 1.3-1.5.7-3 .7-1.6 0-3 .4-3-.8 0-1.7 1.5-3.2 3-3.2s3 1.5 3 3.2zm-8.4-6.8l-.7.7-1.6-1.4.7-.7 1.6 1.4zM31 16l.6.6L30 18l-.6-.6L31 16z"/></g><g><path class="svg-icon04" d="M24 10c-7.7 0-14 6.3-14 14s6.3 14 14 14 14-6.3 14-14-6.3-14-14-14zm0 2c6.3 0 12 5.8 12 12H12c0-6.2 5.7-12 12-12z"/></g></svg>