<svg xmlns="http://www.w3.org/2000/svg" class="svg-bkgd04" viewBox="0 0 48 48"><g><path class="svg-shortcut" d="M28 42.5l-3 2.7v-1.7c-.4 0-1.4 0-2.5.6-1.3 1-1.5 1.6-1.5 1.6s-.4-1.2.8-2.7c1.2-1.6 2.6-1.7 3.2-1.6v-1.6l3 2.7z"/></g><g><path class="svg-cluster" d="M28.5 41.3c.6 0 1.2.5 1.2 1.2s-.6 1.2-1.2 1.2-1.2-.5-1.2-1.2.5-1.2 1.2-1.2zm-4 0c.6 0 1.2.5 1.2 1.2s-.6 1.2-1.2 1.2c-.7 0-1.2-.5-1.2-1.2s.5-1.2 1.2-1.2zm-4 0c.7 0 1.2.5 1.2 1.2s-.5 1.2-1.2 1.2-1.2-.5-1.2-1.2.5-1.2 1.2-1.2z"/></g><g><path class="svg-icon12" d="M20 13h13c1 0 2 1 2 2v21c0 1-.8 2-2 2H20V13z"/></g><g><path class="svg-icon05" d="M36 34V12H17c0-1 .8-2 1.8-2h17.4c1.2 0 1.8.7 1.8 1.8v20.5c0 1-1 1.7-2 1.7zM14.7 13c-1 0-1.7.8-1.7 1.8v.2h1.3c1 0 1.7.7 1.7 1.7v1.6c0 1-.8 1.7-1.7 1.7H13v3h1.3c1 0 1.7.7 1.7 1.7v1.6c0 1-.8 1.7-1.7 1.7H13v3h1.3c1 0 1.7.7 1.7 1.7v1.6c0 1-.8 1.7-1.7 1.7H13v.2c0 .5.2 1 .5 1.2.3.4.8.6 1.3.6H19V13h-4.3z"/></g><g><path class="svg-icon18" d="M10.8 16h3.4c.4 0 .8.7.8 1.5s-.4 1.5-.8 1.5h-3.4c-.4 0-.8-.7-.8-1.5s.4-1.5.8-1.5zm0 8h3.4c.4 0 .8.7.8 1.5s-.4 1.5-.8 1.5h-3.4c-.4 0-.8-.7-.8-1.5s.4-1.5.8-1.5zm0 8h3.4c.4 0 .8.7.8 1.5s-.4 1.5-.8 1.5h-3.4c-.4 0-.8-.7-.8-1.5s.4-1.5.8-1.5z"/></g></svg>