<svg xmlns="http://www.w3.org/2000/svg" class="svg-bkgd09" viewBox="0 0 48 48"><g><path class="svg-shortcut" d="M28 42.5l-3 2.7v-1.7c-.4 0-1.4 0-2.5.6-1.3 1-1.5 1.6-1.5 1.6s-.4-1.2.8-2.7c1.2-1.6 2.6-1.7 3.2-1.6v-1.6l3 2.7z"/></g><g><path class="svg-cluster" d="M28.5 41.3c.6 0 1.2.5 1.2 1.2s-.6 1.2-1.2 1.2-1.2-.5-1.2-1.2.5-1.2 1.2-1.2zm-4 0c.6 0 1.2.5 1.2 1.2s-.6 1.2-1.2 1.2c-.7 0-1.2-.5-1.2-1.2s.5-1.2 1.2-1.2zm-4 0c.7 0 1.2.5 1.2 1.2s-.5 1.2-1.2 1.2-1.2-.5-1.2-1.2.5-1.2 1.2-1.2z"/></g><g><path class="svg-icon03" d="M22 21h2v6h-2v-2h-5.6c-.6 0-1.4.5-1.4 1v1h-2v-2c0-.6 1.4-2 2-2h7v-2z"/></g><g><path class="svg-icon05" d="M20 12h6c.5 0 1 .5 1 1v6c0 .5-.5 1-1 1h-6c-.5 0-1-.5-1-1v-6c0-.5.5-1 1-1zm-8 17h5c.6 0 1 .4 1 1v5c0 .6-.4 1-1 1h-5c-.6 0-1-.4-1-1v-5c0-.6.4-1 1-1zm9 0h5c.6 0 1 .4 1 1v5c0 .6-.4 1-1 1h-5c-.6 0-1-.4-1-1v-5c0-.6.4-1 1-1z"/></g><g><path class="svg-icon10" d="M33.8 31.2L35 33h-6l2-5.4 1.6 2c1.4-1.4 2.4-3.3 2.4-5.3s-1-4-2.5-5.5L31 21l-2-6h6l-1.4 2.2c2 1.7 3.4 4.2 3.4 7 0 3-1.2 5.4-3.2 7z"/></g></svg>