<svg xmlns="http://www.w3.org/2000/svg" class="svg-bkgd12" viewBox="0 0 48 48"><g><path class="svg-shortcut" d="M28.05 42.5L25 45.2v-1.7c-.44-.1-1.4-.15-2.45.6-1.4 1-1.57 1.47-1.57 1.47s-.4-1.24.8-2.7c1.26-1.54 2.67-1.56 3.23-1.5v-1.63l3.05 2.72z"/></g><g><path class="svg-cluster" d="M28.47 41.3c.65 0 1.2.55 1.2 1.2s-.55 1.2-1.2 1.2-1.2-.54-1.2-1.2.54-1.2 1.2-1.2zm-4 0c.65 0 1.2.55 1.2 1.2s-.55 1.2-1.2 1.2c-.66 0-1.2-.54-1.2-1.2s.54-1.2 1.2-1.2zm-3.97 0c.66 0 1.2.55 1.2 1.2s-.54 1.2-1.2 1.2-1.2-.54-1.2-1.2.54-1.2 1.2-1.2z"/></g><g><path class="svg-icon17" d="M37.12 27.1l-1.36-.25c-.04-.5-.18-.9-.33-1.34l1.14-.76c.53-.35.76-1.06.4-1.58l-.63-.95c-.35-.5-1.04-.5-1.56-.15l-1.15.77c-.36-.32-.85-.7-1.3-.9l.28-1.36c.13-.62-.27-1.22-.9-1.34L30.6 19c-.62-.12-1.22.28-1.35.9L29 21.25c-.5.04-1.03.2-1.5.35l-.75-1.14c-.36-.52-1.04-.83-1.57-.48l-.94.64c-.52.35-.52 1.1-.17 1.6l.77 1.16c-.3.36-.7.83-.92 1.27l-1.36-.27c-.62-.12-1.22.28-1.34.9l-.22 1.1c-.12.63.27 1.3.9 1.42l1.34.27c.04.5.17 1.04.32 1.5l-1.15.77c-.5.35-.67.9-.32 1.43l.64.94c.35.53 1 .6 1.53.26l1.15-.77c.36.3.9.64 1.33.87l-.27 1.35c-.12.62.2 1.2.82 1.33l1.2.23c.63.12 1.27-.27 1.4-.9l.26-1.34c.5-.04.94-.23 1.4-.38l.77 1.14c.36.52.97.74 1.5.4l.94-.64c.52-.35.8-1.17.45-1.7l-.78-1.14c.32-.36.44-.66.66-1.1l1.36.27c.62.1 1.22-.3 1.34-.9l.22-1.12c.12-.62-.27-1.34-.88-1.47zm-5.17.92c-.3 1.5-1.3 2.23-2.8 1.93-1.5-.3-2.4-1.43-2.1-2.92.3-1.5 1.36-2.27 2.86-1.98s2.35 1.48 2.05 2.97z"/></g><g><path class="svg-icon12" d="M22.24 19.1l-.98.13c-.06.36-.16.72-.3 1.06l.77.64c.37.3.44.84.14 1.22l-.53.68c-.3.38-.84.44-1.22.15l-.77-.6c-.3.2-.62.4-.97.53l.08 1c.06.47-.33.9-.8.96l-.8.1c-.48.05-.9-.3-.97-.77l-.17-1c-.37-.05-.73-.15-1.06-.3l-.62.8c-.3.37-.83.43-1.2.14l-.7-.54c-.37-.3-.43-.84-.14-1.2l.6-.8c-.2-.3-.4-.6-.53-.95l-1 .08c-.47.05-.9-.28-.95-.76l-.1-.86c-.06-.47.27-.9.75-.96l1-.14c.06-.37.15-.73.3-1.07l-.8-.63c-.37-.3-.43-.84-.14-1.2l.54-.7c.3-.37.84-.44 1.2-.14l.8.6c.3-.22.63-.4.97-.55l-.1-1c-.06-.46.28-.9.76-.95l.85-.1c.48-.06.9.28.97.75l.2.96c.36.07.7.16 1.05.3l.58-.73c.3-.38.84-.45 1.2-.15l.7.53c.37.3.44.84.14 1.22l-.6.78c.2.3.4.62.54.96l1-.07c.46-.06.9.28.95.75l.1.86c.05.48-.3.9-.76.97zM16.32 17c-.7.08-1.4 1-1.3 1.7.07.7.97 1.4 1.67 1.3.7-.07 1.4-.97 1.3-1.67-.08-.7-.98-1.42-1.68-1.34z"/></g></svg>