<svg xmlns="http://www.w3.org/2000/svg" class="svg-bkgd11" viewBox="0 0 48 48"><g><path class="svg-shortcut" d="M28 42.5l-3 2.7v-1.7c-.4 0-1.4 0-2.5.6-1.3 1-1.5 1.6-1.5 1.6s-.4-1.2.8-2.7c1.2-1.6 2.6-1.7 3.2-1.6v-1.6l3 2.7z"/></g><g><path class="svg-cluster" d="M28.5 41.3c.6 0 1.2.5 1.2 1.2s-.6 1.2-1.2 1.2-1.2-.5-1.2-1.2.5-1.2 1.2-1.2zm-4 0c.6 0 1.2.5 1.2 1.2s-.6 1.2-1.2 1.2c-.7 0-1.2-.5-1.2-1.2s.5-1.2 1.2-1.2zm-4 0c.7 0 1.2.5 1.2 1.2s-.5 1.2-1.2 1.2-1.2-.5-1.2-1.2.5-1.2 1.2-1.2z"/></g><g><path class="svg-icon10" d="M10 38h8V16c0-1-1-2-2-2h-4c-1 0-2 1-2 2v22z"/></g><g><path class="svg-icon09" d="M20 38h8V25c0-1-1-2-2-2h-4c-1 0-2 1-2 2v13z"/></g><g><path class="svg-icon15" d="M30 29v9h8v-9c0-1-1-2-2-2h-4c-1 0-2 1-2 2z"/></g><g><path class="svg-icon04" d="M19.2 10.3l7.7 1.5c.8 0 1 .8.5 1.5L26 15c1.8 1.5 4.8 3.6 10 4.6 1 0 1.7 1 1.5 2 0 1-1 1.6-1.7 1.6h-.3c-6-1-9.7-3.6-11.7-5.4l-1.4 1.7c-.6.6-1.3.5-1.6-.3L18 11.6c-.2-1 .3-1.4 1.2-1.3z"/></g></svg>