<svg xmlns="http://www.w3.org/2000/svg" class="svg-bkgd05" viewBox="0 0 48 48"><g><path class="svg-shortcut" d="M28 42.5l-3 2.7v-1.7c-.4 0-1.4 0-2.5.6-1.3 1-1.5 1.6-1.5 1.6s-.4-1.2.8-2.7c1.2-1.6 2.6-1.7 3.2-1.6v-1.6l3 2.7z"/></g><g><path class="svg-cluster" d="M28.5 41.3c.6 0 1.2.5 1.2 1.2s-.6 1.2-1.2 1.2-1.2-.5-1.2-1.2.5-1.2 1.2-1.2zm-4 0c.6 0 1.2.5 1.2 1.2s-.6 1.2-1.2 1.2c-.7 0-1.2-.5-1.2-1.2s.5-1.2 1.2-1.2zm-4 0c.7 0 1.2.5 1.2 1.2s-.5 1.2-1.2 1.2-1.2-.5-1.2-1.2.5-1.2 1.2-1.2z"/></g><g><path class="svg-icon11" d="M20.7 15.3C19.5 14 19.2 12 19.2 12c0-1-.6-1.2-1-.8-1.2.7-1.4 4.3-1.2 4.8.2.4 1.5 1.7 2 3 .3.8.2 1.6 0 2h-7c-1.8 0-2 1-2 2.2v.2c0 1 .7 2 1.8 2h.6v.5h-.6c-1 0-1.8.5-1.8 2 0 1 .6 1.5 1.8 1.5h.6v.6c-1.2 0-1.8 1-1.8 2s.7 1.7 1.8 1.7h1.3c-.6.3-1.3 1.2-1.3 2s1 1.3 2 1.3h10c2.2 0 3.6-1 3.6-2.7V22.5c0-2-6-6-7.3-7.2z"/></g><g><path class="svg-icon03" d="M30 22v12c0 .7 1 2 1.8 2H38V22h-8z"/></g></svg>