<svg xmlns="http://www.w3.org/2000/svg" class="svg-bkgd10" viewBox="0 0 48 48"><g><path class="svg-shortcut" d="M28 42.5l-3 2.7v-1.7c-.4 0-1.4 0-2.5.6-1.3 1-1.5 1.6-1.5 1.6s-.4-1.2.8-2.7c1.2-1.6 2.6-1.7 3.2-1.6v-1.6l3 2.7z"/></g><g><path class="svg-cluster" d="M28.5 41.3c.6 0 1.2.5 1.2 1.2s-.6 1.2-1.2 1.2-1.2-.5-1.2-1.2.5-1.2 1.2-1.2zm-4 0c.6 0 1.2.5 1.2 1.2s-.6 1.2-1.2 1.2-1.2-.5-1.2-1.2.5-1.2 1.2-1.2zm-4 0c.7 0 1.2.5 1.2 1.2s-.5 1.2-1.2 1.2-1.2-.5-1.2-1.2.5-1.2 1.2-1.2z"/></g><g><path class="svg-icon11" d="M32.3 18.97c-.64.94-1.44 2.2-2.3 3.53V21h-3v3h2l-1.3 2H27v1.08L24.48 31H22v3h1v2H11c-1.4 0-1-1.85-1-4V19zM20 21h-3v3h3v-3zm2 8h3v-3h-3v3zm0-5h3v-3h-3v3zm-5 10h3v-3h-3v3zm-5 0h3v-3h-3v3zm0-5h8v-3h-8v3z"/></g><g><path class="svg-icon08" d="M10 17v-3s-.07-2 1-2h2v2a3.23 3.23 0 0 0 2 2h2a3.23 3.23 0 0 0 2-2v-2h6v2a3.23 3.23 0 0 0 2 2h2a3.23 3.23 0 0 0 2-2v-2h2c1.07 0 1 2 1 2v3H10z"/></g><g><path class="svg-icon18" d="M28 10a1.15 1.15 0 0 1 1 1v3h-2v-3a1.15 1.15 0 0 1 1-1zm-12 0a1.15 1.15 0 0 1 1 1v3h-2v-3a1.15 1.15 0 0 1 1-1zM28.66 35.77L25 38l.5-4.26z"/></g><g><path class="svg-icon01" d="M26.16 32.4l7.4-12.54 3.22 1.92-7.38 12.7z"/><path class="svg-icon07" d="M34.32 18.68l1.48-2.54 3.2 1.83-1.48 2.54z"/></g></svg>