<svg xmlns="http://www.w3.org/2000/svg" class="svg-bkgd10" viewBox="0 0 48 48"><g><path class="svg-shortcut" d="M28 42.5l-3 2.7v-1.7c-.4 0-1.4 0-2.5.6-1.3 1-1.5 1.6-1.5 1.6s-.4-1.2.8-2.7c1.2-1.6 2.6-1.7 3.2-1.6v-1.6l3 2.7z"/></g><g><path class="svg-cluster" d="M28.5 41.3c.6 0 1.2.5 1.2 1.2s-.6 1.2-1.2 1.2-1.2-.5-1.2-1.2.5-1.2 1.2-1.2zm-4 0c.6 0 1.2.5 1.2 1.2s-.6 1.2-1.2 1.2c-.7 0-1.2-.5-1.2-1.2s.5-1.2 1.2-1.2zm-4 0c.7 0 1.2.5 1.2 1.2s-.5 1.2-1.2 1.2-1.2-.5-1.2-1.2.5-1.2 1.2-1.2z"/></g><g><path class="svg-icon18" d="M29 14v-2h-9v2h-2v-4h13v4h-2zm6 20H20.8a8.5 8.5 0 0 0 5.2-7.2 7.2 7.2 0 0 0-7-6.8c-3.6 0-7 3.3-7 6.8a9 9 0 0 0 1.5 5l-1.3 2c-.8-.5-1.2-1.3-1.2-2.8V19c0-2.2.8-3 3-3h21c2.2 0 3 .8 3 3v12c0 2.2-.8 3-3 3z"/></g><g><path class="svg-icon12" d="M19 32a5 5 0 1 1 5-5 5 5 0 0 1-5 5zm0-8a3 3 0 1 0 3 3 3 3 0 0 0-3-3z"/></g><g><path class="svg-icon15" d="M16.6 33L15 32l-3 4.6a1.5 1.5 0 0 0 .5 1 2 2 0 0 0 1.3 0z"/></g></svg>