<svg xmlns="http://www.w3.org/2000/svg" class="svg-bkgd02" viewBox="0 0 48 48"><g><path class="svg-shortcut" d="M28.05 42.5L25 45.2v-1.7c-.44-.1-1.4-.15-2.45.6-1.4 1-1.57 1.47-1.57 1.47s-.4-1.24.8-2.7c1.26-1.54 2.67-1.56 3.23-1.5v-1.63l3.05 2.72z"/></g><g><path class="svg-cluster" d="M28.47 41.3c.65 0 1.2.55 1.2 1.2s-.55 1.2-1.2 1.2-1.2-.54-1.2-1.2.54-1.2 1.2-1.2zm-4 0c.65 0 1.2.55 1.2 1.2s-.55 1.2-1.2 1.2c-.66 0-1.2-.54-1.2-1.2s.54-1.2 1.2-1.2zm-3.97 0c.66 0 1.2.55 1.2 1.2s-.54 1.2-1.2 1.2-1.2-.54-1.2-1.2.54-1.2 1.2-1.2z"/></g><g><path class="svg-icon03" d="M20 36v-3h4v-3h4v-3h4v-3h4v12H20z"/></g><g><path class="svg-icon12" d="M23.88 23.36c-.24.27-.86.37-1.2.08l-2.95-2.36-.37 2.74 2.74 1.74c.5.13.87.6.87 1.15l-.03 3.47c0 .66-.48 1.13-1.14 1.13-.65 0-1.12-.47-1.12-1.13v-2.7l-2.23-1.42c-.2.02-.44 0-.7-.04l-.32-.03-.38 3.6c-.04.33-.2.6-.46.8.04.26.02.53-.1.78l-2 3.36c-.3.6-.93.8-1.5.5-.6-.3-.8-.92-.5-1.5l1.94-3.4c.08-.14.2-.27.32-.38-.03-.13-.04-.27-.03-.4l.4-3.72c-.26-.12-.4-.33-.36-.7l.74-6.14-2.02 1.3.1 2.55c.02.46-.27.84-.63.84-.37 0-.86-.38-.87-.83l-.13-3.07c-.12-.36 0-.7.38-.94l2.77-1.8c.23-.15.5-.23.77-.2.15-.2.4-.38.6-.5.48.6 1.16 1.06 1.97 1.2.43.1.85.08 1.25 0l.12.2c.24.1.45.28.56.5l.73 1.9c.05.07.05.15.07.23l2.52 2.2c.34.3.42.75.18 1.03zm-6.28-9.58c-.2 1.07.5 2.1 1.58 2.3 1.07.22 2.1-.5 2.3-1.56.22-1.08-.5-2.12-1.56-2.32-1.08-.2-2.12.5-2.32 1.58z"/></g></svg>