<svg xmlns="http://www.w3.org/2000/svg" class="svg-bkgd07" viewBox="0 0 48 48"><g><path class="svg-shortcut" d="M28 42.5l-3 2.7v-1.7c-.4 0-1.4 0-2.5.6-1.3 1-1.5 1.6-1.5 1.6s-.4-1.2.8-2.7c1.2-1.6 2.6-1.7 3.2-1.6v-1.6l3 2.7z"/></g><g><path class="svg-cluster" d="M28.5 41.3c.6 0 1.2.5 1.2 1.2s-.6 1.2-1.2 1.2-1.2-.5-1.2-1.2.5-1.2 1.2-1.2zm-4 0c.6 0 1.2.5 1.2 1.2s-.6 1.2-1.2 1.2c-.7 0-1.2-.5-1.2-1.2s.5-1.2 1.2-1.2zm-4 0c.7 0 1.2.5 1.2 1.2s-.5 1.2-1.2 1.2-1.2-.5-1.2-1.2.5-1.2 1.2-1.2z"/></g><g><path class="svg-icon11" d="M17 20v9c0 .6.4 1 1 1h12c.6 0 1-.4 1-1v-9h2c1.6 2 3 5 3 7.7C36 32 33.4 36 30 38H18c-3.4-2-6-6-6-10.3 0-2.8 1.4-5.7 3-7.7h2zm-3-4h20c.6 0 1 .4 1 1s-.4 1-1 1H14c-.6 0-1-.5-1-1s.4-1 1-1z"/></g><g><path class="svg-icon02" d="M26 14v-2h-1v2h-1v-2h-1v2h-1v-2h-1v2h-2v-3c0-.5.5-1 1-1h8c.5 0 1 .5 1 1v3h-3zm2 14H20c-.7 0-1.2-.5-1.2-1.2V20h10v6.8c0 .7-.5 1.2-1 1.2zm-6-5c-.5 0-1 .4-1 1 0 .5.5 1 1 1s1-.5 1-1c0-.6-.5-1-1-1zm5-1h-3v1l2 1-2 1v1h3v-4z"/></g></svg>