<svg xmlns="http://www.w3.org/2000/svg" class="svg-bkgd03" viewBox="0 0 48 48"><g><path class="svg-shortcut" d="M28 42.5l-3 2.7v-1.7c-.4 0-1.4 0-2.5.6-1.3 1-1.5 1.7-1.5 1.7s-.4-1.2.8-2.7c1.2-1.6 2.6-1.7 3.2-1.6v-1.6l3 2.7z"/></g><g><path class="svg-cluster" d="M28.5 41.3c.6 0 1.2.5 1.2 1.2s-.6 1.2-1.2 1.2-1.2-.5-1.2-1.2.5-1.2 1.2-1.2zm-4 0c.6 0 1.2.5 1.2 1.2s-.6 1.2-1.2 1.2c-.7 0-1.2-.5-1.2-1.2s.5-1.2 1.2-1.2zm-4 0c.7 0 1.2.5 1.2 1.2s-.5 1.2-1.2 1.2-1.2-.5-1.2-1.2.5-1.2 1.2-1.2z"/></g><path class="svg-icon02" d="M34 38H14a2 2 0 0 1-2-2V12a2 2 0 0 1 2-2h20a2 2 0 0 1 2 2v24a2 2 0 0 1-2 2zm-9-9h-9a1 1 0 0 0 0 2h9a1 1 0 0 0 0-2zm0 4h-9a1 1 0 0 0 0 2h9a1 1 0 0 0 0-2zm7-4h-3a1 1 0 0 0 0 2h3a1 1 0 0 0 0-2zm0 4h-3a1 1 0 0 0 0 2h3a1 1 0 0 0 0-2zm-8-17h-7v10h7V16zm7-3h-7v13h7V13zm-1 2h-2v2h2v-2zm-3 0h-2v2h2v-2zm3 3h-2v2h2v-2zm-3 0h-2v2h2v-2zm3 3h-2v2h2v-2zm-3 0h-2v2h2v-2zm5 5h-8v1h8v-1zm-4-2h-1v2h1v-2zm-5-6h-2v2h2v-2zm-3 0h-2v2h2v-2zm3 3h-2v2h2v-2zm-3 0h-2v2h2v-2zm1 3h-1v2h1v-2zm3 2h-8v1h8"/></svg>