<svg xmlns="http://www.w3.org/2000/svg" class="svg-bkgd07" viewBox="0 0 48 48"><g><path class="svg-shortcut" d="M28 42.5l-3 2.7v-1.7c-.4 0-1.4 0-2.5.6-1.3 1-1.5 1.6-1.5 1.6s-.4-1.2.8-2.7c1.2-1.6 2.6-1.7 3.2-1.6v-1.6l3 2.7z"/></g><g><path class="svg-cluster" d="M28.5 41.3c.6 0 1.2.5 1.2 1.2s-.6 1.2-1.2 1.2-1.2-.5-1.2-1.2.5-1.2 1.2-1.2zm-4 0c.6 0 1.2.5 1.2 1.2s-.6 1.2-1.2 1.2c-.7 0-1.2-.5-1.2-1.2s.5-1.2 1.2-1.2zm-4 0c.7 0 1.2.5 1.2 1.2s-.5 1.2-1.2 1.2-1.2-.5-1.2-1.2.5-1.2 1.2-1.2z"/></g><g><path class="svg-icon02" d="M33.2 38H14.7c-.7 0-1.7-1.3-1.7-2V17c0-.7 1-2 1.7-2H16v2h-1v19h18V17h-1v-2h1.2c.7 0 1.8 1.3 1.8 2v19c0 .7-1 2-1.8 2z"/></g><g><path class="svg-icon17" d="M18 17v-2c0-.8.3-1 1-1h2.2l-.2-1c0-1.7 1.3-3 3-3 1.6 0 3 1.3 3 3 0 .3 0 .7-.2 1H29c.7 0 1 .3 1 1v2H18zm6-5.5c-.8 0-1.5.7-1.5 1.5s.7 1.5 1.5 1.5 1.5-.7 1.5-1.5-.7-1.5-1.5-1.5z"/></g><g><path class="svg-icon12" d="M18 25h12v2H18v-2zm0-2v-2h12v2H18zm12 6v2H18v-2h12z"/></g></svg>