<svg xmlns="http://www.w3.org/2000/svg" class="svg-bkgd10" viewBox="0 0 48 48"><g><path class="svg-shortcut" d="M28 42.5l-3 2.7v-1.7c-.4 0-1.4 0-2.5.6-1.3 1-1.5 1.6-1.5 1.6s-.4-1.2.8-2.7c1.2-1.6 2.6-1.7 3.2-1.6v-1.6l3 2.7z"/></g><g><path class="svg-cluster" d="M28.5 41.3c.6 0 1.2.5 1.2 1.2s-.6 1.2-1.2 1.2-1.2-.5-1.2-1.2.5-1.2 1.2-1.2zm-4 0c.6 0 1.2.5 1.2 1.2s-.6 1.2-1.2 1.2c-.7 0-1.2-.5-1.2-1.2s.5-1.2 1.2-1.2zm-4 0c.7 0 1.2.5 1.2 1.2s-.5 1.2-1.2 1.2-1.2-.5-1.2-1.2.5-1.2 1.2-1.2z"/></g><g><path class="svg-icon09" d="M15.3 27c0-6 5-10.8 10.8-10.8 2.5 0 4.7.6 6.5 1.6-1.7-3.4-5.2-5.7-9.2-5.7C17.6 12 13 17 13 22.6c0 2.5 1 4.8 2.4 6.6v-2z"/></g><g><path class="svg-icon01" d="M26.5 17.8c-5.3 0-9.6 4.2-9.6 9.5 0 5.2 4.2 9.4 9.5 9.4s9.5-4.2 9.5-9.4c0-5.3-4.2-9.5-9.5-9.5zm-6 5.2l6-3.2 6 3.2v1h-12v-1zM33 32H20v-1h1v-1h1v-5h1.7v5h1.7v-5h2v5h1.8v-5h2v5h.8v1h1v1z"/></g></svg>