<svg xmlns="http://www.w3.org/2000/svg" class="svg-bkgd09" viewBox="0 0 48 48"><g><path class="svg-shortcut" d="M28 42.5l-3 2.7v-1.7c-.4 0-1.4 0-2.5.6-1.3 1-1.5 1.6-1.5 1.6s-.4-1.2.8-2.7c1.2-1.6 2.6-1.7 3.2-1.6v-1.6l3 2.7z"/></g><g><path class="svg-cluster" d="M28.5 41.3c.6 0 1.2.5 1.2 1.2s-.6 1.2-1.2 1.2-1.2-.5-1.2-1.2.5-1.2 1.2-1.2zm-4 0c.6 0 1.2.5 1.2 1.2s-.6 1.2-1.2 1.2c-.7 0-1.2-.5-1.2-1.2s.5-1.2 1.2-1.2zm-4 0c.7 0 1.2.5 1.2 1.2s-.5 1.2-1.2 1.2-1.2-.5-1.2-1.2.5-1.2 1.2-1.2z"/></g><g><path class="svg-icon12" d="M18 26v6h5l-.02 1.6a1.25 1.25 0 0 1-1.35 1.4H10.5a1.26 1.26 0 0 1-1.47-1.4V23.4a1.3 1.3 0 0 1 1.5-1.43h1.7l3.82 4.18 3.58-4.18h1.93A1.4 1.4 0 0 1 23 23.44V26h-5zm-1.97-4.9a4.03 4.03 0 1 1 4.03-4.04 4.03 4.03 0 0 1-4.03 4.03zM37.46 34.97H26.52a1.38 1.38 0 0 1-1.57-1.42c0-.5.05-1.55.05-1.55h1v1a.93.93 0 0 0 1 1l9.85.03c1.1 0 1.2-.57 1.2-1v-8.97a.95.95 0 0 0-1-1.02l-.97-.04-4 4.36-4.4-4.28h-.74A.84.84 0 0 0 26 24v2h-1l.03-2.66a1.27 1.27 0 0 1 1.4-1.37h1.8l3.82 3.83 3.58-3.83h2A1.27 1.27 0 0 1 39 23.34v10.2a1.38 1.38 0 0 1-1.52 1.43zM32.03 21.1a4.03 4.03 0 1 1 4.03-4.04 4.03 4.03 0 0 1-4.03 4.03zm0-7.04a2.95 2.95 0 1 0 2.94 2.96 2.94 2.94 0 0 0-2.94-2.96z"/></g><g><path class="svg-icon03" d="M27 27h-8v4h8v2.25l5.2-4.2-5.2-4.18V27z"/></g></svg>