<svg xmlns="http://www.w3.org/2000/svg" class="svg-bkgd02" viewBox="0 0 48 48"><g><path class="svg-shortcut" d="M28 42.5l-3 2.7v-1.7c-.4 0-1.4 0-2.5.6-1.3 1-1.5 1.6-1.5 1.6s-.4-1.2.8-2.7c1.2-1.6 2.6-1.7 3.2-1.6v-1.6l3 2.7z"/></g><g><path class="svg-cluster" d="M28.5 41.3c.6 0 1.2.5 1.2 1.2s-.6 1.2-1.2 1.2-1.2-.5-1.2-1.2.5-1.2 1.2-1.2zm-4 0c.6 0 1.2.5 1.2 1.2s-.6 1.2-1.2 1.2c-.7 0-1.2-.5-1.2-1.2s.5-1.2 1.2-1.2zm-4 0c.7 0 1.2.5 1.2 1.2s-.5 1.2-1.2 1.2-1.2-.5-1.2-1.2.5-1.2 1.2-1.2z"/></g><g><path class="svg-icon12" d="M26.08 36.6a1.65 1.65 0 0 0 .5.33 1.32 1.32 0 0 1-.47.08H10.9a.77.77 0 0 1-.9-.9V23.98c0-.64 1.14-1 1.8-1h2.7L18 30l4.5-7h2.7a2.1 2.1 0 0 1 .26 0l-1.56 1.57a1.4 1.4 0 0 0-.14 1.96l.48.47h-.9A1.37 1.37 0 0 0 22 28.4v3.2a1.37 1.37 0 0 0 1.33 1.4h.18a1.5 1.5 0 0 0 .43 1.43zM18.5 22a5.5 5.5 0 1 1 5.5-5.5 5.5 5.5 0 0 1-5.5 5.5z"/></g><g><path class="svg-icon18" d="M24.87 28.7a.86.86 0 0 0-.87.87v.87a.84.84 0 0 0 .87.84h1.24a5.3 5.3 0 0 0 .5 1.25l-.87.87a.87.87 0 0 0 0 1.24l.62.62a.87.87 0 0 0 1.24 0l.87-.88a5.36 5.36 0 0 0 1.25.52v1.24a.82.82 0 0 0 .83.86h.88a.83.83 0 0 0 .8-.88v-1.24a5.46 5.46 0 0 0 1.28-.5l.9.88a.88.88 0 0 0 1.23 0l.62-.62a.87.87 0 0 0 0-1.23l-.88-.87a5.3 5.3 0 0 0 .5-1.25h1.24a.84.84 0 0 0 .88-.84v-.87a.86.86 0 0 0-.87-.86h-1.23a5.16 5.16 0 0 0-.5-1.22l.88-.87a.87.87 0 0 0 0-1.23l-.62-.62a.88.88 0 0 0-1.24 0l-.88.88a5.32 5.32 0 0 0-1.25-.5V23.9a.84.84 0 0 0-.84-.9h-.87a.84.84 0 0 0-.84.9v1.23a5.3 5.3 0 0 0-1.25.5l-.88-.88a.88.88 0 0 0-1.24 0l-.62.62a.87.87 0 0 0 0 1.23l.88.88a5.16 5.16 0 0 0-.5 1.23h-1.25zM31 28a2 2 0 1 1-2 2 2 2 0 0 1 2-2z"/></g></svg>