<svg xmlns="http://www.w3.org/2000/svg" class="svg-bkgd11" viewBox="0 0 48 48"><g><path class="svg-shortcut" d="M28 42.5l-3 2.7v-1.7c-.4 0-1.4 0-2.5.6-1.3 1-1.5 1.6-1.5 1.6s-.4-1.2.8-2.7c1.2-1.6 2.6-1.7 3.2-1.6v-1.6l3 2.7z"/></g><g><path class="svg-cluster" d="M28.5 41.3c.6 0 1.2.5 1.2 1.2s-.6 1.2-1.2 1.2-1.2-.5-1.2-1.2.5-1.2 1.2-1.2zm-4 0c.6 0 1.2.5 1.2 1.2s-.6 1.2-1.2 1.2c-.7 0-1.2-.5-1.2-1.2s.5-1.2 1.2-1.2zm-4 0c.7 0 1.2.5 1.2 1.2s-.5 1.2-1.2 1.2-1.2-.5-1.2-1.2.5-1.2 1.2-1.2z"/></g><g><path class="svg-icon02" d="M16 35v-5h-2c-.6 0-2-1.3-2-2V15c0-.8 1.4-2 2-2h20c.6 0 2 1.2 2 2v5l-2-1h-4v2h-8v6h1l-7 8z"/></g><g><path class="svg-icon06" d="M29 33h8v-3h-8v-2l-6 3v1l6 3v-2z"/></g><g><path class="svg-icon09" d="M32 26h-8v-3h8v-2l6 3v1l-6 3v-2z"/></g></svg>