<svg xmlns="http://www.w3.org/2000/svg" class="svg-bkgd07" viewBox="0 0 48 48"><g><path class="svg-shortcut" d="M28 42.5l-3 2.7v-1.7c-.4 0-1.4 0-2.5.6-1.3 1-1.5 1.6-1.5 1.6s-.4-1.2.8-2.7c1.2-1.6 2.6-1.7 3.2-1.6v-1.6l3 2.7z"/></g><g><path class="svg-cluster" d="M28.5 41.3c.6 0 1.2.5 1.2 1.2s-.6 1.2-1.2 1.2-1.2-.5-1.2-1.2.5-1.2 1.2-1.2zm-4 0c.6 0 1.2.5 1.2 1.2s-.6 1.2-1.2 1.2c-.7 0-1.2-.5-1.2-1.2s.5-1.2 1.2-1.2zm-4 0c.7 0 1.2.5 1.2 1.2s-.5 1.2-1.2 1.2-1.2-.5-1.2-1.2.5-1.2 1.2-1.2z"/></g><g><path class="svg-icon04" d="M25 38h-9c-2.4 0-4-1.2-4-2 0-2 3.3-2.4 5-2.4 2 0 5 2.4 7 2.4s5 .2 5 1c0 .7-1.6 1-4 1z"/></g><g><path class="svg-icon02" d="M35.7 26.5a1 1 0 0 1-1.8 0S32 24 31 24a13 13 0 0 0-3.4 1.4l2.2 3.5a1.6 1.6 0 0 1 0 1.3L28.5 34a1.2 1.2 0 0 1-1.5 1 1 1 0 0 1-1-1.4l1.2-3.4-2.8-3.7L20 21c-.2 0-4 .3-4.5-.7l-2.2-2.8a1 1 0 0 1-.2-1.3 1 1 0 0 1 1.4 0l2.2 2.7a20 20 0 0 0 2.4 0c1.2 0 3-1 3.3-2l-.3-2-1-4a.8.8 0 0 1 .5-1 1 1 0 0 1 1.2.7L24 15l.6 2.4L28 22s3-1.7 4-.6l3.6 3.3a1.3 1.3 0 0 1 0 1.8zM19 14a2 2 0 1 1-2 2 2 2 0 0 1 2-2z"/></g></svg>