<svg xmlns="http://www.w3.org/2000/svg" class="svg-bkgd11" viewBox="0 0 48 48"><g><path class="svg-shortcut" d="M28 42.5l-3 2.7v-1.7c-.4 0-1.4 0-2.5.6-1.3 1-1.5 1.6-1.5 1.6s-.4-1.2.8-2.7c1.2-1.6 2.6-1.7 3.2-1.6v-1.6l3 2.7z"/></g><g><path class="svg-cluster" d="M28.5 41.3c.6 0 1.2.5 1.2 1.2s-.6 1.2-1.2 1.2-1.2-.5-1.2-1.2.5-1.2 1.2-1.2zm-4 0c.6 0 1.2.5 1.2 1.2s-.6 1.2-1.2 1.2c-.7 0-1.2-.5-1.2-1.2s.5-1.2 1.2-1.2zm-4 0c.7 0 1.2.5 1.2 1.2s-.5 1.2-1.2 1.2-1.2-.5-1.2-1.2.5-1.2 1.2-1.2z"/></g><g><path class="svg-icon18" d="M38 33c0 1.2-1 2-2 2H12c-1.3 0-2-.6-2-2V16h28v17zm-11.5-1c2.5 0 4.5-2 4.5-4.5S29 23 26.5 23 22 25 22 27.5s2 4.5 4.5 4.5zM12 31.3c0 .4.3.7.7.7h7.6c.4 0 .7-.3.7-.7V31l-3.6-7.3c-.3-.4-.5-.7-1-.7-.3 0-.6.3-.8.7L12 31v.3zM31 18H12v3h19v-3zm4 0h-1s-1 .2-1 1v14h2s1-.2 1-1V19c0-.8-1-1-1-1z"/></g><g><path class="svg-icon08" d="M24.2 25.8c-.2-.2-.4-.5-.2-.7.3-.2.7-.2 1 0l1.5 1.6L28 25c.3-.2.7-.2 1 0 .2.3.2.6 0 1l-1.7 1.5L29 29c.2.3.2.7 0 1-.3.2-.7.2-1 0l-1.5-1.7L25 30h-1c-.2-.3-.2-.7 0-1l1.8-1.6-1.6-1.6z"/></g><g><path class="svg-icon09" d="M16 25v4h1v-4h-1zm1 5h-1v1h1v-1z"/></g><g><path class="svg-icon05" d="M36 12H12c-1.3 0-2 1-2 1v2h28v-2s-1-1-2-1z"/></g></svg>