<svg xmlns="http://www.w3.org/2000/svg" class="svg-bkgd05" viewBox="0 0 48 48"><g><path class="svg-shortcut" d="M28 42.5l-3 2.7v-1.7c-.4 0-1.4 0-2.5.6-1.3 1-1.5 1.6-1.5 1.6s-.4-1.2.8-2.7c1.2-1.6 2.6-1.7 3.2-1.6v-1.6l3 2.7z"/></g><g><path class="svg-cluster" d="M28.5 41.3c.6 0 1.2.5 1.2 1.2s-.6 1.2-1.2 1.2-1.2-.5-1.2-1.2.5-1.2 1.2-1.2zm-4 0c.6 0 1.2.5 1.2 1.2s-.6 1.2-1.2 1.2c-.7 0-1.2-.5-1.2-1.2s.5-1.2 1.2-1.2zm-4 0c.7 0 1.2.5 1.2 1.2s-.5 1.2-1.2 1.2-1.2-.5-1.2-1.2.5-1.2 1.2-1.2z"/></g><g><path class="svg-icon04" d="M14 10c-1.7 0-3 .4-3 1.6v24.8c0 1.2 1.3 1.6 3 1.6s3-.4 3-1.6V11.6c0-1.2-1.4-1.6-3-1.6zm2 26h-4v-2h4v2zm0-21h-4v-2h4v2z"/></g><g><path class="svg-icon05" d="M21 10c-1.6 0-3 .4-3 1.6v24.8c0 1.2 1.4 1.6 3 1.6s3-.4 3-1.6V11.6c0-1.2-1.3-1.6-3-1.6zm2 26h-4v-2h4v2zm0-21h-4v-2h4v2z"/></g><g><path class="svg-icon03" d="M38 35.4L31.3 12c-.4-1.2-2-1-3.6-.7-1.7.4-3 1-2.7 2.3L31.8 37c.3 1.2 1.8 1.2 3.5.7 1.8-.4 3-1 2.7-2.3zM27.2 16.6l-.5-1.8 3.7-1 .5 1.8-3.7 1zm5.4 19.2l-.5-1.8 3.7-1 .4 1.8-3.7 1z"/></g></svg>