<svg xmlns="http://www.w3.org/2000/svg" class="svg-bkgd08" viewBox="0 0 48 48"><g><path class="svg-shortcut" d="M28.05 42.5L25 45.2v-1.7c-.44-.1-1.4-.15-2.45.6-1.4 1-1.57 1.47-1.57 1.47s-.4-1.24.8-2.7c1.26-1.54 2.67-1.56 3.23-1.5v-1.63l3.05 2.72z"/></g><g><path class="svg-cluster" d="M28.47 41.3c.65 0 1.2.55 1.2 1.2s-.55 1.2-1.2 1.2-1.2-.54-1.2-1.2.54-1.2 1.2-1.2zm-4 0c.65 0 1.2.55 1.2 1.2s-.55 1.2-1.2 1.2c-.66 0-1.2-.54-1.2-1.2s.54-1.2 1.2-1.2zm-3.97 0c.66 0 1.2.55 1.2 1.2s-.54 1.2-1.2 1.2-1.2-.54-1.2-1.2.54-1.2 1.2-1.2z"/></g><g><path class="svg-icon05" d="M17.02 23.38V19.3c0-1.3 1.2-1.28 1.2-1.28h2.76l2.54 4.43 2.52-4.43h2.76s1.2 0 1.2 1.28v4.82l-5.1 4.82h-1.86l-6.02-5.57zM20 13.5c0 1.94 1.57 3.5 3.5 3.5 1.94 0 3.5-1.56 3.5-3.5 0-1.93-1.56-3.5-3.5-3.5-1.93 0-3.5 1.57-3.5 3.5z"/></g><g><path class="svg-icon11" d="M21.77 38h-5.62s.62-2.08-1.76-4.66c-1.76-1.9-2.8-3-3.47-4.74-.65-1.7-1.56-12.62-.32-12.62 1.46 0 1.65 2.35 1.65 3 0 .68.53 6.12 1.04 7.12.5 1 2.4 3.2 3.2 4.04.4.44 1.42-.52.88-1.1-.53-.56-2.54-3.17-2.54-3.17s-.92-1.04-.23-1.77c.77-.82 1.72 0 1.72 0s5.3 5.7 5.56 6.05c.2.28 1.45 1.4 1.03 4.9-.1.84-.9 1.82-1.13 2.96zm3.3-2.95c-.4-3.5.84-4.62 1.04-4.9.26-.34 5.57-6.04 5.57-6.04s.95-.82 1.7 0c.7.73-.22 1.77-.22 1.77s-2 2.6-2.54 3.18c-.53.58.5 1.53.9 1.1.8-.85 2.7-3.06 3.2-4.05.5-1 1.04-6.44 1.04-7.1 0-.67.2-3 1.64-3 1.24 0 .33 10.9-.32 12.6-.67 1.74-1.7 2.83-3.46 4.74-2.38 2.58-1.76 4.67-1.76 4.67h-5.62c-.24-1.13-1.04-2.1-1.14-2.95z"/></g></svg>