<svg xmlns="http://www.w3.org/2000/svg" class="svg-bkgd01" viewBox="0 0 48 48"><g><path class="svg-shortcut" d="M28.05 42.5L25 45.2v-1.7c-.44-.1-1.4-.15-2.45.6-1.4 1-1.57 1.47-1.57 1.47s-.4-1.24.8-2.7c1.26-1.54 2.67-1.56 3.23-1.5v-1.63l3.05 2.72z"/></g><g><path class="svg-cluster" d="M28.47 41.3c.65 0 1.2.55 1.2 1.2s-.55 1.2-1.2 1.2-1.2-.54-1.2-1.2.54-1.2 1.2-1.2zm-4 0c.65 0 1.2.55 1.2 1.2s-.55 1.2-1.2 1.2c-.66 0-1.2-.54-1.2-1.2s.54-1.2 1.2-1.2zm-3.97 0c.66 0 1.2.55 1.2 1.2s-.54 1.2-1.2 1.2-1.2-.54-1.2-1.2.54-1.2 1.2-1.2z"/></g><g><path class="svg-icon02" d="M36.36 36.53s-.03 1.08-.6 1.37c-.54.28-1.56-.3-1.56-.3l-3.17-6.06c.63-.22 1.22-.53 1.76-.9l3.56 5.9z"/></g><g><path class="svg-icon12" d="M37 18.22v9.7c0 .4-.93 1.07-1.34 1.07H34.5c.93-1.26 1.5-2.8 1.5-4.5 0-2.46-1.2-4.64-3.04-6l1.37-1.5h1.33c.4 0 1.33.84 1.33 1.22zM21.65 17h-1.34L17 20.65 13.67 17h-1.34c-.4 0-1.33.84-1.33 1.22v9.7c0 .4.92 1.07 1.33 1.07h9.33c.16 0 .4-.12.65-.28-.8-1.2-1.3-2.65-1.3-4.22 0-1.95.76-3.73 2-5.06v-1.22c0-.38-.93-1.22-1.34-1.22zm-4.63-1c1.75 0 2.97-1.2 2.97-2.94S18.76 10 17 10c-1.74 0-3 1.3-3 3.04S15.3 16 17.04 16zM34 13.06C34 11.3 32.76 10 31 10c-1.73 0-3 1.3-3 3.04S29.3 16 31.04 16c1.75 0 2.97-1.2 2.97-2.94z"/></g><g><path class="svg-icon12" d="M28.25 18.73c-3.2 0-5.77 2.6-5.77 5.8 0 3.2 2.58 5.78 5.77 5.78 3.2 0 5.77-2.58 5.77-5.78s-2.58-5.8-5.77-5.8zm0 9.65c-2.12 0-3.85-1.73-3.85-3.86s1.73-3.86 3.85-3.86 3.85 1.73 3.85 3.86-1.72 3.86-3.85 3.86z"/></g></svg>