<svg xmlns="http://www.w3.org/2000/svg" class="svg-bkgd12" viewBox="0 0 48 48"><g><path class="svg-shortcut" d="M28 42.5l-3 2.7v-1.7c-.4 0-1.4 0-2.5.6-1.3 1-1.5 1.6-1.5 1.6s-.4-1.2.8-2.7c1.2-1.6 2.6-1.7 3.2-1.6v-1.6l3 2.7z"/></g><g><path class="svg-cluster" d="M28.5 41.3c.6 0 1.2.5 1.2 1.2s-.6 1.2-1.2 1.2-1.2-.5-1.2-1.2.5-1.2 1.2-1.2zm-4 0c.6 0 1.2.5 1.2 1.2s-.6 1.2-1.2 1.2c-.7 0-1.2-.5-1.2-1.2s.5-1.2 1.2-1.2zm-4 0c.7 0 1.2.5 1.2 1.2s-.5 1.2-1.2 1.2-1.2-.5-1.2-1.2.5-1.2 1.2-1.2z"/></g><g><path class="svg-icon15" d="M36.4 25h-11c-.2 0-.4.2-.4.6v10.8c0 .3.2.6.5.6h11c.2 0 .5-.3.5-.6V25.6c0-.4-.3-.6-.6-.6zM35 35h-8v-7.6l.7-.4h1.6l.7.5v.5h5v7z"/></g><g><path class="svg-icon04" d="M22.3 25H11.7c-.4 0-.7.4-.7.7v10.6c0 .4.3.7.7.7h10.6c.3 0 .7-.3.7-.6V25.7c0-.3-.4-.7-.7-.7zM21 33h-1l-2 2v-2h-5v-6h8v6z"/></g><g><path class="svg-icon09" d="M36.4 11H25.6c-.3 0-.6.2-.6.6v10.8c0 .3.3.6.6.6h10.8c.4 0 .6-.3.6-.6V11.6c0-.4-.2-.6-.6-.6zM30 12v1.5l5 .6v.8l-5 .7v1.3l-3-2.3 3-2.4zm2 9.7v-1.2l-5-.7v-.6l5-.7v-1.2l3 2.2-3 2.2z"/></g><g><path class="svg-icon10" d="M22.4 11H11.6c-.4 0-.6.2-.6.6v10.8c0 .3.2.6.6.6h10.8c.3 0 .6-.3.6-.6V11.6c0-.4-.3-.6-.6-.6zM16 21h-3v-3h3v3zm0-4h-3v-3h3v3zm4 4h-3v-3h3v3zm1-4h-4v-4h4v4z"/></g></svg>