<svg xmlns="http://www.w3.org/2000/svg" class="svg-bkgd03" viewBox="0 0 48 48"><g><path class="svg-shortcut" d="M28 42.5l-3 2.7v-1.7c-.4 0-1.4 0-2.5.6-1.3 1-1.5 1.6-1.5 1.6s-.4-1.2.8-2.7c1.2-1.6 2.6-1.7 3.2-1.6v-1.6l3 2.7z"/></g><g><path class="svg-cluster" d="M28.5 41.3c.6 0 1.2.5 1.2 1.2s-.6 1.2-1.2 1.2-1.2-.5-1.2-1.2.5-1.2 1.2-1.2zm-4 0c.6 0 1.2.5 1.2 1.2s-.6 1.2-1.2 1.2c-.7 0-1.2-.5-1.2-1.2s.5-1.2 1.2-1.2zm-4 0c.7 0 1.2.5 1.2 1.2s-.5 1.2-1.2 1.2-1.2-.5-1.2-1.2.5-1.2 1.2-1.2z"/></g><g><path class="svg-icon02" d="M11 11v26h26V11H11zm8 24h-6v-6h6v6zm0-8h-6v-6h6v6zm0-8h-6v-6h6v6zm8 16h-6v-6h6v6zm0-8h-6v-6h6v6zm0-8h-6v-6h6v6zm8 16h-6v-6h6v6zm0-8h-6v-6h6v6zm0-8h-6v-6h6v6z"/></g><g><path class="svg-icon10" d="M30 22h4v4h-4v-4zm-16-8h4v4h-4v-4z"/></g><g><path class="svg-icon07" d="M30 14h4v4h-4v-4zM14 30h4v4h-4v-4z"/></g></svg>