<svg xmlns="http://www.w3.org/2000/svg" class="svg-bkgd11" viewBox="0 0 48 48"><g><path class="svg-shortcut" d="M28 42.5l-3 2.7v-1.7c-.4 0-1.4 0-2.5.6-1.3 1-1.5 1.6-1.5 1.6s-.4-1.2.8-2.7c1.2-1.6 2.6-1.7 3.2-1.6v-1.6l3 2.7z"/></g><g><path class="svg-cluster" d="M28.5 41.3c.6 0 1.2.5 1.2 1.2s-.6 1.2-1.2 1.2-1.2-.5-1.2-1.2.5-1.2 1.2-1.2zm-4 0c.6 0 1.2.5 1.2 1.2s-.6 1.2-1.2 1.2c-.7 0-1.2-.5-1.2-1.2s.5-1.2 1.2-1.2zm-4 0c.7 0 1.2.5 1.2 1.2s-.5 1.2-1.2 1.2-1.2-.5-1.2-1.2.5-1.2 1.2-1.2z"/></g><g><path class="svg-icon18" d="M36 35H12c-1 0-2-.8-2-2V16h28v17c0 1.4-.7 2-2 2zm-14.5-3c2.5 0 4.5-2 4.5-4.5S24 23 21.5 23 17 25 17 27.5s2 4.5 4.5 4.5zM15 32V19c0-.8-1-1-1-1h-1s-1 .2-1 1v13c0 .8 1 1 1 1h2v-1zm21-14H17v3h19v-3zm0 13l-3.6-7.3c-.2-.4-.5-.7-1-.7-.3 0-.5.3-.8.7L27 31v.3c0 .4.3.7.8.7h7.5c.4 0 .7-.3.7-.7V31z"/></g><g><path class="svg-icon08" d="M23.8 25.8c.2-.2.4-.5.2-.7-.3-.2-.7-.2-1 0l-1.5 1.6L20 25c-.3-.2-.7-.2-1 0-.2.3-.2.6 0 1l1.7 1.5L19 29c-.2.3-.2.7 0 1 .3.2.7.2 1 0l1.5-1.7L23 30h1c.2-.3.2-.7 0-1l-1.8-1.6 1.6-1.6z"/></g><g><path class="svg-icon09" d="M32 25v4h-1v-4h1zm-1 5h1v1h-1v-1z"/></g><g><path class="svg-icon05" d="M12 12h24c1.3 0 2 1 2 1v2H10v-2s1-1 2-1z"/></g></svg>