<svg xmlns="http://www.w3.org/2000/svg" class="svg-bkgd01" viewBox="0 0 48 48"><g><path class="svg-shortcut" d="M28 42.5l-3 2.7v-1.7c-.4 0-1.4 0-2.5.6-1.3 1-1.5 1.6-1.5 1.6s-.4-1.2.8-2.7c1.2-1.6 2.6-1.7 3.2-1.6v-1.6l3 2.7z"/></g><g><path class="svg-cluster" d="M28.5 41.3c.6 0 1.2.5 1.2 1.2s-.6 1.2-1.2 1.2-1.2-.5-1.2-1.2.5-1.2 1.2-1.2zm-4 0c.6 0 1.2.5 1.2 1.2s-.6 1.2-1.2 1.2c-.7 0-1.2-.5-1.2-1.2s.5-1.2 1.2-1.2zm-4 0c.7 0 1.2.5 1.2 1.2s-.5 1.2-1.2 1.2-1.2-.5-1.2-1.2.5-1.2 1.2-1.2z"/></g><g><path class="svg-icon18" d="M32.8 38H16.2a1.2 1.2 0 0 1-1.2-1.2V11.2a1.2 1.2 0 0 1 1.2-1.2h16.6a1.2 1.2 0 0 1 1.2 1.2v25.6a1.2 1.2 0 0 1-1.2 1.2zM25 36a2 2 0 1 0-2-2 2 2 0 0 0 2 2zm1.5-25h-4a.5.5 0 0 0-.5.5.5.5 0 0 0 .5.5h4a.5.5 0 0 0 .5-.5.5.5 0 0 0-.5-.5zm5.5 2H17v18h15V13z"/></g><g><circle class="svg-icon18" cx="25" cy="34" r="1"/></g><g><path class="svg-icon05" d="M30 29v1H19v-1h11z"/></g><g><path class="svg-icon03" d="M28 24h2v4h-2v-4z"/></g><g><path class="svg-icon07" d="M25 16h2v12h-2V16z"/></g><g><path class="svg-icon09" d="M22 22h2v6h-2v-6z"/></g><g><path class="svg-icon06" d="M19 18h2v10h-2V18z"/></g></svg>