<svg xmlns="http://www.w3.org/2000/svg" class="svg-bkgd09" viewBox="0 0 48 48"><g><path class="svg-shortcut" d="M28 42.5l-3 2.7v-1.7c-.4 0-1.4 0-2.5.6-1.3 1-1.5 1.6-1.5 1.6s-.4-1.2.8-2.7c1.2-1.6 2.6-1.7 3.2-1.6v-1.6l3 2.7z"/></g><g><path class="svg-cluster" d="M28.5 41.3c.6 0 1.2.5 1.2 1.2s-.6 1.2-1.2 1.2-1.2-.5-1.2-1.2.5-1.2 1.2-1.2zm-4 0c.6 0 1.2.5 1.2 1.2s-.6 1.2-1.2 1.2c-.7 0-1.2-.5-1.2-1.2s.5-1.2 1.2-1.2zm-4 0c.7 0 1.2.5 1.2 1.2s-.5 1.2-1.2 1.2-1.2-.5-1.2-1.2.5-1.2 1.2-1.2z"/></g><g><path class="svg-icon18" d="M31.8 10H16.2c-.7 0-1.2.5-1.2 1.2v25.6c0 .7.5 1.2 1.2 1.2h15.6c.7 0 1.2-.5 1.2-1.2V11.2c0-.7-.5-1.2-1.2-1.2zm-9.3 1h3c.3 0 .5.3.5.5 0 .3-.2.5-.5.5h-3c-.3 0-.5-.2-.5-.5 0-.2.2-.5.5-.5zM24 36c-1 0-2-1-2-2s1-2 2-2 2 1 2 2-1 2-2 2zm7-5H17V13h14v18z"/></g><g><path class="svg-icon18" d="M24 33c.6 0 1 .5 1 1 0 .6-.4 1-1 1-.5 0-1-.4-1-1 0-.5.5-1 1-1z"/></g><g><path class="svg-icon12" d="M28.5 21h-1c0-.3-.2-.5-.4-.8l.8-.7c.3-.2.2-.6 0-.8l-.5-.4c-.2-.3-.6-.4-.8 0l-.7.6-.8-.5v-1c0-.3-.2-.5-.6-.5h-.8c-.3 0-.6.2-.6.5v1c-.3 0-.5.2-.8.4l-.7-.8c-.2-.3-.6-.2-.8 0l-.4.5c-.3.2-.4.6 0 .8l.6.7-.5.8h-1c-.3 0-.5.3-.5.6v.8c0 .4.2.6.6.6h1c0 .3 0 .5.3.8l-.8.7c-.2.2-.2.6 0 .8l.5.5c.2.2.6.3.8 0l.7-.7.8.5v1c0 .3.3.5.6.5h.8c.4 0 .6-.2.6-.6v-1c.3 0 .5 0 .8-.3l.7.8c.2.3.6.2.8 0l.5-.5c.2-.2.3-.5 0-.8l-.7-.7.5-.8h1c.3 0 .5-.2.5-.6v-.8c0-.3-.2-.6-.5-.6zM24 24c-1 0-2-1-2-2s1-2 2-2 2 1 2 2-1 2-2 2z"/></g></svg>