<svg xmlns="http://www.w3.org/2000/svg" class="svg-bkgd01" viewBox="0 0 48 48"><g><path class="svg-shortcut" d="M28 42.5l-3 2.7v-1.7c-.4 0-1.4 0-2.5.6-1.3 1-1.5 1.6-1.5 1.6s-.4-1.2.8-2.7c1.2-1.6 2.6-1.7 3.2-1.6v-1.6l3 2.7z"/></g><g><path class="svg-cluster" d="M28.5 41.3c.6 0 1.2.5 1.2 1.2s-.6 1.2-1.2 1.2-1.2-.5-1.2-1.2.5-1.2 1.2-1.2zm-4 0c.6 0 1.2.5 1.2 1.2s-.6 1.2-1.2 1.2c-.7 0-1.2-.5-1.2-1.2s.5-1.2 1.2-1.2zm-4 0c.7 0 1.2.5 1.2 1.2s-.5 1.2-1.2 1.2-1.2-.5-1.2-1.2.5-1.2 1.2-1.2z"/></g><g><path class="svg-icon02" d="M36.5 12c1.3 0 1.5 1 1.5 1.7v20.6c0 .7-.2 1.7-1.5 1.7-1.2 0-1.5-1-1.5-1.7V13.7c0-.7.3-1.7 1.5-1.7z"/></g><g><path class="svg-icon12" d="M10 21.5v6l4 1.2c-.3 2 .4 5 2 5.5l5 1.7c1.5.4 4-1.6 4.7-3.4L33 35V13l-23 8.5zM23 32c-.4 1.2-1.4 1.6-2.8 1.2l-2-.7c-1-.2-1.8-1.3-1.4-2.7l6.2 2z"/></g></svg>