<svg xmlns="http://www.w3.org/2000/svg" class="svg-bkgd01" viewBox="0 0 48 48"><g><path class="svg-shortcut" d="M28 42.5l-3 2.7v-1.7c-.4 0-1.4 0-2.5.6-1.3 1-1.5 1.6-1.5 1.6s-.4-1.2.8-2.7c1.2-1.6 2.6-1.7 3.2-1.6v-1.6l3 2.7z"/></g><g><path class="svg-cluster" d="M28.5 41.3c.6 0 1.2.5 1.2 1.2s-.6 1.2-1.2 1.2-1.2-.5-1.2-1.2.5-1.2 1.2-1.2zm-4 0c.6 0 1.2.5 1.2 1.2s-.6 1.2-1.2 1.2c-.7 0-1.2-.5-1.2-1.2s.5-1.2 1.2-1.2zm-4 0c.7 0 1.2.5 1.2 1.2s-.5 1.2-1.2 1.2-1.2-.5-1.2-1.2.5-1.2 1.2-1.2z"/></g><g><path class="svg-icon12" d="M32 30h2v3h-2v-3zm-9 8h3v-2h-3v2zm-8-5h2v-3h-2v3zm19 3v-2h-2v2h-1v2h1.6c1 0 1.4-.5 1.4-2zm-7 2h3v-2h-3v2zm-8 0h3v-2h-3v2zm-2-12l-2-.7V29h2v-3zm17-.7l-2 .7v3h2v-3.7zm-12.5-5L19.7 22l.7 2 1.4-1c.4-.5.5-1.6 0-2l-.3-.7zm9-5.3c0-1.5-1-3-2-3.8l-1 1.8c.5.5.8 1.2 1 2h2zm.2 1h-2c-.2.8-.8 1.7-1.4 2.3l1.5 1.2c1-.8 1.7-2 2-3.5zm-9-3l-1.2-1.8c-1 .8-2 2.3-2 3.8h2c0-.8.5-1.5 1-2zm.7-2.6L23 12h3l.6-1.6c-.6-.2-1.4-.4-2-.4-1 0-1.6.2-2.2.4zm-.7 7.8c-.6-.5-1-1.4-1.2-2.2h-2c0 1.4.6 2.5 1.6 3.4l1.7-1.2zm-3.3 4.4L15.7 24l2.7 1.3.7-.7-.6-2zM28.6 24l.6-2-1.7-1.7-.4.7c-.3.4-.2 1.5.2 2l1.4 1zm2-1.4l-.7 2 .6.7 2.7-1.4-2.7-1.4zM17 34h-2v3c.2.7 1 1 1.3 1H18v-2h-1v-2z"/></g></svg>