<svg xmlns="http://www.w3.org/2000/svg" class="svg-bkgd03" viewBox="0 0 48 48"><g><path class="svg-shortcut" d="M28 42.5l-3 2.7v-1.7c-.4 0-1.4 0-2.5.6-1.3 1-1.5 1.6-1.5 1.6s-.4-1.2.8-2.7c1.2-1.6 2.6-1.7 3.2-1.6v-1.6l3 2.7z"/></g><g><path class="svg-cluster" d="M28.5 41.3c.6 0 1.2.5 1.2 1.2s-.6 1.2-1.2 1.2-1.2-.5-1.2-1.2.5-1.2 1.2-1.2zm-4 0c.6 0 1.2.5 1.2 1.2s-.6 1.2-1.2 1.2c-.7 0-1.2-.5-1.2-1.2s.5-1.2 1.2-1.2zm-4 0c.7 0 1.2.5 1.2 1.2s-.5 1.2-1.2 1.2-1.2-.5-1.2-1.2.5-1.2 1.2-1.2z"/></g><g><path class="svg-icon12" d="M24 11c-8 0-14 4.3-14 10.6 0 3.6 2 6.4 5 8.2V37s2.7-3 4.5-5.5c1.4.3 3 .5 4.5.5 8 0 14-4 14-10.4C38 15.3 32 11 24 11zm.5 4c1.4 0 2.5 1 2.5 2.5S26 20 24.5 20 22 19 22 17.5s1-2.5 2.5-2.5zM29 26.3c0 .3-.5.7-.8.7h-7.4c-.3 0-.8-.4-.8-.7v-4.8c0-.2.3-.5.6-.5h1.6l2.3 3.2 2.3-3.2h1.6c.4 0 .6.2.6.5v4.8z"/></g></svg>