<svg xmlns="http://www.w3.org/2000/svg" class="svg-bkgd01" viewBox="0 0 48 48"><g><path class="svg-shortcut" d="M28 42.5l-3 2.7v-1.7c-.4 0-1.4 0-2.5.6-1.3 1-1.5 1.6-1.5 1.6s-.4-1.2.8-2.7c1.2-1.6 2.6-1.7 3.2-1.6v-1.6l3 2.7z"/></g><g><path class="svg-cluster" d="M28.5 41.3c.6 0 1.2.5 1.2 1.2s-.6 1.2-1.2 1.2-1.2-.5-1.2-1.2.5-1.2 1.2-1.2zm-4 0c.6 0 1.2.5 1.2 1.2s-.6 1.2-1.2 1.2c-.7 0-1.2-.5-1.2-1.2s.5-1.2 1.2-1.2zm-4 0c.7 0 1.2.5 1.2 1.2s-.5 1.2-1.2 1.2-1.2-.5-1.2-1.2.5-1.2 1.2-1.2z"/></g><g><path class="svg-icon18" d="M11 14v16c0 1 .3 1.7 1 2l1.4-2.5c-1-1-1.4-2.5-1.4-4 0-1.8.8-3.5 2-4.7v-4c0-.6.8-.8.8-.8h2.4s.8.2.8 1v2h.5c1 0 1.7.2 2.5.5V16h14v4H22c.8.5 1.5 1.2 2 2h11v2H24.8l.2 1h10v2H24.8c-.6 3-3.2 5-6.3 5h-.2 17c1 0 1.7-.7 1.7-2V14H11z"/></g><g><path class="svg-icon05" d="M12.7 10h22.6c1 0 1.7 1 1.7 1v2H11v-2s1-1 1.7-1z"/></g><g><path class="svg-icon12" d="M18.5 20c-3 0-5.5 2.5-5.5 5.5s2.5 5.5 5.5 5.5 5.5-2.5 5.5-5.5-2.5-5.5-5.5-5.5zm0 9c-2 0-3.5-1.6-3.5-3.5 0-2 1.6-3.5 3.5-3.5s3.5 1.6 3.5 3.5c0 2-1.6 3.5-3.5 3.5z"/></g><g><path class="svg-icon15" d="M16 31.8l-1.6-.8-3.4 5.7s0 1 .5 1.2c.5.2 1.4-.4 1.4-.4l3-5.8z"/></g></svg>