<svg xmlns="http://www.w3.org/2000/svg" class="svg-bkgd08" viewBox="0 0 48 48"><g><path class="svg-shortcut" d="M28 42.5l-3 2.7v-1.7c-.4 0-1.4 0-2.5.6-1.3 1-1.5 1.6-1.5 1.6s-.4-1.2.8-2.7c1.2-1.6 2.6-1.7 3.2-1.6v-1.6l3 2.7z"/></g><g><path class="svg-cluster" d="M28.5 41.3c.6 0 1.2.5 1.2 1.2s-.6 1.2-1.2 1.2-1.2-.5-1.2-1.2.5-1.2 1.2-1.2zm-4 0c.6 0 1.2.5 1.2 1.2s-.6 1.2-1.2 1.2c-.7 0-1.2-.5-1.2-1.2s.5-1.2 1.2-1.2zm-4 0c.7 0 1.2.5 1.2 1.2s-.5 1.2-1.2 1.2-1.2-.5-1.2-1.2.5-1.2 1.2-1.2z"/></g><g><path class="svg-icon08" d="M13.6 22.4v1.2c.6.2 1 .6 1 1.2s-.4 1-1 1.3v.8c.7 0 .7 1 .7 1.6L15 35l-.8-.8s-.8 1.8-1 1.8c-.3 0-1-1.8-1-1.8L11 35l.7-6.6c0-.6.2-1.5 1-1.7V26c-.6 0-1-.6-1-1.2s.4-1 1-1.5V22l1 .4z"/></g><g><path class="svg-icon11" d="M15.5 27.5c.5-2 .4-3 1.8-4.4l7 3.5 7-3.4c1.4 1.5 2.4 3.2 3 5h-1.7c-3.4 0-5.7 1-8.2 3-2.4-2-5.5-3.3-9-3.3-.4 0 .6-.3 0-.2zm9-2L10 19l14.4-6L38 19l-13.4 6.4z"/></g></svg>