<svg xmlns="http://www.w3.org/2000/svg" class="svg-bkgd06" viewBox="0 0 48 48"><g><path class="svg-shortcut" d="M28 42.5l-3 2.7v-1.7c-.4 0-1.4 0-2.5.6-1.3 1-1.5 1.6-1.5 1.6s-.4-1.2.8-2.7c1.2-1.6 2.6-1.7 3.2-1.6v-1.6l3 2.7z"/></g><g><path class="svg-cluster" d="M28.5 41.3c.6 0 1.2.5 1.2 1.2s-.6 1.2-1.2 1.2-1.2-.5-1.2-1.2.5-1.2 1.2-1.2zm-4 0c.6 0 1.2.5 1.2 1.2s-.6 1.2-1.2 1.2c-.7 0-1.2-.5-1.2-1.2s.5-1.2 1.2-1.2zm-4 0c.7 0 1.2.5 1.2 1.2s-.5 1.2-1.2 1.2-1.2-.5-1.2-1.2.5-1.2 1.2-1.2z"/></g><g><path class="svg-icon15" d="M37 36H11V12h2v22h24v2z"/></g><g><path class="svg-icon03" d="M34 17v16h-3V17h-3l4-5h1l4 5h-3z"/></g><g><path class="svg-icon05" d="M27 21v12h-3V21h-3l4-5h1l4 5h-3z"/></g><g><path class="svg-icon09" d="M20 26v7h-3v-7h-3l4-5h1l4 5h-3z"/></g></svg>