<svg xmlns="http://www.w3.org/2000/svg" class="svg-bkgd03" viewBox="0 0 48 48"><g><path class="svg-shortcut" d="M28 42.5l-3 2.7v-1.7c-.4 0-1.4 0-2.5.6-1.3 1-1.5 1.6-1.5 1.6s-.4-1.2.8-2.7c1.2-1.6 2.6-1.7 3.2-1.6v-1.6l3 2.7z"/></g><g><path class="svg-cluster" d="M28.5 41.3c.6 0 1.2.5 1.2 1.2s-.6 1.2-1.2 1.2-1.2-.5-1.2-1.2.5-1.2 1.2-1.2zm-4 0c.6 0 1.2.5 1.2 1.2s-.6 1.2-1.2 1.2c-.7 0-1.2-.5-1.2-1.2s.5-1.2 1.2-1.2zm-4 0c.7 0 1.2.5 1.2 1.2s-.5 1.2-1.2 1.2-1.2-.5-1.2-1.2.5-1.2 1.2-1.2z"/></g><g><path class="svg-icon03" d="M36.86 33H34v-2h2v-8h-2.18a12.7 12.7 0 0 1-.43-1.34 6 6 0 0 1 1.15-.67h2.3a1.5 1.5 0 0 1 1.16 1.32v9.33A1.5 1.5 0 0 1 36.87 33zM30.8 18.96a6.47 6.47 0 0 0 .2-1.47c0-.2-.04-.36-.06-.54a2.5 2.5 0 1 0-2.13-4.3 6.47 6.47 0 0 0-1.67-1.1 4.5 4.5 0 1 1 3.68 7.4zm.77 14h-7.42 7.42z"/></g><g><path class="svg-icon14" d="M30.85 36H27.9a.34.34 0 0 0 .1-.2v-1.78h2V26h-3a2.3 2.3 0 0 0-.25-.15l.64-1.18a5.97 5.97 0 0 1 1.14-.66h2.3A1.5 1.5 0 0 1 32 25.35v9.34A1.5 1.5 0 0 1 30.85 36zM24.5 22a4.46 4.46 0 0 1-.68-.08A6.52 6.52 0 0 0 24 20.5c0-.2-.05-.4-.07-.58a2.47 2.47 0 0 0 .57.07 2.5 2.5 0 1 0-2.14-3.77 6.48 6.48 0 0 0-1.55-1.3A4.5 4.5 0 1 1 24.5 22z"/></g><g><path class="svg-icon12" d="M17.5 16a4.5 4.5 0 1 1-4.5 4.5 4.5 4.5 0 0 1 4.5-4.5zm6.34 22h-12.7A1.5 1.5 0 0 1 10 36.67v-9.34A1.5 1.5 0 0 1 11.15 26h2.3a2.68 2.68 0 0 1 1.16.67L17.5 32l2.88-5.33a5.97 5.97 0 0 1 1.15-.67h2.3A1.5 1.5 0 0 1 25 27.33v9.33A1.5 1.5 0 0 1 23.83 38z"/></g></svg>