<svg xmlns="http://www.w3.org/2000/svg" class="svg-bkgd06" viewBox="0 0 48 48"><g><path class="svg-shortcut" d="M28 42.5l-3 2.7v-1.7c-.4 0-1.4 0-2.5.6-1.3 1-1.5 1.6-1.5 1.6s-.4-1.2.8-2.7c1.2-1.6 2.6-1.7 3.2-1.6v-1.6l3 2.7z"/></g><g><path class="svg-cluster" d="M28.5 41.3c.6 0 1.2.5 1.2 1.2s-.6 1.2-1.2 1.2-1.2-.5-1.2-1.2.5-1.2 1.2-1.2zm-4 0c.6 0 1.2.5 1.2 1.2s-.6 1.2-1.2 1.2c-.7 0-1.2-.5-1.2-1.2s.5-1.2 1.2-1.2zm-4 0c.7 0 1.2.5 1.2 1.2s-.5 1.2-1.2 1.2-1.2-.5-1.2-1.2.5-1.2 1.2-1.2z"/></g><g><path class="svg-icon12" d="M36 29h-2v9h-7v-9h-2c-1.3 0-1-1-1-1v-8c0-2.2 1-2 1-2h3l2.5 4.5L33 18h3s1 0 1 2v8s-.5 1-1 1zm-5.5-19c2 0 3.5 1.6 3.5 3.5S32.4 17 30.5 17c-2 0-3.5-1.6-3.5-3.5s1.6-3.5 3.5-3.5z"/></g><g><path class="svg-icon06" d="M17 10.2c-.2-.3-.8-.3-1 0L12 16c-.2.3-2 2 0 2h2v19s-.2 1 1 1h3c1.2 0 1-1 1-1V18h2c2 0 .2-1.7 0-2l-4-5.8z"/></g></svg>