<svg xmlns="http://www.w3.org/2000/svg" class="svg-bkgd11" viewBox="0 0 48 48"><g><path class="svg-shortcut" d="M28 42.5l-3 2.7v-1.7c-.4 0-1.4 0-2.5.6-1.3 1-1.5 1.6-1.5 1.6s-.4-1.2.8-2.7c1.2-1.6 2.6-1.7 3.2-1.6v-1.6l3 2.7z"/></g><g><path class="svg-cluster" d="M28.5 41.3c.6 0 1.2.5 1.2 1.2s-.6 1.2-1.2 1.2-1.2-.5-1.2-1.2.5-1.2 1.2-1.2zm-4 0c.6 0 1.2.5 1.2 1.2s-.6 1.2-1.2 1.2c-.7 0-1.2-.5-1.2-1.2s.5-1.2 1.2-1.2zm-4 0c.7 0 1.2.5 1.2 1.2s-.5 1.2-1.2 1.2-1.2-.5-1.2-1.2.5-1.2 1.2-1.2z"/></g><g><path class="svg-icon01" d="M32 11H13c1.3 0 3 1.7 3 3v19c0 1 1 3 3 3s3-1 3-3h13V13c0-.7-1.6-2-3-2zm-3 16h-9v-2h9v2zm2-4H20v-2h11v2zm0-4H20v-2h11v2z"/></g><g><path class="svg-icon09" d="M20 38h14.4c1.5 0 3.6-1 3.6-3v-1H24s-1 3.4-4 4zm-6-23v2h-3c-1.5 0-1-2-1-2s.7-2 2-2 2 .8 2 2z"/></g></svg>