<svg xmlns="http://www.w3.org/2000/svg" class="svg-bkgd03" viewBox="0 0 48 48"><g><path class="svg-shortcut" d="M28 42.5l-3 2.7v-1.7c-.4 0-1.4 0-2.5.6-1.3 1-1.5 1.6-1.5 1.6s-.4-1.2.8-2.7c1.2-1.6 2.6-1.7 3.2-1.6v-1.6l3 2.7z"/></g><g><path class="svg-cluster" d="M28.5 41.3c.6 0 1.2.5 1.2 1.2s-.6 1.2-1.2 1.2-1.2-.5-1.2-1.2.5-1.2 1.2-1.2zm-4 0c.6 0 1.2.5 1.2 1.2s-.6 1.2-1.2 1.2-1.2-.5-1.2-1.2.5-1.2 1.2-1.2zm-4 0c.7 0 1.2.5 1.2 1.2s-.5 1.2-1.2 1.2-1.2-.5-1.2-1.2.5-1.2 1.2-1.2z"/></g><g><path class="svg-icon03" d="M36.2 33h-13c.5-1 .8-2.2.8-3.5 0-1.4-.4-2.6-1-3.7V25h-.5l-1-1H23v-2h-3v1c-.3-.3-.6-.4-1-.6V22h-3c-.7 0-1.4.2-2 .4v-8.7c0-.7 1-1.7 1.8-1.7h20.4c.7 0 1.8 1 1.8 1.7v17.6c0 .7-1 1.7-1.8 1.7zM34 30h2v-2h-2v2zm0-3h2v-2h-2v2zm0-3h2v-2h-2v2zm0-3h2v-2h-2v2zm-10 9h9v-2h-9v2zm0-3h9v-2h-9v2zm0-3h9v-2h-9v2zm0-3h9v-2h-9v2zm-4 0h3v-2h-3v2zm-4 0h3v-2h-3v2zm20-6H16v2h20v-2z"/></g><g><path class="svg-icon12" d="M16 36c-3.3 0-6-2.7-6-6s2.7-6 6-6 6 2.7 6 6-2.7 6-6 6zm3-6h-3v-4h-1v5h4v-1z"/></g></svg>