<svg xmlns="http://www.w3.org/2000/svg" class="svg-bkgd08" viewBox="0 0 48 48"><g><path class="svg-shortcut" d="M28 42.5l-3 2.7v-1.7c-.4 0-1.4 0-2.5.6-1.3 1-1.5 1.6-1.5 1.6s-.4-1.2.8-2.7c1.2-1.6 2.6-1.7 3.2-1.6v-1.6l3 2.7z"/></g><g><path class="svg-cluster" d="M28.5 41.3c.6 0 1.2.5 1.2 1.2s-.6 1.2-1.2 1.2-1.2-.5-1.2-1.2.5-1.2 1.2-1.2zm-4 0c.6 0 1.2.5 1.2 1.2s-.6 1.2-1.2 1.2c-.7 0-1.2-.5-1.2-1.2s.5-1.2 1.2-1.2zm-4 0c.7 0 1.2.5 1.2 1.2s-.5 1.2-1.2 1.2-1.2-.5-1.2-1.2.5-1.2 1.2-1.2z"/></g><g><path class="svg-icon06" d="M35.5 10c1.4 0 2.5 1 2.5 2.5 0 1.4-1 2.5-2.5 2.5-1.4 0-2.5-1-2.5-2.5 0-1.4 1-2.5 2.5-2.5zM10 10h4v4h-4v-4zm16 28h-5l2.5-4 2.5 4z"/></g><g><path class="svg-icon05" d="M26.4 25h-5.8c-.3 0-.6-.3-.6-.5v-4c0-.2.3-.5.6-.5h1l2 2.3 1.7-2.3h1c.4 0 .7.3.7.5v4c0 .2-.3.5-.6.5zm-3-11c1.5 0 2.6 1 2.6 2.5S25 19 23.5 19C22 19 21 18 21 16.5s1-2.5 2.5-2.5z"/></g><g><path class="svg-icon03" d="M24.3 29.3V32H23V29h-1l1.6-1.7 1.7 1.8h-1zm4.4-12l2-2.3 1.3 1.2-2 2.2.5.6H28v-2.5l.7.7zm-9.7-.8V19h-2.5l.7-.7-2.2-2 1.2-1.3 2.2 2 .6-.5z"/></g></svg>