<svg xmlns="http://www.w3.org/2000/svg" class="svg-bkgd04" viewBox="0 0 48 48"><g><path class="svg-shortcut" d="M28 42.5l-3 2.7v-1.7c-.4 0-1.4 0-2.5.6-1.3 1-1.5 1.6-1.5 1.6s-.4-1.2.8-2.7c1.2-1.6 2.6-1.7 3.2-1.6v-1.6l3 2.7z"/></g><g><path class="svg-cluster" d="M28.5 41.3c.6 0 1.2.5 1.2 1.2s-.6 1.2-1.2 1.2-1.2-.5-1.2-1.2.5-1.2 1.2-1.2zm-4 0c.6 0 1.2.5 1.2 1.2s-.6 1.2-1.2 1.2c-.7 0-1.2-.5-1.2-1.2s.5-1.2 1.2-1.2zm-4 0c.7 0 1.2.5 1.2 1.2s-.5 1.2-1.2 1.2-1.2-.5-1.2-1.2.5-1.2 1.2-1.2z"/></g><g><path class="svg-icon06" d="M37 15.6L20 11c-.7-.2-1.4.3-1.6 1l-2.2 10h14.6c.6 0 1.2.5 1.2 1.2v5.2l2 .5c.7 0 1.4-.3 1.5-1L38 17.5c0-.7-.3-1.6-1-1.8zM35.6 19L20 14.8l.5-1.8L36 17.2l-.5 1.8z"/></g><g><path class="svg-icon03" d="M29.7 23H11.3c-.7 0-1.3.6-1.3 1.2v11.6c0 .6.6 1.2 1.3 1.2h18.4c.7 0 1.3-.6 1.3-1.2V24.2c0-.6-.6-1.2-1.3-1.2zM12 28h3v1h-3v-1zm5 5h-5v-1h5v1zm0-5h3v1h-3v-1zm8 5h-6v-1h6v1zm0-4h-3v-1h3v1zm4 0h-2v-1h2v1z"/></g></svg>