<svg xmlns="http://www.w3.org/2000/svg" class="svg-bkgd02" viewBox="0 0 48 48"><g><path class="svg-shortcut" d="M28.05 42.5L25 45.2v-1.7c-.44-.1-1.4-.15-2.45.6-1.4 1-1.57 1.47-1.57 1.47s-.4-1.24.8-2.7c1.26-1.54 2.67-1.56 3.23-1.5v-1.63l3.05 2.72z"/></g><g><path class="svg-cluster" d="M28.47 41.3c.66 0 1.2.55 1.2 1.2s-.55 1.2-1.2 1.2-1.2-.54-1.2-1.2.54-1.2 1.2-1.2zm-4 0c.66 0 1.2.55 1.2 1.2s-.55 1.2-1.2 1.2-1.2-.54-1.2-1.2.54-1.2 1.2-1.2zm-3.97 0c.66 0 1.2.55 1.2 1.2s-.54 1.2-1.2 1.2-1.2-.54-1.2-1.2.54-1.2 1.2-1.2z"/></g><g><path class="svg-icon05" d="M28.62 12.5C24.96 11.24 24 10.13 24 10.13s-.93 1.1-4.62 2.35c-3.2 1.08-7.92 1.6-7.92 1.6s.8 11.05 3.28 15.5c3.58 6.37 9.26 8.26 9.26 8.26s5.67-2.2 9.24-8.58c2.5-4.45 3.3-15.18 3.3-15.18s-4.68-.5-7.92-1.6zm3.3 16.12C28.94 34.16 24 35.88 24 35.88s-4.94-1.7-7.92-7.26c-2.08-3.86-2.64-13.2-2.64-13.2s3.27-.37 5.94-1.32C22.46 13 24 12.12 24 12.12s1.57.9 4.62 1.98c2.7.96 5.94 1.32 5.94 1.32s-.56 9.33-2.64 13.2z"/></g><g><path class="svg-icon01" d="M27.96 15.42c-2.64-.97-3.96-1.98-3.96-1.98s-1.3 1-3.96 1.98c-2.32.85-5.28 1.32-5.28 1.32s.84 7.75 2.64 11.22c2.58 5 6.6 6.6 6.6 6.6s4.02-1.6 6.6-6.6c1.8-3.48 2.64-11.22 2.64-11.22s-2.94-.46-5.28-1.32zM21 19s.4-.94 3-.94 3 .94 3 .94v3h-2s.28-2-1-2-1 2-1 2h-2v-3zm7 9h-8v-5h8v5z"/></g></svg>