<svg xmlns="http://www.w3.org/2000/svg" class="svg-bkgd03" viewBox="0 0 48 48"><g><path class="svg-shortcut" d="M28.05 42.5L25 45.2v-1.7c-.44-.1-1.4-.15-2.45.6-1.4 1-1.57 1.47-1.57 1.47s-.4-1.24.8-2.7c1.26-1.54 2.67-1.56 3.23-1.5v-1.63l3.05 2.72z"/></g><g><path class="svg-cluster" d="M28.47 41.3c.65 0 1.2.55 1.2 1.2s-.55 1.2-1.2 1.2-1.2-.54-1.2-1.2.54-1.2 1.2-1.2zm-4 0c.65 0 1.2.55 1.2 1.2s-.55 1.2-1.2 1.2c-.66 0-1.2-.54-1.2-1.2s.54-1.2 1.2-1.2zm-3.97 0c.66 0 1.2.55 1.2 1.2s-.54 1.2-1.2 1.2-1.2-.54-1.2-1.2.54-1.2 1.2-1.2z"/></g><g><path class="svg-icon10" d="M36 19.28V14H12v13h7v2h-9V12h28v8.38c-.4-.4-.94-.7-1.56-.92-.14-.07-.3-.13-.44-.18zM13 26v-2c1.46.26 1.75.48 2 2h-2zm0-11h2c-.25 1.52-.53 1.74-2 2v-2zm22 0v2c-1.4-.26-1.8-.53-2-2h2zm-22 7v-3c2.17-.28 3.73-1.75 4-4h14c.2 2.16 1.93 3.72 4 4v.05c-.17-.02-.33-.05-.5-.05-.33 0-.65.04-.97.1-1.24.08-2.72.35-4.53.9-.7-.22-1.36-.38-1.98-.5-.3-2.2-2.14-2.5-3.02-2.5-2.37 0-3.5 1.88-3.05 3.76-.6.76-.95 1.7-.95 2.74 0 .16.03.3.05.46-.03.34-.05.68-.05 1.04 0 .3-.33.6-.6 1H17c-.27-2.25-1.84-3.72-4-4zm11-4c1.2 0 1.7.6 1.96 1.27-.46-.16-.94-.27-1.46-.27-1 0-1.92.34-2.67.9.2-1.08.75-1.9 2.17-1.9z"/></g><g><path class="svg-icon12" d="M38 33c0 .3-.72 1-1 1h-2v-5l1-2h1c.28 0 1 .83 1 1.13V33zm-3.63-7.13c-.56 0-1.07-.2-1.5-.5.08-.28.13-.57.13-.87 0-.86-.33-1.64-.84-2.25.4-.82 1.24-1.38 2.22-1.38 1.38 0 2.5 1.12 2.5 2.5 0 1.4-1.12 2.5-2.5 2.5zM26 24.5c0 .24.02.48.07.7-.45.42-1.04.68-1.7.68-1.38 0-2.5-1.12-2.5-2.5 0-1.4 1.12-2.5 2.5-2.5 1.05 0 1.95.64 2.32 1.55-.44.58-.7 1.3-.7 2.07zM23 27l1 2v5h-2c-.28 0-1-.7-1-1v-4.88c0-.3.72-1.12 1-1.12h1z"/></g><g><path class="svg-icon05" d="M32.92 36h-6.9c-.84 0-1.03-.5-1.03-.85v-6.3c0-.83.46-.83.83-.83h.85l2.83 3.7 2.94-3.7h.74c.36 0 .84.47.84.83v6.3c0 .36-.26.84-1.1.84zm-3.55-9.13c-1.38 0-2.5-1.1-2.5-2.5 0-1.38 1.12-2.5 2.5-2.5 1.4 0 2.5 1.12 2.5 2.5 0 1.4-1.1 2.5-2.5 2.5z"/></g></svg>