<svg xmlns="http://www.w3.org/2000/svg" class="svg-bkgd09" viewBox="0 0 48 48"><g><path class="svg-shortcut" d="M28 42.5l-3 2.7v-1.7c-.4 0-1.4 0-2.5.6-1.3 1-1.5 1.6-1.5 1.6s-.4-1.2.8-2.7c1.2-1.6 2.6-1.7 3.2-1.6v-1.6l3 2.7z"/></g><g><path class="svg-cluster" d="M28.5 41.3c.6 0 1.2.5 1.2 1.2s-.6 1.2-1.2 1.2-1.2-.5-1.2-1.2.5-1.2 1.2-1.2zm-4 0c.6 0 1.2.5 1.2 1.2s-.6 1.2-1.2 1.2c-.7 0-1.2-.5-1.2-1.2s.5-1.2 1.2-1.2zm-4 0c.7 0 1.2.5 1.2 1.2s-.5 1.2-1.2 1.2-1.2-.5-1.2-1.2.5-1.2 1.2-1.2z"/></g><g><path class="svg-icon15" d="M16 31l-1.6-1-3.4 6.5s0 1 .5 1.4c.5.2 1.4-.4 1.4-.4l3-6.7z"/></g><g><path class="svg-icon03" d="M36 10H12c-.8 0-2 1.2-2 2v20c0 .4.2.8.5 1l2-3.6c-1-1.4-1.6-3-1.6-5 0-4.2 3.3-7.6 7.4-7.6H20V16h2v1.7c.7.4 1.3 1 1.8 1.5.6.5 1 1 1.3 1.8h4v7h-4c-.3.7-.8 1.4-1.4 2H35v2H20.3l-2 .2H18L17 34h19c.8 0 2-1.2 2-2V12c0-.8-1.2-2-2-2zm-23 4v-2h22v2H13zm22 14h-5V17h5v11z"/></g><g><path class="svg-icon12" d="M18.5 19c-3 0-5.5 2.5-5.5 5.5s2.5 5.5 5.5 5.5 5.5-2.5 5.5-5.5-2.5-5.5-5.5-5.5zm0 9c-2 0-3.5-1.6-3.5-3.5 0-2 1.6-3.5 3.5-3.5s3.5 1.6 3.5 3.5c0 2-1.6 3.5-3.5 3.5z"/></g></svg>