<svg xmlns="http://www.w3.org/2000/svg" class="svg-bkgd10" viewBox="0 0 48 48"><g><path class="svg-shortcut" d="M28 42.5l-3 2.7v-1.7c-.4 0-1.4 0-2.5.6-1.3 1-1.5 1.6-1.5 1.6s-.4-1.2.8-2.7c1.2-1.6 2.6-1.7 3.2-1.6v-1.6l3 2.7z"/></g><g><path class="svg-cluster" d="M28.5 41.3c.6 0 1.2.5 1.2 1.2s-.6 1.2-1.2 1.2-1.2-.5-1.2-1.2.5-1.2 1.2-1.2zm-4 0c.6 0 1.2.5 1.2 1.2s-.6 1.2-1.2 1.2c-.7 0-1.2-.5-1.2-1.2s.5-1.2 1.2-1.2zm-4 0c.7 0 1.2.5 1.2 1.2s-.5 1.2-1.2 1.2-1.2-.5-1.2-1.2.5-1.2 1.2-1.2z"/></g><g><path class="svg-icon04" d="M26 28c-2.2 0-4 1.8-4 4s1.8 4 4 4 4-1.8 4-4-1.8-4-4-4zm0 6c-1 0-2-1-2-2s1-2 2-2 2 1 2 2-1 2-2 2zm0-3c.6 0 1 .5 1 1s-.4 1-1 1-1-.5-1-1 .4-1 1-1z"/></g><g><path class="svg-icon15" d="M35 14l-.7-.3c-1.3 0-1.5.7-1.7 1L26 27s-.5-.2-2 0l7.4-13s.5-1.6 2.6-1.6h.5V12H38v2h-3zM12.6 28l8 5.2s-.4.7.4 1.8l-9-5.8.6-1.2z"/></g><g><path class="svg-icon09" d="M17 12l10 6.3L20 31l-10-6.3L17 12z"/></g></svg>