<svg xmlns="http://www.w3.org/2000/svg" class="svg-bkgd09" viewBox="0 0 48 48"><g><path class="svg-shortcut" d="M28 42.5l-3 2.7v-1.7c-.4 0-1.4 0-2.5.6-1.3 1-1.5 1.6-1.5 1.6s-.4-1.2.8-2.7c1.2-1.6 2.6-1.7 3.2-1.6v-1.6l3 2.7z"/></g><g><path class="svg-cluster" d="M28.5 41.3c.6 0 1.2.5 1.2 1.2s-.6 1.2-1.2 1.2-1.2-.5-1.2-1.2.5-1.2 1.2-1.2zm-4 0c.6 0 1.2.5 1.2 1.2s-.6 1.2-1.2 1.2c-.7 0-1.2-.5-1.2-1.2s.5-1.2 1.2-1.2zm-4 0c.7 0 1.2.5 1.2 1.2s-.5 1.2-1.2 1.2-1.2-.5-1.2-1.2.5-1.2 1.2-1.2z"/></g><g><path class="svg-icon10" d="M27.2 13l-.2 1.5c0 .5 0 1 .2 1.5h-6.4l.2-1.5c0-.5 0-1-.2-1.5h6.4zM14.5 27c.5 0 1 0 1.5.2v-6.4l-1.5.2c-.5 0-1 0-1.5-.2v6.4l1.5-.2zm12.7 8l-.2-1.5c0-.5 0-1 .2-1.5h-6.4l.2 1.5c0 .5 0 1-.2 1.5h6.4zm6.3-14c-.5 0-1 0-1.5-.2v6.4l1.5-.2c.5 0 1 0 1.5.2v-6.4l-1.5.2z"/></g><g><path class="svg-icon12" d="M14.5 10c2.5 0 4.5 2 4.5 4.5S17 19 14.5 19 10 17 10 14.5s2-4.5 4.5-4.5zm0 19c2.5 0 4.5 2 4.5 4.5S17 38 14.5 38 10 36 10 33.5s2-4.5 4.5-4.5zm19-19c2.5 0 4.5 2 4.5 4.5S36 19 33.5 19 29 17 29 14.5s2-4.5 4.5-4.5zm0 19c2.5 0 4.5 2 4.5 4.5S36 38 33.5 38 29 36 29 33.5s2-4.5 4.5-4.5z"/></g></svg>