<svg xmlns="http://www.w3.org/2000/svg" class="svg-bkgd04" viewBox="0 0 48 48"><g><path class="svg-shortcut" d="M28 42.5l-3 2.7v-1.7c-.4 0-1.4 0-2.5.6-1.3 1-1.5 1.6-1.5 1.6s-.4-1.2.8-2.7c1.2-1.6 2.6-1.7 3.2-1.6v-1.6l3 2.7z"/></g><g><path class="svg-cluster" d="M28.5 41.3c.6 0 1.2.5 1.2 1.2s-.6 1.2-1.2 1.2-1.2-.5-1.2-1.2.5-1.2 1.2-1.2zm-4 0c.6 0 1.2.5 1.2 1.2s-.6 1.2-1.2 1.2c-.7 0-1.2-.5-1.2-1.2s.5-1.2 1.2-1.2zm-4 0c.7 0 1.2.5 1.2 1.2s-.5 1.2-1.2 1.2-1.2-.5-1.2-1.2.5-1.2 1.2-1.2z"/></g><g><path class="svg-icon02" d="M32 36c0 1-1 2-2 2s-2-1-2-2 1-2 2-2 2 1 2 2zm-9 0c0 1-1 2-2 2s-2-1-2-2 1-2 2-2 2 1 2 2z"/></g><g><path class="svg-icon12" d="M38 17s-1.6 6.5-3 10c-.3 1.2-1 2-2 2H19v2h14c.6 0 1 .4 1 1s-.4 1-1 1H19c-1 0-2-.5-2-1l-4-19h-2c-.7 0-1-.3-1-1 0-.5.3-1 1-1h3s1 .5 1 1l.7 3H37c1 0 1 1.6 1 2zm-7 10h2l1-4h-3v4zM21 17h-5l1 4h4v-4zm0 6h-3l1 4h2v-4zm8-6h-6v4h6v-4zm0 6h-6v4h6v-4zm2-6v4h4l1-4h-5z"/></g></svg>