<svg xmlns="http://www.w3.org/2000/svg" class="svg-bkgd07" viewBox="0 0 48 48"><g><path class="svg-shortcut" d="M28 42.5l-3 2.7v-1.7c-.4 0-1.4 0-2.5.6-1.3 1-1.5 1.6-1.5 1.6s-.4-1.2.8-2.7c1.2-1.6 2.6-1.7 3.2-1.6v-1.6l3 2.7z"/></g><g><path class="svg-cluster" d="M28.5 41.3c.6 0 1.2.5 1.2 1.2s-.6 1.2-1.2 1.2-1.2-.5-1.2-1.2.5-1.2 1.2-1.2zm-4 0c.6 0 1.2.5 1.2 1.2s-.6 1.2-1.2 1.2c-.7 0-1.2-.5-1.2-1.2s.5-1.2 1.2-1.2zm-4 0c.7 0 1.2.5 1.2 1.2s-.5 1.2-1.2 1.2-1.2-.5-1.2-1.2.5-1.2 1.2-1.2z"/></g><g><path class="svg-icon05" d="M24 38H10v-2h1V12s.4-1 1-1h11l1 1v26zm-8-25h-3v3h3v-3zm0 5h-3v3h3v-3zm0 5h-3v3h3v-3zm0 5h-3v3h3v-3zm0 8h3v-3h-3v3zm6-23h-3v3h3v-3zm0 5h-3v3h3v-3zm0 5h-3v3h3v-3zm0 5h-3v3h3v-3z"/></g><g><path class="svg-icon02" d="M10 38h14V17s.4-1 1-1h11l1 1v19h1v2H10zm19-20h-3v3h3v-3zm0 5h-3v3h3v-3zm0 5h-3v3h3v-3zm0 8h3v-3h-3v3zm6-18h-3v3h3v-3zm0 5h-3v3h3v-3zm0 5h-3v3h3v-3z"/></g></svg>