<svg xmlns="http://www.w3.org/2000/svg" class="svg-bkgd07" viewBox="0 0 48 48"><g><path class="svg-shortcut" d="M28 42.5l-3 2.7v-1.7c-.4 0-1.4 0-2.5.6-1.3 1-1.5 1.6-1.5 1.6s-.4-1.2.8-2.7c1.2-1.6 2.6-1.7 3.2-1.6v-1.6l3 2.7z"/></g><g><path class="svg-cluster" d="M28.5 41.3c.6 0 1.2.5 1.2 1.2s-.6 1.2-1.2 1.2-1.2-.5-1.2-1.2.5-1.2 1.2-1.2zm-4 0c.6 0 1.2.5 1.2 1.2s-.6 1.2-1.2 1.2c-.7 0-1.2-.5-1.2-1.2s.5-1.2 1.2-1.2zm-4 0c.7 0 1.2.5 1.2 1.2s-.5 1.2-1.2 1.2-1.2-.5-1.2-1.2.5-1.2 1.2-1.2z"/></g><g><path class="svg-icon01" d="M31 13H17.7v25H31c1.3 0 2-.7 2-2V15c0-1-1-2-2-2z"/></g><g><path class="svg-icon09" d="M34 35V12H14.8c0-1 .8-2 2-2h17c1.3 0 2.2.7 2.2 2v21c0 1-1 2-2 2zm-22 1V15c0-1 1-2 2-2h3v25h-3c-1 0-2-1-2-2z"/></g></svg>