<svg xmlns="http://www.w3.org/2000/svg" class="svg-bkgd01" viewBox="0 0 48 48"><g><path class="svg-shortcut" d="M28 42.5l-3 2.7v-1.7c-.4 0-1.4 0-2.5.6-1.3 1-1.5 1.6-1.5 1.6s-.4-1.2.8-2.7c1.2-1.6 2.6-1.7 3.2-1.6v-1.6l3 2.7z"/></g><g><path class="svg-cluster" d="M28.5 41.3c.6 0 1.2.5 1.2 1.2s-.6 1.2-1.2 1.2-1.2-.5-1.2-1.2.5-1.2 1.2-1.2zm-4 0c.6 0 1.2.5 1.2 1.2s-.6 1.2-1.2 1.2c-.7 0-1.2-.5-1.2-1.2s.5-1.2 1.2-1.2zm-4 0c.7 0 1.2.5 1.2 1.2s-.5 1.2-1.2 1.2-1.2-.5-1.2-1.2.5-1.2 1.2-1.2z"/></g><g><path class="svg-icon18" d="M29.7 32h-.2c-3 0-5.7-2-6.3-5H13v-2h10c0-.3 0-.7.2-1H13v-2h11c.5-.8 1.2-1.5 2-2H13v-4h14v3.5c.8-.3 1.6-.5 2.5-.5h.5v-2c0-.8.8-1 .8-1h2.4s.8.2.8 1v3.8c1.2 1.2 2 3 2 4.7 0 1.5-.5 3-1.4 4L36 32c.7-.3 1-1 1-2V14H11v16c0 1.3.8 2 1.8 2h17z"/></g><g><path class="svg-icon05" d="M35.3 10H12.7c-1 0-1.7 1-1.7 1v2h26v-2s-1-1-1.7-1z"/></g><g><path class="svg-icon12" d="M29.5 20c-3 0-5.5 2.5-5.5 5.5s2.4 5.5 5.5 5.5c3 0 5.5-2.5 5.5-5.5S32.5 20 29.5 20zm0 9c-2 0-3.5-1.6-3.5-3.5 0-2 1.6-3.5 3.5-3.5 2 0 3.5 1.6 3.5 3.5 0 2-1.6 3.5-3.5 3.5z"/></g><g><path class="svg-icon15" d="M32 31.8l1.6-.8 3.4 5.7s0 1-.5 1.2c-.5.2-1.4-.4-1.4-.4l-3-5.8z"/></g></svg>