<svg xmlns="http://www.w3.org/2000/svg" class="svg-bkgd05" viewBox="0 0 48 48"><g><path class="svg-shortcut" d="M28 42.5l-3 2.7v-1.7c-.4 0-1.4 0-2.5.6-1.3 1-1.5 1.6-1.5 1.6s-.4-1.2.8-2.7c1.2-1.6 2.6-1.7 3.2-1.6v-1.6l3 2.7z"/></g><g><path class="svg-cluster" d="M28.5 41.3c.6 0 1.2.5 1.2 1.2s-.6 1.2-1.2 1.2-1.2-.5-1.2-1.2.5-1.2 1.2-1.2zm-4 0c.6 0 1.2.5 1.2 1.2s-.6 1.2-1.2 1.2c-.7 0-1.2-.5-1.2-1.2s.5-1.2 1.2-1.2zm-4 0c.7 0 1.2.5 1.2 1.2s-.5 1.2-1.2 1.2-1.2-.5-1.2-1.2.5-1.2 1.2-1.2z"/></g><g><path class="svg-icon10" d="M22 31h6c0 .2.3.3.3.5 0 3.7-3 6.6-6.6 6.6-3.7 0-6.7-2.8-6.7-6.5s3.3-6.5 7-6.5v6z"/></g><g><path class="svg-icon09" d="M24 29v-5h6.7L27 18h8v11H24z"/></g><g><path class="svg-icon04" d="M20 11l-7 11h14l-7-11z"/></g></svg>