<svg xmlns="http://www.w3.org/2000/svg" class="svg-bkgd01" viewBox="0 0 48 48"><g><path class="svg-shortcut" d="M28 42.5l-3 2.7v-1.7c-.4 0-1.4 0-2.5.6-1.3 1-1.5 1.6-1.5 1.6s-.4-1.2.8-2.7c1.2-1.6 2.6-1.7 3.2-1.6v-1.6l3 2.7z"/></g><g><path class="svg-cluster" d="M28.5 41.3c.6 0 1.2.5 1.2 1.2s-.6 1.2-1.2 1.2-1.2-.5-1.2-1.2.5-1.2 1.2-1.2zm-4 0c.6 0 1.2.5 1.2 1.2s-.6 1.2-1.2 1.2c-.7 0-1.2-.5-1.2-1.2s.5-1.2 1.2-1.2zm-4 0c.7 0 1.2.5 1.2 1.2s-.5 1.2-1.2 1.2-1.2-.5-1.2-1.2.5-1.2 1.2-1.2z"/></g><g><path class="svg-icon12" d="M37 15H15c-.6 0-1 .4-1 1v20c0 .6.4 1 1 1h22c.6 0 1-.4 1-1V16c0-.6-.5-1-1-1zm-6 15v1h-1v2l-2 3h-4l-2-3v-2h-1v-1h1v-2.2l-.6-.8c-1.2-1-2.3-3.3-2.3-5 0-3.5 3.5-6 7-6s6.8 2.5 6.8 6c0 1.7-1.2 4-2.3 5l-.5.7V30h1z"/></g><g><path class="svg-icon05" d="M12 13.2V35h-1c-.6 0-1-.7-1-1.2V12c0-.6.4-1 1-1h24c.5 0 1 .4 1 1v1H13c-.5 0-1-.3-1 .2z"/></g><g><path class="svg-icon17" d="M27 34h-2l-1-1v-3h4v3l-1 1zm-4-4h6v1h-6v-1z"/></g><g><path class="svg-icon01" d="M28.2 29c.3-.6 0-1 .3-1.6l.8-1.3c.8-.7 1.7-2.3 1.7-3.5 0-2.5-2.4-4.5-5-4.5s-5 2-5 4.5c0 1.2 1 2.8 1.7 3.6l.8 1.4c.4.7 0 1 .3 1.6h4.4z"/></g></svg>