<svg xmlns="http://www.w3.org/2000/svg" class="svg-bkgd12" viewBox="0 0 48 48"><g><path class="svg-shortcut" d="M28 42.5l-3 2.7v-1.7c-.4 0-1.4 0-2.5.6-1.3 1-1.5 1.6-1.5 1.6s-.4-1.2.8-2.7c1.2-1.6 2.6-1.7 3.2-1.6v-1.6l3 2.7z"/></g><g><path class="svg-cluster" d="M28.5 41.3c.6 0 1.2.5 1.2 1.2s-.6 1.2-1.2 1.2-1.2-.5-1.2-1.2.5-1.2 1.2-1.2zm-4 0c.6 0 1.2.5 1.2 1.2s-.6 1.2-1.2 1.2c-.7 0-1.2-.5-1.2-1.2s.5-1.2 1.2-1.2zm-4 0c.7 0 1.2.5 1.2 1.2s-.5 1.2-1.2 1.2-1.2-.5-1.2-1.2.5-1.2 1.2-1.2z"/></g><g><path class="svg-icon15" d="M36.5 23h-15c-1 0-1.5.5-1.5 1.5v11.7c0 1.2.6 1.8 1.8 1.8h14.7c1 0 1.5-.4 1.5-1.2V24.5c0-1-.4-1.5-1.5-1.5zM26 30.3l2.2 1.4 2.3-3.7 2.2 1.4 1.5-3 1.3 1-2.2 4-2.4-1.2-2.4 3.7-2.2-1.5-1 1.3-1-1 1.7-2.5zM36 36H22V25h1v10h13v1z"/></g><g><path class="svg-icon01" d="M10 25.7V11.2l8.7 7-8.7 7.4zm0 1.3h8v-6h4.2l-2.6-2-9.6 8zm19.4-6H35v-9.7l-8.8 7 3.2 2.7zM10 10l12.5 10L35 10H10zm12.7 11h5l-2.4-2-2.6 2z"/></g></svg>