<svg xmlns="http://www.w3.org/2000/svg" class="svg-bkgd04" viewBox="0 0 48 48"><g><path class="svg-shortcut" d="M28 42.5l-3 2.7v-1.7c-.4 0-1.4 0-2.5.6-1.3 1-1.5 1.6-1.5 1.6s-.4-1.2.8-2.7c1.2-1.6 2.6-1.7 3.2-1.6v-1.6l3 2.7z"/></g><g><path class="svg-cluster" d="M28.5 41.3c.6 0 1.2.5 1.2 1.2s-.6 1.2-1.2 1.2-1.2-.5-1.2-1.2.5-1.2 1.2-1.2zm-4 0c.6 0 1.2.5 1.2 1.2s-.6 1.2-1.2 1.2c-.7 0-1.2-.5-1.2-1.2s.5-1.2 1.2-1.2zm-4 0c.7 0 1.2.5 1.2 1.2s-.5 1.2-1.2 1.2-1.2-.5-1.2-1.2.5-1.2 1.2-1.2z"/></g><g><path class="svg-icon18" d="M24 10c-7.7 0-14 6.3-14 14s6.3 14 14 14 14-6.3 14-14-6.3-14-14-14zm0 25c-6 0-11-5-11-11s5-11 11-11 11 5 11 11-5 11-11 11z"/></g><g><path class="svg-icon08" d="M24 13.6l-1 5.6 2-1-1-4.6zM34.3 24l-5.6.8 1-1.8 4.6 1zM23 30.3l2-1.8-1 5.6-1-3.8zm-4.6-5.6l-4.7-1 5.6-.8-1 1.8zM22 22l-5.5 9.4 9.4-5.6 5.5-9.4L22 22zm2 3.8c-1 0-2-1-2-2s1-1.8 2-1.8 2 1 2 2-1 1.8-2 1.8z"/></g></svg>