<svg xmlns="http://www.w3.org/2000/svg" class="svg-bkgd02" viewBox="0 0 48 48"><g><path class="svg-shortcut" d="M28 42.5l-3 2.7v-1.7c-.4 0-1.4 0-2.5.6-1.3 1-1.5 1.6-1.5 1.6s-.4-1.2.8-2.7c1.2-1.6 2.6-1.7 3.2-1.6v-1.6l3 2.7z"/></g><g><path class="svg-cluster" d="M28.5 41.3c.6 0 1.2.5 1.2 1.2s-.6 1.2-1.2 1.2-1.2-.5-1.2-1.2.5-1.2 1.2-1.2zm-4 0c.6 0 1.2.5 1.2 1.2s-.6 1.2-1.2 1.2c-.7 0-1.2-.5-1.2-1.2s.5-1.2 1.2-1.2zm-4 0c.7 0 1.2.5 1.2 1.2s-.5 1.2-1.2 1.2-1.2-.5-1.2-1.2.5-1.2 1.2-1.2z"/></g><g><path class="svg-icon04" d="M24.5 12.7c-4 0-7.6 1.4-7.6 6.3h-2c0-5 3.4-9 9.5-9 6 0 9.5 4 9.5 9h-2c0-5-3.6-6.3-7.5-6.3zM33 32h-1c-.5 2.4 0 3-2.6 4H29c-.2-.5-.5-1-1-1h-3.2c-1.3 0-1.7.4-1.8 2v1h6.4c5.2-2 4.6-5.8 4.6-6h-1z"/></g><g><path class="svg-icon03" d="M34 21h-1s-2 0-2 1v7c0 .2 1 1 2 1h1c1.8 0 3-1 3-2.7v-3.6c0-1.6-1.2-2.7-3-2.7z"/></g><g><path class="svg-icon06" d="M15 30.7l-1.3-1c-1-1-1.8-1.6-2.2-2.2s-.5-1.3-.5-2c0-1.2.5-2.3 1.4-3.2 1-1 2.2-1.3 3.8-1.3 1.5 0 2.7.4 3.6 1.3 1 1 1 2.4 1.2 3.7h-3c-.2-1 .3-1.6-.2-2-.5-.5-1-.7-1.8-.7-.7 0-1.3.3-1.7.7s-.6 1-.6 1.6c0 .4 0 .8.3 1 .2.4.7.8 1.5 1.5.8.8 1.7 1.5 2 2 .2.6.5 1 .5 2v1h-3v-2.3zm0 5.8c0-1 .5-1.5 1.5-1.5s1.5.4 1.5 1.4c0 1.2-.4 1.6-1.5 1.6-1 0-1.5-.4-1.5-1.5z"/></g></svg>