<svg xmlns="http://www.w3.org/2000/svg" class="svg-bkgd08" viewBox="0 0 48 48"><g><path class="svg-shortcut" d="M28 42.5l-3 2.7v-1.7c-.4 0-1.4 0-2.5.6-1.3 1-1.5 1.6-1.5 1.6s-.4-1.2.8-2.7c1.2-1.6 2.6-1.7 3.2-1.6v-1.6l3 2.7z"/></g><g><path class="svg-cluster" d="M28.5 41.3c.6 0 1.2.5 1.2 1.2s-.6 1.2-1.2 1.2-1.2-.5-1.2-1.2.5-1.2 1.2-1.2zm-4 0c.6 0 1.2.5 1.2 1.2s-.6 1.2-1.2 1.2c-.7 0-1.2-.5-1.2-1.2s.5-1.2 1.2-1.2zm-4 0c.7 0 1.2.5 1.2 1.2s-.5 1.2-1.2 1.2-1.2-.5-1.2-1.2.5-1.2 1.2-1.2z"/></g><g><path class="svg-icon03" d="M15.8 30.7L14.5 32H20l-1.6-4.8-1.2 1.6c-1-1-1.4-1.6-1.4-3V25h-2.4v1c0 2 .8 3.5 2.4 4.7zm16 2.5l-1 .3-1-1.8.7-.4c1.4-.6 2-1.6 2.6-3l-2-.3 3.8-3 2.4 4h-1.7c-.3 2-1.8 3.2-3.7 4.2zM29 12.4l1 .5-1 2-.8-.4c-1.3-.7-2.7-.8-4-.5l1 2-5-1 2.5-4.7.7 1.8c1.7-1 3.8-.6 5.7.4z"/></g><g><path class="svg-icon04" d="M33.5 16c-2 0-3.5 1.6-3.5 3.5s1.6 3.5 3.5 3.5 3.5-1.6 3.5-3.5-1.6-3.5-3.5-3.5zM19 19.5c0 2-1.6 3.5-3.5 3.5S12 21.4 12 19.5s1.6-3.5 3.5-3.5 3.5 1.6 3.5 3.5zm9 15c0 2-1.6 3.5-3.5 3.5-2 0-3.5-1.6-3.5-3.5s1.6-3.5 3.5-3.5c2 0 3.5 1.6 3.5 3.5z"/></g></svg>