<svg xmlns="http://www.w3.org/2000/svg" class="svg-bkgd07" viewBox="0 0 48 48"><g><path class="svg-shortcut" d="M28 42.5l-3 2.7v-1.7c-.4 0-1.4 0-2.5.6-1.3 1-1.5 1.6-1.5 1.6s-.4-1.2.8-2.7c1.2-1.6 2.6-1.7 3.2-1.6v-1.6l3 2.7z"/></g><g><path class="svg-cluster" d="M28.5 41.3c.6 0 1.2.5 1.2 1.2s-.6 1.2-1.2 1.2-1.2-.5-1.2-1.2.5-1.2 1.2-1.2zm-4 0c.6 0 1.2.5 1.2 1.2s-.6 1.2-1.2 1.2-1.2-.5-1.2-1.2.5-1.2 1.2-1.2zm-4 0c.7 0 1.2.5 1.2 1.2s-.5 1.2-1.2 1.2-1.2-.5-1.2-1.2.5-1.2 1.2-1.2z"/></g><g><path class="svg-icon18" d="M28.7 15H25v3h3.7s6.3 0 6.3 6-6.3 6-6.3 6H25v3h3.5c5.4 0 9.5-3.7 9.5-9a9 9 0 0 0-9.3-9z"/></g><g><path class="svg-icon08" d="M19.2 15H23v3h-3.8s-6 0-6 6 6 6 6 6H23v3h-3.5C14 33 10 29.3 10 24s3.8-9 9.2-9z"/></g></svg>