<svg xmlns="http://www.w3.org/2000/svg" class="svg-bkgd04" viewBox="0 0 48 48"><g><path class="svg-shortcut" d="M28 42.5l-3 2.7v-1.7c-.4 0-1.4 0-2.5.6-1.3 1-1.5 1.6-1.5 1.6s-.4-1.2.8-2.7c1.2-1.6 2.6-1.7 3.2-1.6v-1.6l3 2.7z"/></g><g><path class="svg-cluster" d="M28.5 41.3c.6 0 1.2.5 1.2 1.2s-.6 1.2-1.2 1.2-1.2-.5-1.2-1.2.5-1.2 1.2-1.2zm-4 0c.6 0 1.2.5 1.2 1.2s-.6 1.2-1.2 1.2c-.7 0-1.2-.5-1.2-1.2s.5-1.2 1.2-1.2zm-4 0c.7 0 1.2.5 1.2 1.2s-.5 1.2-1.2 1.2-1.2-.5-1.2-1.2.5-1.2 1.2-1.2z"/></g><g><path class="svg-icon12" d="M33.8 22h-3.4a8 8 0 0 0-3.4 6v2h-6a7.2 7.2 0 0 0 0-2.2 5.5 5.5 0 0 0-1.5-3.8l9.6-4.5a2 2 0 0 1 1.2-1.4c-.5-1.3-.5-1-1-1H28a1 1 0 0 1-.8-1 1 1 0 0 1 .8-1s4-.7 4.4 3h1.6c1 0 1.2 1 1.2 2s-.2 2-1.2 2z"/></g><g><path class="svg-icon05" d="M13.4 18h8.2c.8 0 1.4 0 1.4 1.2S19 22 18.4 22h-5c-.8 0-1.4-1-1.4-2s.6-2 1.4-2z"/></g><g><path class="svg-icon17" d="M15 33a5 5 0 1 1 5-5 5 5 0 0 1-5 5zm0-7a2 2 0 1 0 2 2 2 2 0 0 0-2-2zm18 7a5 5 0 1 1 5-5 5 5 0 0 1-5 5zm0-7a2 2 0 1 0 2 2 2 2 0 0 0-2-2z"/></g></svg>