<svg xmlns="http://www.w3.org/2000/svg" class="svg-bkgd03" viewBox="0 0 48 48"><g><path class="svg-shortcut" d="M28 42.5l-3 2.7v-1.7c-.4 0-1.4 0-2.5.6-1.3 1-1.5 1.6-1.5 1.6s-.4-1.2.8-2.7c1.2-1.6 2.6-1.7 3.2-1.6v-1.6l3 2.7z"/></g><g><path class="svg-cluster" d="M28.5 41.3c.6 0 1.2.5 1.2 1.2s-.6 1.2-1.2 1.2-1.2-.5-1.2-1.2.5-1.2 1.2-1.2zm-4 0c.6 0 1.2.5 1.2 1.2s-.6 1.2-1.2 1.2c-.7 0-1.2-.5-1.2-1.2s.5-1.2 1.2-1.2zm-4 0c.7 0 1.2.5 1.2 1.2s-.5 1.2-1.2 1.2-1.2-.5-1.2-1.2.5-1.2 1.2-1.2z"/></g><g><path class="svg-icon02" d="M34 10H14c-1.2 0-2 1-2 2v24c0 1 .8 2 2 2h20c1.2 0 2-1 2-2V12c0-1-.8-2-2-2zm-2 17H16v-1h1V13h7v3h7v10h1v1zm-9 6h9c.6 0 1 .4 1 1s-.4 1-1 1h-9c-.6 0-1-.4-1-1s.4-1 1-1zm-7-4h3c.6 0 1 .4 1 1s-.4 1-1 1h-3c-.6 0-1-.4-1-1s.4-1 1-1zm7 0h9c.6 0 1 .4 1 1s-.4 1-1 1h-9c-.6 0-1-.4-1-1s.4-1 1-1zm-7 4h3c.6 0 1 .4 1 1s-.4 1-1 1h-3c-.6 0-1-.4-1-1s.4-1 1-1zm2-18h2v2h-2v-2zm3 0h2v2h-2v-2zm-3 3h2v2h-2v-2zm3 0h2v2h-2v-2zm-3 3h2v2h-2v-2zm3 0h2v2h-2v-2zm-1 3h1v2h-1v-2zm5-6h2v2h-2v-2zm3 0h2v2h-2v-2zm-3 3h2v2h-2v-2zm3 0h2v2h-2v-2zm-1 3h1v2h-1v-2z"/></g></svg>