<svg xmlns="http://www.w3.org/2000/svg" class="svg-bkgd06" viewBox="0 0 48 48"><g><path class="svg-shortcut" d="M28.05 42.5L25 45.2v-1.7c-.44-.1-1.4-.15-2.45.6-1.4 1-1.57 1.47-1.57 1.47s-.4-1.24.8-2.7c1.26-1.54 2.67-1.56 3.23-1.5v-1.63l3.05 2.72z"/></g><g><path class="svg-cluster" d="M28.47 41.3c.65 0 1.2.55 1.2 1.2s-.55 1.2-1.2 1.2-1.2-.54-1.2-1.2.54-1.2 1.2-1.2zm-4 0c.65 0 1.2.55 1.2 1.2s-.55 1.2-1.2 1.2c-.66 0-1.2-.54-1.2-1.2s.54-1.2 1.2-1.2zm-3.97 0c.66 0 1.2.55 1.2 1.2s-.54 1.2-1.2 1.2-1.2-.54-1.2-1.2.54-1.2 1.2-1.2z"/></g><g><path class="svg-icon14" d="M34.3 23.5l.05-.07c.63-.6 1.63-.57 2.22.08.6.66.57 1.68-.07 2.3l-1.32 1.26-.9-3.57zm-10.02-9.6l.38-.47c.55-.67.4-1.62-.35-2.12-.73-.5-1.8-.35-2.35.32l-1.07 1.3 3.4.97z"/></g><g><path class="svg-icon12" d="M21.86 20.54L11 13.74 12.7 12l13.5 3.87-.97.95c-1.12 1.1-2.26 2.37-3.37 3.72zm8.23 3.07c-.94.92-1.97 1.83-3.02 2.7L33.35 37 35 35.35l-3.14-13.48-1.77 1.74zm7.54-13.24c-.93-.94-4.02.35-4.02.35-2.27 1.37-5.08 4.65-8.34 7.9-5.25 5.23-11.18 13.06-10.17 14.26 1.02 1.2 9.12-5.3 14.36-10.54 3.3-3.3 6.6-5.82 7.87-8 0 0 1.24-3.02.3-3.96zm-1.33 3.17l-.74 1-2.24-2.28 1.12-.7 1.87 1.98zM18.26 29.25L11.2 28 10 29.24l4.7 3.13s-.6.6-.33.88c.32.34.93-.26.93-.26l3.54 5 1.18-1.24-1.77-7.5z"/></g></svg>