<svg xmlns="http://www.w3.org/2000/svg" class="svg-bkgd04" viewBox="0 0 48 48"><g><path class="svg-shortcut" d="M28 42.5l-3 2.7v-1.7c-.4 0-1.4 0-2.5.6-1.3 1-1.5 1.6-1.5 1.6s-.4-1.2.8-2.7c1.2-1.6 2.6-1.7 3.2-1.6v-1.6l3 2.7z"/></g><g><path class="svg-cluster" d="M28.5 41.3c.6 0 1.2.5 1.2 1.2s-.6 1.2-1.2 1.2-1.2-.5-1.2-1.2.5-1.2 1.2-1.2zm-4 0c.6 0 1.2.5 1.2 1.2s-.6 1.2-1.2 1.2c-.7 0-1.2-.5-1.2-1.2s.5-1.2 1.2-1.2zm-4 0c.7 0 1.2.5 1.2 1.2s-.5 1.2-1.2 1.2-1.2-.5-1.2-1.2.5-1.2 1.2-1.2z"/></g><g><path class="svg-icon15" d="M27 28l-1.6-1-4.4 7.2s0 1.3.6 1.7c.6.2 1.8-.4 1.8-.4L27 28z"/></g><g><path class="svg-icon12" d="M34.5 14C31 12 27 13 25 16.4c-2 3.3-.8 7.6 2.5 9.5 3.4 2 7.6.8 9.6-2.5S38 16 34.6 14zm.8 8.6c-1.3 2.3-4.4 3-6.8 1.7-2.4-1.4-3.2-4.4-2-6.8 1.5-2.4 4.6-3.2 7-1.8s3.2 4.5 1.8 7z"/></g><g><path class="svg-icon05" d="M12 22l-.5 1.8H10l2-7h2l2 7h-1.6L14 22h-2zm1.7-1.2l-.4-1.4L13 18l-.4 1.4-.4 1.4h1.5zM17 17h2c1 0 1.5 0 2 .2.5.3 1 .8 1 1.4 0 .6-.5 1.2-1.3 1.4.8.3 1.4 1 1.4 1.8 0 .6-.2 1-.6 1.4-.5.4-1.3.6-2.7.6H17V17zm1.5 2.6h.6c1 0 1.3-.3 1.3-.8s-.4-.8-1-.8h-.8v1.6zm0 3h.6c.8 0 1.5-.2 1.5-1 0-.6-.7-1-1.4-1h-.5v2zm14.7.7c-.3.2-1 .3-1.8.3-2.3 0-3.5-1.5-3.5-3.4 0-2.3 1.5-3.6 3.6-3.6.8 0 1.4 0 1.7.3l-.3 1-1.3-.2c-1.3 0-2.2.8-2.2 2.3 0 1.5.8 2.3 2.2 2.3.4 0 1 0 1.3-.2l.2 1.3z"/></g></svg>