<svg xmlns="http://www.w3.org/2000/svg" class="svg-bkgd08" viewBox="0 0 48 48"><g><path class="svg-shortcut" d="M28 42.5l-3 2.7v-1.7c-.4 0-1.4 0-2.5.6-1.3 1-1.5 1.6-1.5 1.6s-.4-1.2.8-2.7c1.2-1.6 2.6-1.7 3.2-1.6v-1.6l3 2.7z"/></g><g><path class="svg-cluster" d="M28.5 41.3c.6 0 1.2.5 1.2 1.2s-.6 1.2-1.2 1.2-1.2-.5-1.2-1.2.5-1.2 1.2-1.2zm-4 0c.6 0 1.2.5 1.2 1.2s-.6 1.2-1.2 1.2c-.7 0-1.2-.5-1.2-1.2s.5-1.2 1.2-1.2zm-4 0c.7 0 1.2.5 1.2 1.2s-.5 1.2-1.2 1.2-1.2-.5-1.2-1.2.5-1.2 1.2-1.2z"/></g><g><path class="svg-icon03" d="M23 18.2V21h15v6H23v3l-7-5.8c-.2 0-.2-.6 0-.7l6.8-5.3c0-.2 0-.3 0 0z"/></g><g><path class="svg-icon01" d="M29 20v-6H14v20h15v-5h3v6.2c0 .7-1.3 1.8-2 1.8H13c-.7 0-2-1.3-2-2V13c0-.7 1.3-2 2-2h17c.7 0 2 1 2 1.8V20h-3z"/></g></svg>