<svg xmlns="http://www.w3.org/2000/svg" class="svg-bkgd09" viewBox="0 0 48 48"><g><path class="svg-shortcut" d="M28 42.5l-3 2.7v-1.7c-.4 0-1.4 0-2.5.6-1.3 1-1.5 1.6-1.5 1.6s-.4-1.2.8-2.7c1.2-1.6 2.6-1.7 3.2-1.6v-1.6l3 2.7z"/></g><g><path class="svg-cluster" d="M28.5 41.3c.6 0 1.2.5 1.2 1.2s-.6 1.2-1.2 1.2-1.2-.5-1.2-1.2.5-1.2 1.2-1.2zm-4 0c.6 0 1.2.5 1.2 1.2s-.6 1.2-1.2 1.2c-.7 0-1.2-.5-1.2-1.2s.5-1.2 1.2-1.2zm-4 0c.7 0 1.2.5 1.2 1.2s-.5 1.2-1.2 1.2-1.2-.5-1.2-1.2.5-1.2 1.2-1.2z"/></g><g><path class="svg-icon08" d="M35 15h-6.7c0-2.8-2-5-5-5-2.7 0-4.6 2.2-4.6 5H12s1 6 1 12c0 6.2-1 11-1 11h23s-1-4.8-1-11c0-6 1-12 1-12zm-11.6-3c1.5 0 2.6 1.4 2.6 3h-5c0-1.6.8-3 2.4-3m0 21c-3.6 0-6.4-2.8-6.4-6.5s2.8-6.5 6.4-6.5 6.6 3 6.6 6.6-3 6.4-6.6 6.4z"/></g><g><path class="svg-icon12" d="M28 27c0 2-1.2 1.8-1.7 1.8-1.4 0-1 1-3 1-1.3 0-1.6-1-3-.8-1.2 0-1.7-.8-1.7-2 0-.7.5-1.4 1.3-1.7 0-2 1.7-1.7 2-1.7.5-.7 1.2-1.2 2-1.2 2.2 0 2.3 2.4 2.3 2.4s1.8.4 1.8 2z"/></g></svg>