<svg xmlns="http://www.w3.org/2000/svg" class="svg-bkgd09" viewBox="0 0 48 48"><g><path class="svg-shortcut" d="M28 42.5l-3 2.7v-1.7c-.4 0-1.4 0-2.5.6-1.3 1-1.5 1.6-1.5 1.6s-.4-1.2.8-2.7c1.2-1.6 2.6-1.7 3.2-1.6v-1.6l3 2.7z"/></g><g><path class="svg-cluster" d="M28.5 43.7c-.7 0-1.2-.5-1.2-1.2s.5-1.2 1.2-1.2c.6 0 1.2.5 1.2 1.2s-.6 1.2-1.2 1.2zm-4 0c-.7 0-1.2-.5-1.2-1.2s.5-1.2 1.2-1.2c.6 0 1.2.5 1.2 1.2s-.6 1.2-1.2 1.2zm-4 0c-.7 0-1.2-.5-1.2-1.2s.5-1.2 1.2-1.2 1.2.5 1.2 1.2-.5 1.2-1.2 1.2z"/></g><g><path class="svg-icon08" d="M34.6 30c-.5-1.2-1.7-2-3-2-1.5 0-2.7.8-3.2 2h-5.8c-.5-1.2-1.7-2-3-2-1.5 0-2.7.8-3.2 2H12v-2h1v-2h16v-8h7l2 6v6h-3.4zm.4-11h-4v4h5l-1-4z"/></g><g><path class="svg-icon11" d="M13 25v-2h2v-2h8v-4h-8v-2h-2v-1h15v11H13z"/></g><g><path class="svg-icon03" d="M14 20h8v-2h-8v-2l-4 3 4 3v-2z"/></g><g><path class="svg-icon17" d="M31.5 34C30 34 29 33 29 31.5c0-1.4 1-2.5 2.5-2.5 1.4 0 2.5 1 2.5 2.5 0 1.4-1 2.5-2.5 2.5zm-12 0C18 34 17 33 17 31.5c0-1.4 1-2.5 2.5-2.5 1.4 0 2.5 1 2.5 2.5 0 1.4-1 2.5-2.5 2.5z"/></g></svg>