<svg xmlns="http://www.w3.org/2000/svg" class="svg-bkgd07" viewBox="0 0 48 48"><g><path class="svg-shortcut" d="M28 42.5l-3 2.7v-1.7c-.4 0-1.4 0-2.5.6-1.3 1-1.5 1.6-1.5 1.6s-.4-1.2.8-2.7c1.2-1.6 2.6-1.7 3.2-1.6v-1.6l3 2.7z"/></g><g><path class="svg-cluster" d="M28.5 41.3c.6 0 1.2.5 1.2 1.2s-.6 1.2-1.2 1.2-1.2-.5-1.2-1.2.5-1.2 1.2-1.2zm-4 0c.6 0 1.2.5 1.2 1.2s-.6 1.2-1.2 1.2c-.7 0-1.2-.5-1.2-1.2s.5-1.2 1.2-1.2zm-4 0c.7 0 1.2.5 1.2 1.2s-.5 1.2-1.2 1.2-1.2-.5-1.2-1.2.5-1.2 1.2-1.2z"/></g><g><path class="svg-icon02" d="M33.2 15H32v2h1v19H15V17h1v-2h-1.3c-.7 0-1.7 1.3-1.7 2v19c0 .7 1 2 1.7 2h18.5c.7 0 1.8-1.3 1.8-2V17c0-.7-1-2-1.8-2z"/></g><g><path class="svg-icon17" d="M29 14h-2.2l.2-1c0-1.7-1.4-3-3-3-1.7 0-3 1.3-3 3 0 .4 0 .7.2 1H19c-.7 0-1 .2-1 1v2h12v-2c0-.7-.3-1-1-1zm-5 .5c-.8 0-1.5-.7-1.5-1.5s.7-1.5 1.5-1.5 1.5.7 1.5 1.5-.7 1.5-1.5 1.5z"/></g><g><path class="svg-icon03" d="M29.8 24.7L23.5 31l-4.2-4c-.3 0-.4-.7 0-1l1-1.3c.4-.2 1-.2 1.2 0l1.7 1.7 4-4.2c.4-.3.7-.3 1 0l1.6 1.7c.3.2.2.5 0 .7z"/></g></svg>