<svg xmlns="http://www.w3.org/2000/svg" class="svg-bkgd06" viewBox="0 0 48 48"><g><path class="svg-shortcut" d="M28 42.5l-3 2.7v-1.7c-.4 0-1.4 0-2.5.6-1.3 1-1.5 1.6-1.5 1.6s-.4-1.2.8-2.7c1.2-1.6 2.6-1.7 3.2-1.6v-1.6l3 2.7z"/></g><g><path class="svg-cluster" d="M28.5 41.3c.6 0 1.2.5 1.2 1.2s-.6 1.2-1.2 1.2-1.2-.5-1.2-1.2.5-1.2 1.2-1.2zm-4 0c.6 0 1.2.5 1.2 1.2s-.6 1.2-1.2 1.2-1.2-.5-1.2-1.2.5-1.2 1.2-1.2zm-4 0c.7 0 1.2.5 1.2 1.2s-.5 1.2-1.2 1.2-1.2-.5-1.2-1.2.5-1.2 1.2-1.2z"/></g><g><path class="svg-icon04" d="M29.3 17.06l1.6 1.1L28 22.12l-1.6-1.1zM18 16.14l-1.26 1.5 5.52 4.65 1.25-1.5zm5 10.25l1.95 1.26v3.74H23v-5zm5.32-1.26L27 26.4l5.46 5.75 1.33-1.27zm-7.14-.97l.66 1.84-4.1 1.6-.65-1.86zm-7.72-7l1.87.48-1.2 8.46-1.87-.47z"/></g><g><path class="svg-icon06" d="M28 14.5a4.5 4.5 0 1 0 9 0 4.5 4.5 0 1 0-9 0"/></g><g><path class="svg-icon03" d="M12 14.5a3.5 3.5 0 1 0 7 0 3.5 3.5 0 1 0-7 0"/></g><g><path class="svg-icon06" d="M21 33a3 3 0 1 0 6 0 3 3 0 1 0-6 0"/></g><g><path class="svg-icon03" d="M30 32a4 4 0 1 0 8 0 4 4 0 1 0-8 0"/></g><g><path class="svg-icon06" d="M10 27a4 4 0 1 0 8 0 4 4 0 1 0-8 0"/></g><g><path class="svg-icon04" d="M25 28a4 4 0 1 1 4-4 3.98 3.98 0 0 1-4 4zm0-6.22A2.23 2.23 0 1 0 27.22 24 2.22 2.22 0 0 0 25 21.77z"/></g></svg>