<svg xmlns="http://www.w3.org/2000/svg" class="svg-bkgd02" viewBox="0 0 48 48"><g><path class="svg-shortcut" d="M28 42.5l-3 2.7v-1.7c-.4 0-1.4 0-2.5.6-1.3 1-1.5 1.6-1.5 1.6s-.4-1.2.8-2.7c1.2-1.6 2.6-1.7 3.2-1.6v-1.6l3 2.7z"/></g><g><path class="svg-cluster" d="M28.5 41.3c.6 0 1.2.5 1.2 1.2s-.6 1.2-1.2 1.2-1.2-.5-1.2-1.2.5-1.2 1.2-1.2zm-4 0c.6 0 1.2.5 1.2 1.2s-.6 1.2-1.2 1.2c-.7 0-1.2-.5-1.2-1.2s.5-1.2 1.2-1.2zm-4 0c.7 0 1.2.5 1.2 1.2s-.5 1.2-1.2 1.2-1.2-.5-1.2-1.2.5-1.2 1.2-1.2z"/></g><g><path class="svg-icon09" d="M33.5 21H23.2c-1-1.8-3-3-5.2-3-3.3 0-6 2.7-6 6s2.7 6 6 6c2.2 0 4-1.2 5.2-3H25v-2h1l1 2h1l1-2h1v1h1v-1h1v2h1l3-3v-1l-2.5-2zM16 26c-1 0-2-1-2-2s1-2 2-2 2 1 2 2-1 2-2 2z"/></g></svg>