<svg xmlns="http://www.w3.org/2000/svg" class="svg-bkgd12" viewBox="0 0 48 48"><g><path class="svg-shortcut" d="M28 42.5l-3 2.7v-1.7c-.4 0-1.4 0-2.5.6-1.3 1-1.5 1.6-1.5 1.6s-.4-1.2.8-2.7c1.2-1.6 2.6-1.7 3.2-1.6v-1.6l3 2.7z"/></g><g><path class="svg-cluster" d="M28.5 41.3c.6 0 1.2.5 1.2 1.2s-.6 1.2-1.2 1.2-1.2-.5-1.2-1.2.5-1.2 1.2-1.2zm-4 0c.6 0 1.2.5 1.2 1.2s-.6 1.2-1.2 1.2c-.7 0-1.2-.5-1.2-1.2s.5-1.2 1.2-1.2zm-4 0c.7 0 1.2.5 1.2 1.2s-.5 1.2-1.2 1.2-1.2-.5-1.2-1.2.5-1.2 1.2-1.2z"/></g><g><path class="svg-icon15" d="M36.4 23h-15c-1 0-1.4.5-1.4 1.5v12.3c0 .8.6 1.2 1.5 1.2h14.7c1.2 0 1.8-.6 1.8-1.8V24.5c0-1-.6-1.5-1.6-1.5zm-12.6 3.5l1.5 3 2.2-1.5 2.3 3.7 2-1.4 2 2.6-1.3.8-1-1.3-2 1.4L27 30l-2.3 1.3-2.2-4 1.3-1zM36 36H22v-1h13V25h1v11z"/></g><g><path class="svg-icon01" d="M19.6 19l2.6 2H18v6h-8l9.6-8zm3 2H28l-2.5-2-2.6 2zM10 25.7l8.7-7.4-8.7-7v14.4zM10 10l12.5 10L35 10H10zm19.4 11H35v-9.7l-8.8 7 3.2 2.7z"/></g></svg>