<svg xmlns="http://www.w3.org/2000/svg" class="svg-bkgd03" viewBox="0 0 48 48"><g><path class="svg-shortcut" d="M28 42.5l-3 2.7v-1.7c-.4 0-1.4 0-2.5.6-1.3 1-1.5 1.6-1.5 1.6s-.4-1.2.8-2.7c1.2-1.6 2.6-1.7 3.2-1.6v-1.6l3 2.7z"/></g><g><path class="svg-cluster" d="M28.5 41.3c.6 0 1.2.5 1.2 1.2s-.6 1.2-1.2 1.2-1.2-.5-1.2-1.2.5-1.2 1.2-1.2zm-4 0c.6 0 1.2.5 1.2 1.2s-.6 1.2-1.2 1.2c-.7 0-1.2-.5-1.2-1.2s.5-1.2 1.2-1.2zm-4 0c.7 0 1.2.5 1.2 1.2s-.5 1.2-1.2 1.2-1.2-.5-1.2-1.2.5-1.2 1.2-1.2z"/></g><g><path class="svg-icon03" d="M33 28H15c-1.2 0-2-.6-2-2V12c0-1.2.6-2 2-2h18.3c1 0 1.7.6 1.7 2v14c0 1.4-.8 2-2 2zm-7-3h3v-2h-3v2zm0-3h3v-2h-3v2zm0-3h3v-2h-3v2zm-8 6h7v-2h-7v2zm0-3h7v-2h-7v2zm0-3h7v-2h-7v2zm-3 6h2v-2h-2v2zm0-3h2v-2h-2v2zm0-3h2v-2h-2v2zm18-6H15v2h18v-2zm0 4h-3v2h3v-2zm0 3h-3v2h3v-2zm0 3h-3v2h3v-2z"/></g><g><path class="svg-icon10" d="M29 36H13v-4h16v-2l6 3.8v.3l-6 4v-2z"/></g></svg>