<svg xmlns="http://www.w3.org/2000/svg" class="svg-bkgd01" viewBox="0 0 48 48"><g><path class="svg-shortcut" d="M28 42.5l-3 2.7v-1.7c-.4 0-1.4 0-2.5.6-1.3 1-1.5 1.6-1.5 1.6s-.4-1.2.8-2.7c1.2-1.6 2.6-1.7 3.2-1.6v-1.6l3 2.7z"/></g><g><path class="svg-cluster" d="M28.5 41.3c.6 0 1.2.5 1.2 1.2s-.6 1.2-1.2 1.2-1.2-.5-1.2-1.2.5-1.2 1.2-1.2zm-4 0c.6 0 1.2.5 1.2 1.2s-.6 1.2-1.2 1.2c-.7 0-1.2-.5-1.2-1.2s.5-1.2 1.2-1.2zm-4 0c.7 0 1.2.5 1.2 1.2s-.5 1.2-1.2 1.2-1.2-.5-1.2-1.2.5-1.2 1.2-1.2z"/></g><g><path class="svg-icon17" d="M28.6 22.3c0-2.8 2-4 4.7-4.3.5-.5.6-1.3.2-2l-1-1.3c-.5-.7-1.5-.7-2.2-.2l-1.7 1c-.6-.3-1.3-1-2-1.2l.5-2c.2-1-.3-1.8-1.3-2L24 10c-.8-.2-1.7.4-2 1.3l-.3 2c-.7 0-1.4.3-2 .5l-1.2-1.6c-.6-.8-1.6-1.2-2.3-.7l-1.4 1c-.8.4-.8 1.5-.3 2.3l1.2 1.7-1.4 1.8-2-.4c-1-.3-1.8.3-2 1.2L10 21c-.2.8.4 1.8 1.3 2l2 .3c0 .8.3 1.6.5 2.3l-1.7 1c-.7.6-1 1.4-.4 2.2l1 1.4c.5.7 1.4 1 2.2.3l1.7-1c.5.4 1.3 1 2 1.2v.3h1c1-1.6 2.6-2.7 4.7-2.7h.7l3.7-3.7v-2.3zM23 26c-1.7 0-3-1.4-3-3 0-1.7 1.3-3 3-3s3 1.3 3 3c0 1.6-1.4 3-3 3z"/></g><g><path class="svg-icon18" d="M37 26.7c-1 .8-2 1-3 .6L31.2 30l-3 3.5c.3 1.2.2 2.8-.7 3.6-1.2 1-2.4 1.3-4 .6l1.8-1.7c.3-.4.4-1 0-1.3l-1-1.2c-.4-.3-1-.3-1.3 0l-1.6 1.7c-.7-1.5-.5-3 .7-4 1-1 2.2-1 3.4-.4L27 29l3.7-4c-.3-1.4-.3-3 .7-4s2.3-1.3 3.8-.6L33.6 22c-.4.4-.4 1 0 1.3l1 1c.5.5 1 .4 1.3 0l1.6-1.6c.7 1.5.5 3-.6 4z"/></g></svg>