<svg xmlns="http://www.w3.org/2000/svg" class="svg-bkgd02" viewBox="0 0 48 48"><g><path class="svg-shortcut" d="M28 42.5l-3 2.7v-1.7c-.4 0-1.4 0-2.5.6-1.3 1-1.5 1.6-1.5 1.6s-.4-1.2.8-2.7c1.2-1.6 2.6-1.7 3.2-1.6v-1.6l3 2.7z"/></g><g><path class="svg-cluster" d="M28.5 41.3c.6 0 1.2.5 1.2 1.2s-.6 1.2-1.2 1.2-1.2-.5-1.2-1.2.5-1.2 1.2-1.2zm-4 0c.6 0 1.2.5 1.2 1.2s-.6 1.2-1.2 1.2c-.7 0-1.2-.5-1.2-1.2s.5-1.2 1.2-1.2zm-4 0c.7 0 1.2.5 1.2 1.2s-.5 1.2-1.2 1.2-1.2-.5-1.2-1.2.5-1.2 1.2-1.2z"/></g><g><path class="svg-icon03" d="M38 14v3s-.5 3.4-2 5-3.8 2-3.8 2h-6c.5-.5.8-1.2.8-2s-.4-1.6-1-2.2l-.4-.3c-.5-.3-1-.5-1.6-.5-.7 0-1.3.2-1.8.7-.7.5-1.2 1.4-1.2 2.3v.4c0 .6.4 1.2.8 1.6h-6s-2.3-.3-3.8-2c-1.4-1.6-2-4-2-4v-4h28zm-6 11h-5.8c.5.5.8 1.2.8 2 0 .5 0 1-.3 1.3-.4 1-1.5 1.7-2.7 1.7-1.3 0-2.3-.7-2.7-1.8L21 27c0-.8.3-1.5.8-2H16c-2 0-5-.6-6-3v9.2c0 1.5 2.3 2.8 4 2.8h20c1.7 0 4-1.3 4-2.8V22c-.4 2.3-4 3-6 3z"/></g><g><path class="svg-icon05" d="M24 20c1 0 2 1 2 2s-1 2-2 2-2-1-2-2 1-2 2-2zm0 5c1 0 2 1 2 2s-1 2-2 2-2-1-2-2 1-2 2-2z"/></g></svg>