<svg xmlns="http://www.w3.org/2000/svg" class="svg-bkgd07" viewBox="0 0 48 48"><g><path class="svg-shortcut" d="M28 42.5l-3 2.7v-1.7c-.4 0-1.4 0-2.5.6-1.3 1-1.5 1.6-1.5 1.6s-.4-1.2.8-2.7c1.2-1.6 2.6-1.7 3.2-1.6v-1.6l3 2.7z"/></g><g><path class="svg-cluster" d="M28.5 41.3c.6 0 1.2.5 1.2 1.2s-.6 1.2-1.2 1.2-1.2-.5-1.2-1.2.5-1.2 1.2-1.2zm-4 0c.6 0 1.2.5 1.2 1.2s-.6 1.2-1.2 1.2c-.7 0-1.2-.5-1.2-1.2s.5-1.2 1.2-1.2zm-4 0c.7 0 1.2.5 1.2 1.2s-.5 1.2-1.2 1.2-1.2-.5-1.2-1.2.5-1.2 1.2-1.2z"/></g><g><path class="svg-icon03" d="M31 22v-2c0-1-1-2-2-2s-2 1-2 2v2h-3v-4h-1c-.8 0-2-1-2-2 0-1.2 1-2 2-2h1v-4h9c1 0 2 1 2 2v10h-4z"/></g><g><path class="svg-icon03" d="M22 19v3h-3c0-2-1.7-3-3-3-1.7 0-3 1-3 3h-3V12c0-1 1-2 2-2h10v3c-2 0-3 1-3 3s1 3 3 3z"/></g><g><path class="svg-icon03" d="M12 35c-1 0-2-1-2-2v-9h4v-1c0-1 1-2 2-2s2 1 2 2v1h4v3h-2c-1.2 0-2 1-2 2s.8 2 2 2h2v4H12z"/></g><g><path class="svg-icon10" d="M36 38h-9v-4h-1c-1 0-2-1-2-2s1-2 2-2h1v-3h3v-1c0-.8.8-2 2-2s2 1 2 2v1h4v9c0 .8-1 2-2 2z"/></g></svg>