<svg xmlns="http://www.w3.org/2000/svg" class="svg-bkgd09" viewBox="0 0 48 48"><g><path class="svg-shortcut" d="M28 42.5l-3 2.7v-1.7c-.4 0-1.4 0-2.5.6-1.3 1-1.5 1.6-1.5 1.6s-.4-1.2.8-2.7c1.2-1.6 2.6-1.7 3.2-1.6v-1.6l3 2.7z"/></g><g><path class="svg-cluster" d="M28.5 41.3c.6 0 1.2.5 1.2 1.2s-.6 1.2-1.2 1.2-1.2-.5-1.2-1.2.5-1.2 1.2-1.2zm-4 0c.6 0 1.2.5 1.2 1.2s-.6 1.2-1.2 1.2c-.7 0-1.2-.5-1.2-1.2s.5-1.2 1.2-1.2zm-4 0c.7 0 1.2.5 1.2 1.2s-.5 1.2-1.2 1.2-1.2-.5-1.2-1.2.5-1.2 1.2-1.2z"/></g><g><path class="svg-icon12" d="M16 25v13h14V25H16zm12 11H18v-9h10v9zm2-18.5V24H16V11h12l-2.2 2H18v9h10v-2.7l2-1.8z"/></g><g><path class="svg-icon10" d="M32.5 12.8l-8 8-4-4.2c-.4-.2-.5-.8-.2-1l1.3-1.5h1l2 2.2 5.6-5.7c.3-.2.6-.2 1 0l1.3 1.6c.4.4.3.6 0 .8z"/></g></svg>