<svg xmlns="http://www.w3.org/2000/svg" class="svg-bkgd03" viewBox="0 0 48 48"><g><path class="svg-shortcut" d="M28 42.5l-3 2.7v-1.7c-.4 0-1.4 0-2.5.6-1.3 1-1.5 1.6-1.5 1.6s-.4-1.2.8-2.7c1.2-1.6 2.6-1.7 3.2-1.6v-1.6l3 2.7z"/></g><g><path class="svg-cluster" d="M28.5 41.3c.6 0 1.2.5 1.2 1.2s-.6 1.2-1.2 1.2-1.2-.5-1.2-1.2.5-1.2 1.2-1.2zm-4 0c.6 0 1.2.5 1.2 1.2s-.6 1.2-1.2 1.2c-.7 0-1.2-.5-1.2-1.2s.5-1.2 1.2-1.2zm-4 0c.7 0 1.2.5 1.2 1.2s-.5 1.2-1.2 1.2-1.2-.5-1.2-1.2.5-1.2 1.2-1.2z"/></g><g><path class="svg-icon10" d="M16 16c-.3 1.4-1.5 2.8-3 3v-3h3zm-3 11h3c-.3-1.4-1.5-2.8-3-3v3zm5 0h1c.2-1 .5-2 1-2.8-.7-.8-1-1.7-1-2.7 0-2.5 2-4.5 4.5-4.5 1.6 0 3 .8 3.8 2h4.4c-1-1-1.6-2-1.7-3H18c-.3 2-2.8 4.7-5 5v1c2.2.3 4.7 3 5 5zm-6 1V15h24v5.7c.8.5 1.4 1 2 1.8V13H10v17h9v-2h-7zm11.5-10c-2 0-3.5 1.6-3.5 3.5 0 .6.2 1.2.5 1.7 1.3-2 3.3-3.3 5.7-4-.7-.7-1.6-1.2-2.7-1.2zM35 16h-3c.2 1.4 1.6 2.8 3 3v-3z"/></g><g><path class="svg-icon14" d="M28 27.5V21c1.6 0 3.8.4 5.6 2L28 27.6z"/></g><g><path class="svg-icon04" d="M22.2 32c-.7-1.2-1.2-2.7-1.2-4 0-3 2.6-6 6-6.7v7L22.2 32z"/></g><g><path class="svg-icon01" d="M36 23c1.3 1.4 2 3 2 5 0 1.4-1.3 4-2 5l-6-5 6-5z"/></g><g><path class="svg-icon10" d="M28.8 28l5.2 4.5C32.6 34 31 35 28.6 35c-2 0-4.2-1-5.6-2.3l1.3-1 4.5-3.6z"/></g></svg>