<svg xmlns="http://www.w3.org/2000/svg" class="svg-bkgd01" viewBox="0 0 48 48"><g><path class="svg-shortcut" d="M28 42.5l-3 2.7v-1.7c-.4 0-1.4 0-2.5.6-1.3 1-1.5 1.6-1.5 1.6s-.4-1.2.8-2.7c1.2-1.6 2.6-1.7 3.2-1.6v-1.6l3 2.7z"/></g><g><path class="svg-cluster" d="M28.5 41.3c.6 0 1.2.5 1.2 1.2s-.6 1.2-1.2 1.2-1.2-.5-1.2-1.2.5-1.2 1.2-1.2zm-4 0c.6 0 1.2.5 1.2 1.2s-.6 1.2-1.2 1.2c-.7 0-1.2-.5-1.2-1.2s.5-1.2 1.2-1.2zm-4 0c.7 0 1.2.5 1.2 1.2s-.5 1.2-1.2 1.2-1.2-.5-1.2-1.2.5-1.2 1.2-1.2z"/></g><g><path class="svg-icon04" d="M10.42 28.1l1.73 1.72-2.16.43.42-2.16zM30.68 13l1.73 1.73.44-2.15-2.16.43zm-2.6-2.58l1.74 1.73.43-2.16-2.16.42zM12.6 32.83l2.15-.43L13 30.68l-.42 2.16zm25-12.92l.43.44L20.35 38l-.44-.42-2.15.43.43-2.15-.86-.86-2.16.42.43-2.15-.87-.87-2.58-2.58L10 27.66 27.65 10l2.16 2.15 2.6 2.58.85.87 2.15-.43-.43 2.15.85.86 2.16-.43-.42 2.16zm-7.76-2.58l-5.6 5.6c-.24.24-.24.63 0 .86.23.24.62.24.86 0l5.6-5.6c.24-.24.24-.62 0-.86s-.62-.24-.86 0zm-7.76 4.3c.24.25.63.25.86 0l5.6-5.6c.24-.23.24-.62 0-.86-.23-.23-.62-.23-.86 0l-5.6 5.6c-.24.24-.24.63 0 .87zm-2.2 6.18c.84-.83.82-2.38 0-3.19-.8-.8-2.34-.8-3.17.02-.83.82-.8 2.37 0 3.18s2.34.83 3.17 0zm5.83 1.23l-2.83-2.82c-.18-.17-.56-.15-.7 0l-.72.7c-.06.07-.16.57-.16.57l.68 2.45-2.46-.7s-.4.04-.54.17l-.7.7c-.16.15-.14.57.03.74l2.76 2.75c.17.17.6.2.74.03l3.88-3.88c.16-.16.18-.54 0-.7zm7.14-9.55c-.24-.24-.63-.24-.87 0l-5.6 5.6c-.24.24-.24.62 0 .86s.62.24.86 0l5.6-5.6c.24-.24.24-.63 0-.86z"/></g></svg>