<svg xmlns="http://www.w3.org/2000/svg" class="svg-bkgd01" viewBox="0 0 48 48"><g><path class="svg-shortcut" d="M28 42.5l-3 2.7v-1.7c-.4 0-1.4 0-2.5.6-1.3 1-1.5 1.6-1.5 1.6s-.4-1.2.8-2.7c1.2-1.6 2.6-1.7 3.2-1.6v-1.6l3 2.7z"/></g><g><path class="svg-cluster" d="M28.5 41.3c.6 0 1.2.5 1.2 1.2s-.6 1.2-1.2 1.2-1.2-.5-1.2-1.2.5-1.2 1.2-1.2zm-4 0c.6 0 1.2.5 1.2 1.2s-.6 1.2-1.2 1.2c-.7 0-1.2-.5-1.2-1.2s.5-1.2 1.2-1.2zm-4 0c.7 0 1.2.5 1.2 1.2s-.5 1.2-1.2 1.2-1.2-.5-1.2-1.2.5-1.2 1.2-1.2z"/></g><g><path class="svg-icon09" d="M21 23h-9c-1 0-2 0-2 1v11c0 1 1 1 2 1H21c1 0 1.8 0 1.8-1V24c0-1-1-1-2-1zm0 11h-9v-9h9v9zm-7-7h5v5h-5v-5z"/></g><g><path class="svg-icon04" d="M31.5 23C28 23 25 26 25 29.5s3 6.5 6.5 6.5 6.5-3 6.5-6.5-3-6.5-6.5-6.5zm0 11C29 34 27 32 27 29.5s2-4.5 4.5-4.5 4.5 2 4.5 4.5-2 4.5-4.5 4.5zm0-7c1.4 0 2.5 1 2.5 2.5S33 32 31.5 32 29 31 29 29.5s1-2.5 2.5-2.5z"/></g><g><path class="svg-icon10" d="M34 20l-8-1V18l2.3-1.4c-1.3-1-3-1.8-4.8-1.8-3.7 0-6.8 2.6-7.7 6H12c1.5-5 6-9 11.5-9 3 0 5.6 1 7.6 2.7l2.4-1.6h.6v7z"/></g></svg>