<svg xmlns="http://www.w3.org/2000/svg" class="svg-bkgd04" viewBox="0 0 48 48"><g><path class="svg-shortcut" d="M28 42.5l-3 2.7v-1.7c-.4 0-1.4 0-2.5.6-1.3 1-1.5 1.6-1.5 1.6s-.4-1.2.8-2.7c1.2-1.6 2.6-1.7 3.2-1.6v-1.6l3 2.7z"/></g><g><path class="svg-cluster" d="M28.5 41.3c.6 0 1.2.5 1.2 1.2s-.6 1.2-1.2 1.2-1.2-.5-1.2-1.2.5-1.2 1.2-1.2zm-4 0c.6 0 1.2.5 1.2 1.2s-.6 1.2-1.2 1.2c-.7 0-1.2-.5-1.2-1.2s.5-1.2 1.2-1.2zm-4 0c.7 0 1.2.5 1.2 1.2s-.5 1.2-1.2 1.2-1.2-.5-1.2-1.2.5-1.2 1.2-1.2z"/></g><g><path class="svg-icon05" d="M24 11c-7 0-13 5-13 11.7 0 3 1.4 6.2 3.4 8.3h19.3c2-2 3.3-5.4 3.3-8.4C37 16 31 11 24 11zm1.7 5.6c-5.7 0-9 2.5-9 6.3 0 0-.7 1-1.4 1-.6 0-1.3-1-1.3-1 0-5.2 4-9 10.7-9-1 0 2.3-.3 2.3 1.4 0 .6-1.3 1.2-1.3 1.2z"/></g><g><path class="svg-icon02" d="M14 32h20l3 6H11l3-6z"/></g></svg>