<svg xmlns="http://www.w3.org/2000/svg" class="svg-bkgd09" viewBox="0 0 48 48"><g><path class="svg-shortcut" d="M28 42.5l-3 2.7v-1.7c-.4 0-1.4 0-2.5.6-1.3 1-1.5 1.6-1.5 1.6s-.4-1.2.8-2.7c1.2-1.6 2.6-1.7 3.2-1.6v-1.6l3 2.7z"/></g><g><path class="svg-cluster" d="M28.5 41.3c.6 0 1.2.5 1.2 1.2s-.6 1.2-1.2 1.2-1.2-.5-1.2-1.2.5-1.2 1.2-1.2zm-4 0c.6 0 1.2.5 1.2 1.2s-.6 1.2-1.2 1.2c-.7 0-1.2-.5-1.2-1.2s.5-1.2 1.2-1.2zm-4 0c.7 0 1.2.5 1.2 1.2s-.5 1.2-1.2 1.2-1.2-.5-1.2-1.2.5-1.2 1.2-1.2z"/></g><g><path class="svg-icon03" d="M27 23h-2v-5.4c0-1.2-.6-2.7-1.6-3.6-.8-.7-2-1-3-1H16V9.7l-1.3 1L11 14l5 4.3v-3.4h3.8c1 0 2 .3 2.4.8.6.5.8 1 .8 2.3v5h-7v-3.2L11 24l5 4v-3h7v5c0 1-.3 1.5-.8 2-.6.6-1.4 1-2.5 1H16v-3l-5 4 5 4v-3h4.4c1 0 2.4-.4 3.3-1.3.8-1 1.3-2.2 1.3-3.3V25h2v-2z"/></g><g><path class="svg-icon06" d="M33.5 20C31 20 29 22 29 24.5s2 4.5 4.5 4.5 4.5-2 4.5-4.5-2-4.5-4.5-4.5z"/></g></svg>