<svg xmlns="http://www.w3.org/2000/svg" class="svg-bkgd10" viewBox="0 0 48 48"><g><path class="svg-shortcut" d="M28 42.5l-3 2.7v-1.7c-.4 0-1.4 0-2.5.6-1.3 1-1.5 1.6-1.5 1.6s-.4-1.2.8-2.7c1.2-1.6 2.6-1.7 3.2-1.6v-1.6l3 2.7z"/></g><g><path class="svg-cluster" d="M28.5 41.3c.6 0 1.2.5 1.2 1.2s-.6 1.2-1.2 1.2-1.2-.5-1.2-1.2.5-1.2 1.2-1.2zm-4 0c.6 0 1.2.5 1.2 1.2s-.6 1.2-1.2 1.2c-.7 0-1.2-.5-1.2-1.2s.5-1.2 1.2-1.2zm-4 0c.7 0 1.2.5 1.2 1.2s-.5 1.2-1.2 1.2-1.2-.5-1.2-1.2.5-1.2 1.2-1.2z"/></g><g><path class="svg-icon11" d="M17.5 19c-2 0-3.5 1.6-3.5 3.5 0 2 1.6 3.5 3.5 3.5s3.5-1.6 3.5-3.5c0-2-1.6-3.5-3.5-3.5zm0 5c-.8 0-1.5-.7-1.5-1.5s.7-1.5 1.5-1.5 1.5.7 1.5 1.5-.7 1.5-1.5 1.5zM24 11c-2.2 0-4 1.8-4 4s1.8 4 4 4 4-1.8 4-4-1.8-4-4-4zm0 6c-1 0-2-1-2-2s1-2 2-2 2 1 2 2-1 2-2 2z"/></g><g><path class="svg-icon12" d="M32 28.6c0-3-2.4-5.3-5.4-5.3-2.7 0-5 2-5.2 4.8-1-.4-2-.7-3-.7-3.5 0-6.3 2.8-6.3 6.3 0 1.3 1.3 2.4 2 3.4h18c2-.4 4-2 4-4 0-2.3-2-4.2-4-4.4zm0 6.4H15c-.6-.7-1-1.5-1-2.4 0-2 2.4-3.3 4.7-3.3 2 0 3.3.6 4 1.3.3-2 .6-5.3 4-5.3 2.3 0 3.4 2.3 3.2 4.6l.6.6c1.8 0 3.3.5 3.3 2 0 1.3-.5 2-2 2.4z"/></g></svg>