<svg xmlns="http://www.w3.org/2000/svg" class="svg-bkgd07" viewBox="0 0 48 48"><g><path class="svg-shortcut" d="M28 42.5l-3 2.7v-1.7c-.4 0-1.4 0-2.5.6-1.3 1-1.5 1.6-1.5 1.6s-.4-1.2.8-2.7c1.2-1.6 2.6-1.7 3.2-1.6v-1.6l3 2.7z"/></g><g><path class="svg-cluster" d="M28.5 41.3c.6 0 1.2.5 1.2 1.2s-.6 1.2-1.2 1.2-1.2-.5-1.2-1.2.5-1.2 1.2-1.2zm-4 0c.6 0 1.2.5 1.2 1.2s-.6 1.2-1.2 1.2c-.7 0-1.2-.5-1.2-1.2s.5-1.2 1.2-1.2zm-4 0c.7 0 1.2.5 1.2 1.2s-.5 1.2-1.2 1.2-1.2-.5-1.2-1.2.5-1.2 1.2-1.2z"/></g><g><path class="svg-icon11" d="M27 24v-3h2c0-.8 0-1.5.4-2H10v13c0 2.2-.4 4 1 4h8v-2h-2v-3h2.2c.3-1.6 1.3-2.7 2.8-3.2V26h3v1.3h.5l3-3.3H27zM15 34h-3v-3h3v3zm0-5h-3v-3h3v3zm5 0h-3v-3h3v3zm0-5h-3v-3h3v3zm5 0h-3v-3h3v3zm8 12h-5l2-2.2 4-5V32c0 2.2.3 4-1 4z"/></g><g><path class="svg-icon18" d="M37 26.4c-1 1-2.3 1-3.7.6l-2 2.2L28 33c.4 1.3.2 3-.8 4-1.2 1.2-2.7 1.3-4.3.5l1.8-1.8c.3-.3.4-1 0-1.3L23.6 33c-.5-.3-1-.3-1.4 0l-1.7 2c-.7-1.8-.7-3.3.5-4.5 1-1 2.5-1 4-.5l2.4-2.7 2.5-3c-.5-1.3-.6-3.2.5-4.2 1.2-1 2.7-1.3 4.3-.6l-1.8 2c-.4.2-.4.8 0 1.2l1.3 1.3c.4.3 1 .2 1.4-.2l1.8-1.8c.8 1.6.6 3.2-.6 4.4z"/></g><g><path class="svg-icon08" d="M10 17v-3s0-2 1-2h2v2c0 .6 1.4 2 2 2h2c.6 0 2-1.4 2-2v-2h6v2c0 .6 1.4 2 2 2h2c.6 0 2-1.4 2-2v-2h2c1 0 1 2 1 2v3H10z"/></g><g><path class="svg-icon18" d="M28 10c.5 0 1 .5 1 1v3h-2v-3c0-.5.5-1 1-1zm-12 0c.5 0 1 .5 1 1v3h-2v-3c0-.5.5-1 1-1z"/></g></svg>