<svg xmlns="http://www.w3.org/2000/svg" class="svg-bkgd11" viewBox="0 0 48 48"><g><path class="svg-shortcut" d="M28 42.5l-3 2.7v-1.7c-.4 0-1.4 0-2.5.6-1.3 1-1.5 1.6-1.5 1.6s-.4-1.2.8-2.7c1.2-1.6 2.6-1.7 3.2-1.6v-1.6l3 2.7z"/></g><g><path class="svg-cluster" d="M28.5 41.3c.6 0 1.2.5 1.2 1.2s-.6 1.2-1.2 1.2-1.2-.5-1.2-1.2.5-1.2 1.2-1.2zm-4 0c.6 0 1.2.5 1.2 1.2s-.6 1.2-1.2 1.2c-.7 0-1.2-.5-1.2-1.2s.5-1.2 1.2-1.2zm-4 0c.7 0 1.2.5 1.2 1.2s-.5 1.2-1.2 1.2-1.2-.5-1.2-1.2.5-1.2 1.2-1.2z"/></g><g><path class="svg-icon09" d="M34.4 25c-2-3-4.6 2.4-9.3-8.7-.7-2-4-3.3-6.5-3.2.2-.4 0-1 0-1.5-.6-1.2-2-1.8-3.3-1.3-1.3.5-2 2-1.4 3.2.3.5.6 1 1 1.2-1.7 1.6-3.4 5-2.6 7 4.6 11-1 9 0 12.5l1.7 4s6.5-1.6 11-3.5c4.6-2 11-5.5 11-5.5l-1.6-4zM15.7 11.5c.6-.2 1.2 0 1.5.6.2.6 0 1.3-.6 1.5-.6.2-1.3 0-1.5-.6 0-.7 0-1.3.7-1.6zM28 35c.2 1.2-.4 2.3-1.4 2.8-1 .5-2 0-2.6-1 .5 0 1.3-.5 2-.8l2-1z"/></g></svg>