<svg xmlns="http://www.w3.org/2000/svg" class="svg-bkgd05" viewBox="0 0 48 48"><g><path class="svg-shortcut" d="M28 42.5l-3 2.7v-1.7c-.4 0-1.4 0-2.5.6-1.3 1-1.5 1.6-1.5 1.6s-.4-1.2.8-2.7c1.2-1.6 2.6-1.7 3.2-1.6v-1.6l3 2.7z"/></g><g><path class="svg-cluster" d="M28.5 41.3c.6 0 1.2.5 1.2 1.2s-.6 1.2-1.2 1.2-1.2-.5-1.2-1.2.5-1.2 1.2-1.2zm-4 0c.6 0 1.2.5 1.2 1.2s-.6 1.2-1.2 1.2-1.2-.5-1.2-1.2.5-1.2 1.2-1.2zm-4 0c.7 0 1.2.5 1.2 1.2s-.5 1.2-1.2 1.2-1.2-.5-1.2-1.2.5-1.2 1.2-1.2z"/></g><g><path class="svg-icon12" d="M18 32h-6.8c-.6 0-1.2-.7-1.2-1.4V11.2c0-.7.6-1.2 1.2-1.2h20.5c.7 0 1.3.5 1.3 1.2V17h-2v-5H12v18h6.3c-.2.4-.3 1-.3 2z"/></g><g><path class="svg-icon17" d="M14 20h15v-2H14v2zm0-4h15v-2H14v2z"/></g><g><path class="svg-icon18" d="M29 22H14v7h10c-.2 0 .2-.8 1-2v-1h.8l.8-1H25v-2h2v1.5l2-2.5zm-11 6h-2v-2h2v2zm0-3h-2v-2h2v2zm3 3h-2v-2h2v2zm0-3h-2v-2h2v2zm3 3h-2v-2h2v2zm0-3h-2v-2h2v2z"/></g><g><path class="svg-icon18" d="M37 26c-1 1-2 1-3.4.7l-2.8 3-3 3.5c.2 1.3 0 3-1 3.8-1 1-2.4 1.3-4 .5l1.8-1.7c.4-.3.4-1 0-1.3l-1-1.2c-.5-.4-1-.3-1.4 0L20.4 35c-.7-1.5-.5-3 .7-4 1-1 2.3-1 3.7-.7l1.6-1.7 4-4.5c-.4-1.2-.4-3 .6-4s2.4-1.3 4-.6l-1.7 1.8c-.4.3-.4 1 0 1.3l1.2 1.2c.4.4 1 .3 1.3 0l1.7-1.8c.8 1.4.6 3-.6 4z"/></g></svg>