<svg xmlns="http://www.w3.org/2000/svg" class="svg-bkgd08" viewBox="0 0 48 48"><g><path class="svg-shortcut" d="M28 42.5l-3 2.7v-1.7c-.4 0-1.4 0-2.5.6-1.3 1-1.5 1.6-1.5 1.6s-.4-1.2.8-2.7c1.2-1.6 2.6-1.7 3.2-1.6v-1.6l3 2.7z"/></g><g><path class="svg-cluster" d="M28.5 41.3c.6 0 1.2.5 1.2 1.2s-.6 1.2-1.2 1.2-1.2-.5-1.2-1.2.5-1.2 1.2-1.2zm-4 0c.6 0 1.2.5 1.2 1.2s-.6 1.2-1.2 1.2c-.7 0-1.2-.5-1.2-1.2s.5-1.2 1.2-1.2zm-4 0c.7 0 1.2.5 1.2 1.2s-.5 1.2-1.2 1.2-1.2-.5-1.2-1.2.5-1.2 1.2-1.2z"/></g><g><path class="svg-icon05" d="M38 15.3v10.4l-2.5.8-2-2-.3.7-.5 1-.3.5c-1.6-3-3.8-4.5-7.6-6h-1.5l-.3.3h-1c0 1-.2 1-1 1l.5-3 2.6-2 3 1h3l1.7.5-.6-2 7-1.2z"/></g><g><path class="svg-icon04" d="M30.8 30.5L27.6 33c-2.3 1.6-3.7.8-6 0-1.8-.7-4-1.7-6.2-3-1-1.5-2.3-2.4-2-3l-.6-1-1.8 3-1-.7V16.5l6 1.6-.7 2s.7.3 1.5.4c.7-2 2.6-1.2 2.6-1.2L18 23.5l1.3.5H23v-1h1c2 .8 2.5 1.4 3.7 2 .5.6 2.8 2.5 3.3 3.4 0 0 .8 1.4-.2 2z"/></g></svg>