<svg xmlns="http://www.w3.org/2000/svg" class="svg-bkgd02" viewBox="0 0 48 48"><g><path class="svg-shortcut" d="M28 42.5l-3 2.7v-1.7c-.4 0-1.4 0-2.5.6-1.3 1-1.5 1.6-1.5 1.6s-.4-1.2.8-2.7c1.2-1.6 2.6-1.7 3.2-1.6v-1.6l3 2.7z"/></g><g><path class="svg-cluster" d="M28.5 41.3c.6 0 1.2.5 1.2 1.2s-.6 1.2-1.2 1.2-1.2-.5-1.2-1.2.5-1.2 1.2-1.2zm-4 0c.6 0 1.2.5 1.2 1.2s-.6 1.2-1.2 1.2c-.7 0-1.2-.5-1.2-1.2s.5-1.2 1.2-1.2zm-4 0c.7 0 1.2.5 1.2 1.2s-.5 1.2-1.2 1.2-1.2-.5-1.2-1.2.5-1.2 1.2-1.2z"/></g><g><path class="svg-icon02" d="M20.8 19h14.4a1.8 1.8 0 0 1 1.8 1.8v14.4a1.8 1.8 0 0 1-1.8 1.8H20.8a1.8 1.8 0 0 1-1.8-1.8V20.8a1.8 1.8 0 0 1 1.8-1.8z"/></g><g><path class="svg-icon03" d="M18.3 17H33a2.2 2.2 0 0 0-2-2H17a2.2 2.2 0 0 0-2 2v14a2.2 2.2 0 0 0 2 2V19c0-.8 0-2 1.3-2z"/><path class="svg-icon06" d="M15 13h15a2.2 2.2 0 0 0-2-2H13a2.2 2.2 0 0 0-2 2v15c0 1 0 2 2 2V15a2.2 2.2 0 0 1 2-2z"/></g></svg>