<svg xmlns="http://www.w3.org/2000/svg" class="svg-bkgd05" viewBox="0 0 48 48"><g><path class="svg-shortcut" d="M28 42.5l-3 2.7v-1.7c-.4 0-1.4 0-2.5.6-1.3 1-1.5 1.6-1.5 1.6s-.4-1.2.8-2.7c1.2-1.6 2.6-1.7 3.2-1.6v-1.6l3 2.7z"/></g><g><path class="svg-cluster" d="M28.5 41.3c.6 0 1.2.5 1.2 1.2s-.6 1.2-1.2 1.2-1.2-.5-1.2-1.2.5-1.2 1.2-1.2zm-4 0c.6 0 1.2.5 1.2 1.2s-.6 1.2-1.2 1.2-1.2-.5-1.2-1.2.5-1.2 1.2-1.2zm-4 0c.7 0 1.2.5 1.2 1.2s-.5 1.2-1.2 1.2-1.2-.5-1.2-1.2.5-1.2 1.2-1.2z"/></g><g><path class="svg-icon03" d="M25 36a12.93 12.93 0 0 1-6.54-1.78l-7.62 1.93 2.36-7.7A13 13 0 1 1 25 36zm-2-4h3v-3h-3v3zm6.3-16.37a6.56 6.56 0 0 0-4.5-1.5 6.33 6.33 0 0 0-4.35 1.48A4.3 4.3 0 0 0 19 19h3a2.15 2.15 0 0 1 .84-1.63 3.13 3.13 0 0 1 2.1-.72 3 3 0 0 1 2.07.7 2.13 2.13 0 0 1 .78 1.63 2.05 2.05 0 0 1-.44 1.27 14.38 14.38 0 0 1-1.72 1.54 7.3 7.3 0 0 0-1.92 2.1A4.03 4.03 0 0 0 23 26v1h3a5.9 5.9 0 0 1 .67-2.33 3.73 3.73 0 0 1 1.07-.88 13.5 13.5 0 0 0 2.63-2.66 3.8 3.8 0 0 0 .62-2.06 4.5 4.5 0 0 0-1.7-3.45z"/></g></svg>