<svg xmlns="http://www.w3.org/2000/svg" class="svg-bkgd04" viewBox="0 0 48 48"><g><path class="svg-shortcut" d="M28 42.5l-3 2.7v-1.7c-.4 0-1.4 0-2.5.6-1.3 1-1.5 1.6-1.5 1.6s-.4-1.2.8-2.7c1.2-1.6 2.6-1.7 3.2-1.6v-1.6l3 2.7z"/></g><g><path class="svg-cluster" d="M28.5 41.3c.6 0 1.2.5 1.2 1.2s-.6 1.2-1.2 1.2-1.2-.5-1.2-1.2.5-1.2 1.2-1.2zm-4 0c.6 0 1.2.5 1.2 1.2s-.6 1.2-1.2 1.2c-.7 0-1.2-.5-1.2-1.2s.5-1.2 1.2-1.2zm-4 0c.7 0 1.2.5 1.2 1.2s-.5 1.2-1.2 1.2-1.2-.5-1.2-1.2.5-1.2 1.2-1.2z"/></g><g><path class="svg-icon02" d="M32 17v-4c0-.6 1-1 1.6-1s1.4.4 1.4 1v4h-3zm-18 3v-7c0-.6 1-1 1.6-1 .6 0 1.4.5 1.4 1v7h-3zm9 2v-9c0-.6 1-1 1.6-1 .5 0 1.4.4 1.4 1v9h-3z"/></g><g><path class="svg-icon04" d="M17 29v6c0 .6-1 1-1.6 1s-1.4-.4-1.4-1v-6h3zm9 2v4c0 .6-1 1-1.6 1-.5 0-1.4-.4-1.4-1v-4h3zm9-5v9c0 .6-1 1-1.6 1s-1.4-.4-1.4-1v-9h3zm-19.5-4c1.4 0 2.5 1 2.5 2.5S17 27 15.5 27 13 26 13 24.5s1-2.5 2.5-2.5zm9 2c1.4 0 2.5 1 2.5 2.5S26 29 24.5 29 22 28 22 26.5s1-2.5 2.5-2.5zm9-5c1.4 0 2.5 1 2.5 2.5 0 1.4-1 2.5-2.5 2.5S31 23 31 21.5c0-1.4 1-2.5 2.5-2.5z"/></g></svg>