<svg xmlns="http://www.w3.org/2000/svg" class="svg-bkgd04" viewBox="0 0 48 48"><g><path class="svg-shortcut" d="M28 42.5l-3 2.7v-1.7c-.4 0-1.4 0-2.5.6-1.3 1-1.5 1.6-1.5 1.6s-.4-1.2.8-2.7c1.2-1.6 2.6-1.7 3.2-1.6v-1.6l3 2.7z"/></g><g><path class="svg-cluster" d="M28.5 41.3c.6 0 1.2.5 1.2 1.2s-.6 1.2-1.2 1.2-1.2-.5-1.2-1.2.5-1.2 1.2-1.2zm-4 0c.6 0 1.2.5 1.2 1.2s-.6 1.2-1.2 1.2c-.7 0-1.2-.5-1.2-1.2s.5-1.2 1.2-1.2zm-4 0c.7 0 1.2.5 1.2 1.2s-.5 1.2-1.2 1.2-1.2-.5-1.2-1.2.5-1.2 1.2-1.2z"/></g><g><path class="svg-icon15" d="M24 23.2v-12c2.7 0 6.3 1 9 4.5l-9 7.5z"/></g><g><path class="svg-icon04" d="M22 23.2l-9 9c-1.6-2.3-3-5.4-3-8 0-6.8 5.4-12.6 12-13v12z"/></g><g><path class="svg-icon10" d="M23.5 24.4l8.8 8.3c-2.3 2.8-4.8 4.3-9 4.3-3.4 0-6.6-1.5-9-3.5l9.2-9z"/></g><g><path class="svg-icon01" d="M36 17c2.2 2.3 2 4 2 7.5 0 2.3-1.8 4.6-3 6.5l-8-7 9-7z"/></g></svg>