<svg xmlns="http://www.w3.org/2000/svg" class="svg-bkgd03" viewBox="0 0 48 48"><g><path class="svg-shortcut" d="M28 42.5l-3 2.7v-1.7c-.4 0-1.4 0-2.5.6-1.3 1-1.5 1.6-1.5 1.6s-.4-1.2.8-2.7c1.2-1.6 2.6-1.7 3.2-1.6v-1.6l3 2.7z"/></g><g><path class="svg-cluster" d="M28.5 41.3c.6 0 1.2.5 1.2 1.2s-.6 1.2-1.2 1.2-1.2-.5-1.2-1.2.5-1.2 1.2-1.2zm-4 0c.6 0 1.2.5 1.2 1.2s-.6 1.2-1.2 1.2c-.7 0-1.2-.5-1.2-1.2s.5-1.2 1.2-1.2zm-4 0c.7 0 1.2.5 1.2 1.2s-.5 1.2-1.2 1.2-1.2-.5-1.2-1.2.5-1.2 1.2-1.2z"/></g><g><path class="svg-icon10" d="M23.5 19c2 0 3.5 1.6 3.5 3.5S25.4 26 23.5 26c-2 0-3.5-1.6-3.5-3.5s1.6-3.5 3.5-3.5zM13 23v-1c2.2-.3 4.7-3 5-5h12c0 .5.2 1 .5 1.6l-2.5 4c0-2.6-2-4.6-4.5-4.6S19 20 19 22.5s2 4.5 4.5 4.5c.8 0 1.5-.2 2-.5l-1 1.5H18c-.3-2-2.8-4.7-5-5zm25-9zM13 28h3c-.3-1.4-1.5-2.8-3-3v3zm0-11v3c1.5-.2 2.7-1.6 3-3h-3zm23 7.5V29h-3l-1.5 2H38v-9.4l-2 3zM24 29H12V16h20l1.4-2H10v17h13.6c0-.5 0-1.2.4-2zm9.6-1H35v-2l-1.4 2z"/></g><g><path class="svg-icon18" d="M28.4 32.8l-.6 1-2.6 1.2-.2-2.7.5-1.2 3 1.8z"/></g><g><path class="svg-icon01" d="M29 31.6L26.3 30 33 18.4l3 1.7-7 11.6z"/></g><g><path class="svg-icon07" d="M36.6 19l-3-1.7L35 15l3 1.7-1.4 2.3z"/></g></svg>