<svg xmlns="http://www.w3.org/2000/svg" class="svg-bkgd06" viewBox="0 0 48 48"><g><path class="svg-shortcut" d="M28 42.5l-3 2.7v-1.7c-.4 0-1.4 0-2.5.6-1.3 1-1.5 1.6-1.5 1.6s-.4-1.2.8-2.7c1.2-1.6 2.6-1.7 3.2-1.6v-1.6l3 2.7z"/></g><g><path class="svg-cluster" d="M28.5 41.3c.6 0 1.2.5 1.2 1.2s-.6 1.2-1.2 1.2-1.2-.5-1.2-1.2.5-1.2 1.2-1.2zm-4 0c.6 0 1.2.5 1.2 1.2s-.6 1.2-1.2 1.2c-.7 0-1.2-.5-1.2-1.2s.5-1.2 1.2-1.2zm-4 0c.7 0 1.2.5 1.2 1.2s-.5 1.2-1.2 1.2-1.2-.5-1.2-1.2.5-1.2 1.2-1.2z"/></g><g><path class="svg-icon15" d="M11 36h26V12h-2v22H11v2z"/></g><g><path class="svg-icon03" d="M14 17v16h3V17h3l-4-5h-1l-4 5h3z"/></g><g><path class="svg-icon05" d="M21 21v12h3V21h3l-4-5h-1l-4 5h3z"/></g><g><path class="svg-icon09" d="M28 26v7h3v-7h3l-4-5h-1l-4 5h3z"/></g></svg>