<svg xmlns="http://www.w3.org/2000/svg" class="svg-bkgd12" viewBox="0 0 48 48"><g><path class="svg-shortcut" d="M28 42.5l-3 2.7v-1.7c-.4 0-1.4 0-2.5.6-1.3 1-1.5 1.6-1.5 1.6s-.4-1.2.8-2.7c1.2-1.6 2.6-1.7 3.2-1.6v-1.6l3 2.7z"/></g><g><path class="svg-cluster" d="M28.5 41.3c.6 0 1.2.5 1.2 1.2s-.6 1.2-1.2 1.2-1.2-.5-1.2-1.2.5-1.2 1.2-1.2zm-4 0c.6 0 1.2.5 1.2 1.2s-.6 1.2-1.2 1.2c-.7 0-1.2-.5-1.2-1.2s.5-1.2 1.2-1.2zm-4 0c.7 0 1.2.5 1.2 1.2s-.5 1.2-1.2 1.2-1.2-.5-1.2-1.2.5-1.2 1.2-1.2z"/></g><g><path class="svg-icon03" d="M17 33l5-4s1-.2 1 .4V31h14a1 1 0 0 1 1 1v2a1 1 0 0 1-1 1H23v1.5c0 .7-1 .5-1 .5z"/></g><g><path class="svg-icon05" d="M14 24l5-4s1 0 1 .4V22h13.7a1 1 0 0 1 1.3 1v2a1 1 0 0 1-1 1H20v1.4c0 .8-1 .6-1 .6z"/></g><g><path class="svg-icon06" d="M11 15l5-4s1 0 1 .4V13h13.8a1 1 0 0 1 1.2 1v2a1 1 0 0 1-1 1H17v1.5c0 .8-1 .5-1 .5z"/></g></svg>