<svg xmlns="http://www.w3.org/2000/svg" class="svg-bkgd08" viewBox="0 0 48 48"><g><path class="svg-shortcut" d="M28.05 42.5L25 45.2v-1.7c-.44-.1-1.4-.15-2.45.6-1.4 1-1.57 1.47-1.57 1.47s-.4-1.24.8-2.7c1.26-1.54 2.67-1.56 3.23-1.5v-1.63l3.05 2.72z"/></g><g><path class="svg-cluster" d="M28.47 41.3c.65 0 1.2.55 1.2 1.2s-.55 1.2-1.2 1.2-1.2-.54-1.2-1.2.54-1.2 1.2-1.2zm-4 0c.65 0 1.2.55 1.2 1.2s-.55 1.2-1.2 1.2c-.66 0-1.2-.54-1.2-1.2s.54-1.2 1.2-1.2zm-3.97 0c.66 0 1.2.55 1.2 1.2s-.54 1.2-1.2 1.2-1.2-.54-1.2-1.2.54-1.2 1.2-1.2z"/></g><g><path class="svg-icon11" d="M14.9 15.7c0-.98.73-1.73 1.7-1.73.98 0 1.48.8 1.48 1.78 0 .97-.7 1.32-1.66 1.32-.97 0-1.5-.42-1.5-1.38zm1.13 4.04l-1.07-1.76H13.7c-.3 0-.7.4-.7.7v4.6c0 .3.36.64.66.64h2.37v-4.18zm15.5-2.6c.98 0 1.58-.5 1.58-1.46 0-.97-.72-1.7-1.7-1.7s-1.47.73-1.47 1.7.63 1.46 1.6 1.46zm2.8.84l-1.3.02L32 19.72v4.18l2.36.02c.3 0 .68-.34.68-.64l.02-4.6c0-.3-.42-.7-.72-.7z"/></g><g><path class="svg-icon05" d="M18.04 25.6c0 .46.85 1.32 1.32 1.32h9.24c.47 0 1.32-.86 1.32-1.32v-5.92c0-.3-.57-1.68-.92-1.68h-2l-3.02 4.96L21 18h-2c-.47 0-.96 1.2-.96 1.68v5.92zM24 17.1c1.7 0 3.07-1.32 3.07-3.02S25.7 11.04 24 11.04c-1.7 0-3.08 1.34-3.08 3.04s1.38 3 3.08 3z"/></g><g><path class="svg-icon10" d="M19.93 37.5v-2.52H35.1v-3.96H19.92v-2.5c0-.2-.36-.14-.5 0-.7.67-5.25 3.73-5.73 4.22-.1.08-.1.44 0 .52.5.48 5.04 3.57 5.72 4.23.14.13.5.2.5 0z"/></g></svg>