<svg xmlns="http://www.w3.org/2000/svg" class="svg-bkgd08" viewBox="0 0 48 48"><g><path class="svg-shortcut" d="M28 42.5l-3 2.7v-1.7c-.4 0-1.4 0-2.5.6-1.3 1-1.5 1.6-1.5 1.6s-.4-1.2.8-2.7c1.2-1.6 2.6-1.7 3.2-1.6v-1.6l3 2.7z"/></g><g><path class="svg-cluster" d="M28.5 41.3c.6 0 1.2.5 1.2 1.2s-.6 1.2-1.2 1.2-1.2-.5-1.2-1.2.5-1.2 1.2-1.2zm-4 0c.6 0 1.2.5 1.2 1.2s-.6 1.2-1.2 1.2c-.7 0-1.2-.5-1.2-1.2s.5-1.2 1.2-1.2zm-4 0c.7 0 1.2.5 1.2 1.2s-.5 1.2-1.2 1.2-1.2-.5-1.2-1.2.5-1.2 1.2-1.2z"/></g><g><path class="svg-icon12" d="M18.2 38h-7.4c-.3 0-.8-.6-.8-1v-5c0-.4.5-1 .8-1h1.7l2 3.4 2-3.4h1.7c.3 0 .8.6.8 1v5c0 .4-.5 1-.8 1zm-3.7-13c1.4 0 2.5 1 2.5 2.5 0 1.4-1 2.5-2.5 2.5S12 29 12 27.5c0-1.4 1-2.5 2.5-2.5zm22.7 13h-7.4c-.3 0-.8-.6-.8-1v-5c0-.4.5-1 .8-1h1.7l2 3.4 2-3.4h1.7c.3 0 .8.6.8 1v5c0 .4-.5 1-.8 1zm-3.7-13c1.4 0 2.5 1 2.5 2.5 0 1.4-1 2.5-2.5 2.5S31 29 31 27.5c0-1.4 1-2.5 2.5-2.5zm-6.3-2h-7.4c-.3 0-.8-.6-.8-1v-5c0-.4.5-1 .8-1h1.7l2 3.4 2-3.4h1.7c.3 0 .8.6.8 1v5c0 .4-.5 1-.8 1zm-3.7-13c1.4 0 2.5 1 2.5 2.5S25 15 23.5 15C22 15 21 14 21 12.5s1-2.5 2.5-2.5z"/></g><g><path class="svg-icon03" d="M27 29l-1 1-2-2-2 2-1-1 2-2v-2h2v2l2 2z"/></g></svg>