<svg xmlns="http://www.w3.org/2000/svg" class="svg-bkgd08" viewBox="0 0 48 48"><g><path class="svg-shortcut" d="M28 42.5l-3 2.7v-1.7c-.4 0-1.4 0-2.5.6-1.3 1-1.5 1.6-1.5 1.6s-.4-1.2.8-2.7c1.2-1.6 2.6-1.7 3.2-1.6v-1.6l3 2.7z"/></g><g><path class="svg-cluster" d="M28.5 41.3c.6 0 1.2.5 1.2 1.2s-.6 1.2-1.2 1.2-1.2-.5-1.2-1.2.5-1.2 1.2-1.2zm-4 0c.6 0 1.2.5 1.2 1.2s-.6 1.2-1.2 1.2c-.7 0-1.2-.5-1.2-1.2s.5-1.2 1.2-1.2zm-4 0c.7 0 1.2.5 1.2 1.2s-.5 1.2-1.2 1.2-1.2-.5-1.2-1.2.5-1.2 1.2-1.2z"/></g><g><path class="svg-icon12" d="M18.5 10c2.5 0 4.5 2 4.5 4.5S21 19 18.5 19 14 17 14 14.5s2-4.5 4.5-4.5zM22 23h5v-2c0-.5-.4-1-1-1h-3l-4.2 6.3L14 20h-3c-.5 0-1 .5-1 1v11c0 .5.5 1 1 1h11V23z"/></g><g><path class="svg-icon18" d="M23 24v12h8v-1.8c-.4-.3-.6-.6-.8-1-.2-.4-.2-.8-.2-1.2h-5v-1h5v.4c.3-1.4 1.5-2.5 3-2.5 1.4 0 2.6 1 3 2.4v.6c0 1-.4 1.7-1 2.2V36h3V24H23zm3 9h4v1h-4v-1zm8.6-4.3c-.6-1.2-2.3-1.8-4-2-1.4 0-3 1-3.8 2l-.7-.5c1-1 2.6-2.2 4.6-2.2 2 0 3.6.8 4.5 2.2l-.4.5z"/></g><g><path class="svg-icon08" d="M33.5 34h.5v4l-1-1-1 1v-4h.5c-1-.2-1.5-1-1.5-2s1-2 2-2 2 1 2 2-.7 1.8-1.5 2z"/></g></svg>