<svg xmlns="http://www.w3.org/2000/svg" class="svg-bkgd04" viewBox="0 0 48 48"><g><path class="svg-shortcut" d="M28 42.5l-3 2.7v-1.7c-.4 0-1.4 0-2.5.6-1.3 1-1.5 1.6-1.5 1.6s-.4-1.2.8-2.7c1.2-1.6 2.6-1.7 3.2-1.6v-1.6l3 2.7z"/></g><g><path class="svg-cluster" d="M28.5 41.3c.6 0 1.2.5 1.2 1.2s-.6 1.2-1.2 1.2-1.2-.5-1.2-1.2.5-1.2 1.2-1.2zm-4 0c.6 0 1.2.5 1.2 1.2s-.6 1.2-1.2 1.2c-.7 0-1.2-.5-1.2-1.2s.5-1.2 1.2-1.2zm-4 0c.7 0 1.2.5 1.2 1.2s-.5 1.2-1.2 1.2-1.2-.5-1.2-1.2.5-1.2 1.2-1.2z"/></g><g><path class="svg-icon12" d="M28 38H12c-.8 0-1-.3-1-1V25c0-1 1-2 1.8-2h2.7l4.5 6 4.5-6h2.7c1 0 1.8 1.2 1.8 2v12c0 .7-1 1-1 1zm-8-26c3 0 5 2.2 5 5s-2 5-5 5c-2.7 0-5-2.3-5-5s2.3-5 5-5z"/></g><g><path class="svg-icon09" d="M36 19.7l-3.5-3.5-3.5 3.5-.7-.7 3.5-3.5-3.5-3.5.7-.7 3.5 3.5 3.5-3.5.7.7-3.5 3.5 3.5 3.5-.7.7z"/></g><g><path class="svg-icon01" d="M38 16h-5v5h-1v-5h-5v-1h5v-5h1v5h5v1z"/></g></svg>