<svg xmlns="http://www.w3.org/2000/svg" class="svg-bkgd08" viewBox="0 0 48 48"><g><path class="svg-shortcut" d="M28.05 42.5L25 45.2v-1.7c-.44-.1-1.4-.15-2.45.6-1.4 1-1.57 1.47-1.57 1.47s-.4-1.24.8-2.7c1.26-1.54 2.67-1.56 3.23-1.5v-1.63l3.05 2.72z"/></g><g><path class="svg-cluster" d="M28.47 41.3c.65 0 1.2.55 1.2 1.2s-.55 1.2-1.2 1.2-1.2-.54-1.2-1.2.54-1.2 1.2-1.2zm-4 0c.65 0 1.2.55 1.2 1.2s-.55 1.2-1.2 1.2c-.66 0-1.2-.54-1.2-1.2s.54-1.2 1.2-1.2zm-3.97 0c.66 0 1.2.55 1.2 1.2s-.54 1.2-1.2 1.2-1.2-.54-1.2-1.2.54-1.2 1.2-1.2z"/></g><g><path class="svg-icon11" d="M29.92 15.75c0-.97.5-1.78 1.47-1.78s1.7.75 1.7 1.7c0 1-.55 1.4-1.52 1.4s-1.66-.35-1.66-1.32zm4.38 2.23h-1.26l-1.07 1.76v4.17l2.37.02c.3 0 .66-.34.66-.64v-4.6c0-.3-.4-.7-.7-.7zm-17.84-.84c.98 0 1.6-.5 1.6-1.46 0-.97-.5-1.7-1.47-1.7-.98 0-1.7.73-1.7 1.7s.6 1.46 1.56 1.46zM16 19.72L14.96 18l-1.3-.02c-.3 0-.72.4-.72.7l.02 4.6c0 .3.38.64.68.64L16 23.9v-4.18z"/></g><g><path class="svg-icon05" d="M29.96 25.6c0 .46-.85 1.32-1.32 1.32H19.4c-.47 0-1.32-.86-1.32-1.32v-5.92c0-.3.57-1.68.92-1.68h2l3.02 4.96L27 18h2c.47 0 .96 1.2.96 1.68v5.92zM24 17.1c-1.7 0-3.07-1.32-3.07-3.02s1.37-3.04 3.07-3.04 3.08 1.34 3.08 3.04-1.38 3-3.08 3z"/></g><g><path class="svg-icon10" d="M28.07 37.5v-2.52H12.9v-3.96h15.18v-2.5c0-.2.36-.14.5 0 .7.67 5.24 3.73 5.73 4.22.1.08.1.44 0 .52-.5.48-5.04 3.57-5.72 4.23-.14.13-.5.2-.5 0z"/></g></svg>