<svg xmlns="http://www.w3.org/2000/svg" class="svg-bkgd11" viewBox="0 0 48 48"><g><path class="svg-shortcut" d="M28 42.5l-3 2.7v-1.7c-.4 0-1.4 0-2.5.6-1.3 1-1.5 1.6-1.5 1.6s-.4-1.2.8-2.7c1.2-1.6 2.6-1.7 3.2-1.6v-1.6l3 2.7z"/></g><g><path class="svg-cluster" d="M28.5 41.3c.6 0 1.2.5 1.2 1.2s-.6 1.2-1.2 1.2-1.2-.5-1.2-1.2.5-1.2 1.2-1.2zm-4 0c.6 0 1.2.5 1.2 1.2s-.6 1.2-1.2 1.2c-.7 0-1.2-.5-1.2-1.2s.5-1.2 1.2-1.2zm-4 0c.7 0 1.2.5 1.2 1.2s-.5 1.2-1.2 1.2-1.2-.5-1.2-1.2.5-1.2 1.2-1.2z"/></g><g><path class="svg-icon18" d="M38 16H10v18.8c0 .7.5 1.2 1 1.2H37c.7 0 1.2-.5 1.2-1.2V16zm-9 3.2c0-.7.5-1.2 1-1.2h5c.5 0 1 .5 1 1.2v5.6c0 .7-.5 1.2-1 1.2h-5c-.5 0-1-.5-1-1.2v-5.6zM21 33c0 .6-.3 1-1 1h-7c-.7 0-1-.5-1-1.2V19.2c0-.7.5-1.2 1.2-1.2h6.6c.7 0 1.2.4 1.2 1v14zm1-13.8c0-.7.5-1.2 1-1.2h4c.5 0 1 .5 1 1.2v5.6c0 .7-.5 1.2-1 1.2h-4c-.5 0-1-.5-1-1.2v-5.6zM33 33H22v-2h11v2zm3-3H22v-2h14v2z"/></g><g><path class="svg-icon14" d="M30 25v-5h1v4h4v1h-5zm4-5h1v3h-1v-3zm-2 1h1v2h-1v-2z"/></g><g><path class="svg-icon03" d="M23 20h4v1h-4v-1zm3 4h-3v-1h3v1z"/></g><g><path class="svg-icon04" d="M17 20c1 0 2 1 2 2h-2v-2zm-1 5c-1 0-2-1.2-2-2 0-1 1-2 2-2v2h2c0 1-1 2-2 2zm3 4h-5v-1h5v1zm0 3h-5v-1h5v1z"/></g><g><path class="svg-icon05" d="M11 12H37c.7 0 1.2.6 1.2 1.2V15H10v-1.8c0-.6.5-1.2 1-1.2z"/></g></svg>