<svg xmlns="http://www.w3.org/2000/svg" class="svg-bkgd09" viewBox="0 0 48 48"><g><path class="svg-shortcut" d="M28 42.5l-3 2.7v-1.7c-.4 0-1.4 0-2.5.6-1.3 1-1.5 1.6-1.5 1.6s-.4-1.2.8-2.7c1.2-1.6 2.6-1.7 3.2-1.6v-1.6l3 2.7z"/></g><g><path class="svg-cluster" d="M28.5 41.3c.6 0 1.2.5 1.2 1.2s-.6 1.2-1.2 1.2-1.2-.5-1.2-1.2.5-1.2 1.2-1.2zm-4 0c.6 0 1.2.5 1.2 1.2s-.6 1.2-1.2 1.2c-.7 0-1.2-.5-1.2-1.2s.5-1.2 1.2-1.2zm-4 0c.7 0 1.2.5 1.2 1.2s-.5 1.2-1.2 1.2-1.2-.5-1.2-1.2.5-1.2 1.2-1.2z"/></g><g><path class="svg-icon04" d="M14 12c1.7 0 3 1.3 3 3 0 1.6-1.3 3-3 3s-3-1.4-3-3c0-1.7 1.3-3 3-3zm0 9c1.7 0 3 1.3 3 3 0 1.6-1.3 3-3 3s-3-1.4-3-3c0-1.7 1.3-3 3-3zm0 9c1.7 0 3 1.3 3 3 0 1.6-1.3 3-3 3s-3-1.4-3-3c0-1.7 1.3-3 3-3zm20-18c1.7 0 3 1.3 3 3 0 1.6-1.3 3-3 3s-3-1.4-3-3c0-1.7 1.3-3 3-3zm0 9c1.7 0 3 1.3 3 3 0 1.6-1.3 3-3 3s-3-1.4-3-3c0-1.7 1.3-3 3-3zm0 9c1.7 0 3 1.3 3 3 0 1.6-1.3 3-3 3s-3-1.4-3-3c0-1.7 1.3-3 3-3z"/></g><g><path class="svg-icon10" d="M30 16v-3h-4v-2h-3v2h-4v3h4v10.3L19 24c0 1.2-.4 2.2-1 3l5 3v7h3v-5.4l3 1.7V33c0-1 .3-2 1-3l-4-2V16h4z"/></g></svg>