<svg xmlns="http://www.w3.org/2000/svg" class="svg-bkgd01" viewBox="0 0 48 48"><g><path class="svg-shortcut" d="M28 42.5l-3 2.7v-1.7c-.4 0-1.4 0-2.5.6-1.3 1-1.5 1.6-1.5 1.6s-.4-1.2.8-2.7c1.2-1.6 2.6-1.7 3.2-1.6v-1.6l3 2.7z"/></g><g><path class="svg-cluster" d="M28.5 41.3c.6 0 1.2.5 1.2 1.2s-.6 1.2-1.2 1.2-1.2-.5-1.2-1.2.5-1.2 1.2-1.2zm-4 0c.6 0 1.2.5 1.2 1.2s-.6 1.2-1.2 1.2c-.7 0-1.2-.5-1.2-1.2s.5-1.2 1.2-1.2zm-4 0c.7 0 1.2.5 1.2 1.2s-.5 1.2-1.2 1.2-1.2-.5-1.2-1.2.5-1.2 1.2-1.2z"/></g><g><path class="svg-icon17" d="M28 35l-2 2v1h-4v-1l-2-2v-3h-1v-1h10v1h-1v3zm-9-2h10v1H19v-1z"/></g><g><path class="svg-icon01" d="M28.4 29c.6-1.3-.2-.5.6-2 .5-1 1-2 1.4-2.5C32 23 33 20.8 33 19c0-5-4.5-9-9-9s-9 4-9 9c0 2.3 1 4 2.6 5.5.5.5 1 1.4 1.4 2.5.8 1.5 0 .7.6 2h8.8z"/></g></svg>