<svg xmlns="http://www.w3.org/2000/svg" class="svg-bkgd05" viewBox="0 0 48 48"><g><path class="svg-shortcut" d="M28 42.5l-3 2.7v-1.7c-.4 0-1.4 0-2.5.6-1.3 1-1.5 1.6-1.5 1.6s-.4-1.2.8-2.7c1.2-1.6 2.6-1.7 3.2-1.6v-1.6l3 2.7z"/></g><g><path class="svg-cluster" d="M28.5 41.3c.6 0 1.2.5 1.2 1.2s-.6 1.2-1.2 1.2-1.2-.5-1.2-1.2.5-1.2 1.2-1.2zm-4 0c.6 0 1.2.5 1.2 1.2s-.6 1.2-1.2 1.2c-.7 0-1.2-.5-1.2-1.2s.5-1.2 1.2-1.2zm-4 0c.7 0 1.2.5 1.2 1.2s-.5 1.2-1.2 1.2-1.2-.5-1.2-1.2.5-1.2 1.2-1.2z"/></g><g><path class="svg-icon03" d="M11.8 29l4.3 1.7.7-3.4A8 8 0 0 1 17 20a8 8 0 0 1 5.4-4l-1.6-2.4 2.7-2.6a9.7 9.7 0 0 0-2.2.3A13 13 0 0 0 11 24a12.7 12.7 0 0 0 .8 5zm13-13c7 .7 7.4 8 7.3 8l2.7-2 2.3 3.6s1.4-12-10.3-14.7l-3.4 2.5zm6.5 11.2a8 8 0 0 1-1.6 2.5 7 7 0 0 1-5 2.4 8 8 0 0 1-6.7-2.4l-.5 3.6-3.8-1.6a16.2 16.2 0 0 0 1 1.4 12.6 12.6 0 0 0 9.3 4c5 0 9-2 11.3-6.5a15 15 0 0 0 .8-2L34.4 25z"/></g><g><path class="svg-icon05" d="M20 24a4 4 0 0 0 4 4 4.2 4.2 0 0 0 4-4 4 4 0 1 0-8 0z"/></g></svg>