<svg xmlns="http://www.w3.org/2000/svg" class="svg-bkgd08" viewBox="0 0 48 48"><g><path class="svg-shortcut" d="M28 42.5l-3 2.7v-1.7c-.4 0-1.4 0-2.5.6-1.3 1-1.5 1.6-1.5 1.6s-.4-1.2.8-2.7c1.2-1.6 2.6-1.7 3.2-1.6v-1.6l3 2.7z"/></g><g><path class="svg-cluster" d="M28.5 41.3c.6 0 1.2.5 1.2 1.2s-.6 1.2-1.2 1.2-1.2-.5-1.2-1.2.5-1.2 1.2-1.2zm-4 0c.6 0 1.2.5 1.2 1.2s-.6 1.2-1.2 1.2c-.7 0-1.2-.5-1.2-1.2s.5-1.2 1.2-1.2zm-4 0c.7 0 1.2.5 1.2 1.2s-.5 1.2-1.2 1.2-1.2-.5-1.2-1.2.5-1.2 1.2-1.2z"/></g><g><path class="svg-icon02" d="M24 17l-11 8v12h22V25l-11-8zm-5 7c1 0 2 1 2 2s-1 2-2 2-2-1-2-2 1-2 2-2zm3.3 11h-6.8c-.2 0-.5-.8-.5-1v-4c0-.2.3-1 .5-1h1.3l2.2 2.3 2-2.4h1.3c.3 0 .7.5.7.7v4.6c0 .3-.4.7-.7.7zM29 24c1 0 2 1 2 2s-1 2-2 2-2-1-2-2 1-2 2-2zm3.3 11h-6.8c-.2 0-.5-.8-.5-1v-4c0-.2.3-1 .5-1h1.3l2.2 2.3 2-2.4h1.3c.3 0 .7.5.7.7v4.6c0 .3-.4.7-.7.7z"/></g><g><path class="svg-icon09" d="M10 21.2l13-8.5 1-.7 1.2.6L38 21.2 36.7 23 24 14.7 11.3 23 10 21.2z"/></g></svg>