<svg xmlns="http://www.w3.org/2000/svg" class="svg-bkgd11" viewBox="0 0 48 48"><g><path class="svg-shortcut" d="M28 42.5l-3 2.7v-1.7c-.4 0-1.4 0-2.5.6-1.3 1-1.5 1.6-1.5 1.6s-.4-1.2.8-2.7c1.2-1.6 2.6-1.7 3.2-1.6v-1.6l3 2.7z"/></g><g><path class="svg-cluster" d="M28.5 41.3c.6 0 1.2.5 1.2 1.2s-.6 1.2-1.2 1.2-1.2-.5-1.2-1.2.5-1.2 1.2-1.2zm-4 0c.6 0 1.2.5 1.2 1.2s-.6 1.2-1.2 1.2c-.7 0-1.2-.5-1.2-1.2s.5-1.2 1.2-1.2zm-4 0c.7 0 1.2.5 1.2 1.2s-.5 1.2-1.2 1.2-1.2-.5-1.2-1.2.5-1.2 1.2-1.2z"/></g><g><path class="svg-icon01" d="M16 11c-1.4 0-3 1.3-3 2v20h13c0 2 1 3 3 3s3-2 3-3V14c0-1.3 1.7-3 3-3H16zm12 16h-9v-2h9v2zm0-4H17v-2h11v2zm0-4H17v-2h11v2z"/></g><g><path class="svg-icon09" d="M28 38H13.6C12 38 10 37 10 35v-1h14s1 3.4 4 4zm8-25c1.3 0 2 2 2 2s.5 2-1 2h-3v-2c0-1.2.7-2 2-2z"/></g></svg>