<?xml version="1.0" encoding="utf-8"?>
<!-- Generator: Adobe Illustrator 16.0.0, SVG Export Plug-In . SVG Version: 6.00 Build 0)  -->
<!DOCTYPE svg PUBLIC "-//W3C//DTD SVG 1.1//EN" "http://www.w3.org/Graphics/SVG/1.1/DTD/svg11.dtd">
<svg version="1.1" id="collected" xmlns="http://www.w3.org/2000/svg" xmlns:xlink="http://www.w3.org/1999/xlink" x="0px" y="0px"
	 width="24px" height="24px" viewBox="0 0 24 24" enable-background="new 0 0 24 24" xml:space="preserve">
<g>
	<path fill-rule="evenodd" clip-rule="evenodd" fill="#878C90" d="M12.016,2.002c5.526,0,10.003,4.479,10.003,10.004
		c0,5.521-4.478,10-10.003,10c-5.525,0-10.004-4.479-10.004-10C2.012,6.481,6.491,2.002,12.016,2.002z"/>
</g>
<path fill-rule="evenodd" clip-rule="evenodd" fill="#FFFFFF" d="M18.402,7.977l-0.615-0.616c-0.339-0.34-0.891-0.34-1.231,0
	l-6.602,6.601l-2.703-2.703c-0.34-0.34-0.892-0.34-1.232,0l-0.615,0.616c-0.34,0.34-0.34,0.892,0,1.232l4.612,4.563l8.387-8.462
	C18.743,8.869,18.743,8.317,18.402,7.977z"/>
</svg>
