<?xml version="1.0" encoding="utf-8"?>
<!-- Generator: Adobe Illustrator 16.0.0, SVG Export Plug-In . SVG Version: 6.00 Build 0)  -->
<!DOCTYPE svg PUBLIC "-//W3C//DTD SVG 1.1//EN" "http://www.w3.org/Graphics/SVG/1.1/DTD/svg11.dtd">
<svg version="1.1" id="Layer_1_copy" xmlns="http://www.w3.org/2000/svg" xmlns:xlink="http://www.w3.org/1999/xlink" x="0px"
	 y="0px" width="24px" height="24px" viewBox="0 0 24 24" enable-background="new 0 0 24 24" xml:space="preserve">
<g>
	<path fill-rule="evenodd" clip-rule="evenodd" fill="#878C90" d="M12,2.011c5.526,0,10.004,4.479,10.004,10.004
		c0,5.52-4.478,10-10.004,10c-5.525,0-10.004-4.48-10.004-10C1.996,6.49,6.475,2.011,12,2.011z"/>
</g>
<path fill-rule="evenodd" clip-rule="evenodd" fill="#FFFFFF" d="M16.642,9.249c0.523-0.523,0.523-1.371,0-1.894
	c-0.521-0.523-1.369-0.523-1.893,0L12,10.102L9.252,7.354c-0.523-0.523-1.371-0.523-1.895,0c-0.522,0.523-0.522,1.371,0,1.894
	l2.749,2.748l-2.749,2.749c-0.522,0.523-0.522,1.371,0,1.895c0.523,0.521,1.371,0.521,1.895,0L12,13.89l2.749,2.75
	c0.523,0.521,1.371,0.521,1.893,0c0.523-0.523,0.523-1.371,0-1.895l-2.748-2.749L16.642,9.249z"/>
</svg>
