<?xml version="1.0" encoding="utf-8"?>
<!-- Generator: Adobe Illustrator 16.0.3, SVG Export Plug-In . SVG Version: 6.00 Build 0)  -->
<!DOCTYPE svg PUBLIC "-//W3C//DTD SVG 1.1//EN" "http://www.w3.org/Graphics/SVG/1.1/DTD/svg11.dtd">
<svg version="1.1" id="Layer_1" xmlns="http://www.w3.org/2000/svg" xmlns:xlink="http://www.w3.org/1999/xlink" x="0px" y="0px"
	 width="244px" height="124px" viewBox="0 0 244 124" enable-background="new 0 0 244 124" xml:space="preserve">
<g>
	<path opacity="0.2" fill="#79879E" enable-background="new    " d="M231.094,118.143H1.844v0.108c0,3.726,0.918,5.749,5.354,5.749
		h225.177C244,124,244,115.601,244,110.375V6.703c0-4.207-1.404-5.17-5.49-5.222v109.33
		C238.156,114.686,235.656,117.561,231.094,118.143z"/>
	<path opacity="0.2" fill="#79879E" enable-background="new    " d="M231.094,118.143H1.844v0.108c0,3.726,0.918,4.749,5.354,4.749
		h224.677c6.742,0,11.125-1.885,11.125-11.625V6.703c0-4.207-0.404-5.17-4.49-5.222v109.33
		C238.156,114.686,235.656,117.561,231.094,118.143z"/>
	<path opacity="0.2" fill="#79879E" enable-background="new    " d="M231.094,118.143H1.844v0.108c0,3.726,0.918,3.749,5.354,3.749
		h224.677C242.03,122,242,115.455,242,111.125V6.703c0-4.207,0.596-5.17-3.49-5.222c0,0-0.01,107.951,0,109.33
		C238.539,114.311,235.406,117.936,231.094,118.143z"/>
	<path opacity="0.2" fill="#79879E" enable-background="new    " d="M231.094,118.143H1.844v0.108c0,3.726,0.918,2.749,5.354,2.749
		h225.427c6.25,0,8.375-4.295,8.375-8.625V6.703c0-4.207,1.596-5.17-2.49-5.222v109.33
		C238.281,113.311,235.031,118.311,231.094,118.143z"/>
	<path opacity="0.2" fill="#79879E" enable-background="new    " d="M231.094,118.143H1.844v0.108c0,2.735,0.918,1.749,5.354,1.749
		h222.927c4.25,0,9.875-0.758,9.875-9.125V6.703c0-4.207,1.217-5.222-1.49-5.222v109.33
		C237.922,112.971,235.656,117.811,231.094,118.143z"/>
	<path opacity="0.4" fill="#79879E" enable-background="new    " d="M231.094,118.143H1.844v0.108c0,1.642,0.918,0.749,5.354,0.749
		h224.177c4.5,0,7.969-3.249,7.969-10.375V6.703c0-4.207,0.85-5.222-0.834-5.222v107.33
		C238.51,114.189,235.531,118.311,231.094,118.143z"/>
</g>
</svg>
