<?xml version="1.0" encoding="utf-8"?>
<!DOCTYPE svg PUBLIC "-//W3C//DTD SVG 1.1//EN" "http://www.w3.org/Graphics/SVG/1.1/DTD/svg11.dtd">
<svg id="Layer_1" xmlns:rdf="http://www.w3.org/1999/02/22-rdf-syntax-ns#" xmlns="http://www.w3.org/2000/svg" enable-background="new 0 0 99.925 100.007" xml:space="preserve" height="100.01px" viewBox="0 0 99.925 100.007" width="99.925px" version="1.1" y="0px" x="0px" xmlns:cc="http://creativecommons.org/ns#" xmlns:dc="http://purl.org/dc/elements/1.1/"><metadata id="metadata3033"><rdf:RDF><cc:Work rdf:about=""><dc:format>image/svg+xml</dc:format><dc:type rdf:resource="http://purl.org/dc/dcmitype/StillImage"/><dc:title/></cc:Work></rdf:RDF></metadata>
<g id="g3011">
	<g id="g3013">
		<path id="path3015" fill="#CCC" d="m12.346,18.949c0-3.541,3.6491-5.444,6.7741-5.443l66.551-0.66454c0-2.333,0.33227-1.6738,0.33227-3.2168,0-3.139-1.73-5.187-5.126-5.125l-71.751,0.0008c-3.203-0.001-5.125,1.495-5.125,5.125v71.75c0,2.772,1.281,5.125,5.125,5.125l3.22-0.11076z"/>
		<path id="path3017" fill="#999" d="m13.232,19.171c-0.14769-3.5379,3.0953-5.7763,6.2203-5.7753l65.548,1.523v-4.419c0-3.062-1.688-5.06-5.001-5h-69.998c-3.123-0.001-5,1.459-5,5v70c0,2.705,1.252,5,5.002,5h5.998z"/>
		<path id="path3019" fill="#FFF" d="m10.574,14.298c0.43-2.488,8.2283-5.2025,9.5623-5.1845l63.864,5.1685v-2.907c0-2.986-1.646-4.934-4.876-4.875h-68.248c-3.045-0.001-4.875,1.423-4.875,4.875v68.25c0,2.639,1.221,4.875,4.877,4.875h5.123z"/>
	</g>
	<g id="g3021">
		<path id="path3023" fill="#CCC" d="M16.001,90.5,12.9,17.953c-0.15123-3.5378,0.88018-4.558,4.0052-4.557l74.095,2.104h0.002v-1.375c0-3.139-1.73-5.187-5.126-5.125h-71.75c-3.203-0.001-5.125,1.495-5.125,5.125v71.75c0,2.772,1.281,5.125,5.125,5.125h1.891c-0.01-0.166-0.0088-0.33215-0.016-0.5z"/>
		<path id="path3025" fill="#999" d="m13.343,20.057c-0.13448-3.5384,0.10488-6.8839,3.2299-6.8829l73.408,2.2879c0-0.169,0.019-0.302,0.019-0.462,0-3.062-1.688-5.06-5.001-5h-69.998c-3.123-0.001-5,1.459-5,5v70c0,2.705,1.252,5,5.002,5h0.998z"/>
		<path id="path3027" fill="#FFF" d="m16.2,16.014,0.48147-0.42888,71.775-0.0024c-0.137-2.766-1.243-4.639-4.331-4.583h-68.247c-3.047-0.001-4.877,1.423-4.877,4.875v68.25c0,2.639,1.221,4.875,4.877,4.875h0.322z"/>
	</g>
</g>
</svg>
