<?xml version="1.0" encoding="utf-8"?>
<!-- Generator: Adobe Illustrator 16.0.0, SVG Export Plug-In . SVG Version: 6.00 Build 0)  -->
<!DOCTYPE svg PUBLIC "-//W3C//DTD SVG 1.1//EN" "http://www.w3.org/Graphics/SVG/1.1/DTD/svg11.dtd">
<svg version="1.1" id="Layer_1" xmlns="http://www.w3.org/2000/svg" xmlns:xlink="http://www.w3.org/1999/xlink" x="0px" y="0px"
	 width="320px" height="100px" viewBox="0 0 320 100" enable-background="new 0 0 320 100" xml:space="preserve">
<g id="g3011">
	<g id="g3013">
		<path id="path3015" fill="#CDCCCC" d="M15.346,20.951c0-3.541,3.649-5.444,6.774-5.443l285.427-0.665
			c0-2.333,0.332-1.674,0.332-3.217c0-3.139-1.73-5.187-5.127-5.125L12.126,6.502c-3.203-0.001-5.125,1.495-5.125,5.125v71.75
			c0,2.772,1.281,5.125,5.125,5.125l3.22-0.11V20.951z"/>
		<path id="path3017" fill="#989898" d="M16.232,21.172c-0.147-3.538,3.095-5.776,6.22-5.775l284.423,1.523v-4.419
			c0-3.062-1.688-5.06-5-5H13.001c-3.123-0.001-5,1.459-5,5v70c0,2.705,1.252,5,5.002,5h5.998L16.232,21.172z"/>
		<path id="path3019" fill="#FFFFFF" d="M13.574,16.299c0.43-2.488,8.228-5.202,9.562-5.184l282.739,5.168v-2.907
			c0-2.986-1.645-4.934-4.875-4.875H13.876C10.831,8.5,9.001,9.924,9.001,13.376v68.25c0,2.64,1.221,4.875,4.877,4.875h5.123
			L13.574,16.299z"/>
	</g>
	<g id="g3021">
		<path id="path3023" fill="#CDCCCC" d="M19.001,92.501L15.9,19.955c-0.151-3.538,0.88-4.558,4.005-4.557l292.97,2.104h0.002v-1.375
			c0-3.139-1.73-5.187-5.125-5.125H17.126c-3.203-0.001-5.125,1.495-5.125,5.125v71.75c0,2.772,1.281,5.125,5.125,5.125h1.891
			C19.007,92.835,19.008,92.669,19.001,92.501L19.001,92.501z"/>
		<path id="path3025" fill="#989898" d="M16.343,22.059c-0.134-3.539,0.105-6.884,3.23-6.883l292.283,2.288
			c0-0.169,0.02-0.302,0.02-0.462c0-3.062-1.688-5.06-5-5H18.001c-3.123-0.001-5,1.459-5,5v70c0,2.705,1.252,5,5.002,5h0.998
			L16.343,22.059z"/>
		<path id="path3027" fill="#FFFFFF" d="M19.2,18.016l0.481-0.429l290.65-0.003c-0.137-2.766-1.244-4.639-4.332-4.583H18.878
			c-3.047-0.001-4.877,1.423-4.877,4.875v68.25c0,2.639,1.221,4.875,4.877,4.875h0.322L19.2,18.016z"/>
	</g>
</g>
</svg>
