<svg xmlns="http://www.w3.org/2000/svg" viewBox="0 0 32 32"><g><path class="mobi03-icon12" d="M23.58 27H8.42A1.43 1.43 0 0 1 7 25.57V6.43A1.43 1.43 0 0 1 8.42 5h15.16A1.43 1.43 0 0 1 25 6.43v19.13A1.43 1.43 0 0 1 23.58 27zm-13.15-2.02h6.13a1.15 1.15 0 0 0 .44-1 1.1 1.1 0 0 0-.44-.96h-6.13a1.07 1.07 0 0 0-.4.96 1.14 1.14 0 0 0 .4 1zm-.4-3.93a1.07 1.07 0 0 0 .4.96h6.13a1.1 1.1 0 0 0 .44-.95 1.2 1.2 0 0 0-.44-1.04h-6.13a1.2 1.2 0 0 0-.4 1.05zM16 7a2 2 0 1 0 2 2 2 2 0 0 0-2-2zm3.97 5.8a.73.73 0 0 0-.75-.75h-1.64l-1.6 3.02-1.6-3.02h-1.64a.73.73 0 0 0-.75.74v4.5a.7.7 0 0 0 .75.7h6.47a.7.7 0 0 0 .76-.7v-4.5zM21.5 20h-3a1.25 1.25 0 0 0 0 2h3a1.25 1.25 0 0 0 0-2zm.04 3H18.5a1.2 1.2 0 0 0-.5 1 1.13 1.13 0 0 0 .5.98h3.03a1.13 1.13 0 0 0 .5-.97 1.2 1.2 0 0 0-.5-.98z"/></g></svg>