<svg xmlns="http://www.w3.org/2000/svg" viewBox="0 0 32 32"><g><path class="mobi03-icon12" d="M23.58 27H8.42A1.43 1.43 0 0 1 7 25.57V6.43A1.43 1.43 0 0 1 8.42 5h15.16A1.43 1.43 0 0 1 25 6.43v19.13A1.43 1.43 0 0 1 23.58 27zm-13.12-2.02h3.04a1.13 1.13 0 0 0 .5-.96 1.2 1.2 0 0 0-.5-1h-3.04a1.2 1.2 0 0 0-.5 1 1.13 1.13 0 0 0 .5.96zM10 21a1.2 1.2 0 0 0 .5 1h3a1.25 1.25 0 0 0 0-2h-3a1.2 1.2 0 0 0-.5 1zm6-14a2 2 0 1 0 2 2 2 2 0 0 0-2-2zm4 5.8a.73.73 0 0 0-.74-.75H17.6l-1.58 3.02-1.6-3.02h-1.64a.73.73 0 0 0-.75.74v4.5a.7.7 0 0 0 .75.7h6.47a.7.7 0 0 0 .76-.7v-4.5zm1.57 7.2h-6.13a1.2 1.2 0 0 0-.44 1.05 1.1 1.1 0 0 0 .44.96h6.13a1.07 1.07 0 0 0 .4-.95 1.2 1.2 0 0 0-.4-1.04zm0 3h-6.13A1.1 1.1 0 0 0 15 24a1.15 1.15 0 0 0 .44 1h6.13a1.14 1.14 0 0 0 .4-1 1.07 1.07 0 0 0-.4-.96z"/></g></svg>