<svg xmlns="http://www.w3.org/2000/svg" viewBox="0 0 32 32"><g><path class="mobi02-icon11" d="M16.27 27H7.63a1.36 1.36 0 0 1-1.58-1.25A2.12 2.12 0 0 1 7.1 24.2H6.06a1.5 1.5 0 0 1-1.58-1.56 1.53 1.53 0 0 1 1.57-1.55v-.53h-.52a1.32 1.32 0 0 1-1.57-1.4 1.48 1.48 0 0 1 1.57-1.7h.52v-.52h-.52a1.5 1.5 0 0 1-1.57-1.58v-.25c0-.92.15-2.13 1.72-2.13h6a1.54 1.54 0 0 0 0-1.44A16.98 16.98 0 0 0 9.98 9c-.2-.48-.03-3.56.95-4.16.4-.3.9-.07.9.73a5.54 5.54 0 0 0 1.3 2.8c1.04 1 6.84 4.45 6.84 6.2v10.1c0 1.45-1.74 2.32-3.7 2.32zM19 15.2c0-1.5-3.87-4.25-4.9-4.93-1.88-1.24-2.7-2.7-2.94-2.52-.85.5.6 1.65.76 2.05.12.3.8 1.3 1.16 2.24a1.36 1.36 0 0 1-1.34 1.92c-1.5.04-4.96 0-4.96 0-1.35 0-1.76.13-1.76.92v.2c0 1.2 2.1.14 2.2 2.4.06 1.37-2.24.42-2.24 1.63 0 .87 2.34-.08 2.18 2C7 22.15 6 22 5.7 22.45c-.76 1.08 2.33-.1 2.43 1.4s-.78.93-.78 1.64.37.47 1.1.47h7.4c1.7 0 3.2-.75 3.2-2L19 15.2z"/></g><g><path class="mobi02-icon03" d="M22.5 25.97a2.42 2.42 0 0 1-1.5-1.6V14h7v11.97h-5.5zM27 15h-5v8.56a2.1 2.1 0 0 0 1.22 1.42L27 25V15z"/></g></svg>