<svg xmlns="http://www.w3.org/2000/svg" viewBox="0 0 32 32"><g><path class="mobi03-icon05" d="M16 7a4 4 0 1 1-4 4 4 4 0 0 1 4-4zm4.5 18h-9a1.7 1.7 0 0 1-1.5-1.6v-6c0-.8 0-1.4 1.5-1.4H13l3 4 3-4h1.5c1.5 0 1.5.7 1.5 1.5v6a1.7 1.7 0 0 1-1.5 1.5z"/></g><g><path class="mobi03-icon11" d="M27 23h-3v-6.4l1.4-2.6H27a1 1 0 0 1 1 1v7a1 1 0 0 1-1 1zm-4.5-10a3.5 3.5 0 0 1-.8 0 5.8 5.8 0 0 0-1.4-6.2 3.5 3.5 0 1 1 2.2 6.2zM10 11a6 6 0 0 0 .3 2 3.5 3.5 0 1 1 1.4-6.2A6 6 0 0 0 10 11zm-2 5.6V23H5a1 1 0 0 1-1-1v-7a1 1 0 0 1 1-1h1.6z"/></g></svg>