<svg xmlns="http://www.w3.org/2000/svg" viewBox="0 0 32 32"><g><path class="mobi02-icon11" d="M13.13 8.36a5.54 5.54 0 0 1-1.3-2.8c0-.8-.5-1.03-.9-.72-.98.6-1.15 3.68-.96 4.15a16.98 16.98 0 0 1 1.7 2.56 1.54 1.54 0 0 1 0 1.43h-6c-1.56 0-1.7 1.2-1.7 2.12v.25a1.5 1.5 0 0 0 1.56 1.58h.52v.52h-.52a1.48 1.48 0 0 0-1.57 1.7 1.32 1.32 0 0 0 1.57 1.4h.52v.52a1.53 1.53 0 0 0-1.57 1.54 1.5 1.5 0 0 0 1.57 1.55H7.1a2.12 2.12 0 0 0-1.05 1.55A1.36 1.36 0 0 0 7.62 27h8.65c1.95 0 3.7-.88 3.7-2.34v-10.1c0-1.74-5.8-5.2-6.84-6.2z"/></g><g><path class="mobi02-icon03" d="M20.98 14v10.38a2.42 2.42 0 0 0 1.53 1.6H28v-12h-7.02z"/></g></svg>