<svg xmlns="http://www.w3.org/2000/svg" viewBox="0 0 32 32"><g><path class="mobi02-icon01" d="M25.6 16.82c-1.58-2.78-3.87 2-7.93-7.53-.7-1.64-3.6-2.86-5.65-2.74a2.07 2.07 0 0 0-.08-1.37 2.14 2.14 0 0 0-2.78-1.16 2.1 2.1 0 0 0-.23 3.78C7.4 9.18 5.9 12.07 6.6 13.72c3.92 9.58-.78 7.77.08 10.84l1.38 3.32a84.25 84.25 0 0 0 9.62-3.03 100.28 100.28 0 0 0 9.32-4.7zm-16-11.7a.97.97 0 0 1 1.27.5.95.95 0 0 1-.53 1.26.97.97 0 0 1-1.26-.52.95.95 0 0 1 .52-1.25zm6.77 21.76a2.08 2.08 0 0 0 2.6.83 2 2 0 0 0 1.1-2.4c-.4.25-3.1 1.38-3.7 1.58z"/></g></svg>